<svg width="28" height="27" viewBox="0 0 28 27" fill="none" xmlns="http://www.w3.org/2000/svg">
<path d="M2 4.90869V22.5C2.00099 23.3202 2.33243 24.1066 2.92161 24.6865C3.5108 25.2665 4.30962 25.5928 5.14286 25.5937H23.0131C23.8464 25.5928 24.6452 25.2665 25.2344 24.6865C25.8236 24.1066 26.155 23.3202 26.156 22.5V4.90869C26.155 4.08848 25.8236 3.30214 25.2344 2.72216C24.6452 2.14218 23.8464 1.81591 23.0131 1.81494H5.14286C4.30962 1.81591 3.5108 2.14218 2.92161 2.72216C2.33243 3.30214 2.00099 4.08848 2 4.90869ZM24.4417 4.90869V22.5C24.4413 22.8728 24.2907 23.2303 24.0229 23.4939C23.755 23.7576 23.3919 23.9059 23.0131 23.9062H5.14286C4.7641 23.9059 4.40097 23.7576 4.13314 23.4939C3.86532 23.2303 3.71468 22.8728 3.71429 22.5V4.90869C3.71468 4.53585 3.86532 4.17839 4.13314 3.91476C4.40097 3.65112 4.7641 3.50283 5.14286 3.50244H23.0131C23.3919 3.50283 23.755 3.65112 24.0229 3.91476C24.2907 4.17839 24.4413 4.53585 24.4417 4.90869Z" fill="#9A86E3"/>
<path d="M8.36254 14.5481H13.2197V19.3293C13.223 19.551 13.3147 19.7625 13.4751 19.918C13.6355 20.0736 13.8517 20.1608 14.0768 20.1608C14.302 20.1608 14.5182 20.0736 14.6785 19.918C14.8389 19.7624 14.9307 19.551 14.934 19.3293V14.5481H19.7911C20.0184 14.5481 20.2365 14.4592 20.3972 14.301C20.5579 14.1427 20.6483 13.9281 20.6483 13.7043C20.6483 13.4806 20.5579 13.266 20.3972 13.1077C20.2365 12.9495 20.0184 12.8606 19.7911 12.8606H14.934V8.07935C14.934 7.85557 14.8437 7.64096 14.6829 7.48272C14.5222 7.32449 14.3042 7.2356 14.0768 7.2356C13.8495 7.2356 13.6315 7.32449 13.4707 7.48272C13.31 7.64096 13.2197 7.85557 13.2197 8.07935V12.8606H8.36254C8.13738 12.8638 7.92255 12.9542 7.76449 13.112C7.60643 13.2699 7.51782 13.4827 7.51782 13.7043C7.51782 13.926 7.60643 14.1388 7.76449 14.2967C7.92255 14.4545 8.13738 14.5449 8.36254 14.5481Z" fill="#9A86E3"/>
</svg>
