<svg width="33" height="33" viewBox="0 0 33 33" fill="none" xmlns="http://www.w3.org/2000/svg">
<path d="M15.0073 11.606C15.0073 10.7062 14.2753 9.97455 13.3759 9.97455C12.4762 9.97455 11.7444 10.7062 11.7444 11.606C11.7444 12.5054 12.4762 13.2375 13.3759 13.2375C14.2753 13.2375 15.0073 12.5054 15.0073 11.606ZM12.6508 11.606C12.6508 11.2061 12.976 10.8809 13.3759 10.8809C13.7759 10.8809 14.101 11.2061 14.101 11.606C14.101 12.0055 13.7759 12.3311 13.3759 12.3311C12.976 12.3311 12.6508 12.0055 12.6508 11.606Z" fill="#D9532E"/>
<path d="M19.384 15.5009C19.384 16.4006 20.1159 17.1324 21.0155 17.1324C21.9147 17.1324 22.647 16.4006 22.647 15.5009C22.647 14.6013 21.9147 13.8694 21.0155 13.8694C20.1159 13.8694 19.384 14.6013 19.384 15.5009ZM21.0155 14.7758C21.4152 14.7758 21.7406 15.1009 21.7406 15.5009C21.7406 15.9005 21.4152 16.226 21.0155 16.226C20.6155 16.226 20.2904 15.9005 20.2904 15.5009C20.2904 15.1009 20.6155 14.7758 21.0155 14.7758Z" fill="#D9532E"/>
<path d="M11.0642 19.9792C11.0642 21.2541 12.1012 22.2911 13.3758 22.2911C14.6504 22.2911 15.6874 21.2541 15.6874 19.9792C15.6874 18.7046 14.6504 17.6678 13.3758 17.6678C12.1012 17.6678 11.0642 18.7046 11.0642 19.9792ZM13.3758 18.5742C14.1507 18.5742 14.7811 19.2046 14.7811 19.9792C14.7811 20.7542 14.1507 21.3847 13.3758 21.3847C12.6008 21.3847 11.9706 20.7542 11.9706 19.9792C11.9706 19.2044 12.6008 18.5742 13.3758 18.5742Z" fill="#D9532E"/>
<path d="M30.2645 14.7957C29.5255 14.7957 28.9247 15.2988 28.7249 15.974H26.7393C26.4833 15.1278 25.9873 14.724 25.8839 14.2686C25.7478 13.6703 26.2036 12.6996 25.8194 11.9036C25.4333 11.1027 24.3788 10.8431 24.0096 10.3807C23.8909 10.2321 23.8075 10.0083 23.7266 9.76877L27.2188 6.2767C27.5112 6.45253 27.8303 6.57689 28.1802 6.57689C28.6887 6.57689 29.1662 6.37893 29.5258 6.01941C30.2676 5.27775 30.2676 4.07046 29.5258 3.32857C28.7823 2.58522 27.5786 2.5851 26.8351 3.32857C26.2066 3.95687 26.1436 4.90384 26.5793 5.63426L23.3652 8.84837C23.0862 8.31156 22.7329 8.01584 21.9304 7.89983C21.6825 7.86405 21.4529 8.03578 21.4169 8.2834C21.3811 8.53114 21.5528 8.76088 21.8009 8.79689C22.4441 8.88995 22.5399 9.06784 22.8033 9.87451C23.1345 10.889 23.3229 11.122 24.2323 11.6654C25.1092 12.1896 25.1478 12.2888 25.016 13.278C24.8728 14.3531 24.9487 14.6429 25.5194 15.5073C26.0843 16.3645 26.0843 16.4903 25.5194 17.347C24.9468 18.2152 24.8735 18.5055 25.016 19.5767C25.148 20.5675 25.1074 20.666 24.2318 21.1893C23.323 21.7323 23.1345 21.9653 22.8033 22.9803C22.4885 23.9444 22.4033 24.0082 21.4017 24.1012C20.3356 24.1998 20.0669 24.333 19.3404 25.0925C18.6328 25.8323 18.526 25.8481 17.5977 25.5015C17.2245 25.3624 16.839 25.2187 16.4274 25.2187C15.6183 25.2187 14.8003 25.8184 14.309 25.7069C14.0447 25.647 13.7873 25.3776 13.5145 25.0925C12.79 24.335 12.523 24.2003 11.4532 24.1009C10.4512 24.0082 10.366 23.9441 10.0515 22.9799C9.71985 21.9652 9.53169 21.7323 8.62254 21.1891C7.74577 20.6649 7.70698 20.5661 7.83859 19.5766C7.98119 18.5066 7.9082 18.2154 7.33537 17.347C6.7704 16.4903 6.7704 16.3641 7.33537 15.5072C7.90807 14.6392 7.98131 14.3486 7.83859 13.2776C7.70698 12.2882 7.74577 12.1891 8.62278 11.6651C8.9579 11.4649 9.30449 11.2579 9.55356 10.9458C9.80384 10.6322 9.92977 10.247 10.0515 9.87415C10.1729 9.50253 10.2875 9.15147 10.4941 8.98651C10.6984 8.82312 11.0649 8.78928 11.4532 8.75327C12.5204 8.65429 12.7886 8.52099 13.5145 7.76194C14.2208 7.02342 14.3265 7.00554 15.2572 7.35286C16.2705 7.731 16.584 7.731 17.5977 7.35286C18.7401 6.92662 18.6607 7.11515 19.6052 8.03155C19.7846 8.20558 20.0716 8.20159 20.2457 8.02176C20.4202 7.84218 20.416 7.55516 20.2361 7.38078C20.1569 7.30428 20.0788 7.2221 19.9953 7.13521C19.0123 6.10799 18.5308 6.03753 17.2807 6.50389C17.1424 6.55525 17.0095 6.60275 16.8806 6.64263V4.12968C17.5555 3.92967 18.0587 3.32905 18.0587 2.58994C18.0587 1.69033 17.3267 0.958466 16.4272 0.958466C15.5276 0.958466 14.7958 1.69033 14.7958 2.58994C14.7958 3.32905 15.2989 3.92967 15.9741 4.12968V6.64263C15.8454 6.60275 15.7124 6.55525 15.5738 6.50389C14.3241 6.03753 13.8423 6.10787 12.8593 7.13533C12.637 7.36773 12.4271 7.58719 12.2187 7.68798C12.0026 7.79215 11.695 7.82055 11.3693 7.85076C10.4576 7.93536 9.90221 8.05367 9.48939 8.84837L6.95457 6.31355C7.42975 5.54012 7.36812 4.52812 6.69885 3.85861C5.91599 3.07551 4.64175 3.07551 3.85865 3.85861C2.23709 5.48042 4.21503 8.24352 6.31358 6.95454L9.12793 9.76877C8.91378 10.4019 8.83306 10.4836 8.15751 10.8871C6.95638 11.605 6.76049 12.0486 6.94019 13.3975C6.98357 13.7233 7.02454 14.0314 6.97052 14.2686C6.86708 14.724 6.37111 15.1277 6.11515 15.974H4.12971C3.9297 15.2988 3.32908 14.7957 2.58997 14.7957C1.69036 14.7957 0.958496 15.5276 0.958496 16.4272C0.958496 17.3267 1.69036 18.0587 2.58997 18.0587C3.32908 18.0587 3.9297 17.5555 4.12971 16.8804H6.11515C6.37111 17.7267 6.86708 18.1302 6.97077 18.5857C7.10672 19.1839 6.65088 20.1551 7.03494 20.9507C7.42129 21.7519 8.47571 22.0112 8.84514 22.4736C8.9637 22.6223 9.04696 22.8463 9.12793 23.0857L7.41102 24.8025C6.79251 24.4665 6.01158 24.5354 5.48927 25.0581C4.46084 26.0867 5.19923 27.8422 6.6429 27.8422C7.85357 27.8422 8.66266 26.568 8.05201 25.4434L9.48951 24.0059C10.162 25.3004 11.5113 24.8253 12.2187 25.1666C12.7534 25.4246 13.2314 26.3916 14.1083 26.5908C14.7617 26.7394 15.3899 26.3932 15.9741 26.2119V28.7249C15.2989 28.9246 14.7958 29.5255 14.7958 30.2645C14.7958 31.164 15.5276 31.896 16.4272 31.896C17.3267 31.896 18.0587 31.164 18.0587 30.2645C18.0587 29.5255 17.5555 28.9246 16.8804 28.7249V26.2119C17.4732 26.3955 18.0939 26.7393 18.7465 26.5908C19.6211 26.392 20.1053 25.4227 20.6358 25.1666C21.3519 24.8209 22.6887 25.3075 23.3652 24.0059L23.841 24.4822C24.0182 24.659 24.3051 24.659 24.4822 24.4822C24.6592 24.305 24.6592 24.018 24.4822 23.841L23.7266 23.0854C23.9408 22.4517 24.022 22.3706 24.697 21.9672C25.8979 21.2495 26.0941 20.8057 25.9143 19.4569C25.8016 18.6101 25.8248 18.5298 26.2756 17.8461C26.465 17.5592 26.633 17.2316 26.7391 16.8804H28.7245C28.9247 17.5555 29.5255 18.0587 30.2645 18.0587C31.164 18.0587 31.896 17.3267 31.896 16.4272C31.896 15.5276 31.164 14.7957 30.2645 14.7957ZM28.1802 3.6777C29.0658 3.6777 29.5083 4.75532 28.885 5.37866C28.4954 5.76792 27.8653 5.76804 27.4757 5.37866C26.8521 4.75508 27.295 3.6777 28.1802 3.6777ZM15.7022 2.58994C15.7022 2.19004 16.0274 1.86484 16.4272 1.86484C16.8273 1.86484 17.1523 2.19004 17.1523 2.58994C17.1523 2.98995 16.8273 3.31503 16.4272 3.31503C16.0274 3.31503 15.7022 2.98995 15.7022 2.58994ZM4.49975 6.05796C4.07001 5.62834 4.07001 4.92922 4.49975 4.49936C4.92925 4.06998 5.62837 4.06998 6.05799 4.49936C6.48773 4.92922 6.48773 5.62834 6.05799 6.05796C5.62837 6.4877 4.92925 6.48746 4.49975 6.05796ZM2.58997 17.1523C2.19007 17.1523 1.86487 16.8272 1.86487 16.4272C1.86487 16.0273 2.19007 15.7021 2.58997 15.7021C2.98998 15.7021 3.31506 16.0273 3.31506 16.4272C3.31506 16.8272 2.98998 17.1523 2.58997 17.1523ZM7.15566 26.7243C6.87263 27.0072 6.41268 27.0072 6.13001 26.7243C5.67284 26.2672 6.00107 25.487 6.64266 25.487C7.28401 25.487 7.6132 26.2668 7.15566 26.7243ZM17.1523 30.2645C17.1523 30.6645 16.8273 30.9896 16.4272 30.9896C16.0274 30.9896 15.7022 30.6645 15.7022 30.2645C15.7022 29.8646 16.0274 29.5394 16.4272 29.5394C16.8273 29.5394 17.1523 29.8646 17.1523 30.2645ZM30.2645 17.1523C29.8646 17.1523 29.5394 16.8272 29.5394 16.4272C29.5394 16.0273 29.8646 15.7021 30.2645 15.7021C30.6645 15.7021 30.9896 16.0273 30.9896 16.4272C30.9896 16.8272 30.6645 17.1523 30.2645 17.1523Z" fill="#D9532E"/>
<path d="M26.5625 25.9215L25.7889 25.1477C25.6115 24.9709 25.3247 24.9709 25.1477 25.1477C24.9706 25.3248 24.9706 25.6118 25.1477 25.7889L25.9215 26.5625C25.4608 27.3202 25.5227 28.3082 26.1771 28.9624C26.9468 29.7321 28.1927 29.7324 28.9624 28.9624C29.7321 28.1928 29.7321 26.9469 28.9624 26.1771C28.3081 25.5227 27.3203 25.4608 26.5625 25.9215ZM28.3215 28.3216C27.9061 28.7371 27.2338 28.7371 26.8181 28.3216C26.4037 27.9071 26.4037 27.2326 26.8181 26.8181C27.2326 26.4037 27.9069 26.4037 28.3215 26.8181C28.737 27.2336 28.7372 27.9061 28.3215 28.3216Z" fill="#D9532E"/>
</svg>
