<svg width="32" height="32" viewBox="0 0 32 32" fill="none" xmlns="http://www.w3.org/2000/svg">
<g clip-path="url(#clip0_1_1388)">
<path d="M27.3941 9.66872C25.7258 7.4448 22.8799 5.91813 19.4714 5.30324L18.1394 5.09521" stroke="#F3448F" stroke-width="1.5" stroke-linejoin="round"/>
<path d="M7.11621 28.0075C7.34188 28.2857 7.57603 28.5568 7.81867 28.8209L8.62699 29.7003C9.13103 30.2614 9.7465 30.7112 10.4341 31.021C11.1217 31.3309 11.8664 31.494 12.6206 31.5L15.8103 31.3103L19.366 31.5C20.1202 31.494 20.8648 31.3309 21.5524 31.021C22.24 30.7112 22.8555 30.2613 23.3596 29.7003L24.1679 28.8209C26.7477 25.9737 28.3804 22.396 28.8405 18.5815" stroke="#F3448F" stroke-width="1.5" stroke-linecap="round" stroke-linejoin="round"/>
<path d="M8.89891 6.39105C5.34341 7.96352 2.99341 10.7918 2.99341 14.4766L2.99362 16.1471C2.99288 17.9411 3.24131 19.7266 3.73178 21.4523" stroke="#F3448F" stroke-width="1.5" stroke-linejoin="round"/>
<path d="M19.4934 9.14645C18.5197 9.98412 17.2779 10.4448 15.9934 10.4448C14.709 10.4448 13.4671 9.98412 12.4934 9.14645" stroke="#F3448F" stroke-width="1.5" stroke-linecap="round" stroke-linejoin="round"/>
<path d="M16.0085 9.66072C15.9845 8.28584 16.4094 6.9406 17.2187 5.82888C18.028 4.71717 19.1776 3.89957 20.4934 3.5" stroke="#F3448F" stroke-width="1.5" stroke-linecap="round" stroke-linejoin="round"/>
<path d="M16.0085 9V5.72964C15.9934 4 14.9934 0 9.19803 1.03997C7.5292 1.3477 5.80678 1.15998 4.24341 0.5C4.24341 9.15184 15.9934 5.1832 15.9934 9" stroke="#F3448F" stroke-width="1.5" stroke-linecap="round" stroke-linejoin="round"/>
<path d="M2.95351 16.1042C0.968009 18.0464 0.114419 19.8207 0.692509 21.0655C1.89437 23.6535 9.16267 22.8285 16.9267 19.2229C24.6907 15.6172 30.0104 10.5963 28.8085 8.00826C28.3981 7.12449 27.4449 6.60931 25.9106 6.48776" stroke="#F3448F" stroke-width="1.5" stroke-linecap="round" stroke-linejoin="round"/>
<path d="M0.692383 21.0655L3.17811 26.418C4.37999 29.006 11.6483 28.181 19.4123 24.5754C27.1763 20.9697 32.496 15.9487 31.2941 13.3607L28.8084 8.00824" stroke="#F3448F" stroke-width="1.5" stroke-linecap="round" stroke-linejoin="round"/>
<path d="M27.6714 23.444L31.4849 27.2575L27.2424 31.5L24.3784 28.636" stroke="#F3448F" stroke-width="1.5" stroke-linecap="round" stroke-linejoin="round"/>
<path d="M5.802 25.381L7.297 27.982" stroke="#F3448F" stroke-width="1.5"/>
<path d="M10.5735 25.617L11.57 27.351" stroke="#F3448F" stroke-width="1.5"/>
<path d="M13.9771 23.562L15.4716 26.1635" stroke="#F3448F" stroke-width="1.5"/>
<path d="M18.1909 22.8285L19.1874 24.5625" stroke="#F3448F" stroke-width="1.5"/>
<path d="M21.2639 20.1745L22.7589 22.776" stroke="#F3448F" stroke-width="1.5"/>
<path d="M25.1274 18.8835L26.1239 20.6175" stroke="#F3448F" stroke-width="1.5"/>
<path d="M27.7466 15.3835L29.2411 17.985" stroke="#F3448F" stroke-width="1.5"/>
</g>
<defs>
<clipPath id="clip0_1_1388">
<rect width="32" height="32" fill="white"/>
</clipPath>
</defs>
</svg>
