<svg width="89" height="89" viewBox="0 0 89 89" fill="none" xmlns="http://www.w3.org/2000/svg">
<g clip-path="url(#clip0_1573_4443)">
<path d="M87.5158 19.2831V69.7165C87.5158 71.2901 86.8906 72.7993 85.7779 73.912C84.6652 75.0247 83.156 75.6498 81.5824 75.6498H7.41576C5.84214 75.6498 4.33297 75.0247 3.22026 73.912C2.10754 72.7993 1.48242 71.2901 1.48242 69.7165V19.2831L2.96576 17.7998H86.0324L87.5158 19.2831Z" fill="#48505B"/>
<path d="M87.5158 13.3498V19.2832H1.48242V13.3498C1.48242 11.7762 2.10754 10.2671 3.22026 9.15434C4.33297 8.04162 5.84214 7.4165 7.41576 7.4165H81.5824C83.156 7.4165 84.6652 8.04162 85.7779 9.15434C86.8906 10.2671 87.5158 11.7762 87.5158 13.3498Z" fill="#9A86E3"/>
<path d="M17.8005 4.45007C17.8005 2.81162 16.4723 1.4834 14.8339 1.4834C13.1954 1.4834 11.8672 2.81162 11.8672 4.45007V10.3834C11.8672 12.0218 13.1954 13.3501 14.8339 13.3501C16.4723 13.3501 17.8005 12.0218 17.8005 10.3834V4.45007Z" fill="#48505B"/>
<path d="M32.6345 4.45007C32.6345 2.81162 31.3063 1.4834 29.6678 1.4834C28.0294 1.4834 26.7012 2.81162 26.7012 4.45007V10.3834C26.7012 12.0218 28.0294 13.3501 29.6678 13.3501C31.3063 13.3501 32.6345 12.0218 32.6345 10.3834V4.45007Z" fill="#48505B"/>
<path d="M47.4665 4.45007C47.4665 2.81162 46.1383 1.4834 44.4999 1.4834C42.8614 1.4834 41.5332 2.81162 41.5332 4.45007V10.3834C41.5332 12.0218 42.8614 13.3501 44.4999 13.3501C46.1383 13.3501 47.4665 12.0218 47.4665 10.3834V4.45007Z" fill="#48505B"/>
<path d="M62.3005 4.45007C62.3005 2.81162 60.9723 1.4834 59.3339 1.4834C57.6954 1.4834 56.3672 2.81162 56.3672 4.45007V10.3834C56.3672 12.0218 57.6954 13.3501 59.3339 13.3501C60.9723 13.3501 62.3005 12.0218 62.3005 10.3834V4.45007Z" fill="#48505B"/>
<path d="M77.1345 4.45007C77.1345 2.81162 75.8063 1.4834 74.1678 1.4834C72.5294 1.4834 71.2012 2.81162 71.2012 4.45007V10.3834C71.2012 12.0218 72.5294 13.3501 74.1678 13.3501C75.8063 13.3501 77.1345 12.0218 77.1345 10.3834V4.45007Z" fill="#48505B"/>
<path d="M20.7663 78.6165C20.4738 78.6162 20.1879 78.5295 19.9445 78.3673C13.9934 74.3993 13.3496 66.8462 13.3496 63.7831C13.3496 50.8499 25.4284 43.5297 25.9416 43.2256C26.2791 43.0346 26.6779 42.9834 27.0526 43.0828C27.4274 43.1823 27.7484 43.4245 27.9467 43.7576C28.1451 44.0908 28.2051 44.4884 28.114 44.8652C28.0229 45.2421 27.7878 45.5683 27.4591 45.774C27.3478 45.8348 16.3163 52.5602 16.3163 63.7831C16.3163 66.3686 16.831 72.7261 21.5895 75.899C21.8544 76.0756 22.0554 76.3328 22.1629 76.6325C22.2704 76.9322 22.2785 77.2585 22.1862 77.5632C22.0939 77.8679 21.906 78.1348 21.6503 78.3245C21.3946 78.5142 21.0847 78.6165 20.7663 78.6165Z" fill="#66747F"/>
<path d="M73.8119 68.693C73.7122 68.6929 73.6127 68.6824 73.5152 68.6618C73.3243 68.6231 73.1429 68.5471 72.9814 68.4382C72.8198 68.3293 72.6813 68.1897 72.5738 68.0273C72.4662 67.8649 72.3916 67.6829 72.3544 67.4917C72.3172 67.3005 72.3179 67.1039 72.3567 66.913C72.5697 65.8832 72.679 64.8347 72.683 63.7831C72.683 52.5602 61.6515 45.8348 61.5402 45.774C61.2116 45.5683 60.9765 45.2421 60.8853 44.8652C60.7942 44.4884 60.8542 44.0908 61.0526 43.7576C61.251 43.4245 61.5719 43.1823 61.9467 43.0828C62.3214 42.9834 62.7203 43.0346 63.0577 43.2256C63.5709 43.5297 75.6497 50.8499 75.6497 63.7831C75.6454 65.0335 75.5156 66.2803 75.2626 67.5048C75.1946 67.8396 75.0131 68.1407 74.7488 68.3572C74.4845 68.5737 74.1535 68.6923 73.8119 68.693Z" fill="#66747F"/>
<path d="M44.5001 65.2669C55.15 65.2669 63.7835 56.6334 63.7835 45.9835C63.7835 35.3336 55.15 26.7002 44.5001 26.7002C33.8502 26.7002 25.2168 35.3336 25.2168 45.9835C25.2168 56.6334 33.8502 65.2669 44.5001 65.2669Z" fill="#9A86E3"/>
<path d="M54.8828 43.0167H47.4661V35.6C47.4661 35.2066 47.3099 34.8293 47.0317 34.5512C46.7535 34.273 46.3762 34.1167 45.9828 34.1167H43.0161C42.6227 34.1167 42.2454 34.273 41.9673 34.5512C41.6891 34.8293 41.5328 35.2066 41.5328 35.6V43.0167H34.1161C33.7227 43.0167 33.3454 43.173 33.0673 43.4512C32.7891 43.7293 32.6328 44.1066 32.6328 44.5V47.4667C32.6328 47.8601 32.7891 48.2374 33.0673 48.5156C33.3454 48.7938 33.7227 48.95 34.1161 48.95H41.5328V56.3667C41.5328 56.7601 41.6891 57.1374 41.9673 57.4156C42.2454 57.6938 42.6227 57.85 43.0161 57.85H45.9828C46.3762 57.85 46.7535 57.6938 47.0317 57.4156C47.3099 57.1374 47.4661 56.7601 47.4661 56.3667V48.95H54.8828C55.2762 48.95 55.6535 48.7938 55.9317 48.5156C56.2099 48.2374 56.3661 47.8601 56.3661 47.4667V44.5C56.3661 44.1066 56.2099 43.7293 55.9317 43.4512C55.6535 43.173 55.2762 43.0167 54.8828 43.0167Z" fill="white"/>
<path d="M25.2174 87.5164C29.3136 87.5164 32.6341 84.1959 32.6341 80.0998C32.6341 76.0037 29.3136 72.6831 25.2174 72.6831C21.1213 72.6831 17.8008 76.0037 17.8008 80.0998C17.8008 84.1959 21.1213 87.5164 25.2174 87.5164Z" fill="#66747F"/>
<path d="M68.4737 89.0001C67.8092 89.0009 67.164 88.7766 66.6433 88.3637L65.4789 87.447C65.3221 87.3279 65.1906 87.1788 65.092 87.0084C64.9935 86.838 64.9298 86.6496 64.9048 86.4543C64.8798 86.259 64.8938 86.0607 64.9463 85.8709C64.9987 85.6812 65.0883 85.5037 65.21 85.3489C65.3317 85.1942 65.483 85.0652 65.655 84.9695C65.8271 84.8738 66.0165 84.8133 66.2122 84.7915C66.4078 84.7698 66.6059 84.7872 66.7948 84.8428C66.9836 84.8983 67.1596 84.991 67.3123 85.1152L68.4767 86.0319L74.0451 78.7413C74.6509 77.9773 75.1002 77.1014 75.3671 76.1636C75.634 75.2259 75.7134 74.2447 75.6008 73.2762C75.4881 72.3077 75.1856 71.3709 74.7105 70.5195C74.2354 69.668 73.5971 68.9186 72.8321 68.3141C72.0671 67.7096 71.1904 67.2618 70.2522 66.9965C69.314 66.7311 68.3326 66.6534 67.3643 66.7677C66.396 66.882 65.4598 67.1861 64.6091 67.6626C63.7585 68.1391 63.0101 68.7786 62.4069 69.5447L56.84 76.8367L57.9925 77.7742C58.154 77.8917 58.2901 78.0407 58.3926 78.2121C58.4951 78.3835 58.562 78.5738 58.5891 78.7717C58.6163 78.9696 58.6032 79.1709 58.5507 79.3636C58.4982 79.5563 58.4073 79.7364 58.2834 79.8931C58.1596 80.0499 58.0054 80.1799 57.8301 80.2756C57.6547 80.3713 57.4619 80.4305 57.2631 80.4499C57.0643 80.4692 56.8637 80.4482 56.6732 80.3881C56.4827 80.328 56.3063 80.23 56.1547 80.1001L54.9902 79.1819C54.3723 78.6951 53.9731 77.9829 53.8802 77.2019C53.7872 76.4208 54.0083 75.6348 54.4948 75.0167L60.0632 67.7231C61.7655 65.5578 64.2582 64.1574 66.993 63.83C69.7278 63.5026 72.4806 64.275 74.6459 65.9772C76.8112 67.6795 78.2116 70.1722 78.539 72.907C78.8664 75.6418 78.094 78.3946 76.3918 80.5599L70.8248 87.852C70.584 88.1632 70.2835 88.4232 69.941 88.6168C69.5984 88.8104 69.2206 88.9336 68.8297 88.9793C68.7116 88.9929 68.5927 88.9999 68.4737 89.0001Z" fill="#66747F"/>
</g>
<defs>
<clipPath id="clip0_1573_4443">
<rect width="89" height="89" fill="white"/>
</clipPath>
</defs>
</svg>
