<svg width="184" height="128" viewBox="0 0 184 128" fill="none" xmlns="http://www.w3.org/2000/svg">
<g clip-path="url(#clip0_1484_8140)">
<path d="M184 13.4905H0V128.16H184V13.4905Z" fill="#141921"/>
<path d="M46.0375 35.5814H12.3379V57.5035H46.0375V35.5814Z" fill="#48505B"/>
<path d="M87.9125 35.5814H54.2129V57.5035H87.9125V35.5814Z" fill="#48505B"/>
<path d="M129.788 35.5814H96.0879V57.5035H129.788V35.5814Z" fill="#48505B"/>
<path d="M171.661 35.5814H137.961V57.5035H171.661V35.5814Z" fill="#48505B"/>
<path d="M46.0375 66.6097H12.3379V88.5318H46.0375V66.6097Z" fill="#48505B"/>
<path d="M87.9125 66.6097H54.2129V88.5318H87.9125V66.6097Z" fill="#48505B"/>
<path d="M129.788 66.6097H96.0879V88.5318H129.788V66.6097Z" fill="#48505B"/>
<path d="M171.661 66.6097H137.961V88.5318H171.661V66.6097Z" fill="#48505B"/>
<path d="M46.0375 97.6379H12.3379V119.56H46.0375V97.6379Z" fill="#48505B"/>
<path d="M87.9125 97.6379H54.2129V119.56H87.9125V97.6379Z" fill="#48505B"/>
<path d="M129.788 97.6379H96.0879V119.56H129.788V97.6379Z" fill="#48505B"/>
<path d="M171.661 97.6379H137.961V119.56H171.661V97.6379Z" fill="#48505B"/>
<path d="M162.433 46.5424C162.431 48.3739 161.769 50.1433 160.568 51.5254C159.368 52.9076 157.709 53.8096 155.897 54.0658C154.085 54.3219 152.241 53.9151 150.705 52.9199C149.168 51.9248 148.042 50.4082 147.534 48.6489C147.025 46.8895 147.168 45.0055 147.936 43.3431C148.704 41.6807 150.046 40.3516 151.715 39.5999C153.384 38.8482 155.267 38.7245 157.02 39.2515C158.773 39.7784 160.277 40.9207 161.255 42.4683C162.026 43.6871 162.434 45.1001 162.433 46.5424Z" fill="#9A86E3"/>
<path d="M161.254 42.4684L153.752 49.9745C153.281 49.244 150.654 45.8491 150.654 45.8491C150.991 45.5086 151.35 45.1913 151.73 44.8993L153.908 47.8057L160.376 41.3327C160.704 41.6826 160.998 42.0629 161.254 42.4684Z" fill="#48505B"/>
<path d="M78.6829 77.5707C78.6812 79.4023 78.0191 81.1716 76.8183 82.5537C75.6175 83.9359 73.9587 84.8379 72.1466 85.0941C70.3346 85.3503 68.491 84.9434 66.9546 83.9483C65.4183 82.9531 64.2924 81.4365 63.7838 79.6772C63.2752 77.9178 63.418 76.0338 64.1861 74.3715C64.9542 72.7091 66.296 71.3799 67.9648 70.6282C69.6336 69.8766 71.5174 69.7528 73.2701 70.2798C75.0228 70.8067 76.5266 71.949 77.5052 73.4967C78.2758 74.7154 78.6843 76.1284 78.6829 77.5707Z" fill="#9A86E3"/>
<path d="M77.506 73.4967L70.0044 81.0028C69.5329 80.2723 66.9062 76.8774 66.9062 76.8774C67.2429 76.5369 67.6021 76.2195 67.9815 75.9275L70.1596 78.834L76.6275 72.361C76.9555 72.7109 77.2496 73.0912 77.506 73.4967Z" fill="#48505B"/>
<path d="M36.81 77.5708C36.8082 79.4023 36.1461 81.1717 34.9453 82.5538C33.7445 83.9359 32.0857 84.838 30.2736 85.0941C28.4615 85.3503 26.618 84.9435 25.0816 83.9483C23.5452 82.9532 22.4193 81.4366 21.9107 79.6772C21.4021 77.9178 21.545 76.0339 22.3131 74.3715C23.0812 72.7091 24.4229 71.3799 26.0918 70.6282C27.7606 69.8765 29.6444 69.7528 31.3971 70.2798C33.1498 70.8068 34.6536 71.949 35.6322 73.4967C36.4029 74.7155 36.8113 76.1285 36.81 77.5708Z" fill="#9A86E3"/>
<path d="M35.631 73.4967L28.1294 81.0028C27.6579 80.2723 25.0312 76.8774 25.0312 76.8774C25.3679 76.5369 25.7271 76.2195 26.1065 75.9275L28.2846 78.834L34.7525 72.361C35.0805 72.7109 35.3747 73.0912 35.631 73.4967Z" fill="#48505B"/>
</g>
<defs>
<clipPath id="clip0_1484_8140">
<rect width="184" height="128" fill="white"/>
</clipPath>
</defs>
</svg>
