<svg width="184" height="128" viewBox="0 0 184 128" fill="none" xmlns="http://www.w3.org/2000/svg">
<g clip-path="url(#clip0_1484_8185)">
<path d="M184 13.4905H0V128.16H184V13.4905Z" fill="#141921"/>
<path d="M46.0375 35.5814H12.3379V57.5035H46.0375V35.5814Z" fill="#48505B"/>
<path d="M87.9125 35.5814H54.2129V57.5035H87.9125V35.5814Z" fill="#48505B"/>
<path d="M129.788 35.5814H96.0879V57.5035H129.788V35.5814Z" fill="#48505B"/>
<path d="M171.661 35.5814H137.961V57.5035H171.661V35.5814Z" fill="#48505B"/>
<path d="M46.0375 66.6097H12.3379V88.5318H46.0375V66.6097Z" fill="#48505B"/>
<path d="M87.9125 66.6097H54.2129V88.5318H87.9125V66.6097Z" fill="#48505B"/>
<path d="M129.788 66.6097H96.0879V88.5318H129.788V66.6097Z" fill="#48505B"/>
<path d="M171.661 66.6097H137.961V88.5318H171.661V66.6097Z" fill="#48505B"/>
<path d="M46.0375 97.6379H12.3379V119.56H46.0375V97.6379Z" fill="#48505B"/>
<path d="M87.9125 97.6379H54.2129V119.56H87.9125V97.6379Z" fill="#48505B"/>
<path d="M129.788 97.6379H96.0879V119.56H129.788V97.6379Z" fill="#48505B"/>
<path d="M171.661 97.6379H137.961V119.56H171.661V97.6379Z" fill="#48505B"/>
<g clip-path="url(#clip1_1484_8185)">
<path d="M29.5 85C33.6422 85 37 81.6422 37 77.5C37 73.3579 33.6422 70 29.5 70C25.3579 70 22 73.3579 22 77.5C22 81.6422 25.3579 85 29.5 85Z" fill="#E24C4B" fill-opacity="0.5"/>
<path d="M37 77.5C37 81.6251 33.625 85.0001 29.5 85.0001C27.1094 85.0001 25 83.9219 23.6406 82.1876C24.9063 83.2188 26.5469 83.8282 28.3281 83.8282C32.4531 83.8282 35.8281 80.4532 35.8281 76.3282C35.8281 74.5469 35.2188 72.9063 34.1875 71.6407C35.9219 73 37 75.1094 37 77.5Z" fill="#D1403F" fill-opacity="0.5"/>
<path d="M32.9219 80.9219C32.6406 81.2032 32.1718 81.2032 31.8906 80.9219L29.5 78.5313L27.1094 80.9219C26.8281 81.2032 26.3594 81.2032 26.0781 80.9219C25.7969 80.6407 25.7969 80.1719 26.0781 79.8907L28.4687 77.5L26.0781 75.1094C25.7969 74.8282 25.7969 74.3594 26.0781 74.0782C26.3594 73.7969 26.8281 73.7969 27.1094 74.0782L29.5 76.4688L31.8906 74.0782C32.1718 73.7969 32.6406 73.7969 32.9219 74.0782C33.2031 74.3594 33.2031 74.8282 32.9219 75.1094L30.5312 77.5L32.9219 79.8907C33.2031 80.1719 33.2031 80.6406 32.9219 80.9219Z" fill="white"/>
</g>
<g clip-path="url(#clip2_1484_8185)">
<path d="M71.5 85C75.6422 85 79 81.6422 79 77.5C79 73.3579 75.6422 70 71.5 70C67.3579 70 64 73.3579 64 77.5C64 81.6422 67.3579 85 71.5 85Z" fill="#E24C4B" fill-opacity="0.5"/>
<path d="M79 77.5C79 81.6251 75.625 85.0001 71.5 85.0001C69.1094 85.0001 67 83.9219 65.6406 82.1876C66.9063 83.2188 68.5469 83.8282 70.3281 83.8282C74.4531 83.8282 77.8281 80.4532 77.8281 76.3282C77.8281 74.5469 77.2188 72.9063 76.1875 71.6407C77.9219 73 79 75.1094 79 77.5Z" fill="#D1403F" fill-opacity="0.5"/>
<path d="M74.9219 80.9219C74.6406 81.2032 74.1718 81.2032 73.8906 80.9219L71.5 78.5313L69.1094 80.9219C68.8281 81.2032 68.3594 81.2032 68.0781 80.9219C67.7969 80.6407 67.7969 80.1719 68.0781 79.8907L70.4687 77.5L68.0781 75.1094C67.7969 74.8282 67.7969 74.3594 68.0781 74.0782C68.3594 73.7969 68.8281 73.7969 69.1094 74.0782L71.5 76.4688L73.8906 74.0782C74.1718 73.7969 74.6406 73.7969 74.9219 74.0782C75.2031 74.3594 75.2031 74.8282 74.9219 75.1094L72.5312 77.5L74.9219 79.8907C75.2031 80.1719 75.2031 80.6406 74.9219 80.9219Z" fill="white"/>
</g>
<g clip-path="url(#clip3_1484_8185)">
<path d="M154.5 54C158.642 54 162 50.6422 162 46.5C162 42.3579 158.642 39 154.5 39C150.358 39 147 42.3579 147 46.5C147 50.6422 150.358 54 154.5 54Z" fill="#E24C4B" fill-opacity="0.5"/>
<path d="M162 46.5C162 50.6251 158.625 54.0001 154.5 54.0001C152.109 54.0001 150 52.9219 148.641 51.1876C149.906 52.2188 151.547 52.8282 153.328 52.8282C157.453 52.8282 160.828 49.4532 160.828 45.3282C160.828 43.5469 160.219 41.9063 159.188 40.6407C160.922 42 162 44.1094 162 46.5Z" fill="#D1403F" fill-opacity="0.5"/>
<path d="M157.922 49.9219C157.641 50.2032 157.172 50.2032 156.891 49.9219L154.5 47.5313L152.109 49.9219C151.828 50.2032 151.359 50.2032 151.078 49.9219C150.797 49.6407 150.797 49.1719 151.078 48.8907L153.469 46.5L151.078 44.1094C150.797 43.8282 150.797 43.3594 151.078 43.0782C151.359 42.7969 151.828 42.7969 152.109 43.0782L154.5 45.4688L156.891 43.0782C157.172 42.7969 157.641 42.7969 157.922 43.0782C158.203 43.3594 158.203 43.8282 157.922 44.1094L155.531 46.5L157.922 48.8907C158.203 49.1719 158.203 49.6406 157.922 49.9219Z" fill="white"/>
</g>
</g>
<defs>
<clipPath id="clip0_1484_8185">
<rect width="184" height="128" fill="white"/>
</clipPath>
<clipPath id="clip1_1484_8185">
<rect width="15" height="15" fill="white" transform="translate(22 70)"/>
</clipPath>
<clipPath id="clip2_1484_8185">
<rect width="15" height="15" fill="white" transform="translate(64 70)"/>
</clipPath>
<clipPath id="clip3_1484_8185">
<rect width="15" height="15" fill="white" transform="translate(147 39)"/>
</clipPath>
</defs>
</svg>
