<svg width="93" height="93" viewBox="0 0 93 93" fill="none" xmlns="http://www.w3.org/2000/svg">
<rect x="8.53125" y="34.9814" width="76.789" height="51.1927" fill="#9A86E3"/>
<rect x="47.7793" y="34.9814" width="37.5413" height="51.1927" fill="white"/>
<path d="M4.09587 32.2232C3.91807 32.2232 3.75395 32.1958 3.58984 32.1274V83.4676C3.58984 86.5598 6.10635 89.0626 9.18356 89.0626H83.7886C86.8932 89.0626 89.4096 86.5598 89.4096 83.4676V32.1274C89.2455 32.1958 89.0677 32.2232 88.8899 32.2232H4.09587ZM24.1619 80.3329C24.1619 81.3368 23.3495 82.1492 22.3457 82.1492H15.1573C14.1535 82.1492 13.3411 81.3368 13.3411 80.3329V73.1432C13.3411 72.1407 14.1535 71.3269 15.1573 71.3269H22.3457C23.3495 71.3269 24.1619 72.1407 24.1619 73.1432V80.3329ZM24.1619 63.6107C24.1619 64.6146 23.3495 65.4269 22.3457 65.4269H15.1573C14.1535 65.4269 13.3411 64.6146 13.3411 63.6107V56.421C13.3411 55.4185 14.1535 54.6061 15.1573 54.6061H22.3457C23.3495 54.6061 24.1619 55.4185 24.1619 56.421V63.6107ZM24.1619 46.8885C24.1619 47.8924 23.3495 48.7047 22.3457 48.7047H15.1573C14.1535 48.7047 13.3411 47.8924 13.3411 46.8885V39.6988C13.3411 38.6963 14.1535 37.8825 15.1573 37.8825H22.3457C23.3495 37.8825 24.1619 38.6963 24.1619 39.6988V46.8885ZM45.0706 80.3329C45.0706 81.3368 44.2567 82.1492 43.2544 82.1492H36.0645C35.0607 82.1492 34.2483 81.3368 34.2483 80.3329V73.1432C34.2483 72.1407 35.0607 71.3269 36.0645 71.3269H43.2544C44.2567 71.3269 45.0706 72.1407 45.0706 73.1432V80.3329ZM45.0719 63.6107C45.0719 64.6146 44.2582 65.4269 43.2557 65.4269H36.066C35.0622 65.4269 34.2498 64.6146 34.2498 63.6107V56.421C34.2498 55.4185 35.0622 54.6061 36.066 54.6061H43.2557C44.2582 54.6061 45.0719 55.4185 45.0719 56.421V63.6107ZM45.0719 46.8885C45.0719 47.8924 44.2582 48.7047 43.2557 48.7047H36.066C35.0622 48.7047 34.2498 47.8924 34.2498 46.8885V39.6988C34.2498 38.6963 35.0622 37.8825 36.066 37.8825H43.2557C44.2582 37.8825 45.0719 38.6963 45.0719 39.6988V46.8885ZM81.4405 64.6241H70.9369V75.1277H62.4931V64.6241H51.9895V56.1803H62.4931V45.6768H70.9369V56.1803H81.4405V64.6241Z" fill="#48505B"/>
<path d="M83.7887 14.1831H79.4532V19.8863C79.4532 22.7583 77.1146 25.1107 74.2287 25.1107C71.3567 25.1107 69.0043 22.7583 69.0043 19.8863V14.1831H51.7173V19.8863C51.7173 22.7583 49.3786 25.1107 46.4929 25.1107C43.6207 25.1107 41.2684 22.7583 41.2684 19.8863V14.1831H23.9813V19.8863C23.9813 22.7583 21.6427 25.1107 18.757 25.1107C15.885 25.1107 13.5325 22.7583 13.5325 19.8863V14.1831H9.18347C6.10627 14.1831 3.58984 16.6997 3.58984 19.8043V30.677C3.58984 30.9642 3.82232 31.1966 4.09587 31.1966H88.89C89.1771 31.1966 89.4097 30.9642 89.4097 30.677V19.8043C89.4097 16.6997 86.8931 14.1831 83.7887 14.1831Z" fill="#9A86E3"/>
<path d="M18.7632 24.0828C21.0882 24.0828 22.9618 22.1956 22.9618 19.8843V8.1361C22.9618 6.97364 22.4969 5.93421 21.7309 5.16842C20.9788 4.40245 19.9257 3.9375 18.7632 3.9375C16.4518 3.9375 14.5645 5.82486 14.5645 8.1361V19.8843C14.5645 22.1956 16.4518 24.0828 18.7632 24.0828Z" fill="#48505B"/>
<path d="M46.4996 24.0828C48.8245 24.0828 50.6982 22.1956 50.6982 19.8843V8.1361C50.6982 6.97364 50.2332 5.93421 49.4672 5.16842C48.7151 4.40245 47.662 3.9375 46.4996 3.9375C44.1881 3.9375 42.3008 5.82486 42.3008 8.1361V19.8843C42.3008 22.1956 44.1881 24.0828 46.4996 24.0828Z" fill="#48505B"/>
<path d="M74.2359 24.0828C76.5608 24.0828 78.4345 22.1956 78.4345 19.8843V8.1361C78.4345 6.97364 77.968 5.93421 77.2036 5.16842C76.4515 4.40245 75.3983 3.9375 74.2359 3.9375C71.9245 3.9375 70.0371 5.82486 70.0371 8.1361V19.8843C70.0371 22.1956 71.9245 24.0828 74.2359 24.0828Z" fill="#48505B"/>
</svg>
