<svg width="20" height="20" viewBox="0 0 20 20" fill="none" xmlns="http://www.w3.org/2000/svg">
<path fill-rule="evenodd" clip-rule="evenodd" d="M9.19112 3.30778C9.30816 3.42497 9.3739 3.58382 9.3739 3.74945C9.3739 3.91508 9.30816 4.07393 9.19112 4.19112L4.00778 9.37445H17.4995C17.6652 9.37445 17.8242 9.4403 17.9414 9.55751C18.0586 9.67472 18.1245 9.83369 18.1245 9.99945C18.1245 10.1652 18.0586 10.3242 17.9414 10.4414C17.8242 10.5586 17.6652 10.6244 17.4995 10.6244H4.00778L9.19112 15.8078C9.25252 15.865 9.30177 15.934 9.33593 16.0107C9.37009 16.0873 9.38846 16.1701 9.38994 16.254C9.39142 16.3379 9.37599 16.4213 9.34455 16.4991C9.31312 16.5769 9.26633 16.6476 9.20698 16.707C9.14763 16.7663 9.07694 16.8131 8.99911 16.8446C8.92129 16.876 8.83793 16.8914 8.75402 16.8899C8.6701 16.8885 8.58733 16.8701 8.51067 16.8359C8.434 16.8018 8.365 16.7525 8.30778 16.6911L2.05778 10.4411C1.94074 10.3239 1.875 10.1651 1.875 9.99945C1.875 9.83382 1.94074 9.67497 2.05778 9.55778L8.30778 3.30778C8.42497 3.19074 8.58382 3.125 8.74945 3.125C8.91508 3.125 9.07393 3.19074 9.19112 3.30778Z" fill="#F3F3F3"/>
</svg>
