<svg width="33" height="33" viewBox="0 0 33 33" fill="none" xmlns="http://www.w3.org/2000/svg">
<path d="M32.3603 6.63198C32.3582 6.63198 32.356 6.63198 32.3539 6.63198H30.1855V5.88997C30.1972 5.59629 30.0072 5.33235 29.7249 5.25031C28.2195 4.85581 26.6693 4.65799 25.113 4.66183C22.5544 4.66183 19.0682 5.23752 16.4904 7.86012C13.9318 5.21194 10.42 4.66183 7.8678 4.66183C6.31151 4.65799 4.7613 4.85581 3.25586 5.25031C2.97361 5.33235 2.78364 5.59629 2.79531 5.88997V6.62558H0.639659C0.286407 6.62558 0 6.91199 0 7.26524V27.6959C0 28.0492 0.286407 28.3356 0.639659 28.3356C0.74952 28.3353 0.857463 28.3067 0.953092 28.2524C1.01706 28.2205 7.41365 24.7215 16.3433 26.9731H16.4392H16.4968C16.5478 26.9793 16.5993 26.9793 16.6503 26.9731C25.6055 24.7023 32.0021 28.1949 32.0405 28.2524C32.2384 28.3667 32.4823 28.3667 32.6802 28.2524C32.8769 28.1389 32.9986 27.9295 33 27.7023V7.27164C33 6.91839 32.7137 6.63198 32.3603 6.63198ZM1.27932 26.6789V7.9113H2.8081V23.9539C2.8041 24.3072 3.08723 24.5968 3.44049 24.6008C3.47503 24.6012 3.50957 24.5988 3.54371 24.5936C4.867 24.3915 6.20301 24.2846 7.54158 24.2738C9.39579 24.2416 11.2422 24.5205 13.0043 25.0989C9.02519 24.6177 4.9891 25.1616 1.27932 26.6789ZM7.54158 23.0008C6.37812 23.0035 5.21602 23.0782 4.06183 23.2247V6.3953C5.30725 6.11785 6.57905 5.97625 7.85501 5.97313C10.2473 5.97313 13.548 6.52324 15.838 9.10746L15.8571 25.0414C14.5267 24.1714 11.9296 23.0008 7.54158 23.0008ZM17.1365 9.10746C19.4264 6.54882 22.7271 5.97313 25.1194 5.97313C26.3953 5.97689 27.6671 6.11841 28.9126 6.3953V23.2247C27.7649 23.0769 26.6092 23 25.452 22.9945C21.0896 22.9945 18.4861 24.165 17.1365 25.035V9.10746ZM31.7143 26.6789C27.9966 25.1575 23.9512 24.6135 19.9638 25.0989C21.7341 24.5184 23.5893 24.2395 25.452 24.2738C26.799 24.2813 28.1436 24.386 29.4755 24.5872C29.8247 24.6402 30.1509 24.4 30.2039 24.0508C30.2091 24.0166 30.2115 23.9821 30.2111 23.9475V7.9113H31.7399L31.7143 26.6789Z" fill="#B8BF4F"/>
</svg>
