<svg width="26" height="26" viewBox="0 0 26 26" fill="none" xmlns="http://www.w3.org/2000/svg">
<path fill-rule="evenodd" clip-rule="evenodd" d="M19.6843 12.1875C17.8903 12.1875 16.4343 13.6435 16.4343 15.4375C16.4343 17.2315 17.8903 18.6875 19.6843 18.6875C21.4783 18.6875 22.9343 17.2315 22.9343 15.4375C22.9343 13.6435 21.4783 12.1875 19.6843 12.1875ZM19.6843 13.8125C20.5813 13.8125 21.3093 14.5405 21.3093 15.4375C21.3093 16.3345 20.5813 17.0625 19.6843 17.0625C18.7873 17.0625 18.0593 16.3345 18.0593 15.4375C18.0593 14.5405 18.7873 13.8125 19.6843 13.8125Z" fill="#66747F"/>
<path fill-rule="evenodd" clip-rule="evenodd" d="M16.6043 24.6458C18.2509 24.6458 21.125 24.6458 22.7717 24.6317C23.3794 24.6317 23.9558 24.3306 24.3078 23.8258C24.6599 23.3209 24.7423 22.6763 24.5299 22.0989C23.8225 20.1153 21.9191 18.6875 19.6842 18.6875C17.4525 18.6875 15.5502 20.111 14.8243 22.0946C14.6098 22.6763 14.6933 23.3263 15.0486 23.8344C15.4028 24.3436 15.9846 24.6458 16.6043 24.6458ZM16.6043 23.0208C16.5154 23.0208 16.432 22.9775 16.3811 22.9049C16.3302 22.8323 16.3183 22.7392 16.3486 22.6558C16.3497 22.6558 16.3497 22.6547 16.3497 22.6547C16.848 21.2929 18.1523 20.3125 19.6842 20.3125C21.2138 20.3125 22.516 21.2897 23.0024 22.6525C23.0035 22.6558 23.0035 22.659 23.0046 22.6612C23.0338 22.7402 23.023 22.828 22.9743 22.8963C22.9266 22.9656 22.8486 23.0067 22.7641 23.0067C22.7619 23.0067 22.7598 23.0067 22.7576 23.0067C21.1142 23.0208 18.2466 23.0208 16.6043 23.0208Z" fill="#66747F"/>
<path fill-rule="evenodd" clip-rule="evenodd" d="M22.4792 9.75V7.04166C22.4792 4.79808 20.6603 2.97916 18.4167 2.97916H5.41675C3.17316 2.97916 1.35425 4.79808 1.35425 7.04166V20.0417C1.35425 22.2852 3.17316 24.1042 5.41675 24.1042H11.9167C12.3652 24.1042 12.7292 23.7402 12.7292 23.2917C12.7292 22.8432 12.3652 22.4792 11.9167 22.4792C11.9167 22.4792 8.25291 22.4792 5.41675 22.4792C4.07016 22.4792 2.97925 21.3882 2.97925 20.0417V7.04166C2.97925 5.69508 4.07016 4.60416 5.41675 4.60416H18.4167C19.7633 4.60416 20.8542 5.69508 20.8542 7.04166V9.75C20.8542 10.1985 21.2182 10.5625 21.6667 10.5625C22.1152 10.5625 22.4792 10.1985 22.4792 9.75Z" fill="#66747F"/>
<path fill-rule="evenodd" clip-rule="evenodd" d="M6.5 2.16666V5.41666C6.5 5.86516 6.864 6.22916 7.3125 6.22916C7.761 6.22916 8.125 5.86516 8.125 5.41666V2.16666C8.125 1.71816 7.761 1.35416 7.3125 1.35416C6.864 1.35416 6.5 1.71816 6.5 2.16666Z" fill="#66747F"/>
<path fill-rule="evenodd" clip-rule="evenodd" d="M15.7085 2.16666V5.41666C15.7085 5.86516 16.0725 6.22916 16.521 6.22916C16.9695 6.22916 17.3335 5.86516 17.3335 5.41666V2.16666C17.3335 1.71816 16.9695 1.35416 16.521 1.35416C16.0725 1.35416 15.7085 1.71816 15.7085 2.16666Z" fill="#66747F"/>
<path fill-rule="evenodd" clip-rule="evenodd" d="M6.5 11.6458H9.85833C10.3068 11.6458 10.6708 11.2818 10.6708 10.8333C10.6708 10.3848 10.3068 10.0208 9.85833 10.0208H6.5C6.0515 10.0208 5.6875 10.3848 5.6875 10.8333C5.6875 11.2818 6.0515 11.6458 6.5 11.6458Z" fill="#66747F"/>
<path fill-rule="evenodd" clip-rule="evenodd" d="M6.5 15.9792H11.9167C12.3652 15.9792 12.7292 15.6152 12.7292 15.1667C12.7292 14.7182 12.3652 14.3542 11.9167 14.3542H6.5C6.0515 14.3542 5.6875 14.7182 5.6875 15.1667C5.6875 15.6152 6.0515 15.9792 6.5 15.9792Z" fill="#66747F"/>
</svg>
