<svg width="25" height="27" viewBox="0 0 25 27" fill="none" xmlns="http://www.w3.org/2000/svg">
<rect width="25" height="27" fill="#1E1E1E"/>
<g id="09 schedule appointment">
<rect x="-368" y="-502" width="440" height="951" rx="20" fill="#141921"/>
<g id="Group 1000012963">
<g id="Group 1000012962">
<rect id="Rectangle 6639" x="-351.85" y="-378.85" width="407.7" height="635.7" rx="9.85" fill="#191F28" stroke="#48505B" stroke-width="0.3"/>
<rect id="Rectangle 34625171" x="-329.75" y="-10.75" width="367.5" height="47.5" rx="4.75" fill="#141921" stroke="#48505B" stroke-width="0.5"/>
<g id="time 2">
<g id="Booking">
<path id="Vector" d="M12.5023 21.152H4.07095C3.07544 21.152 2.2659 20.2778 2.2659 19.2029V6.76686C2.2659 5.69193 3.07544 4.8178 4.07095 4.8178H5.76815V5.2768C5.76815 5.69614 6.08306 6.03618 6.47142 6.03618C6.85978 6.03618 7.17468 5.69614 7.17468 5.2768V4.8178H15.5857V5.2768C15.5857 5.69614 15.9006 6.03618 16.289 6.03618C16.6773 6.03618 16.9922 5.69614 16.9922 5.2768V4.8178H18.6832C19.6779 4.8178 20.4882 5.69193 20.4882 6.76686V12.1922C20.4882 12.6115 20.8031 12.9515 21.1915 12.9515C21.5799 12.9515 21.8948 12.6115 21.8948 12.1922V6.76686C21.8948 4.85493 20.4539 3.29905 18.6832 3.29905H16.9922V2.91093C16.9922 2.49158 16.6773 2.15155 16.289 2.15155C15.9006 2.15155 15.5857 2.49158 15.5857 2.91093V3.29905H7.17468V2.91093C7.17468 2.49158 6.85978 2.15155 6.47142 2.15155C6.08306 2.15155 5.76815 2.49158 5.76815 2.91093V3.29905H4.07095C2.30028 3.29905 0.859375 4.85493 0.859375 6.76686V19.2037C0.859375 21.1165 2.30028 22.6716 4.07095 22.6716H12.5023C12.8907 22.6716 13.2056 22.3315 13.2056 21.9122C13.2056 21.4928 12.8907 21.152 12.5023 21.152Z" fill="#999999"/>
<path id="Vector_2" d="M6.32457 10.3309C5.87605 10.3309 5.5127 10.7232 5.5127 11.2075C5.5127 11.6918 5.87605 12.0842 6.32457 12.0842C6.7731 12.0842 7.13645 11.6918 7.13645 11.2075C7.13645 10.7232 6.7731 10.3309 6.32457 10.3309Z" fill="#999999"/>
<path id="Vector_3" d="M11.3793 10.3309C10.9307 10.3309 10.5674 10.7232 10.5674 11.2075C10.5674 11.6918 10.9307 12.0842 11.3793 12.0842C11.8278 12.0842 12.1911 11.6918 12.1911 11.2075C12.1911 10.7232 11.827 10.3309 11.3793 10.3309Z" fill="#999999"/>
<path id="Vector_4" d="M15.6216 11.2075C15.6216 11.6918 15.9849 12.0842 16.4335 12.0842C16.882 12.0842 17.2453 11.6918 17.2453 11.2075C17.2453 10.7232 16.882 10.3309 16.4335 10.3309C15.9849 10.3309 15.6216 10.7232 15.6216 11.2075Z" fill="#999999"/>
<path id="Vector_5" d="M6.32457 15.1074C5.87605 15.1074 5.5127 15.4997 5.5127 15.984C5.5127 16.4683 5.87605 16.8607 6.32457 16.8607C6.7731 16.8607 7.13645 16.4683 7.13645 15.984C7.13645 15.4997 6.7731 15.1074 6.32457 15.1074Z" fill="#999999"/>
<path id="Vector_6" d="M11.3793 15.1074C10.9307 15.1074 10.5674 15.4997 10.5674 15.984C10.5674 16.4683 10.9307 16.8607 11.3793 16.8607C11.8278 16.8607 12.1911 16.4683 12.1911 15.984C12.1911 15.4997 11.827 15.1074 11.3793 15.1074Z" fill="#999999"/>
<path id="Vector_7" d="M19.1496 14.0611C16.3952 14.0611 14.1533 16.481 14.1533 19.4552C14.1533 22.4286 16.3944 24.8493 19.1496 24.8493C21.9048 24.8493 24.1459 22.4294 24.1459 19.4552C24.1451 16.4801 21.9041 14.0611 19.1496 14.0611ZM19.1496 23.3288C17.1711 23.3288 15.5606 21.5907 15.5606 19.4543C15.5606 17.318 17.1711 15.579 19.1496 15.579C21.1281 15.579 22.7386 17.318 22.7386 19.4543C22.7386 21.5907 21.1281 23.3288 19.1496 23.3288Z" fill="#999999"/>
<path id="Vector_8" d="M20.1686 18.074L18.6276 19.4147L18.244 18.8857C18.0033 18.5558 17.5634 18.4984 17.2563 18.7574C16.9508 19.0165 16.8976 19.4932 17.1375 19.8239L17.9611 20.9579C18.0768 21.1174 18.2471 21.2212 18.4339 21.244C18.4604 21.2473 18.487 21.249 18.5143 21.249C18.6738 21.249 18.83 21.19 18.9551 21.0811L21.0508 19.2586C21.354 18.9945 21.4009 18.517 21.1578 18.1904C20.914 17.8639 20.471 17.8099 20.1686 18.074Z" fill="#999999"/>
</g>
</g>
</g>
</g>
</g>
</svg>
