<svg width="18" height="18" viewBox="0 0 18 18" fill="none" xmlns="http://www.w3.org/2000/svg">
<g clip-path="url(#clip0_1_945)">
<path d="M15.1875 2.8125V6.1875M15.1875 2.8125H11.8125M15.1875 2.8125L10.6875 7.3125M12.9375 16.3125C6.7245 16.3125 1.6875 11.2755 1.6875 5.0625V3.375C1.6875 2.92745 1.86529 2.49822 2.18176 2.18176C2.49822 1.86529 2.92745 1.6875 3.375 1.6875H4.404C4.791 1.6875 5.1285 1.95075 5.22225 2.3265L6.05175 5.64375C6.13425 5.97375 6.01125 6.32025 5.739 6.5235L4.76925 7.251C4.63045 7.35148 4.52775 7.49405 4.47641 7.65754C4.42507 7.82102 4.42782 7.9967 4.48425 8.1585C4.93566 9.38634 5.64856 10.5014 6.57359 11.4264C7.49861 12.3514 8.61366 13.0643 9.8415 13.5157C10.1722 13.6372 10.5375 13.5128 10.749 13.2308L11.4765 12.261C11.5761 12.1281 11.7127 12.0275 11.8692 11.9718C12.0257 11.9162 12.1951 11.908 12.3563 11.9482L15.6735 12.7778C16.0485 12.8715 16.3125 13.209 16.3125 13.596V14.625C16.3125 15.0726 16.1347 15.5018 15.8182 15.8182C15.5018 16.1347 15.0726 16.3125 14.625 16.3125H12.9375Z" stroke="#DBDBDB" stroke-width="1.5" stroke-linecap="round" stroke-linejoin="round"/>
</g>
<defs>
<clipPath id="clip0_1_945">
<rect width="18" height="18" fill="white"/>
</clipPath>
</defs>
</svg>
