<svg width="96" height="96" viewBox="0 0 96 96" fill="none" xmlns="http://www.w3.org/2000/svg">
<path d="M65.6 67.472V67.2C65.6 65.927 65.0942 64.7061 64.1941 63.8059C63.2939 62.9057 62.073 62.4 60.8 62.4H16C14.7269 62.4 13.506 62.9057 12.6058 63.8059C11.7057 64.7061 11.2 65.927 11.2 67.2V67.472L13.216 77.472C15.2577 82.4755 18.7435 86.7575 23.2289 89.7716C27.7143 92.7858 32.9959 94.3955 38.4 94.3955C43.804 94.3955 49.0856 92.7858 53.571 89.7716C58.0564 86.7575 61.5422 82.4755 63.584 77.472L65.6 67.472Z" fill="#BFD9EF"/>
<path d="M9.6001 27.2V49.6H8.0001C4.4641 49.6 1.6001 44.592 1.6001 38.4C1.6001 32.208 4.4641 27.2 8.0001 27.2H9.6001Z" fill="#B0CADC"/>
<path d="M67.2 27.2V49.6H68.8C72.336 49.6 75.2 44.592 75.2 38.4C75.2 32.208 72.336 27.2 68.8 27.2H67.2Z" fill="#B0CADC"/>
<path d="M68.8 36.8V49.6C68.8 52.9948 67.4514 56.2505 65.051 58.651C62.6505 61.0514 59.3948 62.4 56 62.4H20.8C17.4052 62.4 14.1495 61.0514 11.749 58.651C9.34857 56.2505 8 52.9948 8 49.6V27.2C8 23.8052 9.34857 20.5495 11.749 18.149C14.1495 15.7486 17.4052 14.4 20.8 14.4H52.8L68.8 36.8Z" fill="#D7E9FF"/>
<path d="M62.3999 36.8V49.6C62.3999 51.2974 61.7256 52.9253 60.5254 54.1255C59.3252 55.3257 57.6973 56 55.9999 56H20.7999C19.1025 56 17.4747 55.3257 16.2744 54.1255C15.0742 52.9253 14.3999 51.2974 14.3999 49.6V33.6C14.3999 31.9026 15.0742 30.2748 16.2744 29.0745C17.4747 27.8743 19.1025 27.2 20.7999 27.2H52.7999L62.3999 36.8Z" fill="#193870"/>
<path d="M24.8 41.6C27.0092 41.6 28.8 39.8091 28.8 37.6C28.8 35.3909 27.0092 33.6 24.8 33.6C22.5909 33.6 20.8 35.3909 20.8 37.6C20.8 39.8091 22.5909 41.6 24.8 41.6Z" fill="#21DBDB"/>
<path d="M55.92 36.8C55.9712 37.0637 55.9979 37.3314 56 37.6C56 38.3911 55.7654 39.1645 55.3259 39.8223C54.8864 40.4801 54.2616 40.9928 53.5307 41.2955C52.7998 41.5983 51.9956 41.6775 51.2196 41.5231C50.4437 41.3688 49.731 40.9878 49.1716 40.4284C48.6122 39.869 48.2312 39.1563 48.0769 38.3804C47.9225 37.6044 48.0017 36.8002 48.3045 36.0693C48.6072 35.3384 49.1199 34.7137 49.7777 34.2741C50.4355 33.8346 51.2089 33.6 52 33.6C52.2686 33.6021 52.5364 33.6288 52.8 33.68" fill="#21DBDB"/>
<path d="M35.2001 43.2H41.6001C42.0244 43.2 42.4314 43.3686 42.7315 43.6686C43.0315 43.9687 43.2001 44.3757 43.2001 44.8C43.2001 46.0731 42.6944 47.294 41.7942 48.1941C40.894 49.0943 39.6731 49.6 38.4001 49.6C37.1271 49.6 35.9062 49.0943 35.006 48.1941C34.1058 47.294 33.6001 46.0731 33.6001 44.8C33.6001 44.3757 33.7687 43.9687 34.0687 43.6686C34.3688 43.3686 34.7758 43.2 35.2001 43.2Z" fill="#21DBDB"/>
<path d="M13.4033 76.92C11.2673 83.0176 6.18886 90.4 3.43846 89.5312C0.688063 88.6624 1.30246 79.8608 3.43846 73.7648C5.57446 67.6688 8.44806 66.5872 11.2001 67.4672C13.9521 68.3472 15.5569 70.824 13.4033 76.92Z" fill="#D7E9FF"/>
<path d="M63.3967 76.92C65.5327 83.0176 70.6111 90.3952 73.3599 89.5312C76.1087 88.6672 75.4975 79.8608 73.3599 73.7648C71.2223 67.6688 68.3519 66.5872 65.5999 67.4672C62.8479 68.3472 61.2431 70.824 63.3967 76.92Z" fill="#D7E9FF"/>
<path d="M94.4001 4.80001V33.6C94.3975 34.4479 94.0596 35.2604 93.46 35.86C92.8604 36.4595 92.048 36.7975 91.2001 36.8H88.0001V43.296C88.0026 43.5807 87.923 43.8601 87.7708 44.1007C87.6187 44.3414 87.4004 44.5331 87.1422 44.653C86.8839 44.7728 86.5966 44.8157 86.3146 44.7765C86.0326 44.7373 85.7679 44.6177 85.5521 44.432L76.8001 36.8H56C55.1521 36.7975 54.3397 36.4595 53.7401 35.86C53.1405 35.2604 52.8026 34.4479 52.8 33.6V4.80001C52.8026 3.95209 53.1405 3.13963 53.7401 2.54006C54.3397 1.94049 55.1521 1.60254 56 1.60001H91.2001C92.048 1.60254 92.8604 1.94049 93.46 2.54006C94.0596 3.13963 94.3975 3.95209 94.4001 4.80001Z" fill="#6AC479"/>
<path d="M38.4 83.2C41.9346 83.2 44.8 80.3346 44.8 76.8C44.8 73.2654 41.9346 70.4 38.4 70.4C34.8654 70.4 32 73.2654 32 76.8C32 80.3346 34.8654 83.2 38.4 83.2Z" fill="#193870"/>
<path d="M86.4 12.8H60.8C60.3756 12.8 59.9686 12.6314 59.6686 12.3314C59.3685 12.0313 59.2 11.6244 59.2 11.2C59.2 10.7757 59.3685 10.3687 59.6686 10.0686C59.9686 9.76858 60.3756 9.60001 60.8 9.60001H86.4C86.8243 9.60001 87.2313 9.76858 87.5313 10.0686C87.8314 10.3687 88 10.7757 88 11.2C88 11.6244 87.8314 12.0313 87.5313 12.3314C87.2313 12.6314 86.8243 12.8 86.4 12.8Z" fill="#55A060"/>
<path d="M86.4 20.8H60.8C60.3756 20.8 59.9686 20.6314 59.6686 20.3314C59.3685 20.0313 59.2 19.6244 59.2 19.2C59.2 18.7757 59.3685 18.3687 59.6686 18.0686C59.9686 17.7686 60.3756 17.6 60.8 17.6H86.4C86.8243 17.6 87.2313 17.7686 87.5313 18.0686C87.8314 18.3687 88 18.7757 88 19.2C88 19.6244 87.8314 20.0313 87.5313 20.3314C87.2313 20.6314 86.8243 20.8 86.4 20.8Z" fill="#55A060"/>
<path d="M81.6 28.8H60.8C60.3756 28.8 59.9686 28.6314 59.6686 28.3314C59.3685 28.0313 59.2 27.6244 59.2 27.2C59.2 26.7757 59.3685 26.3687 59.6686 26.0686C59.9686 25.7686 60.3756 25.6 60.8 25.6H81.6C82.0243 25.6 82.4313 25.7686 82.7313 26.0686C83.0314 26.3687 83.2 26.7757 83.2 27.2C83.2 27.6244 83.0314 28.0313 82.7313 28.3314C82.4313 28.6314 82.0243 28.8 81.6 28.8Z" fill="#55A060"/>
</svg>
