<svg width="32" height="32" viewBox="0 0 32 32" fill="none" xmlns="http://www.w3.org/2000/svg">
<path d="M27.6353 4.36421C26.8862 3.61411 25.9966 3.01904 25.0174 2.61303C24.0381 2.20703 22.9884 1.99805 21.9283 1.99805C20.8682 1.99805 19.8185 2.20703 18.8393 2.61303C17.86 3.01904 16.9704 3.61411 16.2213 4.36421L4.36392 16.2216C2.85033 17.7352 2 19.7881 2 21.9286C2 24.0691 2.85033 26.122 4.36392 27.6356C5.87751 29.1492 7.93038 29.9995 10.0709 29.9995C12.2115 29.9995 14.2643 29.1492 15.7779 27.6356L27.6353 15.7782C28.3854 15.0291 28.9805 14.1395 29.3865 13.1602C29.7925 12.181 30.0014 11.1313 30.0014 10.0712C30.0014 9.01113 29.7925 7.96144 29.3865 6.98218C28.9805 6.00292 28.3854 5.11331 27.6353 4.36421Z" fill="#D7E9F9"/>
<path d="M27.6408 15.7793L15.7808 27.6393C14.8324 28.5898 13.6618 29.2886 12.375 29.6722C11.0883 30.0557 9.72614 30.112 8.41213 29.8359C7.09812 29.5598 5.87382 28.96 4.85028 28.091C3.82675 27.2219 3.03635 26.1111 2.55078 24.8593C18.3508 23.3693 25.1608 12.4893 28.0208 4.7793C29.3617 6.32033 30.0682 8.31262 29.9976 10.3542C29.9271 12.3957 29.0848 14.3345 27.6408 15.7793Z" fill="#B3CFE5"/>
<path d="M27.6391 15.7808L21.7091 21.7108L10.2891 10.2908L16.2191 4.36077C17.7351 2.85431 19.7865 2.0103 21.9238 2.01368C24.061 2.01707 26.1097 2.86758 27.621 4.37884C29.1323 5.8901 29.9828 7.93884 29.9862 10.0761C29.9895 12.2133 29.1455 14.2647 27.6391 15.7808Z" fill="#FF5E57"/>
<path d="M27.6386 15.7793L21.7086 21.7093L18.5586 18.5593C22.8678 14.8768 26.1306 10.124 28.0186 4.7793C29.3573 6.32134 30.0624 8.31317 29.9919 10.354C29.9214 12.3949 29.0805 14.3333 27.6386 15.7793Z" fill="#D32F2F"/>
</svg>
