<svg width="33" height="33" viewBox="0 0 33 33" fill="none" xmlns="http://www.w3.org/2000/svg">
<path d="M23.0167 32.9764C24.7514 32.9764 25.9743 32.1443 26.4353 30.687C28.1172 30.4779 29.3831 29.048 29.385 27.3505V14.5006H30.0043C30.3481 14.5006 30.6255 14.2212 30.6255 13.8813C30.6255 13.5375 30.3481 13.2601 30.0043 13.2601H26.6443V5.81742C26.6443 3.14508 24.7827 2.18983 23.0167 2.18983H20.0026V0.619248C20.0026 0.277392 19.7252 0 19.3813 0H9.75663C9.41478 0 9.13738 0.277392 9.13738 0.619248V2.17616H6.12319C4.36702 2.17616 2.49561 3.13336 2.49561 5.8057V29.3703C2.49561 32.0446 4.3553 32.9999 6.12319 32.9999L23.0167 32.9764ZM26.0231 29.4778C24.8569 29.4895 23.8958 28.5616 23.8704 27.3934V21.4393H28.1211V27.37C28.1114 28.5245 27.1796 29.4602 26.0231 29.4778ZM28.1446 20.1754H23.8704V14.5006H28.1211L28.1446 20.1754ZM10.3778 1.24045H18.7621V5.06533H10.3778V1.24045ZM3.73605 29.3469V5.78225C3.73605 3.80926 5.0312 3.39317 6.12319 3.39317H9.13738V5.68653C9.13738 6.03034 9.41478 6.30578 9.75663 6.30578H19.3813C19.7252 6.30578 20.0026 6.03034 20.0026 5.68653V3.41661H23.0167C24.1068 3.41661 25.4039 3.8327 25.4039 5.8057V13.2484H21.9306C21.5907 13.2484 21.3094 13.5258 21.3094 13.8676C21.3094 14.2095 21.5907 14.4888 21.9306 14.4888H22.63V27.3505C22.6339 28.8644 23.6497 30.1927 25.1109 30.5952C24.7143 31.3687 23.8841 31.82 23.0167 31.736H6.12319C5.0312 31.736 3.73605 31.3199 3.73605 29.3469Z" fill="#1AB857"/>
<path d="M9.32091 12.092H19.8169C20.1587 12.092 20.4361 11.8165 20.4361 11.4727C20.4361 11.1328 20.1587 10.8515 19.8169 10.8515H9.32091C8.98101 10.8515 8.70166 11.1328 8.70166 11.4727C8.70166 11.8165 8.98101 12.092 9.32091 12.092Z" fill="#1AB857"/>
<path d="M9.32091 15.5613H19.8169C20.1587 15.5613 20.4361 15.2819 20.4361 14.9401C20.4361 14.5982 20.1587 14.3208 19.8169 14.3208H9.32091C8.98101 14.3208 8.70166 14.5982 8.70166 14.9401C8.70166 15.2819 8.98101 15.5613 9.32091 15.5613Z" fill="#1AB857"/>
<path d="M9.32091 19.0228H19.8169C20.1587 19.0228 20.4361 18.7415 20.4361 18.4016C20.4361 18.0598 20.1587 17.7824 19.8169 17.7824H9.32091C8.98101 17.7824 8.70166 18.0598 8.70166 18.4016C8.70166 18.7415 8.98101 19.0228 9.32091 19.0228Z" fill="#1AB857"/>
<path d="M9.32091 22.4805H19.8169C20.1587 22.4805 20.4361 22.2031 20.4361 21.8612C20.4361 21.5194 20.1587 21.24 19.8169 21.24H9.32091C8.98101 21.24 8.70166 21.5194 8.70166 21.8612C8.70166 22.2031 8.98101 22.4805 9.32091 22.4805Z" fill="#1AB857"/>
<path d="M9.32091 25.9498H19.8169C20.1587 25.9498 20.4361 25.6724 20.4361 25.3286C20.4361 24.9868 20.1587 24.7094 19.8169 24.7094H9.32091C8.98101 24.7094 8.70166 24.9868 8.70166 25.3286C8.70166 25.6724 8.98101 25.9498 9.32091 25.9498Z" fill="#1AB857"/>
</svg>
