<svg width="40" height="40" viewBox="0 0 40 40" fill="none" xmlns="http://www.w3.org/2000/svg">
<g clip-path="url(#clip0_1_676)">
<path d="M3.52001 0.799988C2.24001 0.799988 1.20001 1.83999 1.20001 3.11999V7.51999C1.20001 7.99999 1.52001 8.31999 2.00001 8.31999C2.48001 8.31999 2.80001 7.99999 2.80001 7.51999V3.11999C2.80001 2.71999 3.12001 2.39999 3.52001 2.39999H7.92001C8.40001 2.39999 8.72001 2.07999 8.72001 1.59999C8.72001 1.11999 8.40001 0.799988 7.92001 0.799988H3.52001Z" fill="url(#paint0_linear_1_676)"/>
<path d="M2.00001 26.4C1.52001 26.4 1.20001 26.72 1.20001 27.2V31.52C1.20001 32.8 2.24001 33.84 3.52001 33.84H7.92001C8.40001 33.84 8.72001 33.52 8.72001 33.04C8.72001 32.56 8.40001 32.24 7.92001 32.24H3.52001C3.12001 32.24 2.80001 31.92 2.80001 31.52V27.2C2.80001 26.72 2.40001 26.4 2.00001 26.4Z" fill="url(#paint1_linear_1_676)"/>
<path d="M36.48 33.84C37.76 33.84 38.8 32.8 38.8 31.52V27.2C38.8 26.72 38.48 26.4 38 26.4C37.52 26.4 37.2 26.72 37.2 27.2V31.52C37.2 31.92 36.88 32.24 36.48 32.24H32.08C31.6 32.24 31.28 32.56 31.28 33.04C31.28 33.52 31.6 33.84 32.08 33.84H36.48Z" fill="url(#paint2_linear_1_676)"/>
<path d="M38 8.31999C38.48 8.31999 38.8 7.99999 38.8 7.51999V3.11999C38.8 1.83999 37.76 0.799988 36.48 0.799988H32.08C31.6 0.799988 31.28 1.11999 31.28 1.59999C31.28 2.07999 31.6 2.39999 32.08 2.39999H36.48C36.88 2.39999 37.2 2.71999 37.2 3.11999V7.51999C37.2 7.91999 37.6 8.31999 38 8.31999Z" fill="url(#paint3_linear_1_676)"/>
<path d="M38.4 18.48H32.08C32.16 17.92 32.16 17.36 32.16 16.8C32.16 9.35997 27.52 4.71997 20 4.71997C12.48 4.71997 7.83999 9.27997 7.83999 16.72C7.83999 17.28 7.83999 17.84 7.91999 18.4H1.59999C1.11999 18.4 0.799988 18.72 0.799988 19.2C0.799988 19.68 1.11999 20 1.59999 20H8.15999C8.87999 24.24 10.96 28.48 13.84 31.04V33.04C13.84 34.72 12.88 36.4 11.2 37.68C10.88 37.92 10.8 38.48 11.04 38.8C11.2 39.04 11.44 39.12 11.68 39.12C11.84 39.12 12 39.04 12.16 38.96C14.24 37.36 15.36 35.28 15.36 33.04V32.24C16.8 33.12 18.32 33.68 20 33.68C21.68 33.68 23.2 33.12 24.64 32.24V33.04C24.64 35.2 25.76 37.36 27.84 38.96C28 39.04 28.16 39.12 28.32 39.12C28.56 39.12 28.8 39.04 28.96 38.8C29.2 38.48 29.2 37.92 28.8 37.68C27.12 36.4 26.16 34.72 26.16 33.04V31.04C29.04 28.4 31.12 24.24 31.84 20H38.4C38.88 20 39.2 19.68 39.2 19.2C39.2 18.72 38.88 18.48 38.4 18.48ZM9.43999 16.72C9.43999 10.16 13.36 6.23997 20 6.23997C26.64 6.23997 30.56 10.16 30.56 16.72C30.56 17.28 30.56 17.84 30.48 18.4H9.51999C9.43999 17.84 9.43999 17.28 9.43999 16.72ZM20 32.24C15.04 32.24 10.88 26.16 9.75999 20.08H30.24C29.12 26.16 24.96 32.24 20 32.24Z" fill="url(#paint4_linear_1_676)"/>
</g>
<defs>
<linearGradient id="paint0_linear_1_676" x1="4.96001" y1="0.799988" x2="4.96001" y2="8.31999" gradientUnits="userSpaceOnUse">
<stop stop-color="#533F79"/>
<stop offset="1" stop-color="#826AEB"/>
</linearGradient>
<linearGradient id="paint1_linear_1_676" x1="4.96001" y1="26.4" x2="4.96001" y2="33.84" gradientUnits="userSpaceOnUse">
<stop stop-color="#533F79"/>
<stop offset="1" stop-color="#826AEB"/>
</linearGradient>
<linearGradient id="paint2_linear_1_676" x1="35.04" y1="26.4" x2="35.04" y2="33.84" gradientUnits="userSpaceOnUse">
<stop stop-color="#533F79"/>
<stop offset="1" stop-color="#826AEB"/>
</linearGradient>
<linearGradient id="paint3_linear_1_676" x1="35.04" y1="0.799988" x2="35.04" y2="8.31999" gradientUnits="userSpaceOnUse">
<stop stop-color="#533F79"/>
<stop offset="1" stop-color="#826AEB"/>
</linearGradient>
<linearGradient id="paint4_linear_1_676" x1="20" y1="4.71997" x2="20" y2="39.12" gradientUnits="userSpaceOnUse">
<stop stop-color="#533F79"/>
<stop offset="1" stop-color="#826AEB"/>
</linearGradient>
<clipPath id="clip0_1_676">
<rect width="40" height="40" fill="white"/>
</clipPath>
</defs>
</svg>
