<svg width="27" height="27" viewBox="0 0 27 27" fill="none" xmlns="http://www.w3.org/2000/svg">
<g clip-path="url(#clip0_1_720)">
<path d="M22.925 0H3.275C1.46884 0 0 1.46884 0 3.275V22.925C0 24.7312 1.46884 26.2 3.275 26.2H22.925C24.7312 26.2 26.2 24.7312 26.2 22.925V3.275C26.2 1.46884 24.7312 0 22.925 0Z" fill="#1976D2"/>
<path d="M22.1063 13.1H18.0125V9.82498C18.0125 8.92108 18.7461 9.00623 19.65 9.00623H21.2875V4.91248H18.0125C15.2992 4.91248 13.1 7.11164 13.1 9.82498V13.1H9.82501V17.1937H13.1V26.2H18.0125V17.1937H20.4688L22.1063 13.1Z" fill="#FAFAFA"/>
</g>
<defs>
<clipPath id="clip0_1_720">
<rect width="26.2" height="26.2" fill="white"/>
</clipPath>
</defs>
</svg>
