<svg width="34" height="22" viewBox="0 0 34 22" fill="none" xmlns="http://www.w3.org/2000/svg">
<g clip-path="url(#clip0_1_554)">
<path d="M0.340576 0.0442505H33.7151V22.0104H0.340576V0.0442505Z" fill="#D6D4D1"/>
<path d="M0.618652 0.312714H33.4456V21.7428H0.618652V0.312714Z" fill="#B22034"/>
<path d="M0.618652 1.96011H33.4456V3.60741H0.618652V1.96011Z" fill="white"/>
<path d="M0.618652 5.25482H33.4456V6.90212H0.618652V5.25482Z" fill="white"/>
<path d="M0.618652 8.54941H33.4456V10.1967H0.618652V8.54941Z" fill="white"/>
<path d="M0.618652 11.8441H33.4456V13.4914H0.618652V11.8441Z" fill="white"/>
<path d="M0.618652 15.1388H33.4456V16.7861H0.618652V15.1388Z" fill="white"/>
<path d="M0.618652 18.4335H33.4456V20.0808H0.618652V18.4335Z" fill="white"/>
<path d="M0.618652 0.312714H17.0322V11.8442H0.618652V0.312714Z" fill="#3E3C6F"/>
<path d="M1.69117 1.71188L1.54412 2.15576C1.54316 2.1567 1.54412 2.15941 1.54604 2.16035C1.54796 2.16129 1.54976 2.16129 1.55169 2.16035L1.93626 1.88718L2.32263 2.16035C2.32263 2.16035 2.32359 2.16129 2.32456 2.16129C2.32732 2.16223 2.32936 2.15941 2.32936 2.15671C2.32936 2.15576 2.32936 2.15482 2.32936 2.15482L2.18135 1.71188L2.56772 1.4387C2.56868 1.43682 2.56964 1.43506 2.56868 1.43318C2.56772 1.43047 2.56676 1.42953 2.564 1.42953H2.08896L1.94106 0.986469C1.9401 0.982822 1.9335 0.982822 1.93157 0.986469L1.78548 1.42941H1.3096C1.30768 1.42941 1.30492 1.43035 1.30396 1.43306C1.30396 1.43494 1.30492 1.4367 1.30588 1.43859L1.69117 1.71188Z" fill="white"/>
<path d="M4.39124 1.71188L4.24419 2.15576C4.24419 2.1567 4.24515 2.15941 4.24611 2.16035C4.24803 2.16129 4.2508 2.16129 4.25176 2.16035L4.63717 1.88718L5.02174 2.16035C5.0227 2.16129 5.02367 2.16129 5.02547 2.16129C5.02739 2.16129 5.02919 2.15941 5.02919 2.15671C5.02919 2.15576 5.02919 2.15482 5.02919 2.15482L4.88214 1.71188L5.26659 1.4387C5.26948 1.43682 5.27044 1.43506 5.26948 1.43318C5.26755 1.43047 5.26659 1.42953 5.26467 1.42953H4.78891L4.6409 0.986469C4.63993 0.982822 4.63333 0.982822 4.63237 0.986469L4.48447 1.42953H4.00859C4.00763 1.42953 4.00583 1.43047 4.00391 1.43318C4.00391 1.43506 4.00391 1.43682 4.00667 1.4387L4.39124 1.71188Z" fill="white"/>
<path d="M7.09241 1.71188L6.9444 2.15576C6.9444 2.1567 6.9444 2.15941 6.94632 2.16035C6.94824 2.16129 6.95113 2.16129 6.95197 2.16035L7.33738 1.88718L7.72195 2.16035C7.72292 2.16129 7.72472 2.16129 7.72568 2.16129C7.7276 2.16129 7.73048 2.15941 7.73048 2.15671C7.73048 2.15576 7.73048 2.15482 7.73048 2.15482L7.58247 1.71188L7.96788 1.4387C7.96981 1.43682 7.97065 1.43506 7.96981 1.43318C7.96884 1.43047 7.96788 1.42953 7.96512 1.42953H7.48924L7.34219 0.986469C7.34027 0.982822 7.33366 0.982822 7.3327 0.986469L7.1848 1.42953H6.70892C6.707 1.42953 6.70604 1.43047 6.70508 1.43318C6.70508 1.43506 6.70508 1.43682 6.707 1.4387L7.09241 1.71188Z" fill="white"/>
<path d="M9.79249 1.71189L9.64448 2.15577C9.64448 2.15671 9.64544 2.15941 9.64736 2.16036C9.64832 2.1613 9.65012 2.1613 9.65301 2.16036L10.0376 1.88718L10.423 2.16036C10.424 2.1613 10.4249 2.1613 10.4258 2.1613C10.4286 2.1613 10.4306 2.15941 10.4306 2.15671C10.4306 2.15577 10.4306 2.15483 10.4296 2.154L10.2824 1.712L10.668 1.43883C10.6699 1.43694 10.6707 1.43518 10.6699 1.4333C10.6689 1.43059 10.668 1.42965 10.6652 1.42965H10.1902L10.0423 0.986591C10.0413 0.982944 10.0347 0.982944 10.0329 0.986591L9.88584 1.42965H9.40996C9.4072 1.42965 9.40623 1.43059 9.40527 1.4333C9.40527 1.43518 9.40527 1.43694 9.4072 1.43883L9.79249 1.71189Z" fill="white"/>
<path d="M12.4926 1.71189L12.3455 2.15577C12.3455 2.15671 12.3455 2.15941 12.3474 2.16036C12.3484 2.1613 12.3511 2.1613 12.3531 2.16036L12.7376 1.88718L13.1231 2.16036C13.124 2.1613 13.125 2.1613 13.1268 2.1613C13.1287 2.16224 13.1305 2.15941 13.1305 2.15671C13.1305 2.15577 13.1305 2.15483 13.1295 2.154L12.9835 1.712L13.368 1.43883C13.3708 1.43694 13.3708 1.43518 13.3708 1.4333C13.3689 1.43059 13.368 1.42965 13.366 1.42965H12.8891L12.7421 0.986591C12.7411 0.982944 12.7345 0.982944 12.7337 0.986591L12.5857 1.42965H12.1098C12.1079 1.42965 12.107 1.43059 12.1051 1.4333C12.1041 1.43518 12.1051 1.43694 12.1079 1.43883L12.4926 1.71189Z" fill="white"/>
<path d="M15.1936 1.71189L15.0457 2.15577C15.0457 2.15671 15.0457 2.15941 15.0476 2.16036C15.0495 2.1613 15.0513 2.1613 15.0533 2.16036L15.4387 1.88718L15.8232 2.16036C15.8242 2.1613 15.826 2.1613 15.827 2.1613C15.8289 2.1613 15.8316 2.15941 15.8316 2.15671C15.8316 2.15577 15.8316 2.15483 15.8307 2.154L15.6836 1.712L16.069 1.43883C16.071 1.43694 16.071 1.43518 16.071 1.4333C16.07 1.43059 16.069 1.42965 16.0663 1.42965H15.5904L15.4434 0.986591C15.4413 0.982944 15.4348 0.982944 15.4339 0.986591L15.286 1.42965H14.8101C14.8082 1.42965 14.8072 1.43059 14.8062 1.4333C14.8043 1.43518 14.8062 1.43694 14.8072 1.43883L15.1936 1.71189Z" fill="white"/>
<path d="M2.8947 3.28906C2.89374 3.29 2.8947 3.29188 2.89566 3.29458C2.89842 3.29553 2.90035 3.29553 2.90131 3.29458L3.28672 3.01953L3.67129 3.29458H3.67502C3.67874 3.29458 3.6797 3.29188 3.6797 3.28988C3.6797 3.28894 3.6797 3.288 3.6797 3.288L3.53181 2.84506L3.91722 2.57188C3.91914 2.56917 3.91914 2.56729 3.91914 2.56729C3.91818 2.56364 3.91722 2.5627 3.91446 2.5627H3.43858L3.29153 2.11882C3.2896 2.11611 3.283 2.11611 3.28204 2.11882L3.13594 2.5627H2.65814C2.65718 2.5627 2.65526 2.56364 2.6543 2.56635C2.6543 2.56635 2.6543 2.56906 2.65622 2.57188L3.04163 2.84506L2.8947 3.28906Z" fill="white"/>
<path d="M5.59381 3.28906C5.59381 3.29 5.59477 3.29188 5.5967 3.29458C5.59766 3.29553 5.60042 3.29553 5.60234 3.29458L5.9868 3.01953L6.37221 3.29458H6.37509C6.37786 3.29458 6.37978 3.29188 6.37978 3.28988C6.37978 3.28894 6.37978 3.288 6.37882 3.288L6.23176 2.84506L6.61718 2.57188C6.6191 2.56917 6.6209 2.56729 6.6191 2.56635C6.61814 2.56364 6.61718 2.5627 6.61441 2.5627H6.13938L5.9916 2.11882C5.99064 2.11611 5.98403 2.11611 5.98211 2.11882L5.83602 2.5627H5.35918C5.35641 2.5627 5.35545 2.56364 5.35449 2.56635C5.35449 2.56635 5.35449 2.56906 5.35641 2.57188L5.74183 2.84506L5.59381 3.28906Z" fill="white"/>
<path d="M8.29509 3.28906C8.29509 3.29 8.29509 3.29188 8.29701 3.29458C8.29797 3.29553 8.30074 3.29553 8.30266 3.29458L8.68723 3.01953L9.07265 3.29458H9.07637C9.07829 3.29458 9.08009 3.29188 9.08009 3.28988C9.08009 3.28894 9.08009 3.288 9.07913 3.288L8.93304 2.84506L9.31761 2.57188C9.32038 2.56917 9.32134 2.56729 9.32038 2.56635C9.31845 2.56364 9.31761 2.5627 9.31569 2.5627H8.83969L8.6918 2.11882C8.69084 2.11611 8.68423 2.11611 8.68339 2.11882L8.53549 2.5627H8.05937C8.05745 2.5627 8.05661 2.56364 8.05469 2.56635C8.05469 2.56635 8.05469 2.56906 8.05745 2.57188L8.44202 2.84506L8.29509 3.28906Z" fill="white"/>
<path d="M10.9949 3.28906C10.9949 3.29 10.9959 3.29188 10.9969 3.29458C10.9988 3.29553 11.0006 3.29553 11.0025 3.29458L11.388 3.01953L11.7725 3.29458H11.7753H11.7762C11.7781 3.29458 11.7809 3.29188 11.7809 3.28988C11.7809 3.28894 11.7809 3.288 11.7799 3.288L11.6329 2.84506L12.0184 2.57188C12.0203 2.56917 12.0203 2.56729 12.0203 2.56729C12.0194 2.56364 12.0184 2.5627 12.0155 2.5627H11.5397L11.3926 2.11882C11.3907 2.11611 11.3842 2.11611 11.3832 2.11882L11.2353 2.5627H10.7593C10.7574 2.5627 10.7566 2.56364 10.7556 2.56635C10.7556 2.56635 10.7556 2.56906 10.7575 2.57188L11.143 2.84506L10.9949 3.28906Z" fill="white"/>
<path d="M13.6951 3.28906C13.6951 3.29 13.6951 3.29188 13.6979 3.29458C13.6989 3.29553 13.7007 3.29553 13.7035 3.29458L14.088 3.01953L14.4735 3.29458H14.4763C14.4791 3.29458 14.481 3.29188 14.481 3.28988C14.481 3.28894 14.481 3.288 14.48 3.288L14.333 2.84506L14.7184 2.57188C14.7203 2.56917 14.7203 2.56729 14.7203 2.56729C14.7193 2.56364 14.7184 2.5627 14.7156 2.5627H14.2388L14.0927 2.11882C14.0917 2.11611 14.0851 2.11611 14.0832 2.11882L13.9361 2.5627H13.4603C13.4575 2.5627 13.4564 2.56364 13.4555 2.56635C13.4545 2.56729 13.4555 2.56906 13.4575 2.57188L13.8429 2.84506L13.6951 3.28906Z" fill="white"/>
<path d="M1.54412 4.42235C1.54316 4.42424 1.54412 4.42694 1.54604 4.42788C1.54796 4.42882 1.54976 4.42882 1.55169 4.42788L1.93626 4.15294L2.32263 4.42788H2.32456C2.32828 4.42788 2.32936 4.42694 2.32936 4.42329V4.42141L2.18135 3.97835L2.56772 3.70518C2.56868 3.70329 2.56964 3.70153 2.56868 3.69965C2.56772 3.69694 2.56676 3.696 2.564 3.696H2.08896L1.94106 3.25212C1.9401 3.24929 1.9335 3.24929 1.93157 3.25212L1.78548 3.696H1.3096C1.30768 3.696 1.30492 3.69694 1.30396 3.69965C1.30396 3.70153 1.30492 3.70341 1.30588 3.70518L1.69129 3.97835L1.54412 4.42235Z" fill="white"/>
<path d="M4.24419 4.42235C4.24419 4.42424 4.24515 4.42694 4.24611 4.42788C4.24803 4.42882 4.2508 4.42882 4.25176 4.42788L4.63717 4.15294L5.02174 4.42788H5.02547C5.02739 4.42788 5.02919 4.42694 5.02919 4.42329V4.42141L4.88214 3.97835L5.26659 3.70518C5.26948 3.70329 5.27044 3.70153 5.26948 3.69965C5.26755 3.69694 5.26659 3.696 5.26467 3.696H4.78891L4.6409 3.25212C4.63993 3.24929 4.63333 3.24929 4.63237 3.25212L4.48447 3.696H4.00859C4.00763 3.696 4.00583 3.69694 4.00391 3.69965C4.00391 3.70153 4.00391 3.70341 4.00667 3.70518L4.39124 3.97835L4.24419 4.42235Z" fill="white"/>
<path d="M6.9444 4.42235C6.9444 4.42424 6.9444 4.42694 6.94632 4.42788C6.94824 4.42882 6.95113 4.42882 6.95197 4.42788L7.33738 4.15294L7.72195 4.42788H7.72568C7.7276 4.42788 7.73048 4.42694 7.73048 4.42329V4.42141L7.58247 3.97835L7.96788 3.70518C7.96981 3.70329 7.97065 3.70153 7.96981 3.69965C7.96884 3.69694 7.96788 3.696 7.96512 3.696H7.48924L7.34219 3.25212C7.34027 3.24929 7.33366 3.24929 7.3327 3.25212L7.1848 3.696H6.70892C6.707 3.696 6.70604 3.69694 6.70508 3.69965C6.70508 3.70153 6.70508 3.70341 6.707 3.70518L7.09241 3.97835L6.9444 4.42235Z" fill="white"/>
<path d="M9.64448 4.42235C9.64448 4.42424 9.64544 4.42694 9.64736 4.42788C9.64832 4.42882 9.65012 4.42882 9.65301 4.42788L10.0376 4.15294L10.423 4.42788H10.4258C10.4286 4.42788 10.4306 4.42694 10.4306 4.42329C10.4306 4.42329 10.4306 4.42141 10.4296 4.42141L10.2824 3.97835L10.668 3.70518C10.6699 3.70329 10.6707 3.70153 10.6699 3.69965C10.6689 3.69694 10.668 3.696 10.6652 3.696H10.1902L10.0423 3.25212C10.0413 3.24929 10.0347 3.24929 10.0329 3.25212L9.88584 3.696H9.40996C9.4072 3.696 9.40623 3.69694 9.40527 3.69965C9.40527 3.70153 9.40527 3.70341 9.4072 3.70518L9.79261 3.97835L9.64448 4.42235Z" fill="white"/>
<path d="M12.3455 4.42235C12.3455 4.42424 12.3455 4.42694 12.3474 4.42788C12.3484 4.42882 12.3511 4.42882 12.3531 4.42788L12.7376 4.15294L13.1231 4.42788H13.1268C13.1287 4.42788 13.1305 4.42694 13.1305 4.42329C13.1305 4.42329 13.1305 4.42141 13.1295 4.42141L12.9835 3.97835L13.368 3.70518C13.3708 3.70329 13.3708 3.70153 13.3708 3.69965C13.3689 3.69694 13.368 3.696 13.366 3.696H12.8891L12.7421 3.25212C12.7411 3.24929 12.7345 3.24929 12.7337 3.25212L12.5857 3.696H12.1098C12.1079 3.696 12.107 3.69694 12.1051 3.69965C12.1041 3.70153 12.1051 3.70341 12.1079 3.70518L12.4923 3.97835L12.3455 4.42235Z" fill="white"/>
<path d="M15.0457 4.42235C15.0457 4.42424 15.0457 4.42694 15.0476 4.42788C15.0495 4.42882 15.0513 4.42882 15.0533 4.42788L15.4387 4.15294L15.8232 4.42788H15.827C15.8289 4.42788 15.8316 4.42694 15.8316 4.42329C15.8316 4.42329 15.8316 4.42141 15.8307 4.42141L15.6836 3.97835L16.069 3.70518C16.071 3.70329 16.071 3.70153 16.071 3.69965C16.07 3.69694 16.069 3.696 16.0663 3.696H15.5904L15.4434 3.25212C15.4413 3.24929 15.4348 3.24929 15.4339 3.25212L15.286 3.696H14.8101C14.8082 3.696 14.8072 3.69694 14.8062 3.69965C14.8043 3.70153 14.8062 3.70341 14.8072 3.70518L15.1937 3.97835L15.0457 4.42235Z" fill="white"/>
<path d="M3.32538 4.39001C3.32261 4.38542 3.31685 4.38542 3.31504 4.39001L3.16895 4.83389H2.69307C2.69031 4.83389 2.68839 4.83483 2.68839 4.83483C2.68743 4.83754 2.68839 4.84036 2.68935 4.8413L3.07476 5.11636L2.92771 5.55836C2.92675 5.56107 2.92771 5.56295 2.92867 5.56389C2.93143 5.56483 2.93335 5.56483 2.93432 5.56389L3.31973 5.29071L3.70514 5.56389C3.70706 5.56483 3.70706 5.56483 3.70791 5.56483C3.70983 5.56483 3.71355 5.56295 3.71355 5.56107C3.71355 5.55918 3.71259 5.55836 3.71259 5.55742L3.56554 5.11624L3.95095 4.84118C3.95191 4.84024 3.95287 4.83754 3.95191 4.83565C3.95191 4.83565 3.94915 4.83377 3.94723 4.83377H3.47135L3.32538 4.39001Z" fill="white"/>
<path d="M6.02557 4.39001C6.02365 4.38542 6.018 4.38542 6.01524 4.39001L5.86915 4.83389H5.39327C5.39134 4.83389 5.38858 4.83483 5.38858 4.83483C5.38762 4.83754 5.38858 4.84036 5.38954 4.8413L5.77496 5.11636L5.6279 5.55836C5.62694 5.56107 5.6279 5.56295 5.62983 5.56389C5.63079 5.56483 5.63175 5.56483 5.63259 5.56483H5.63535L6.01992 5.29071L6.4063 5.56389C6.4063 5.56389 6.40726 5.56483 6.40822 5.56483C6.41195 5.56483 6.41387 5.56295 6.41387 5.56107C6.41387 5.55918 6.41291 5.55836 6.41291 5.55742L6.26681 5.11624L6.65139 4.84118C6.65235 4.84024 6.65331 4.83754 6.65235 4.83565C6.65235 4.83565 6.65043 4.83377 6.64754 4.83377H6.17262L6.02557 4.39001Z" fill="white"/>
<path d="M8.47501 5.11636L8.32891 5.55836C8.32795 5.56106 8.32891 5.56294 8.32988 5.56388C8.3318 5.56483 8.33468 5.56483 8.33552 5.56388L8.71998 5.29071L9.10635 5.56388C9.10635 5.56388 9.10731 5.56483 9.10911 5.56483C9.112 5.56483 9.11476 5.56294 9.11476 5.56106C9.11476 5.55918 9.11284 5.55836 9.11284 5.55741L8.96675 5.11624L9.3512 4.84118C9.35312 4.84024 9.35396 4.83753 9.35312 4.83565C9.35312 4.83565 9.35036 4.83377 9.34843 4.83377H8.87267L8.72466 4.38989C8.7237 4.3853 8.71709 4.3853 8.71625 4.38989L8.5692 4.83377H8.09332C8.0914 4.83377 8.08851 4.83471 8.08851 4.83471C8.08755 4.83741 8.08851 4.84024 8.09043 4.84118L8.47501 5.11636Z" fill="white"/>
<path d="M11.1751 5.11636L11.029 5.55836C11.0281 5.56106 11.029 5.56294 11.03 5.56388C11.0328 5.56483 11.0347 5.56483 11.0356 5.56388L11.4212 5.29071L11.8066 5.56388C11.8066 5.56388 11.8085 5.56483 11.8093 5.56483C11.8122 5.56483 11.8141 5.56294 11.8141 5.56106C11.8141 5.55918 11.8141 5.55836 11.8141 5.55741L11.6661 5.11624L12.0526 4.84118C12.0536 4.84024 12.0546 4.83753 12.0536 4.83565C12.0526 4.83471 12.0508 4.83377 12.0489 4.83377H11.5729L11.4259 4.38989C11.4239 4.3853 11.4174 4.3853 11.4165 4.38989L11.2694 4.83377H10.7925C10.7915 4.83377 10.7897 4.83471 10.7897 4.83471C10.7887 4.83741 10.7897 4.84024 10.7907 4.84118L11.1751 5.11636Z" fill="white"/>
<path d="M14.1259 4.39001C14.1249 4.38542 14.1175 4.38542 14.1165 4.39001L13.9703 4.83389H13.4944C13.4925 4.83389 13.4897 4.83483 13.4888 4.83577C13.4888 4.83765 13.4897 4.84036 13.4907 4.8413L13.8761 5.11636L13.7291 5.55836C13.7281 5.56107 13.7291 5.56295 13.731 5.56389C13.7319 5.56483 13.7329 5.56483 13.7337 5.56483C13.7337 5.56483 13.7347 5.56483 13.7365 5.56389L14.1211 5.29071L14.5074 5.56389L14.5094 5.56483C14.5121 5.56483 14.5141 5.56295 14.5141 5.56107C14.5141 5.55918 14.5141 5.55836 14.5141 5.55742L14.3662 5.11624L14.7527 4.84118C14.7536 4.84024 14.7546 4.83754 14.7536 4.83565C14.7527 4.83471 14.7517 4.83377 14.7488 4.83377H14.2739L14.1259 4.39001Z" fill="white"/>
<path d="M1.98147 5.51412C1.98051 5.50953 1.9739 5.50953 1.97306 5.51412L1.82601 5.95706H1.34916C1.3482 5.95706 1.34628 5.958 1.34628 5.95989C1.34436 5.96259 1.34628 5.96448 1.34724 5.96542L1.73181 6.23953L1.58572 6.68259C1.58476 6.6853 1.58572 6.68718 1.58668 6.68812C1.58861 6.69 1.59149 6.69 1.59233 6.68812L1.97774 6.414L2.36232 6.68812H2.36604C2.36892 6.68812 2.36989 6.68718 2.36989 6.68447C2.36989 6.68259 2.36989 6.68177 2.36989 6.68177L2.22283 6.23942L2.60825 5.9653C2.61017 5.96436 2.61101 5.96259 2.61017 5.95977C2.61017 5.95789 2.60741 5.95695 2.60548 5.95695H2.1296L1.98147 5.51412Z" fill="white"/>
<path d="M4.68252 5.51412C4.6806 5.50953 4.67411 5.50953 4.67303 5.51412L4.52694 5.95706H4.0501C4.04817 5.95706 4.04637 5.958 4.04541 5.95989C4.04541 5.96259 4.04541 5.96448 4.04733 5.96542L4.43275 6.23953L4.28569 6.68259C4.28473 6.6853 4.28569 6.68718 4.28665 6.68812C4.28954 6.69 4.29146 6.69 4.2923 6.68812L4.67771 6.414L5.06217 6.68812H5.06601C5.06793 6.68812 5.0707 6.68718 5.0707 6.68447C5.0707 6.68259 5.0707 6.68177 5.0707 6.68177L4.9228 6.23965L5.30918 5.96553C5.31014 5.96459 5.3111 5.96283 5.31014 5.96C5.30918 5.95812 5.30822 5.95718 5.30533 5.95718H4.82945L4.68252 5.51412Z" fill="white"/>
<path d="M7.38259 5.51412C7.38163 5.50953 7.37502 5.50953 7.3731 5.51412L7.22701 5.95706H6.75017C6.75017 5.95706 6.74632 5.958 6.74536 5.95989C6.74536 5.96259 6.74536 5.96448 6.74728 5.96542L7.1327 6.23953L6.98564 6.68259C6.98468 6.6853 6.98564 6.68718 6.98757 6.68812C6.98949 6.69 6.99033 6.69 6.99321 6.68812L7.37779 6.414L7.7632 6.68812H7.76596C7.76873 6.68812 7.77065 6.68718 7.77065 6.68447C7.77065 6.68259 7.77065 6.68177 7.77065 6.68177L7.62275 6.23965L8.00817 5.96553C8.01009 5.96459 8.01189 5.96283 8.01009 5.96C8.00913 5.95812 8.00817 5.95718 8.00636 5.95718H7.5306L7.38259 5.51412Z" fill="white"/>
<path d="M10.0828 5.51412C10.0817 5.50953 10.0752 5.50953 10.0743 5.51412L9.92637 5.95706H9.45049C9.44953 5.95706 9.44772 5.958 9.4458 5.95989C9.4458 5.96259 9.4458 5.96448 9.44856 5.96542L9.83314 6.23953L9.68608 6.68259C9.68608 6.6853 9.68608 6.68718 9.68801 6.68812C9.68993 6.69 9.69269 6.69 9.69365 6.68812L10.0791 6.414L10.4636 6.68812H10.4674C10.4693 6.68812 10.4711 6.68718 10.4711 6.68447C10.4711 6.68259 10.4711 6.68177 10.4711 6.68177L10.324 6.23965L10.7085 5.96553C10.7112 5.96459 10.7112 5.96283 10.7112 5.96C10.7093 5.95812 10.7085 5.95718 10.7066 5.95718H10.2307L10.0828 5.51412Z" fill="white"/>
<path d="M12.7837 5.51412C12.7818 5.50953 12.7753 5.50953 12.7743 5.51412L12.6265 5.95706H12.1514C12.1487 5.95706 12.1477 5.958 12.1467 5.95989C12.1467 5.96259 12.1467 5.96448 12.1487 5.96542L12.5341 6.23953L12.3862 6.68259C12.3862 6.6853 12.3862 6.68718 12.3882 6.68812C12.3901 6.69 12.3919 6.69 12.3939 6.68812L12.7793 6.414L13.1637 6.68812H13.1674C13.1695 6.68812 13.1723 6.68718 13.1723 6.68447C13.1723 6.68259 13.1723 6.68177 13.1713 6.68177L13.0242 6.23965L13.4097 5.96553C13.4116 5.96459 13.4116 5.96283 13.4116 5.96C13.4106 5.95812 13.4097 5.95718 13.4069 5.95718H12.9309L12.7837 5.51412Z" fill="white"/>
<path d="M15.4838 5.51412C15.4828 5.50953 15.4762 5.50953 15.4744 5.51412L15.3274 5.95706H14.8514C14.8486 5.95706 14.8476 5.958 14.8467 5.95989C14.8467 5.96259 14.8467 5.96448 14.8486 5.96542L15.234 6.23953L15.0861 6.68259C15.0861 6.6853 15.0861 6.68718 15.0889 6.68812C15.0898 6.69 15.0916 6.69 15.0945 6.68812L15.4791 6.414L15.8645 6.68812H15.8673C15.87 6.68812 15.872 6.68718 15.872 6.68447C15.872 6.68259 15.872 6.68177 15.871 6.68177L15.724 6.23965L16.1095 5.96553C16.1114 5.96459 16.1114 5.96283 16.1114 5.96C16.1104 5.95812 16.1086 5.95718 16.1076 5.95718H15.6317L15.4838 5.51412Z" fill="white"/>
<path d="M2.15492 8.18765L2.00787 7.74459C2.00595 7.74 2.0003 7.74 1.9985 7.74459L1.85144 8.18765H1.37544C1.37268 8.18765 1.37076 8.18859 1.37076 8.19036C1.3698 8.19306 1.37076 8.19494 1.37172 8.19589L1.75713 8.47L1.61008 8.91294C1.60912 8.91565 1.61008 8.91659 1.612 8.91941H1.61477H1.61753L2.00294 8.64447L2.38836 8.91941H2.39028C2.39028 8.91941 2.39028 8.91941 2.39124 8.91941C2.394 8.91941 2.39593 8.91671 2.39593 8.91483C2.39593 8.91294 2.39496 8.91212 2.39496 8.91212L2.24887 8.47012L2.63344 8.196C2.63441 8.19506 2.63537 8.1933 2.63441 8.19047C2.63441 8.18859 2.63248 8.18777 2.62972 8.18777L2.15492 8.18765Z" fill="white"/>
<path d="M4.85485 8.18765L4.7078 7.74459C4.70588 7.74 4.70023 7.74 4.69831 7.74459L4.55125 8.18765H4.07538C4.07345 8.18765 4.07069 8.18859 4.07069 8.19036C4.06973 8.19306 4.07069 8.19494 4.07261 8.19588L4.45706 8.47L4.31097 8.91294C4.30905 8.91565 4.31097 8.91659 4.31193 8.91941C4.31386 8.92036 4.31674 8.92036 4.31758 8.91941L4.70395 8.64447L5.08841 8.91941H5.09033C5.09405 8.91941 5.09598 8.91671 5.09598 8.91483C5.09598 8.91294 5.09501 8.91212 5.09501 8.91212L4.94892 8.47012L5.3335 8.196C5.33542 8.19506 5.33638 8.1933 5.33542 8.19047C5.33542 8.18859 5.33265 8.18777 5.33073 8.18777L4.85485 8.18765Z" fill="white"/>
<path d="M7.5552 8.18765L7.40815 7.74471C7.40623 7.74012 7.40058 7.74012 7.39866 7.74471L7.25161 8.18777H6.77669C6.7738 8.18777 6.77188 8.18871 6.77188 8.19048C6.77092 8.19318 6.77188 8.19507 6.77284 8.19601L7.15742 8.47012L7.01132 8.91307C7.01036 8.91577 7.01132 8.91671 7.01229 8.91954C7.01505 8.92048 7.01697 8.92048 7.01793 8.91954L7.40334 8.64459L7.78876 8.91954H7.79152C7.79428 8.91954 7.79717 8.91683 7.79717 8.91495C7.79717 8.91307 7.79621 8.91224 7.79621 8.91224L7.64915 8.47024L8.03457 8.19612C8.03457 8.19612 8.03649 8.19342 8.03553 8.1906C8.03553 8.18871 8.03265 8.18789 8.03072 8.18789H7.5552V8.18765Z" fill="white"/>
<path d="M10.255 8.18765L10.108 7.74459C10.107 7.74 10.1014 7.74 10.0986 7.74459L9.95252 8.18765H9.47664C9.47376 8.18765 9.47183 8.18859 9.47183 8.19036C9.47087 8.19306 9.47183 8.19494 9.4728 8.19588L9.85821 8.47L9.71116 8.91294C9.71019 8.91565 9.71116 8.91659 9.71308 8.91941C9.715 8.92036 9.71692 8.92036 9.71872 8.91941L10.1032 8.64447L10.4897 8.91941H10.4916C10.4953 8.91941 10.4972 8.91671 10.4972 8.91483C10.4972 8.91294 10.4963 8.91212 10.4963 8.91212L10.3502 8.47012L10.7346 8.196C10.7356 8.19506 10.7366 8.1933 10.7356 8.19047C10.7356 8.18859 10.7337 8.18777 10.7309 8.18777L10.255 8.18765Z" fill="white"/>
<path d="M12.9563 8.18765L12.8084 7.74459C12.8074 7.74 12.8018 7.74 12.8 7.74459L12.6529 8.18765H12.1769C12.175 8.18765 12.1723 8.18859 12.1723 8.19036C12.1713 8.19306 12.1723 8.19494 12.1742 8.19588L12.5586 8.47L12.4125 8.91294C12.4106 8.91565 12.4125 8.91659 12.4135 8.91941C12.4154 8.92036 12.4182 8.92036 12.4191 8.91941L12.8037 8.64447L13.1901 8.91941H13.192C13.1959 8.91941 13.1968 8.91671 13.1968 8.91483C13.1968 8.91294 13.1968 8.91212 13.1968 8.91212L13.0496 8.47012L13.4352 8.196C13.4371 8.19506 13.4379 8.1933 13.4371 8.19047C13.4371 8.18859 13.4343 8.18777 13.4324 8.18777L12.9563 8.18765Z" fill="white"/>
<path d="M16.1321 8.18765H15.6562L15.5092 7.74459C15.5073 7.74 15.5008 7.74 15.4998 7.74459L15.3526 8.18765H14.8758C14.8748 8.18765 14.873 8.18859 14.8721 8.19036C14.8721 8.19306 14.8721 8.19494 14.874 8.19588L15.2584 8.47L15.1124 8.91294C15.1114 8.91565 15.1124 8.91659 15.1133 8.91941C15.1161 8.92036 15.118 8.92036 15.119 8.91941L15.5045 8.64447L15.8889 8.91941H15.8927C15.8954 8.91941 15.8974 8.91671 15.8974 8.91483C15.8974 8.91294 15.8974 8.91212 15.8974 8.91212L15.7495 8.47012L16.136 8.196C16.1369 8.19506 16.1379 8.1933 16.1369 8.19047C16.1369 8.18859 16.1342 8.18765 16.1321 8.18765Z" fill="white"/>
<path d="M2.12184 10.4451L1.97479 10.0012C1.97287 9.99753 1.96722 9.99753 1.96638 10.0012L1.81837 10.4451H1.34249C1.34056 10.4451 1.3378 10.446 1.3378 10.4478C1.33684 10.4487 1.3378 10.4514 1.33876 10.4524L1.72418 10.7274L1.57712 11.1704C1.57616 11.1724 1.57712 11.174 1.57904 11.1749C1.58097 11.1769 1.58289 11.1769 1.58565 11.1749L1.97022 10.9018L2.35564 11.1749C2.3566 11.1769 2.3566 11.1769 2.35756 11.1769H2.35852C2.36128 11.1769 2.36321 11.1742 2.36321 11.1724C2.36321 11.1704 2.36225 11.1697 2.36225 11.1687L2.21615 10.7275L2.60073 10.4525C2.60169 10.4515 2.60265 10.4488 2.60169 10.4479C2.60169 10.446 2.59977 10.4452 2.59688 10.4452L2.12184 10.4451Z" fill="white"/>
<path d="M4.82201 10.4451L4.67496 10.0012C4.67304 9.99753 4.66739 9.99753 4.66547 10.0012L4.51842 10.4451H4.04254C4.04061 10.4451 4.03773 10.446 4.03773 10.4478C4.03677 10.4487 4.03773 10.4514 4.03965 10.4524L4.42411 10.7274L4.27801 11.1704C4.27705 11.1724 4.27801 11.174 4.27897 11.1749C4.2809 11.1769 4.28366 11.1769 4.28462 11.1749L4.66919 10.9018L5.05557 11.1749C5.05557 11.1769 5.05653 11.1769 5.05833 11.1769C5.06109 11.1769 5.06398 11.1742 5.06398 11.1724C5.06398 11.1704 5.06206 11.1697 5.06206 11.1687L4.91596 10.7275L5.30054 10.4525C5.30246 10.4515 5.3033 10.4488 5.30246 10.4479C5.30246 10.446 5.2997 10.4452 5.29777 10.4452L4.82201 10.4451Z" fill="white"/>
<path d="M7.52201 10.4451L7.37591 10.0012C7.37315 9.99753 7.36642 9.99753 7.36558 10.0012L7.21949 10.4451H6.74361C6.74085 10.4451 6.73892 10.446 6.73892 10.4478C6.73796 10.4487 6.73892 10.4514 6.73988 10.4524L7.12446 10.7274L6.97837 11.1704C6.9774 11.1724 6.97837 11.174 6.97933 11.1749C6.98209 11.1769 6.98401 11.1769 6.98497 11.1749L7.37039 10.9018L7.7558 11.1749C7.7558 11.1769 7.75772 11.1769 7.75868 11.1769C7.76145 11.1769 7.76433 11.1742 7.76433 11.1724C7.76433 11.1704 7.76337 11.1697 7.76337 11.1687L7.61547 10.7275L8.00185 10.4525C8.00281 10.4515 8.00377 10.4488 8.00281 10.4479C8.00281 10.446 8.00005 10.4452 7.99812 10.4452L7.52201 10.4451Z" fill="white"/>
<path d="M10.2232 10.4451L10.0753 10.0012C10.0744 9.99753 10.0669 9.99753 10.066 10.0012L9.91988 10.4451H9.44388C9.44196 10.4451 9.43919 10.446 9.43823 10.4478C9.43823 10.4478 9.43919 10.4514 9.44015 10.4524L9.82557 10.7274L9.67852 11.1704C9.67755 11.1724 9.67851 11.174 9.68044 11.1749C9.68236 11.1769 9.68416 11.1769 9.68608 11.1749L10.0707 10.9018L10.457 11.1749C10.457 11.1769 10.458 11.1769 10.459 11.1769C10.4628 11.1769 10.4638 11.1742 10.4638 11.1724C10.4638 11.1704 10.4638 11.1697 10.4638 11.1687L10.3177 10.7275L10.7021 10.4525C10.7031 10.4515 10.704 10.4488 10.7031 10.4479C10.7031 10.446 10.7012 10.4452 10.6984 10.4452L10.2232 10.4451Z" fill="white"/>
<path d="M12.9232 10.4451L12.7753 10.0012C12.7743 9.99753 12.7677 9.99753 12.7669 10.0012L12.6198 10.4451H12.1429C12.1419 10.4451 12.1391 10.446 12.1382 10.4478C12.1382 10.4478 12.1382 10.4514 12.1409 10.4524L12.5254 10.7274L12.3793 11.1704C12.3783 11.1724 12.3793 11.174 12.3803 11.1749C12.3822 11.1769 12.385 11.1769 12.3859 11.1749L12.7705 10.9018L13.1569 11.1749C13.1569 11.1769 13.1578 11.1769 13.1596 11.1769C13.1624 11.1769 13.1634 11.1742 13.1634 11.1724C13.1634 11.1704 13.1634 11.1697 13.1634 11.1687L13.0163 10.7275L13.4009 10.4525C13.4036 10.4515 13.4046 10.4488 13.4036 10.4479C13.4017 10.446 13.4009 10.4452 13.3988 10.4452L12.9232 10.4451Z" fill="white"/>
<path d="M15.6234 10.4451L15.4763 10.0012C15.4744 9.99753 15.4678 9.99753 15.4669 10.0012L15.3198 10.4451H14.843C14.842 10.4451 14.8401 10.446 14.8391 10.4478C14.8391 10.4478 14.8391 10.4514 14.8412 10.4524L15.2256 10.7274L15.0795 11.1704C15.0786 11.1724 15.0795 11.174 15.0805 11.1749C15.0832 11.1769 15.0852 11.1769 15.0861 11.1749L15.4715 10.9018L15.8561 11.1749C15.8571 11.1769 15.8589 11.1769 15.8598 11.1769C15.8618 11.1769 15.8645 11.1742 15.8645 11.1724C15.8645 11.1704 15.8645 11.1697 15.8645 11.1687L15.7166 10.7275L16.103 10.4525C16.104 10.4515 16.1049 10.4488 16.104 10.4479C16.103 10.446 16.1012 10.4452 16.0993 10.4452L15.6234 10.4451Z" fill="white"/>
<path d="M3.47987 7.06081L3.33282 6.61693C3.3309 6.61422 3.32525 6.61422 3.32249 6.61693L3.1764 7.06081H2.7004C2.69847 7.06081 2.69571 7.06175 2.69571 7.06446C2.69475 7.06634 2.69571 7.0681 2.69667 7.06999L3.08209 7.34316L2.93515 7.78705C2.93419 7.78893 2.93515 7.79163 2.93707 7.79257C2.939 7.79352 2.94176 7.79352 2.94272 7.79257L3.32813 7.51752L3.71355 7.79257H3.71547C3.71919 7.79257 3.72112 7.79163 3.72112 7.78787L3.72016 7.78599L3.57406 7.34305L3.95864 7.06987C3.9596 7.06799 3.9614 7.06622 3.9596 7.06434C3.9596 7.06163 3.95768 7.06069 3.95587 7.06069L3.47987 7.06081Z" fill="white"/>
<path d="M6.1799 7.06081L6.03381 6.61693C6.03104 6.61422 6.02528 6.61422 6.02432 6.61693L5.87642 7.06081H5.40054C5.39862 7.06081 5.39682 7.06175 5.39682 7.06446C5.3949 7.06634 5.39682 7.0681 5.39778 7.06999L5.78223 7.34316L5.63614 7.78705C5.63518 7.78893 5.63614 7.79163 5.6371 7.79257C5.63902 7.79352 5.64179 7.79352 5.64179 7.79352L6.02924 7.51752L6.41369 7.79257H6.41646C6.41922 7.79257 6.4221 7.79163 6.4221 7.78787L6.42018 7.78599L6.27409 7.34305L6.65866 7.06987C6.66059 7.06799 6.66155 7.06622 6.66059 7.06434C6.66059 7.06163 6.65782 7.06069 6.6559 7.06069L6.1799 7.06081Z" fill="white"/>
<path d="M8.88028 7.06081L8.73323 6.61693C8.7313 6.61422 8.72566 6.61422 8.72374 6.61693L8.57764 7.06081H8.10176C8.099 7.06081 8.09708 7.06175 8.09708 7.06446C8.09612 7.06634 8.09708 7.0681 8.09804 7.06999L8.48345 7.34316L8.3364 7.78705C8.33544 7.78893 8.3364 7.79163 8.33736 7.79257C8.34012 7.79352 8.34205 7.79352 8.34301 7.79257L8.72938 7.51752L9.1148 7.79257H9.11672C9.12044 7.79257 9.12236 7.79163 9.12236 7.78787L9.1214 7.78599L8.97435 7.34305L9.35976 7.06987C9.36072 7.06799 9.36169 7.06622 9.36073 7.06434C9.36073 7.06163 9.3588 7.06069 9.35592 7.06069L8.88028 7.06081Z" fill="white"/>
<path d="M11.5813 7.06081L11.4333 6.61693C11.4323 6.61422 11.4257 6.61422 11.4239 6.61693L11.2778 7.06081H10.8018C10.7999 7.06081 10.7971 7.06175 10.7961 7.06446C10.7961 7.06634 10.7971 7.0681 10.7981 7.06999L11.1836 7.34316L11.0363 7.78705C11.0353 7.78893 11.0363 7.79163 11.0383 7.79257C11.0403 7.79352 11.043 7.79352 11.044 7.79257L11.4284 7.51752L11.8149 7.79257H11.8169C11.8206 7.79257 11.8225 7.79163 11.8225 7.78787L11.8215 7.78599L11.6755 7.34305L12.0599 7.06987C12.0609 7.06799 12.0627 7.06622 12.0609 7.06434C12.0609 7.06163 12.0589 7.06069 12.0571 7.06069L11.5813 7.06081Z" fill="white"/>
<path d="M14.2813 7.06081L14.1334 6.61693C14.1325 6.61422 14.1259 6.61422 14.125 6.61693L13.978 7.06081H13.501C13.5001 7.06081 13.4983 7.06175 13.4963 7.06446C13.4963 7.06634 13.4983 7.0681 13.4991 7.06999L13.8836 7.34316L13.7375 7.78705C13.7365 7.78893 13.7375 7.79163 13.7384 7.79257C13.7403 7.79352 13.7431 7.79352 13.7441 7.79257L14.1296 7.51752L14.5141 7.79257H14.5178C14.5207 7.79257 14.5235 7.79163 14.5235 7.78787L14.5216 7.78599L14.3754 7.34305L14.76 7.06987C14.7619 7.06799 14.7627 7.06622 14.7619 7.06434C14.7619 7.06163 14.7591 7.06069 14.7572 7.06069L14.2813 7.06081Z" fill="white"/>
<path d="M3.47147 9.31351L3.32538 8.87151C3.32261 8.86693 3.31685 8.86693 3.31504 8.87151L3.16895 9.31351H2.69307C2.69031 9.31351 2.68839 9.31634 2.68839 9.31728C2.68743 9.31916 2.68839 9.32187 2.68935 9.32281L3.07476 9.59693L2.92771 10.04C2.92675 10.0419 2.92771 10.0446 2.92867 10.0455C2.93143 10.0465 2.93335 10.0465 2.93432 10.0455L3.31973 9.77057L3.70514 10.0455C3.70706 10.0465 3.70706 10.0465 3.70791 10.0465C3.70983 10.0465 3.71355 10.0446 3.71355 10.0419C3.71355 10.0409 3.71259 10.04 3.71259 10.0392L3.56554 9.59704L3.95095 9.32293C3.95191 9.32198 3.95287 9.31928 3.95191 9.3174C3.95191 9.31645 3.94915 9.31363 3.94723 9.31363L3.47147 9.31351Z" fill="white"/>
<path d="M6.17262 9.31351L6.02557 8.87151C6.02365 8.86693 6.018 8.86693 6.01524 8.87151L5.86915 9.31351H5.39327C5.39134 9.31351 5.38858 9.31634 5.38858 9.31728C5.38762 9.31916 5.38858 9.32187 5.38954 9.32281L5.77496 9.59693L5.6279 10.04C5.62694 10.0419 5.6279 10.0446 5.62983 10.0455C5.63175 10.0465 5.63355 10.0465 5.63547 10.0455L6.02004 9.77057L6.40642 10.0455C6.40642 10.0455 6.40738 10.0465 6.40834 10.0465C6.41207 10.0465 6.41399 10.0446 6.41399 10.0419C6.41399 10.0409 6.41303 10.04 6.41303 10.0392L6.26693 9.59704L6.65151 9.32293C6.65247 9.32198 6.65343 9.31928 6.65247 9.3174C6.65247 9.31645 6.65055 9.31363 6.64766 9.31363L6.17262 9.31351Z" fill="white"/>
<path d="M8.87267 9.31351L8.72466 8.87151C8.7237 8.86693 8.71805 8.86693 8.71625 8.87151L8.5692 9.31351H8.09332C8.0914 9.31351 8.08851 9.31634 8.08851 9.31728C8.08755 9.31916 8.08851 9.32187 8.09043 9.32281L8.47501 9.59693L8.32891 10.04C8.32795 10.0419 8.32891 10.0446 8.32988 10.0455C8.3318 10.0465 8.33468 10.0465 8.33552 10.0455L8.71998 9.77057L9.10635 10.0455C9.10635 10.0455 9.10731 10.0465 9.10911 10.0465C9.112 10.0465 9.11476 10.0446 9.11476 10.0419C9.11476 10.0409 9.11284 10.04 9.11284 10.0392L8.96675 9.59704L9.3512 9.32293C9.35312 9.32198 9.35396 9.31928 9.35312 9.3174C9.35312 9.31645 9.35036 9.31363 9.34843 9.31363L8.87267 9.31351Z" fill="white"/>
<path d="M11.5727 9.31351L11.4256 8.87151C11.4237 8.86693 11.418 8.86693 11.4162 8.87151L11.2692 9.31351H10.7941C10.7914 9.31351 10.7895 9.31634 10.7895 9.31728C10.7885 9.31916 10.7895 9.32187 10.7904 9.32281L11.1749 9.59693L11.0288 10.04C11.0278 10.0419 11.0288 10.0446 11.0297 10.0455C11.0325 10.0465 11.0344 10.0465 11.0354 10.0455L11.4209 9.77057L11.8063 10.0455C11.8063 10.0455 11.8083 10.0465 11.8091 10.0465C11.812 10.0465 11.8139 10.0446 11.8139 10.0419C11.8139 10.0409 11.8139 10.04 11.8139 10.0392L11.6667 9.59704L12.0523 9.32293C12.0532 9.32198 12.0542 9.31928 12.0532 9.3174C12.0532 9.31645 12.0505 9.31363 12.0485 9.31363L11.5727 9.31351Z" fill="white"/>
<path d="M14.2738 9.31351L14.1259 8.87151C14.1249 8.86693 14.1175 8.86693 14.1165 8.87151L13.9703 9.31351H13.4944C13.4925 9.31351 13.4897 9.31634 13.4888 9.31728C13.4888 9.31916 13.4897 9.32187 13.4907 9.32281L13.8761 9.59693L13.7291 10.04C13.7281 10.0419 13.7291 10.0446 13.731 10.0455C13.7329 10.0465 13.7347 10.0465 13.7366 10.0455L14.1212 9.77057L14.5076 10.0455L14.5095 10.0465C14.5123 10.0465 14.5142 10.0446 14.5142 10.0419C14.5142 10.0409 14.5142 10.04 14.5142 10.0392L14.3663 9.59704L14.7528 9.32293C14.7537 9.32198 14.7547 9.31928 14.7537 9.3174C14.7528 9.31645 14.7518 9.31363 14.7489 9.31363L14.2738 9.31351Z" fill="white"/>
</g>
<defs>
<clipPath id="clip0_1_554">
<rect width="34" height="22" rx="3" fill="white"/>
</clipPath>
</defs>
</svg>
