<svg width="32" height="32" viewBox="0 0 32 32" fill="none" xmlns="http://www.w3.org/2000/svg">
<g clip-path="url(#clip0_1_791)">
<path d="M13.5831 5.00989L4.4862 7.66932L3.30364 3.62395C3.09558 2.91357 3.50295 2.16926 4.21333 1.9612L6.1917 1.38295L10.7378 0.0540114C11.4481 -0.153239 12.1924 0.254136 12.4005 0.964511L13.5768 4.98695L13.5831 5.00989Z" fill="#D83E32"/>
<path d="M13.5768 4.98695L6.70116 6.99695L5.51853 2.95157C5.33503 2.32426 5.63084 1.67089 6.19172 1.38295L10.7378 0.0540114C11.4482 -0.153239 12.1925 0.254136 12.4005 0.964511L13.5768 4.98695Z" fill="#ED5343"/>
<path d="M24.0776 31.1843H28.5848C28.9054 31.1843 29.1653 30.9244 29.1653 30.6038V24.8603C29.1653 24.5397 28.9053 24.2799 28.5848 24.2799H24.0776" fill="#A4DDD8"/>
<path d="M24.0777 31.1842H28.5849C28.9055 31.1842 29.1653 30.9244 29.1653 30.6038V29.2115H24.0776" fill="#96CCC6"/>
<path d="M24.0776 27.3131H29.1653V25.8101H24.0776" fill="#BBEAE4"/>
<path d="M24.2756 24.024V31.3609C24.2756 31.7137 23.9893 32.0001 23.6365 32.0001H11.2979C10.2964 32.0001 9.41519 31.3396 9.13438 30.3784L2.87175 8.95712C2.72938 8.46987 3.00863 7.95962 3.49588 7.81725L5.91325 7.11087L14.6598 4.55425C15.147 4.41187 15.6573 4.69112 15.7996 5.17837L21.1225 23.3849H23.6364C23.9893 23.3848 24.2756 23.6712 24.2756 24.024Z" fill="#EABB5E"/>
<path d="M24.2756 24.024V31.3609C24.2756 31.7137 23.9893 32.0001 23.6365 32.0001H14.7785C13.777 32.0001 12.8958 31.3396 12.615 30.3784L5.91333 7.11081L14.6598 4.55419C15.1471 4.41181 15.6573 4.69106 15.7997 5.17831L21.1226 23.3848H23.6365C23.9893 23.3848 24.2756 23.6712 24.2756 24.024Z" fill="#F9CF70"/>
<path d="M21.1225 23.3848H13.5063L20.6733 21.8481L21.1225 23.3848Z" fill="#EABB5E"/>
<path d="M24.2756 24.024V31.3609C24.2756 31.7137 23.9892 32.0001 23.6365 32.0001V23.3848C23.9892 23.3848 24.2756 23.6712 24.2756 24.024Z" fill="#D3C8BA"/>
<path d="M15.7996 5.17831L2.87175 8.95706C2.72938 8.46981 3.00863 7.95956 3.49588 7.81719L5.91325 7.11081L14.6598 4.55419C15.1471 4.41181 15.6573 4.69106 15.7996 5.17831Z" fill="#EABB5E"/>
</g>
<defs>
<clipPath id="clip0_1_791">
<rect width="32" height="32" fill="white"/>
</clipPath>
</defs>
</svg>
