<svg width="42" height="42" viewBox="0 0 42 42" fill="none" xmlns="http://www.w3.org/2000/svg">
<path d="M34.3364 29.2661C34.3338 29.1462 34.2938 29.0301 34.2219 28.9342C34.1499 28.8382 34.0498 28.7671 33.9354 28.731C31.9138 28.0914 30.4015 27.4818 29.68 27.1756C29.609 27.1456 29.5326 27.1301 29.4555 27.1301C29.3784 27.1301 29.3021 27.1456 29.2311 27.1756C28.5092 27.4821 26.9962 28.0918 24.9756 28.731C24.8917 28.7574 24.815 28.8028 24.7515 28.8637C24.688 28.9246 24.6394 28.9993 24.6095 29.082C24.2602 28.9298 23.9016 28.7999 23.5358 28.6932C24.2963 28.1787 24.882 27.4446 25.2148 26.5889C25.5477 25.7331 25.6118 24.7962 25.3988 23.903C25.1858 23.0099 24.7056 22.2028 24.0224 21.5894C23.3391 20.976 22.4852 20.5853 21.5743 20.4694V13.4758C22.4131 13.6125 23.1761 14.0427 23.7272 14.6897C24.2783 15.3367 24.5817 16.1585 24.5832 17.0084C24.5832 17.1607 24.6437 17.3067 24.7514 17.4144C24.8591 17.5221 25.0051 17.5826 25.1574 17.5826C25.3097 17.5826 25.4558 17.5221 25.5635 17.4144C25.6711 17.3067 25.7316 17.1607 25.7316 17.0084C25.7334 16.0673 26.1055 15.1647 26.7674 14.4957C27.4293 13.8268 28.3278 13.4451 29.2688 13.4333C30.2098 13.4215 31.1177 13.7805 31.7961 14.4326C32.4746 15.0848 32.8692 15.9777 32.8946 16.9185C32.899 17.0678 32.9613 17.2096 33.0685 17.3137C33.1756 17.4179 33.3191 17.4762 33.4685 17.4763H33.4813C33.6331 17.4729 33.7774 17.4096 33.8827 17.3001C33.9879 17.1907 34.0456 17.044 34.043 16.8922C33.9836 13.4722 32.5833 10.2124 30.1438 7.81489C27.7042 5.41735 24.4206 4.0739 21.0001 4.0739C17.5796 4.0739 14.296 5.41735 11.8564 7.81489C9.41683 10.2124 8.01654 13.4722 7.95711 16.8922C7.95456 17.044 8.01222 17.1907 8.11748 17.3001C8.22274 17.4096 8.36705 17.4729 8.51886 17.4763H8.53133C8.68074 17.4762 8.82423 17.4179 8.93137 17.3137C9.03851 17.2096 9.10087 17.0678 9.10522 16.9185C9.12805 16.0111 9.49452 15.1462 10.1306 14.4986C10.7666 13.851 11.6248 13.4691 12.5317 13.43C13.4385 13.3909 14.3264 13.6976 15.0158 14.288C15.7052 14.8785 16.1447 15.7086 16.2455 16.6107C16.2455 16.6287 16.2478 16.6468 16.2501 16.6648C16.2634 16.7788 16.2697 16.8936 16.2688 17.0084C16.2688 17.1607 16.3293 17.3067 16.437 17.4144C16.5447 17.5221 16.6908 17.5826 16.8431 17.5826C16.9954 17.5826 17.1414 17.5221 17.2491 17.4144C17.3568 17.3067 17.4173 17.1607 17.4173 17.0084C17.4188 16.1585 17.7222 15.3367 18.2733 14.6897C18.8244 14.0427 19.5874 13.6125 20.4262 13.4758V20.4694C19.5155 20.5851 18.6617 20.9755 17.9784 21.5886C17.2951 22.2017 16.8148 23.0084 16.6014 23.9013C16.3881 24.7942 16.4517 25.7308 16.784 26.5866C17.1163 27.4424 17.7014 28.1766 18.4614 28.6916C16.59 29.2424 14.9468 30.3834 13.777 31.9446C12.6073 33.5058 11.9737 35.4033 11.9707 37.3541C11.9708 37.5063 12.0313 37.6524 12.139 37.76C12.2467 37.8677 12.3927 37.9282 12.545 37.9283H29.4555C29.4923 37.928 29.529 37.9243 29.5651 37.9171C29.58 37.9137 29.5947 37.9096 29.6091 37.9047C29.6265 37.8998 29.6442 37.8965 29.6613 37.8902C29.6659 37.8883 29.6705 37.886 29.6751 37.8843L29.6826 37.8811C31.8577 37.0388 33.2979 35.2889 33.962 32.674C34.2365 31.5595 34.3624 30.4136 34.3364 29.2661ZM32.2607 13.295C31.2777 12.5202 30.0284 12.1654 28.7849 12.308C27.5415 12.4505 26.4048 13.0788 25.6227 14.0559C25.3993 11.4693 24.7302 7.60463 22.7555 5.35205C24.9125 5.68627 26.9374 6.60251 28.6123 8.00212C30.2872 9.40173 31.5486 11.2317 32.2607 13.295ZM12.6854 12.2778C11.6166 12.2734 10.5779 12.6321 9.73949 13.295C10.4516 11.2317 11.7129 9.40173 13.3878 8.00212C15.0627 6.60251 17.0877 5.68627 19.2446 5.35205C17.2726 7.602 16.6026 11.4598 16.3781 14.0474C15.9351 13.4938 15.3731 13.0472 14.7338 12.7407C14.0945 12.4343 13.3944 12.2758 12.6854 12.2771V12.2778ZM17.5653 13.7593C17.8478 10.9354 18.6619 6.85946 21.0001 5.31563C23.338 6.86044 24.1524 10.9364 24.4349 13.7596C23.9935 13.2917 23.4611 12.919 22.8704 12.6642C22.2798 12.4095 21.6433 12.278 21.0001 12.278C20.3568 12.278 19.7204 12.4095 19.1297 12.6642C18.5391 12.919 18.0067 13.2914 17.5653 13.7593ZM17.6256 24.9519C17.6255 24.2845 17.8233 23.632 18.194 23.077C18.5647 22.522 19.0917 22.0894 19.7083 21.8339C20.3249 21.5784 21.0034 21.5115 21.658 21.6416C22.3126 21.7717 22.9139 22.0931 23.3859 22.565C23.8579 23.0369 24.1794 23.6381 24.3096 24.2927C24.4399 24.9473 24.3731 25.6258 24.1177 26.2425C23.8623 26.8591 23.4298 27.3862 22.8749 27.757C22.3199 28.1278 21.6675 28.3257 21.0001 28.3257C20.1056 28.3243 19.2481 27.9684 18.6155 27.3358C17.983 26.7033 17.627 25.8458 17.6256 24.9513V24.9519ZM21.0001 29.4742C22.2507 29.475 23.4832 29.7734 24.5957 30.3447C24.6398 31.1306 24.758 31.9106 24.9487 32.6744C25.3983 34.443 26.2048 35.8155 27.3523 36.7802H13.1395C13.2872 34.7957 14.1792 32.9402 15.6368 31.5854C17.0944 30.2306 19.0101 29.4765 21.0001 29.4742ZM32.849 32.3922C32.3014 34.5463 31.1601 36.0065 29.4555 36.7359C27.7493 36.0065 26.6094 34.5463 26.0621 32.3922C25.8457 31.51 25.7315 30.6059 25.7218 29.6976C27.4044 29.1513 28.7077 28.6381 29.4555 28.327C30.2027 28.6378 31.506 29.151 33.1893 29.6976C33.1795 30.6059 33.0654 31.51 32.849 32.3922Z" fill="#EDB425"/>
<path d="M28.2652 31.7983C28.1573 31.6969 28.0144 31.6411 27.8663 31.6426C27.7182 31.6441 27.5764 31.7027 27.4706 31.8063C27.3647 31.9098 27.3029 32.0502 27.2982 32.1982C27.2934 32.3462 27.3459 32.4904 27.4449 32.6005L28.51 33.6919C28.5635 33.7466 28.6273 33.7901 28.6978 33.8198C28.7683 33.8495 28.844 33.8648 28.9205 33.8648C28.9969 33.8648 29.0725 33.8496 29.1429 33.82C29.2134 33.7904 29.2772 33.7471 29.3306 33.6925L31.4671 31.5102C31.5211 31.4566 31.5639 31.3928 31.593 31.3225C31.6221 31.2522 31.637 31.1768 31.6367 31.1007C31.6365 31.0247 31.6211 30.9494 31.5915 30.8793C31.5619 30.8092 31.5187 30.7457 31.4644 30.6924C31.41 30.6392 31.3456 30.5973 31.2749 30.5692C31.2042 30.541 31.1287 30.5272 31.0526 30.5285C30.9765 30.5298 30.9015 30.5462 30.8318 30.5768C30.7621 30.6074 30.6992 30.6515 30.6468 30.7066L28.9211 32.4693L28.2652 31.7983Z" fill="#EDB425"/>
</svg>
