<svg width="98" height="98" viewBox="0 0 98 98" fill="none" xmlns="http://www.w3.org/2000/svg">
<path d="M12.6328 17.2266H47.0859V34.4531H12.6328V17.2266Z" fill="#48505B"/>
<path d="M29.8594 17.2266H47.0859V34.4531H29.8594V17.2266Z" fill="#48505B"/>
<path d="M1.14844 33.7109C1.14844 30.9495 3.38701 28.7109 6.14844 28.7109H53.5703C56.3317 28.7109 58.5703 30.9495 58.5703 33.7109V93C58.5703 95.7614 56.3317 98 53.5703 98H6.14844C3.38701 98 1.14844 95.7614 1.14844 93V33.7109Z" fill="#48505B"/>
<path d="M29.8594 33.7109C29.8594 30.9495 32.098 28.7109 34.8594 28.7109H53.5703C56.3317 28.7109 58.5703 30.9495 58.5703 33.7109V93C58.5703 95.7614 56.3317 98 53.5703 98H34.8594C32.098 98 29.8594 95.7614 29.8594 93V33.7109Z" fill="#48505B"/>
<path d="M6.89062 5C6.89062 2.23858 9.1292 0 11.8906 0H47.8281C50.5895 0 52.8281 2.23858 52.8281 5V17.9688C52.8281 20.7302 50.5896 22.9688 47.8281 22.9688H11.8906C9.1292 22.9688 6.89062 20.7302 6.89062 17.9688V5Z" fill="#66747F"/>
<path d="M29.8594 10C29.8594 4.47715 34.3365 0 39.8594 0H42.8281C48.351 0 52.8281 4.47715 52.8281 10V12.9688C52.8281 18.4916 48.351 22.9688 42.8281 22.9688H39.8594C34.3365 22.9688 29.8594 18.4916 29.8594 12.9688V10Z" fill="#66747F"/>
<path d="M3 46C3 43.2386 5.23858 41 8 41H42C44.7614 41 47 43.2386 47 46V80C47 82.7614 44.7614 85 42 85H8C5.23858 85 3 82.7614 3 80V46Z" fill="#141921"/>
<path d="M30 46C30 43.2386 32.2386 41 35 41H40C42.7614 41 45 43.2386 45 46V80C45 82.7614 42.7614 85 40 85H35C32.2386 85 30 82.7614 30 80V46Z" fill="#141921"/>
<path d="M38.3867 60.4844H30.7305V52.8281H24.9883V60.4844H17.332V66.2266H24.9883V73.8828H30.7305V66.2266H38.3867V60.4844Z" fill="#9A86E3"/>
<path d="M30.7305 60.4844V52.8281H27.8594V73.8828H30.7305V66.2266H38.3867V60.4844H30.7305Z" fill="#9A86E3"/>
<path d="M86.3242 93.7891H63.3555C57.5507 93.7891 52.8281 89.0665 52.8281 83.2617C52.8281 77.4569 57.5507 72.7344 63.3555 72.7344H86.3242C92.129 72.7344 96.8516 77.4569 96.8516 83.2617C96.8516 89.0665 92.129 93.7891 86.3242 93.7891Z" fill="#9A86E3"/>
<path d="M63.3555 93.7891H86.3242C92.129 93.7891 96.8516 89.0665 96.8516 83.2617H52.8281C52.8281 89.0665 57.5507 93.7891 63.3555 93.7891Z" fill="#9A86E3"/>
<path d="M86.3242 72.7344H74.8398V93.7891H86.3242C92.129 93.7891 96.8516 89.0665 96.8516 83.2617C96.8516 77.4569 92.129 72.7344 86.3242 72.7344Z" fill="#66747F"/>
<path d="M74.8398 93.7891H86.3242C92.129 93.7891 96.8516 89.0665 96.8516 83.2617H74.8398V93.7891Z" fill="#66747F"/>
<path d="M87.0415 49.1706L70.8003 65.4121C66.6956 69.5167 60.0171 69.5167 55.9124 65.4121C51.8079 61.3076 51.8079 54.6287 55.9124 50.5244L72.1538 34.283C76.2585 30.1785 82.937 30.1785 87.0417 34.283C91.1461 38.3875 91.1461 45.066 87.0415 49.1706Z" fill="#66747F"/>
<path d="M70.8003 65.4121L87.0415 49.1705C91.146 45.0662 91.146 38.3874 87.0415 34.2827L55.9121 65.4121C60.0168 69.5168 66.6956 69.5168 70.8003 65.4121Z" fill="#66747F"/>
<path d="M72.1538 34.2825L64.0332 42.4033L78.921 57.291L87.0418 49.1703C91.1463 45.0659 91.1463 38.3872 87.0418 34.2825C82.9372 30.178 76.2585 30.178 72.1538 34.2825Z" fill="#9A86E3"/>
<path d="M78.9203 57.2913L87.0411 49.1705C91.1457 45.0662 91.1457 38.3874 87.0411 34.2827L71.4766 49.8473L78.9203 57.2913Z" fill="#9A86E3"/>
</svg>
