<svg width="90" height="90" viewBox="0 0 90 90" fill="none" xmlns="http://www.w3.org/2000/svg">
<g clip-path="url(#clip0_1566_4489)">
<path fill-rule="evenodd" clip-rule="evenodd" d="M79.2447 89.473H43.7087C42.3906 89.473 42.2324 87.3641 43.8141 87.3641L33.0057 35.5363C32.4784 35.4309 32.1094 35.0091 32.1094 34.4818C32.2675 29.7894 35.4837 25.7296 39.9125 24.4642V16.872C39.9125 15.5012 41.9161 15.4484 42.0215 16.7138H80.0356C80.1937 15.4484 82.1445 15.5012 82.1445 16.872V24.4642C86.7315 25.7296 89.9477 29.9476 89.9477 34.7454V78.7701C89.9477 84.6752 85.1498 89.473 79.2447 89.473Z" fill="#48505B"/>
<path fill-rule="evenodd" clip-rule="evenodd" d="M82.9017 35.5361C85.6631 35.5361 87.9017 37.7747 87.9017 40.5361V73.1372C87.9017 75.8986 85.6631 78.1372 82.9017 78.1372H60.0106C56.8999 78.1372 54.4219 75.6592 54.4219 72.6012V41.1249C54.4219 38.0669 56.8999 35.5361 60.0106 35.5361H82.9017Z" fill="#141921"/>
<path fill-rule="evenodd" clip-rule="evenodd" d="M82.7772 17.9263H39.3326C35.431 17.9263 32.2676 14.7101 32.2676 10.8085V7.59237C32.2676 3.69079 35.431 0.527344 39.3326 0.527344H82.7772C86.6788 0.527344 89.8423 3.69079 89.8423 7.59237V10.8085C89.8423 14.7101 86.6788 17.9263 82.7772 17.9263Z" fill="#66747F"/>
<path fill-rule="evenodd" clip-rule="evenodd" d="M41.9156 17.9263H39.8066V0.527344H41.9156V17.9263Z" fill="#66747F"/>
<path fill-rule="evenodd" clip-rule="evenodd" d="M49.982 17.9263H47.873V0.527344H49.982V17.9263Z" fill="#66747F"/>
<path fill-rule="evenodd" clip-rule="evenodd" d="M58.0484 17.9263H55.9395V0.527344H58.0484V17.9263Z" fill="#66747F"/>
<path fill-rule="evenodd" clip-rule="evenodd" d="M66.1168 17.9263H64.0078V0.527344H66.1168V17.9263Z" fill="#66747F"/>
<path fill-rule="evenodd" clip-rule="evenodd" d="M74.2359 17.9263H72.127V0.527344H74.2359V17.9263Z" fill="#66747F"/>
<path fill-rule="evenodd" clip-rule="evenodd" d="M82.3023 17.9263H80.1934V0.527344H82.3023V17.9263Z" fill="#66747F"/>
<path fill-rule="evenodd" clip-rule="evenodd" d="M71.187 66.9072C69.1308 66.9072 67.4963 65.2728 67.4963 63.2692V60.5276H64.7547C59.9568 60.5276 59.9568 53.1989 64.7547 53.1989H67.4963V50.4573C67.4963 45.6067 74.825 45.6067 74.825 50.4573V53.1989H77.5666C82.4172 53.1989 82.4172 60.5276 77.5666 60.5276H74.825V63.2692C74.825 65.2728 73.1905 66.9072 71.187 66.9072Z" fill="#9A86E3"/>
<path fill-rule="evenodd" clip-rule="evenodd" d="M43.7083 89.4729H6.59051C2.95255 89.4729 0 86.5204 0 82.9352V40.0178C0 36.3798 2.95255 33.4272 6.59051 33.4272H43.7083C47.3462 33.4272 50.2988 36.3798 50.2988 40.0178V82.9352C50.2988 86.5204 47.3462 89.4729 43.7083 89.4729Z" fill="#66747F"/>
<path fill-rule="evenodd" clip-rule="evenodd" d="M26.2047 89.4729H24.0957V33.4272H26.2047V89.4729Z" fill="#141921"/>
<path fill-rule="evenodd" clip-rule="evenodd" d="M13.1274 58.3129C8.85675 58.3129 5.42969 54.8859 5.42969 50.6679C5.42969 46.45 8.85675 42.9702 13.1274 42.9702C17.3453 42.9702 20.7724 46.45 20.7724 50.6679C20.7724 54.8859 17.3453 58.3129 13.1274 58.3129Z" fill="#141921"/>
<path fill-rule="evenodd" clip-rule="evenodd" d="M8.48799 56.7837C7.90803 56.362 7.43351 55.8347 7.01172 55.3075L17.7147 44.5518C18.2947 44.9736 18.8219 45.4481 19.2437 46.028L8.48799 56.7837Z" fill="#9A86E3"/>
<path fill-rule="evenodd" clip-rule="evenodd" d="M37.1704 79.9296C32.9525 79.9296 29.5254 76.5026 29.5254 72.2846C29.5254 68.014 32.9525 64.5869 37.1704 64.5869C41.441 64.5869 44.8681 68.014 44.8681 72.2846C44.8681 76.5026 41.441 79.9296 37.1704 79.9296Z" fill="#141921"/>
<path fill-rule="evenodd" clip-rule="evenodd" d="M32.5837 78.4009C32.0037 77.9264 31.5292 77.4519 31.0547 76.8719L41.8104 66.1162C42.3904 66.5907 42.8649 67.0652 43.3394 67.6452L32.5837 78.4009Z" fill="#9A86E3"/>
<path fill-rule="evenodd" clip-rule="evenodd" d="M37.1704 58.3129C32.9525 58.3129 29.5254 54.8859 29.5254 50.6679C29.5254 46.45 32.9525 42.9702 37.1704 42.9702C41.441 42.9702 44.8681 46.45 44.8681 50.6679C44.8681 54.8859 41.441 58.3129 37.1704 58.3129Z" fill="#141921"/>
<path fill-rule="evenodd" clip-rule="evenodd" d="M32.5837 56.7837C32.0037 56.362 31.5292 55.8347 31.0547 55.3075L41.8104 44.5518C42.3904 44.9736 42.8649 45.4481 43.3394 46.028L32.5837 56.7837Z" fill="#9A86E3"/>
<path fill-rule="evenodd" clip-rule="evenodd" d="M13.1274 79.9296C8.85675 79.9296 5.42969 76.5026 5.42969 72.2846C5.42969 68.014 8.85675 64.5869 13.1274 64.5869C17.3453 64.5869 20.7724 68.014 20.7724 72.2846C20.7724 76.5026 17.3453 79.9296 13.1274 79.9296Z" fill="#141921"/>
<path fill-rule="evenodd" clip-rule="evenodd" d="M8.48799 78.4009C7.90803 77.9264 7.43351 77.4519 7.01172 76.8719L17.7147 66.1162C18.2947 66.5907 18.8219 67.0652 19.2437 67.6452L8.48799 78.4009Z" fill="#9A86E3"/>
</g>
<defs>
<clipPath id="clip0_1566_4489">
<rect width="90" height="90" fill="white"/>
</clipPath>
</defs>
</svg>
