<svg width="20" height="20" viewBox="0 0 20 20" fill="none" xmlns="http://www.w3.org/2000/svg">
<g clip-path="url(#clip0_1_953)">
<path d="M17.1396 9.56543C17.1396 9.23424 16.8712 8.96588 16.5401 8.96588C16.209 8.96588 15.9405 9.23424 15.9405 9.56543C15.9405 12.841 13.2756 15.506 9.99999 15.506C6.72439 15.506 4.05945 12.841 4.05945 9.56543C4.05945 9.23424 3.79101 8.96588 3.4599 8.96588C3.12879 8.96588 2.86035 9.23424 2.86035 9.56543C2.86035 13.3004 5.74313 16.3741 9.40045 16.6796V18.8009H6.72991C6.3988 18.8009 6.13036 19.0693 6.13036 19.4005C6.13036 19.7317 6.3988 20 6.72991 20H13.27C13.6011 20 13.8695 19.7317 13.8695 19.4005C13.8695 19.0693 13.6011 18.8009 13.27 18.8009H10.5995V16.6796C14.2568 16.3741 17.1396 13.3004 17.1396 9.56543Z" fill="#F3F3F3"/>
<path d="M9.99993 13.435C12.1337 13.435 13.8696 11.6991 13.8696 9.56541V3.86955C13.8696 1.73589 12.1337 0 9.99993 0C7.86626 0 6.13037 1.73589 6.13037 3.86955V9.56541C6.13037 11.6992 7.86626 13.435 9.99993 13.435ZM7.32946 3.86955C7.32946 2.39707 8.52744 1.19909 9.99993 1.19909C11.4725 1.19909 12.6705 2.39707 12.6705 3.86955V9.56541C12.6705 11.0379 11.4725 12.2359 9.99993 12.2359C8.52744 12.2359 7.32946 11.0379 7.32946 9.56541V3.86955Z" fill="#F3F3F3"/>
</g>
<defs>
<clipPath id="clip0_1_953">
<rect width="20" height="20" fill="white"/>
</clipPath>
</defs>
</svg>
