<svg width="18" height="18" viewBox="0 0 18 18" fill="none" xmlns="http://www.w3.org/2000/svg">
<path d="M15.4256 8.60887C15.4256 8.3108 15.184 8.06927 14.886 8.06927C14.588 8.06927 14.3464 8.3108 14.3464 8.60887C14.3464 11.5569 11.9479 13.9554 8.9999 13.9554C6.05185 13.9554 3.6534 11.5568 3.6534 8.60887C3.6534 8.3108 3.41181 8.06927 3.11381 8.06927C2.81581 8.06927 2.57422 8.3108 2.57422 8.60887C2.57422 11.9703 5.16872 14.7367 8.4603 15.0117V16.9208H6.05682C5.75882 16.9208 5.51723 17.1623 5.51723 17.4604C5.51723 17.7585 5.75882 18 6.05682 18H11.9429C12.2409 18 12.4825 17.7585 12.4825 17.4604C12.4825 17.1623 12.2409 16.9208 11.9429 16.9208H9.53942V15.0117C12.831 14.7367 15.4256 11.9703 15.4256 8.60887Z" fill="#DBDBDB"/>
<path d="M8.99969 12.0915C10.9201 12.0915 12.4824 10.5292 12.4824 8.60887V3.4826C12.4824 1.5623 10.9201 0 8.99969 0C7.07939 0 5.51709 1.5623 5.51709 3.4826V8.60887C5.51709 10.5292 7.07939 12.0915 8.99969 12.0915ZM6.59627 3.4826C6.59627 2.15736 7.67445 1.07918 8.99969 1.07918C10.325 1.07918 11.4032 2.15736 11.4032 3.4826V8.60887C11.4032 9.93411 10.325 11.0123 8.99969 11.0123C7.67445 11.0123 6.59627 9.93411 6.59627 8.60887V3.4826Z" fill="#DBDBDB"/>
</svg>
