<svg width="30" height="34" viewBox="0 0 30 34" fill="none" xmlns="http://www.w3.org/2000/svg">
<path d="M29.5031 32.3133C29.5031 32.559 29.4898 32.8047 29.4699 33.0504C29.4167 33.5883 28.9453 34 28.3875 34H1.61245C1.05464 34 0.583154 33.5883 0.530029 33.0504C0.503467 32.8047 0.496826 32.559 0.496826 32.3133C0.496826 26.5824 6.99136 21.9406 15 21.9406C23.0085 21.9406 29.5031 26.5824 29.5031 32.3133Z" fill="url(#paint0_linear_137_166)"/>
<path d="M0.496826 32.3133C0.496826 32.559 0.510107 32.8047 0.530029 33.0504C0.583154 33.5883 1.05464 34 1.61245 34H28.3875C28.9453 34 29.4167 33.5883 29.4699 33.0504C29.4964 32.8047 29.5031 32.559 29.5031 32.3133C29.5031 30.4605 28.8191 28.7207 27.6304 27.2133H2.36948C1.18081 28.7141 0.496826 30.4539 0.496826 32.3133Z" fill="url(#paint1_linear_137_166)"/>
<path d="M28.3874 34C28.9452 34 29.4167 33.5883 29.4698 33.0504C29.4964 32.8047 29.5031 32.559 29.5031 32.3133C29.5031 26.7285 23.3339 22.1797 15.6042 21.9539L7.05774 30.5004V32.9973L8.06712 34.0066H28.3874V34Z" fill="url(#paint2_linear_137_166)"/>
<path d="M28.3874 34C28.9452 34 29.4167 33.5883 29.4698 33.0504C29.4964 32.8047 29.5031 32.559 29.5031 32.3133C29.5031 26.7285 23.3339 22.1797 15.6042 21.9539L7.05774 30.5004V32.9973L8.06712 34.0066H28.3874V34Z" fill="url(#paint3_linear_137_166)"/>
<path d="M19.9008 22.5516V34H28.3875C28.9453 34 29.4168 33.5883 29.4699 33.0504C29.4965 32.8047 29.5031 32.559 29.5031 32.3133C29.5031 27.8109 25.4988 23.9859 19.9008 22.5516Z" fill="url(#paint4_linear_137_166)"/>
<path d="M7.29009 31.543C7.47602 31.543 7.62876 31.6957 7.62876 31.8816V32.7449C7.62876 32.9309 7.47602 33.0836 7.29009 33.0836C7.10415 33.0836 6.95142 32.9309 6.95142 32.7449V31.8816C6.95142 31.6957 7.09751 31.543 7.29009 31.543Z" fill="url(#paint5_linear_137_166)"/>
<path d="M8.29949 31.543C8.48543 31.543 8.63816 31.6957 8.63816 31.8816V32.7449C8.63816 32.9309 8.48543 33.0836 8.29949 33.0836C8.11355 33.0836 7.96082 32.9309 7.96082 32.7449V31.8816C7.96082 31.6957 8.11355 31.543 8.29949 31.543Z" fill="url(#paint6_linear_137_166)"/>
<path d="M9.31548 31.543C9.50142 31.543 9.65415 31.6957 9.65415 31.8816V32.7449C9.65415 32.9309 9.50142 33.0836 9.31548 33.0836C9.12954 33.0836 8.97681 32.9309 8.97681 32.7449V31.8816C8.97681 31.6957 9.12954 31.543 9.31548 31.543Z" fill="url(#paint7_linear_137_166)"/>
<path d="M10.3249 31.543C10.5108 31.543 10.6635 31.6957 10.6635 31.8816V32.7449C10.6635 32.9309 10.5108 33.0836 10.3249 33.0836C10.1389 33.0836 9.98621 32.9309 9.98621 32.7449V31.8816C9.99285 31.6957 10.1389 31.543 10.3249 31.543Z" fill="url(#paint8_linear_137_166)"/>
<path d="M7.37605 32.2203C8.32566 32.2203 9.28191 32.2269 10.2315 32.2269C10.6034 32.2269 10.9022 31.9348 10.9221 31.5695C11.0815 28.6676 11.7854 25.9648 13.0671 23.3219C11.812 22.6777 10.5569 22.0336 9.30183 21.3895C7.72136 24.6102 6.85808 27.9371 6.69207 31.4898C6.67214 31.8883 6.98425 32.2203 7.37605 32.2203Z" fill="url(#paint9_linear_137_166)"/>
<path d="M7.37605 32.2203C8.32566 32.2203 9.28191 32.2269 10.2315 32.2269C10.6034 32.2269 10.9022 31.9348 10.9221 31.5695C11.0815 28.6676 11.7854 25.9648 13.0671 23.3219C11.812 22.6777 10.5569 22.0336 9.30183 21.3895C7.72136 24.6102 6.85808 27.9371 6.69207 31.4898C6.67214 31.8883 6.98425 32.2203 7.37605 32.2203Z" fill="url(#paint10_linear_137_166)"/>
<path d="M7.37605 32.2203C8.32566 32.2203 9.28191 32.2269 10.2315 32.2269C10.6034 32.2269 10.9022 31.9348 10.9221 31.5695C11.0815 28.6676 11.7854 25.9648 13.0671 23.3219C11.812 22.6777 10.5569 22.0336 9.30183 21.3895C7.72136 24.6102 6.85808 27.9371 6.69207 31.4898C6.67214 31.8883 6.98425 32.2203 7.37605 32.2203Z" fill="url(#paint11_linear_137_166)"/>
<path d="M6.91826 29.0527C6.80537 29.8563 6.72568 30.6664 6.68584 31.4965C6.66592 31.8949 6.97803 32.227 7.37646 32.227C8.32607 32.227 9.28232 32.2336 10.2319 32.2336C10.6038 32.2336 10.9026 31.9414 10.9226 31.5762C10.969 30.7195 11.062 29.8828 11.2081 29.0527H6.91826Z" fill="url(#paint12_linear_137_166)"/>
<path d="M22.2183 23.1027C22.0191 22.9766 21.8996 22.7508 21.8996 22.5184C21.8996 21.6152 21.2156 20.8582 20.3191 20.7652L14.9933 20.2074L9.66752 20.7652C8.77104 20.8582 8.08705 21.6152 8.08705 22.5184C8.08705 22.7574 7.96752 22.9766 7.7683 23.1027C7.05111 23.5676 7.03119 24.6035 7.71518 25.1082C9.48158 26.4098 12.0847 27.2266 14.9867 27.2066C17.8886 27.2266 20.4917 26.4098 22.2581 25.1082C22.962 24.6035 22.9355 23.5676 22.2183 23.1027Z" fill="url(#paint13_linear_137_166)"/>
<path d="M22.2183 23.1027C22.0191 22.9766 21.8996 22.7508 21.8996 22.5184C21.8996 21.6152 21.2156 20.8582 20.3191 20.7652L14.9933 20.2074L9.66752 20.7652C8.77104 20.8582 8.08705 21.6152 8.08705 22.5184C8.08705 22.7574 7.96752 22.9766 7.7683 23.1027C7.05111 23.5676 7.03119 24.6035 7.71518 25.1082C9.48158 26.4098 12.0847 27.2266 14.9867 27.2066C17.8886 27.2266 20.4917 26.4098 22.2581 25.1082C22.962 24.6035 22.9355 23.5676 22.2183 23.1027Z" fill="url(#paint14_linear_137_166)"/>
<path d="M22.2183 23.1027C22.0191 22.9766 21.8996 22.7508 21.8996 22.5184C21.8996 21.6152 21.2156 20.8582 20.3191 20.7652L14.9933 20.2074L9.66752 20.7652C8.77104 20.8582 8.08705 21.6152 8.08705 22.5184C8.08705 22.7574 7.96752 22.9766 7.7683 23.1027C7.05111 23.5676 7.03119 24.6035 7.71518 25.1082C9.48158 26.4098 12.0847 27.2266 14.9867 27.2066C17.8886 27.2266 20.4917 26.4098 22.2581 25.1082C22.962 24.6035 22.9355 23.5676 22.2183 23.1027Z" fill="url(#paint15_linear_137_166)"/>
<path d="M7.29016 23.7469C8.46555 25.3605 11.4738 26.5094 14.9999 26.5094C18.5261 26.5094 21.5409 25.3605 22.7097 23.7469C22.63 23.4945 22.464 23.2621 22.2183 23.1027C22.0191 22.9766 21.8995 22.7508 21.8995 22.5184C21.8995 21.6152 21.2156 20.8582 20.3191 20.7652L14.9933 20.2074L9.66751 20.7652C8.77102 20.8582 8.08704 21.6152 8.08704 22.5184C8.08704 22.7574 7.96751 22.9766 7.76829 23.1027C7.53587 23.2621 7.36985 23.4945 7.29016 23.7469Z" fill="url(#paint16_linear_137_166)"/>
<path d="M22.2183 23.1027C22.0191 22.9766 21.8996 22.7508 21.8996 22.5184C21.8996 21.6152 21.2156 20.8582 20.3191 20.7652L14.9933 20.2074L14.6082 20.2473V27.2066C14.7343 27.2066 14.8605 27.2133 14.9933 27.2066C17.8953 27.2266 20.4984 26.4098 22.2648 25.1082C22.9621 24.6035 22.9355 23.5676 22.2183 23.1027Z" fill="url(#paint17_linear_137_166)"/>
<path d="M22.2183 23.1027C22.0191 22.9766 21.8995 22.7508 21.8995 22.5184C21.8995 21.6152 21.2156 20.8582 20.3191 20.7652L15.1925 20.2273L11.1417 24.2781L14.0503 27.1867C14.3624 27.2066 14.6745 27.2133 14.9933 27.2133C17.8952 27.2332 20.4984 26.4164 22.2648 25.1148C22.962 24.6035 22.9355 23.5676 22.2183 23.1027Z" fill="url(#paint18_linear_137_166)"/>
<path d="M15 25.2676C17.7758 25.2809 20.2793 24.1387 22.039 22.9301C21.9527 22.8105 21.8996 22.6645 21.8996 22.5184C21.8996 21.6152 21.2156 20.8582 20.3191 20.7652L14.9933 20.2074L9.66755 20.7652C8.77107 20.8582 8.08708 21.6152 8.08708 22.5184C8.08708 22.6711 8.0406 22.8105 7.94763 22.9301C9.72068 24.132 12.2242 25.2809 15 25.2676Z" fill="url(#paint19_linear_137_166)"/>
<path d="M25.9304 14.8484C25.9304 16.4223 24.6554 17.6973 23.0816 17.6973C21.5078 17.6973 21.5078 11.9996 23.0816 11.9996C24.6554 11.9996 25.9304 13.2746 25.9304 14.8484Z" fill="url(#paint20_linear_137_166)"/>
<path d="M4.06946 14.8484C4.06946 16.4223 5.34446 17.6973 6.91829 17.6973C8.49211 17.6973 8.49211 11.9996 6.91829 11.9996C5.34446 11.9996 4.06946 13.2746 4.06946 14.8484Z" fill="url(#paint21_linear_137_166)"/>
<path d="M14.9999 3.03477C19.6816 3.03477 23.4734 6.82656 23.4734 11.5082V15.8379C23.4734 20.5195 19.6816 24.3113 14.9999 24.3113C10.3183 24.3113 6.52649 20.5195 6.52649 15.8379V11.5082C6.52649 6.82656 10.3183 3.03477 14.9999 3.03477Z" fill="url(#paint22_linear_137_166)"/>
<path d="M14.9999 3.03477C19.6816 3.03477 23.4734 6.82656 23.4734 11.5082V15.8379C23.4734 20.5195 19.6816 24.3113 14.9999 24.3113C10.3183 24.3113 6.52649 20.5195 6.52649 15.8379V11.5082C6.52649 6.82656 10.3183 3.03477 14.9999 3.03477Z" fill="url(#paint23_linear_137_166)"/>
<path d="M6.52649 14.5762V15.8379C6.52649 20.5195 10.3183 24.3113 14.9999 24.3113C19.6816 24.3113 23.4734 20.5195 23.4734 15.8379V14.5762H6.52649Z" fill="url(#paint24_linear_137_166)"/>
<path d="M14.9999 3.03477C14.7409 3.03477 14.482 3.04805 14.2296 3.06797V24.2781C14.482 24.298 14.7409 24.3113 14.9999 24.3113C19.6816 24.3113 23.4734 20.5195 23.4734 15.8379V11.5082C23.4734 6.82656 19.6816 3.03477 14.9999 3.03477Z" fill="url(#paint25_linear_137_166)"/>
<path d="M15.3386 19.4238H14.6612C13.8046 19.4238 13.1405 18.6801 13.2401 17.8301L13.5921 14.7422H16.4077L16.7597 17.8301C16.8593 18.6801 16.1952 19.4238 15.3386 19.4238Z" fill="url(#paint26_linear_137_166)"/>
<path d="M15.3386 19.4238H14.6612C13.8046 19.4238 13.1405 18.6801 13.2401 17.8301L13.5921 14.7422H16.4077L16.7597 17.8301C16.8593 18.6801 16.1952 19.4238 15.3386 19.4238Z" fill="url(#paint27_linear_137_166)"/>
<path d="M15.3386 19.4238H14.6612C13.8046 19.4238 13.1405 18.6801 13.2401 17.8301L13.5921 14.7422H16.4077L16.7597 17.8301C16.8593 18.6801 16.1952 19.4238 15.3386 19.4238Z" fill="url(#paint28_linear_137_166)"/>
<path d="M11.1617 12.9094C12.0117 12.9094 12.7023 13.6 12.7023 14.45V15.2402C12.7023 16.0902 12.0117 16.7809 11.1617 16.7809C10.3117 16.7809 9.62109 16.0902 9.62109 15.2402V14.45C9.62109 13.6 10.3117 12.9094 11.1617 12.9094Z" fill="url(#paint29_linear_137_166)"/>
<path d="M18.8382 12.9094C19.6882 12.9094 20.3789 13.6 20.3789 14.45V15.2402C20.3789 16.0902 19.6882 16.7809 18.8382 16.7809C17.9882 16.7809 17.2976 16.0902 17.2976 15.2402V14.45C17.2976 13.6 17.9882 12.9094 18.8382 12.9094Z" fill="url(#paint30_linear_137_166)"/>
<path d="M8.8241 4.53554C8.8241 4.8875 8.78425 5.23281 8.70457 5.5582C8.34597 4.00429 7.1905 2.7625 5.69636 2.27109C5.30457 2.14492 5.03894 1.78633 5.03894 1.38125V1.34804C5.03894 0.650778 5.78269 0.192575 6.40027 0.517966C7.84128 1.28164 8.8241 2.78906 8.8241 4.53554Z" fill="url(#paint31_linear_137_166)"/>
<path d="M8.68469 10.2531C10.7935 10.2531 12.5031 8.54358 12.5031 6.43476C12.5031 4.32594 10.7935 2.6164 8.68469 2.6164C6.57587 2.6164 4.86633 4.32594 4.86633 6.43476C4.86633 8.54358 6.57587 10.2531 8.68469 10.2531Z" fill="url(#paint32_linear_137_166)"/>
<path d="M8.68469 10.2531C10.7935 10.2531 12.5031 8.54358 12.5031 6.43476C12.5031 4.32594 10.7935 2.6164 8.68469 2.6164C6.57587 2.6164 4.86633 4.32594 4.86633 6.43476C4.86633 8.54358 6.57587 10.2531 8.68469 10.2531Z" fill="url(#paint33_linear_137_166)"/>
<path d="M23.6195 9.05117C17.8886 7.51718 12.1113 7.51718 6.38041 9.05117C5.84916 9.19062 5.51713 9.72187 5.61674 10.2598C5.70306 10.7312 5.78939 11.2094 5.87572 11.6809C5.98861 12.2852 6.58627 12.6637 7.18392 12.5109C12.3902 11.1629 17.6164 11.1629 22.816 12.5109C23.407 12.6637 24.0113 12.2852 24.1242 11.6809C24.2105 11.2094 24.2968 10.7312 24.3831 10.2598C24.4828 9.72187 24.1507 9.19726 23.6195 9.05117Z" fill="url(#paint34_linear_137_166)"/>
<path d="M23.6195 9.05117C17.8886 7.51718 12.1113 7.51718 6.38041 9.05117C5.84916 9.19062 5.51713 9.72187 5.61674 10.2598C5.70306 10.7312 5.78939 11.2094 5.87572 11.6809C5.98861 12.2852 6.58627 12.6637 7.18392 12.5109C12.3902 11.1629 17.6164 11.1629 22.816 12.5109C23.407 12.6637 24.0113 12.2852 24.1242 11.6809C24.2105 11.2094 24.2968 10.7312 24.3831 10.2598C24.4828 9.72187 24.1507 9.19726 23.6195 9.05117Z" fill="url(#paint35_linear_137_166)"/>
<path d="M26.8269 10.5387C25.791 13.3012 20.5913 13.6465 14.2296 11.2625C7.8679 8.87851 6.51985 5.65781 7.55579 2.89531C8.59173 0.132811 11.6132 -1.12227 17.9749 1.25508C24.3367 3.63242 27.8628 7.77617 26.8269 10.5387Z" fill="url(#paint36_linear_137_166)"/>
<path d="M14.2296 11.2625C20.5913 13.6465 25.7909 13.3012 26.8269 10.5387C27.3581 9.12421 26.6874 7.34452 25.0472 5.6246H7.37646C7.88115 7.61679 9.88662 9.63554 14.2296 11.2625Z" fill="url(#paint37_linear_137_166)"/>
<path d="M17.9749 1.25507C17.4835 1.06914 17.0187 0.909763 16.5671 0.770309V12.0262C21.8332 13.5137 25.9238 12.9492 26.8269 10.532C27.8628 7.77617 24.3433 3.63906 17.9749 1.25507Z" fill="url(#paint38_linear_137_166)"/>
<path d="M17.8222 19.9086C16.939 19.5965 15.9894 19.4238 15 19.4238C14.4953 19.4238 13.9972 19.4703 13.5125 19.5566C13.0277 19.643 12.5628 19.7691 12.1113 19.9285C9.80698 20.7586 9.80698 24.0523 12.1113 24.8824C13.0144 25.2078 13.9839 25.3871 14.9933 25.3871C15.9828 25.3871 16.9324 25.2211 17.8156 24.9023C20.1929 24.0656 20.1929 20.7453 17.8222 19.9086ZM14.9933 22.9301C14.0039 22.9301 13.2003 22.4254 13.2003 21.8078C13.2003 21.1836 14.0039 20.6855 14.9933 20.6855C15.9828 20.6855 16.7863 21.1902 16.7863 21.8078C16.7863 22.4254 15.9828 22.9301 14.9933 22.9301Z" fill="url(#paint39_linear_137_166)"/>
<defs>
<linearGradient id="paint0_linear_137_166" x1="14.0398" y1="23.0511" x2="15.2856" y2="35.0692" gradientUnits="userSpaceOnUse">
<stop stop-color="#FEF48B"/>
<stop offset="0.1646" stop-color="#FDF286"/>
<stop offset="0.3352" stop-color="#FDEE7A"/>
<stop offset="0.5086" stop-color="#FCE765"/>
<stop offset="0.6839" stop-color="#FCDE48"/>
<stop offset="0.8589" stop-color="#FBD123"/>
<stop offset="1" stop-color="#FAC600"/>
</linearGradient>
<linearGradient id="paint1_linear_137_166" x1="15" y1="31.8362" x2="15" y2="33.9392" gradientUnits="userSpaceOnUse">
<stop stop-color="#FE9738" stop-opacity="0"/>
<stop offset="0.1207" stop-color="#FE9738" stop-opacity="0.016"/>
<stop offset="0.2459" stop-color="#FE9738" stop-opacity="0.065"/>
<stop offset="0.3731" stop-color="#FE9738" stop-opacity="0.147"/>
<stop offset="0.5018" stop-color="#FE9738" stop-opacity="0.262"/>
<stop offset="0.6317" stop-color="#FE9738" stop-opacity="0.41"/>
<stop offset="0.7625" stop-color="#FE9738" stop-opacity="0.59"/>
<stop offset="0.8916" stop-color="#FE9738" stop-opacity="0.8"/>
<stop offset="1" stop-color="#FE9738"/>
</linearGradient>
<linearGradient id="paint2_linear_137_166" x1="15.4611" y1="28.4664" x2="12.2367" y2="25.7794" gradientUnits="userSpaceOnUse">
<stop stop-color="#FE9738" stop-opacity="0"/>
<stop offset="0.1207" stop-color="#FE9738" stop-opacity="0.016"/>
<stop offset="0.2459" stop-color="#FE9738" stop-opacity="0.065"/>
<stop offset="0.3731" stop-color="#FE9738" stop-opacity="0.147"/>
<stop offset="0.5018" stop-color="#FE9738" stop-opacity="0.262"/>
<stop offset="0.6317" stop-color="#FE9738" stop-opacity="0.41"/>
<stop offset="0.7625" stop-color="#FE9738" stop-opacity="0.59"/>
<stop offset="0.8916" stop-color="#FE9738" stop-opacity="0.8"/>
<stop offset="1" stop-color="#FE9738"/>
</linearGradient>
<linearGradient id="paint3_linear_137_166" x1="17.6853" y1="29.8465" x2="16.5617" y2="25.4497" gradientUnits="userSpaceOnUse">
<stop stop-color="#FE9738" stop-opacity="0"/>
<stop offset="0.1207" stop-color="#FE9738" stop-opacity="0.016"/>
<stop offset="0.2459" stop-color="#FE9738" stop-opacity="0.065"/>
<stop offset="0.3731" stop-color="#FE9738" stop-opacity="0.147"/>
<stop offset="0.5018" stop-color="#FE9738" stop-opacity="0.262"/>
<stop offset="0.6317" stop-color="#FE9738" stop-opacity="0.41"/>
<stop offset="0.7625" stop-color="#FE9738" stop-opacity="0.59"/>
<stop offset="0.8916" stop-color="#FE9738" stop-opacity="0.8"/>
<stop offset="1" stop-color="#FE9738"/>
</linearGradient>
<linearGradient id="paint4_linear_137_166" x1="26.1937" y1="28.2744" x2="29.502" y2="28.2744" gradientUnits="userSpaceOnUse">
<stop stop-color="#FE9738" stop-opacity="0"/>
<stop offset="0.1207" stop-color="#FE9738" stop-opacity="0.016"/>
<stop offset="0.2459" stop-color="#FE9738" stop-opacity="0.065"/>
<stop offset="0.3731" stop-color="#FE9738" stop-opacity="0.147"/>
<stop offset="0.5018" stop-color="#FE9738" stop-opacity="0.262"/>
<stop offset="0.6317" stop-color="#FE9738" stop-opacity="0.41"/>
<stop offset="0.7625" stop-color="#FE9738" stop-opacity="0.59"/>
<stop offset="0.8916" stop-color="#FE9738" stop-opacity="0.8"/>
<stop offset="1" stop-color="#FE9738"/>
</linearGradient>
<linearGradient id="paint5_linear_137_166" x1="6.9736" y1="32.3125" x2="7.414" y2="32.3125" gradientUnits="userSpaceOnUse">
<stop stop-color="#3692BC"/>
<stop offset="0.2702" stop-color="#3190BA"/>
<stop offset="0.5502" stop-color="#258AB7"/>
<stop offset="0.8337" stop-color="#1081B2"/>
<stop offset="1" stop-color="#017BAE"/>
</linearGradient>
<linearGradient id="paint6_linear_137_166" x1="7.98711" y1="32.3125" x2="8.42752" y2="32.3125" gradientUnits="userSpaceOnUse">
<stop stop-color="#3692BC"/>
<stop offset="0.2702" stop-color="#3190BA"/>
<stop offset="0.5502" stop-color="#258AB7"/>
<stop offset="0.8337" stop-color="#1081B2"/>
<stop offset="1" stop-color="#017BAE"/>
</linearGradient>
<linearGradient id="paint7_linear_137_166" x1="9.00058" y1="32.3125" x2="9.44099" y2="32.3125" gradientUnits="userSpaceOnUse">
<stop stop-color="#3692BC"/>
<stop offset="0.2702" stop-color="#3190BA"/>
<stop offset="0.5502" stop-color="#258AB7"/>
<stop offset="0.8337" stop-color="#1081B2"/>
<stop offset="1" stop-color="#017BAE"/>
</linearGradient>
<linearGradient id="paint8_linear_137_166" x1="10.0141" y1="32.3125" x2="10.4545" y2="32.3125" gradientUnits="userSpaceOnUse">
<stop stop-color="#3692BC"/>
<stop offset="0.2702" stop-color="#3190BA"/>
<stop offset="0.5502" stop-color="#258AB7"/>
<stop offset="0.8337" stop-color="#1081B2"/>
<stop offset="1" stop-color="#017BAE"/>
</linearGradient>
<linearGradient id="paint9_linear_137_166" x1="7.96501" y1="26.6053" x2="10.9288" y2="28.2012" gradientUnits="userSpaceOnUse">
<stop stop-color="#3692BC"/>
<stop offset="0.2702" stop-color="#3190BA"/>
<stop offset="0.5502" stop-color="#258AB7"/>
<stop offset="0.8337" stop-color="#1081B2"/>
<stop offset="1" stop-color="#017BAE"/>
</linearGradient>
<linearGradient id="paint10_linear_137_166" x1="9.1406" y1="28.2182" x2="10.2154" y2="26.3862" gradientUnits="userSpaceOnUse">
<stop stop-color="#3B4D54" stop-opacity="0"/>
<stop offset="0.2132" stop-color="#3B4D54" stop-opacity="0.05"/>
<stop offset="0.4342" stop-color="#3B4D54" stop-opacity="0.198"/>
<stop offset="0.6587" stop-color="#3B4D54" stop-opacity="0.444"/>
<stop offset="0.8843" stop-color="#3B4D54" stop-opacity="0.788"/>
<stop offset="1" stop-color="#3B4D54"/>
</linearGradient>
<linearGradient id="paint11_linear_137_166" x1="10.0676" y1="27.1814" x2="11.6798" y2="27.5233" gradientUnits="userSpaceOnUse">
<stop stop-color="#3B4D54" stop-opacity="0"/>
<stop offset="0.2132" stop-color="#3B4D54" stop-opacity="0.05"/>
<stop offset="0.4342" stop-color="#3B4D54" stop-opacity="0.198"/>
<stop offset="0.6587" stop-color="#3B4D54" stop-opacity="0.444"/>
<stop offset="0.8843" stop-color="#3B4D54" stop-opacity="0.788"/>
<stop offset="1" stop-color="#3B4D54"/>
</linearGradient>
<linearGradient id="paint12_linear_137_166" x1="8.94936" y1="30.8102" x2="8.94936" y2="32.2762" gradientUnits="userSpaceOnUse">
<stop stop-color="#3B4D54" stop-opacity="0"/>
<stop offset="0.2132" stop-color="#3B4D54" stop-opacity="0.05"/>
<stop offset="0.4342" stop-color="#3B4D54" stop-opacity="0.198"/>
<stop offset="0.6587" stop-color="#3B4D54" stop-opacity="0.444"/>
<stop offset="0.8843" stop-color="#3B4D54" stop-opacity="0.788"/>
<stop offset="1" stop-color="#3B4D54"/>
</linearGradient>
<linearGradient id="paint13_linear_137_166" x1="14.0076" y1="19.998" x2="15.6687" y2="26.9028" gradientUnits="userSpaceOnUse">
<stop stop-color="#3692BC"/>
<stop offset="0.2702" stop-color="#3190BA"/>
<stop offset="0.5502" stop-color="#258AB7"/>
<stop offset="0.8337" stop-color="#1081B2"/>
<stop offset="1" stop-color="#017BAE"/>
</linearGradient>
<linearGradient id="paint14_linear_137_166" x1="14.738" y1="25.2945" x2="14.1843" y2="27.7698" gradientUnits="userSpaceOnUse">
<stop stop-color="#3B4D54" stop-opacity="0"/>
<stop offset="0.2132" stop-color="#3B4D54" stop-opacity="0.05"/>
<stop offset="0.4342" stop-color="#3B4D54" stop-opacity="0.198"/>
<stop offset="0.6587" stop-color="#3B4D54" stop-opacity="0.444"/>
<stop offset="0.8843" stop-color="#3B4D54" stop-opacity="0.788"/>
<stop offset="1" stop-color="#3B4D54"/>
</linearGradient>
<linearGradient id="paint15_linear_137_166" x1="15.478" y1="25.9329" x2="15.9339" y2="27.6591" gradientUnits="userSpaceOnUse">
<stop stop-color="#3B4D54" stop-opacity="0"/>
<stop offset="0.2132" stop-color="#3B4D54" stop-opacity="0.05"/>
<stop offset="0.4342" stop-color="#3B4D54" stop-opacity="0.198"/>
<stop offset="0.6587" stop-color="#3B4D54" stop-opacity="0.444"/>
<stop offset="0.8843" stop-color="#3B4D54" stop-opacity="0.788"/>
<stop offset="1" stop-color="#3B4D54"/>
</linearGradient>
<linearGradient id="paint16_linear_137_166" x1="14.6434" y1="25.2407" x2="13.9838" y2="28.0009" gradientUnits="userSpaceOnUse">
<stop stop-color="#3B4D54" stop-opacity="0"/>
<stop offset="0.2132" stop-color="#3B4D54" stop-opacity="0.05"/>
<stop offset="0.4342" stop-color="#3B4D54" stop-opacity="0.198"/>
<stop offset="0.6587" stop-color="#3B4D54" stop-opacity="0.444"/>
<stop offset="0.8843" stop-color="#3B4D54" stop-opacity="0.788"/>
<stop offset="1" stop-color="#3B4D54"/>
</linearGradient>
<linearGradient id="paint17_linear_137_166" x1="19.8799" y1="22.4015" x2="22.225" y2="21.5873" gradientUnits="userSpaceOnUse">
<stop stop-color="#3B4D54" stop-opacity="0"/>
<stop offset="0.2132" stop-color="#3B4D54" stop-opacity="0.05"/>
<stop offset="0.4342" stop-color="#3B4D54" stop-opacity="0.198"/>
<stop offset="0.6587" stop-color="#3B4D54" stop-opacity="0.444"/>
<stop offset="0.8843" stop-color="#3B4D54" stop-opacity="0.788"/>
<stop offset="1" stop-color="#3B4D54"/>
</linearGradient>
<linearGradient id="paint18_linear_137_166" x1="17.7985" y1="26.5605" x2="16.5775" y2="22.9764" gradientUnits="userSpaceOnUse">
<stop stop-color="#3B4D54" stop-opacity="0"/>
<stop offset="0.2132" stop-color="#3B4D54" stop-opacity="0.05"/>
<stop offset="0.4342" stop-color="#3B4D54" stop-opacity="0.198"/>
<stop offset="0.6587" stop-color="#3B4D54" stop-opacity="0.444"/>
<stop offset="0.8843" stop-color="#3B4D54" stop-opacity="0.788"/>
<stop offset="1" stop-color="#3B4D54"/>
</linearGradient>
<linearGradient id="paint19_linear_137_166" x1="16.4922" y1="24.314" x2="18.5929" y2="26.8789" gradientUnits="userSpaceOnUse">
<stop stop-color="#3B4D54" stop-opacity="0"/>
<stop offset="0.2132" stop-color="#3B4D54" stop-opacity="0.05"/>
<stop offset="0.4342" stop-color="#3B4D54" stop-opacity="0.198"/>
<stop offset="0.6587" stop-color="#3B4D54" stop-opacity="0.444"/>
<stop offset="0.8843" stop-color="#3B4D54" stop-opacity="0.788"/>
<stop offset="1" stop-color="#3B4D54"/>
</linearGradient>
<linearGradient id="paint20_linear_137_166" x1="21.9012" y1="14.8452" x2="25.9279" y2="14.8452" gradientUnits="userSpaceOnUse">
<stop stop-color="#FFDFCF"/>
<stop offset="0.2453" stop-color="#FFDBCA"/>
<stop offset="0.4994" stop-color="#FFD0BE"/>
<stop offset="0.7566" stop-color="#FFBEA9"/>
<stop offset="1" stop-color="#FFA78F"/>
</linearGradient>
<linearGradient id="paint21_linear_137_166" x1="4.34352" y1="14.38" x2="6.60538" y2="14.8057" gradientUnits="userSpaceOnUse">
<stop stop-color="#FFDFCF"/>
<stop offset="0.2453" stop-color="#FFDBCA"/>
<stop offset="0.4994" stop-color="#FFD0BE"/>
<stop offset="0.7566" stop-color="#FFBEA9"/>
<stop offset="1" stop-color="#FFA78F"/>
</linearGradient>
<linearGradient id="paint22_linear_137_166" x1="7.04472" y1="9.47219" x2="23.0643" y2="17.9343" gradientUnits="userSpaceOnUse">
<stop stop-color="#FFDFCF"/>
<stop offset="0.2453" stop-color="#FFDBCA"/>
<stop offset="0.4994" stop-color="#FFD0BE"/>
<stop offset="0.7566" stop-color="#FFBEA9"/>
<stop offset="1" stop-color="#FFA78F"/>
</linearGradient>
<linearGradient id="paint23_linear_137_166" x1="15.0507" y1="15.1485" x2="14.9042" y2="10.8981" gradientUnits="userSpaceOnUse">
<stop stop-color="#F89580" stop-opacity="0"/>
<stop offset="0.1375" stop-color="#F6947F" stop-opacity="0.021"/>
<stop offset="0.2801" stop-color="#F3917C" stop-opacity="0.084"/>
<stop offset="0.4251" stop-color="#EE8E78" stop-opacity="0.19"/>
<stop offset="0.5717" stop-color="#E68873" stop-opacity="0.337"/>
<stop offset="0.7196" stop-color="#DD826B" stop-opacity="0.528"/>
<stop offset="0.8663" stop-color="#D17963" stop-opacity="0.757"/>
<stop offset="1" stop-color="#C5715A"/>
</linearGradient>
<linearGradient id="paint24_linear_137_166" x1="14.9999" y1="18.1322" x2="14.9999" y2="24.3617" gradientUnits="userSpaceOnUse">
<stop stop-color="#F89580" stop-opacity="0"/>
<stop offset="0.1375" stop-color="#F6947F" stop-opacity="0.021"/>
<stop offset="0.2801" stop-color="#F3917C" stop-opacity="0.084"/>
<stop offset="0.4251" stop-color="#EE8E78" stop-opacity="0.19"/>
<stop offset="0.5717" stop-color="#E68873" stop-opacity="0.337"/>
<stop offset="0.7196" stop-color="#DD826B" stop-opacity="0.528"/>
<stop offset="0.8663" stop-color="#D17963" stop-opacity="0.757"/>
<stop offset="1" stop-color="#C5715A"/>
</linearGradient>
<linearGradient id="paint25_linear_137_166" x1="17.3176" y1="13.6744" x2="23.559" y2="13.6744" gradientUnits="userSpaceOnUse">
<stop stop-color="#F89580" stop-opacity="0"/>
<stop offset="0.1375" stop-color="#F6947F" stop-opacity="0.021"/>
<stop offset="0.2801" stop-color="#F3917C" stop-opacity="0.084"/>
<stop offset="0.4251" stop-color="#EE8E78" stop-opacity="0.19"/>
<stop offset="0.5717" stop-color="#E68873" stop-opacity="0.337"/>
<stop offset="0.7196" stop-color="#DD826B" stop-opacity="0.528"/>
<stop offset="0.8663" stop-color="#D17963" stop-opacity="0.757"/>
<stop offset="1" stop-color="#C5715A"/>
</linearGradient>
<linearGradient id="paint26_linear_137_166" x1="15.1175" y1="16.9485" x2="17.0866" y2="18.3323" gradientUnits="userSpaceOnUse">
<stop stop-color="#F89580" stop-opacity="0"/>
<stop offset="0.1375" stop-color="#F6947F" stop-opacity="0.021"/>
<stop offset="0.2801" stop-color="#F3917C" stop-opacity="0.084"/>
<stop offset="0.4251" stop-color="#EE8E78" stop-opacity="0.19"/>
<stop offset="0.5717" stop-color="#E68873" stop-opacity="0.337"/>
<stop offset="0.7196" stop-color="#DD826B" stop-opacity="0.528"/>
<stop offset="0.8663" stop-color="#D17963" stop-opacity="0.757"/>
<stop offset="1" stop-color="#C5715A"/>
</linearGradient>
<linearGradient id="paint27_linear_137_166" x1="14.9999" y1="18.3755" x2="14.9999" y2="19.5485" gradientUnits="userSpaceOnUse">
<stop stop-color="#F89580" stop-opacity="0"/>
<stop offset="0.1375" stop-color="#F6947F" stop-opacity="0.021"/>
<stop offset="0.2801" stop-color="#F3917C" stop-opacity="0.084"/>
<stop offset="0.4251" stop-color="#EE8E78" stop-opacity="0.19"/>
<stop offset="0.5717" stop-color="#E68873" stop-opacity="0.337"/>
<stop offset="0.7196" stop-color="#DD826B" stop-opacity="0.528"/>
<stop offset="0.8663" stop-color="#D17963" stop-opacity="0.757"/>
<stop offset="1" stop-color="#C5715A"/>
</linearGradient>
<linearGradient id="paint28_linear_137_166" x1="14.3194" y1="17.2217" x2="12.3148" y2="18.1441" gradientUnits="userSpaceOnUse">
<stop stop-color="white" stop-opacity="0"/>
<stop offset="0.1205" stop-color="white" stop-opacity="0.016"/>
<stop offset="0.2454" stop-color="white" stop-opacity="0.065"/>
<stop offset="0.3724" stop-color="white" stop-opacity="0.147"/>
<stop offset="0.5008" stop-color="white" stop-opacity="0.261"/>
<stop offset="0.6304" stop-color="white" stop-opacity="0.408"/>
<stop offset="0.761" stop-color="white" stop-opacity="0.588"/>
<stop offset="0.8898" stop-color="white" stop-opacity="0.797"/>
<stop offset="1" stop-color="white"/>
</linearGradient>
<linearGradient id="paint29_linear_137_166" x1="9.74401" y1="13.4266" x2="11.7079" y2="15.3905" gradientUnits="userSpaceOnUse">
<stop stop-color="#766E6E"/>
<stop offset="0.2493" stop-color="#716B6B"/>
<stop offset="0.5076" stop-color="#656464"/>
<stop offset="0.769" stop-color="#505757"/>
<stop offset="1" stop-color="#384949"/>
</linearGradient>
<linearGradient id="paint30_linear_137_166" x1="17.392" y1="13.3998" x2="19.2232" y2="15.231" gradientUnits="userSpaceOnUse">
<stop stop-color="#766E6E"/>
<stop offset="0.2493" stop-color="#716B6B"/>
<stop offset="0.5076" stop-color="#656464"/>
<stop offset="0.769" stop-color="#505757"/>
<stop offset="1" stop-color="#384949"/>
</linearGradient>
<linearGradient id="paint31_linear_137_166" x1="7.91719" y1="1.13335" x2="7.13552" y2="2.79437" gradientUnits="userSpaceOnUse">
<stop stop-color="#FF4565"/>
<stop offset="0.2378" stop-color="#FB4063"/>
<stop offset="0.4841" stop-color="#EF345D"/>
<stop offset="0.7343" stop-color="#DC1F55"/>
<stop offset="0.9859" stop-color="#C10248"/>
<stop offset="1" stop-color="#C00148"/>
</linearGradient>
<linearGradient id="paint32_linear_137_166" x1="8.50466" y1="0.609671" x2="8.84666" y2="11.6507" gradientUnits="userSpaceOnUse">
<stop stop-color="#FF4565"/>
<stop offset="0.2378" stop-color="#FB4063"/>
<stop offset="0.4841" stop-color="#EF345D"/>
<stop offset="0.7343" stop-color="#DC1F55"/>
<stop offset="0.9859" stop-color="#C10248"/>
<stop offset="1" stop-color="#C00148"/>
</linearGradient>
<linearGradient id="paint33_linear_137_166" x1="8.64239" y1="6.34099" x2="9.79042" y2="8.78375" gradientUnits="userSpaceOnUse">
<stop stop-color="#6D3326" stop-opacity="0"/>
<stop offset="0.2414" stop-color="#6A3124" stop-opacity="0.063"/>
<stop offset="0.4916" stop-color="#622E1F" stop-opacity="0.252"/>
<stop offset="0.7457" stop-color="#542816" stop-opacity="0.565"/>
<stop offset="1" stop-color="#42210B"/>
</linearGradient>
<linearGradient id="paint34_linear_137_166" x1="14.9999" y1="8.5328" x2="14.9999" y2="11.6595" gradientUnits="userSpaceOnUse">
<stop stop-color="#FF4565"/>
<stop offset="0.2378" stop-color="#FB4063"/>
<stop offset="0.4841" stop-color="#EF345D"/>
<stop offset="0.7343" stop-color="#DC1F55"/>
<stop offset="0.9859" stop-color="#C10248"/>
<stop offset="1" stop-color="#C00148"/>
</linearGradient>
<linearGradient id="paint35_linear_137_166" x1="12.7068" y1="13.2105" x2="14.4899" y2="11.2074" gradientUnits="userSpaceOnUse">
<stop stop-color="#6D3326" stop-opacity="0"/>
<stop offset="0.2414" stop-color="#6A3124" stop-opacity="0.063"/>
<stop offset="0.4916" stop-color="#622E1F" stop-opacity="0.252"/>
<stop offset="0.7457" stop-color="#542816" stop-opacity="0.565"/>
<stop offset="1" stop-color="#42210B"/>
</linearGradient>
<linearGradient id="paint36_linear_137_166" x1="16.9169" y1="0.348034" x2="17.2581" y2="11.3647" gradientUnits="userSpaceOnUse">
<stop stop-color="#FF4565"/>
<stop offset="0.2378" stop-color="#FB4063"/>
<stop offset="0.4841" stop-color="#EF345D"/>
<stop offset="0.7343" stop-color="#DC1F55"/>
<stop offset="0.9859" stop-color="#C10248"/>
<stop offset="1" stop-color="#C00148"/>
</linearGradient>
<linearGradient id="paint37_linear_137_166" x1="17.0805" y1="8.97838" x2="16.7385" y2="13.131" gradientUnits="userSpaceOnUse">
<stop stop-color="#6D3326" stop-opacity="0"/>
<stop offset="0.2414" stop-color="#6A3124" stop-opacity="0.063"/>
<stop offset="0.4916" stop-color="#622E1F" stop-opacity="0.252"/>
<stop offset="0.7457" stop-color="#542816" stop-opacity="0.565"/>
<stop offset="1" stop-color="#42210B"/>
</linearGradient>
<linearGradient id="paint38_linear_137_166" x1="21.6747" y1="9.85269" x2="24.8503" y2="13.7122" gradientUnits="userSpaceOnUse">
<stop stop-color="#6D3326" stop-opacity="0"/>
<stop offset="0.2414" stop-color="#6A3124" stop-opacity="0.063"/>
<stop offset="0.4916" stop-color="#622E1F" stop-opacity="0.252"/>
<stop offset="0.7457" stop-color="#542816" stop-opacity="0.565"/>
<stop offset="1" stop-color="#42210B"/>
</linearGradient>
<linearGradient id="paint39_linear_137_166" x1="14.4704" y1="20.3551" x2="15.643" y2="24.9474" gradientUnits="userSpaceOnUse">
<stop stop-color="#BB5D4C"/>
<stop offset="0.2756" stop-color="#B65A49"/>
<stop offset="0.5612" stop-color="#AA5342"/>
<stop offset="0.8504" stop-color="#954736"/>
<stop offset="1" stop-color="#883F2E"/>
</linearGradient>
</defs>
</svg>
