<svg width="37" height="22" viewBox="0 0 37 22" fill="none" xmlns="http://www.w3.org/2000/svg">
<path d="M36.608 16.4937C37.2741 17.6697 36.8645 19.1746 35.6311 19.7272C32.6463 21.0645 29.4289 21.8298 26.1468 21.9747C22.0477 22.1557 17.964 21.3639 14.2295 19.6643C10.4951 17.9646 7.21589 15.4052 4.6601 12.1953C2.61366 9.62518 1.07754 6.69644 0.125593 3.56731C-0.267766 2.2743 0.598016 0.977066 1.92227 0.70697C3.24652 0.436872 4.52537 1.29792 4.94686 2.58203C5.72641 4.95704 6.92381 7.18105 8.48891 9.14669C10.5636 11.7523 13.2255 13.8299 16.257 15.2097C19.2885 16.5894 22.6035 17.2321 25.9309 17.0852C28.4411 16.9744 30.9046 16.4165 33.2075 15.4445C34.4527 14.9189 35.9419 15.3177 36.608 16.4937Z" fill="#999999"/>
</svg>
