<svg width="28" height="27" viewBox="0 0 28 27" fill="none" xmlns="http://www.w3.org/2000/svg">
<g clip-path="url(#clip0_1_715)">
<path d="M6.71619 15.8318L5.80427 19.2361L2.47124 19.3066C1.47515 17.4591 0.910156 15.3453 0.910156 13.099C0.910156 10.9269 1.43841 8.87851 2.37479 7.07489H2.37551L5.34284 7.61891L6.64271 10.5684C6.37065 11.3616 6.22237 12.213 6.22237 13.099C6.22247 14.0605 6.39664 14.9818 6.71619 15.8318Z" fill="#FBBB00"/>
<path d="M26.8793 10.652C27.0297 11.4444 27.1082 12.2627 27.1082 13.099C27.1082 14.0368 27.0096 14.9516 26.8217 15.834C26.1841 18.8367 24.5179 21.4587 22.2097 23.3141L22.209 23.3134L18.4715 23.1227L17.9425 19.8206C19.4741 18.9224 20.671 17.5167 21.3015 15.834H14.2971V10.652H21.4037H26.8793Z" fill="#518EF8"/>
<path d="M22.209 23.3134L22.2097 23.3141C19.9649 25.1184 17.1133 26.198 14.0092 26.198C9.02076 26.198 4.68371 23.4098 2.47125 19.3067L6.7162 15.8318C7.8224 18.7841 10.6704 20.8858 14.0092 20.8858C15.4443 20.8858 16.7888 20.4978 17.9425 19.8205L22.209 23.3134Z" fill="#28B446"/>
<path d="M22.3702 3.01564L18.1267 6.48974C16.9327 5.7434 15.5213 5.31226 14.0092 5.31226C10.5948 5.31226 7.69358 7.51029 6.64279 10.5684L2.37553 7.0749H2.37482C4.55488 2.8717 8.94663 0 14.0092 0C17.1875 0 20.1017 1.13214 22.3702 3.01564Z" fill="#F14336"/>
</g>
<defs>
<clipPath id="clip0_1_715">
<rect width="26.198" height="26.198" fill="white" transform="translate(0.910156)"/>
</clipPath>
</defs>
</svg>
