<svg width="18" height="18" viewBox="0 0 18 18" fill="none" xmlns="http://www.w3.org/2000/svg">
<g clip-path="url(#clip0_1_534)">
<path d="M3.84652 14.8679H0.529407C0.236987 14.8679 0 15.105 0 15.3973C0 15.6896 0.236987 15.9267 0.529407 15.9267H3.84652C4.13894 15.9267 4.37593 15.6896 4.37593 15.3973C4.37593 15.105 4.13894 14.8679 3.84652 14.8679Z" fill="#66747F"/>
<path d="M5.74209 12.9725C4.40493 12.9725 3.31714 14.0603 3.31714 15.3973C3.31714 16.7347 4.40493 17.8224 5.74209 17.8224C7.07925 17.8224 8.16704 16.7347 8.16704 15.3973C8.16704 14.0603 7.07925 12.9725 5.74209 12.9725ZM5.74209 16.7636C4.98878 16.7636 4.37595 16.1506 4.37595 15.3973C4.37595 14.644 4.98878 14.0314 5.74209 14.0314C6.4954 14.0314 7.10823 14.644 7.10823 15.3973C7.10823 16.1506 6.4954 16.7636 5.74209 16.7636Z" fill="#66747F"/>
<path d="M17.4705 14.8679H9.55797C9.26555 14.8679 9.02856 15.105 9.02856 15.3973C9.02856 15.6896 9.26555 15.9267 9.55797 15.9267H17.4705C17.7629 15.9267 17.9999 15.6896 17.9999 15.3973C17.9999 15.105 17.7629 14.8679 17.4705 14.8679Z" fill="#66747F"/>
<path d="M12.8502 6.57514C11.513 6.57514 10.4253 7.66293 10.4253 8.99997C10.4253 10.337 11.5131 11.4248 12.8502 11.4248C14.1874 11.4248 15.2752 10.337 15.2752 8.99997C15.2752 7.66293 14.1874 6.57514 12.8502 6.57514ZM12.8502 10.366C12.0969 10.366 11.4841 9.75328 11.4841 8.99997C11.4841 8.24667 12.0969 7.63399 12.8502 7.63399C13.6035 7.63399 14.2164 8.24667 14.2164 8.99997C14.2164 9.75328 13.6035 10.366 12.8502 10.366Z" fill="#66747F"/>
<path d="M9.03434 8.47061H0.529407C0.236987 8.47061 0 8.70775 0 9.00001C0 9.29227 0.236987 9.52942 0.529407 9.52942H9.03434C9.32676 9.52942 9.56375 9.29227 9.56375 9.00001C9.56375 8.70775 9.32676 8.47061 9.03434 8.47061Z" fill="#66747F"/>
<path d="M17.4705 8.47061H14.7457C14.4533 8.47061 14.2163 8.70775 14.2163 9.00001C14.2163 9.29227 14.4533 9.52942 14.7457 9.52942H17.4705C17.763 9.52942 17.9999 9.29227 17.9999 9.00001C17.9999 8.70775 17.763 8.47061 17.4705 8.47061Z" fill="#66747F"/>
<path d="M5.1498 0.177584C3.81265 0.177584 2.72485 1.26538 2.72485 2.60269C2.72485 3.93973 3.81265 5.02753 5.1498 5.02753C6.48696 5.02753 7.57476 3.93973 7.57476 2.60269C7.57476 1.26538 6.48696 0.177584 5.1498 0.177584ZM5.1498 3.96867C4.3965 3.96867 3.78367 3.356 3.78367 2.60269C3.78367 1.84939 4.3965 1.23644 5.1498 1.23644C5.90311 1.23644 6.51594 1.84939 6.51594 2.60269C6.51594 3.356 5.90311 3.96867 5.1498 3.96867Z" fill="#66747F"/>
<path d="M17.4706 2.07321H8.96569C8.67327 2.07321 8.43628 2.31035 8.43628 2.60261C8.43628 2.89487 8.67327 3.13202 8.96569 3.13202H17.4706C17.763 3.13202 18 2.89487 18 2.60261C18 2.31035 17.763 2.07321 17.4706 2.07321Z" fill="#66747F"/>
<path d="M3.25423 2.07323H0.529407C0.236987 2.07323 0 2.31037 0 2.60267C0 2.89494 0.236987 3.13208 0.529407 3.13208H3.25423C3.54665 3.13208 3.78364 2.89494 3.78364 2.60267C3.78364 2.31037 3.54665 2.07323 3.25423 2.07323Z" fill="#66747F"/>
</g>
<defs>
<clipPath id="clip0_1_534">
<rect width="18" height="18" fill="white" transform="matrix(1 0 0 -1 0 18)"/>
</clipPath>
</defs>
</svg>
