<svg width="20" height="20" viewBox="0 0 20 20" fill="none" xmlns="http://www.w3.org/2000/svg">
<path d="M3.125 18.75H10C11.0337 18.75 11.875 17.9088 11.875 16.875V12.5C11.875 12.155 11.5956 11.875 11.25 11.875C10.9044 11.875 10.625 12.155 10.625 12.5V16.875C10.625 17.2194 10.3444 17.5 10 17.5H3.125C2.78062 17.5 2.5 17.2194 2.5 16.875V3.125C2.5 2.78062 2.78062 2.5 3.125 2.5H10C10.3444 2.5 10.625 2.78062 10.625 3.125V7.5C10.625 7.845 10.9044 8.125 11.25 8.125C11.5956 8.125 11.875 7.845 11.875 7.5V3.125C11.875 2.09125 11.0337 1.25 10 1.25H3.125C2.09125 1.25 1.25 2.09125 1.25 3.125V16.875C1.25 17.9088 2.09125 18.75 3.125 18.75Z" fill="#66747F"/>
<path d="M14.2069 4.88624C13.9713 4.63374 13.5769 4.61936 13.3231 4.85561C13.0712 5.09124 13.0575 5.48686 13.2925 5.73874L16.6862 9.37499H4.375C4.03 9.37499 3.75 9.65499 3.75 9.99999C3.75 10.345 4.03 10.625 4.375 10.625H16.6862L13.2925 14.2612C13.0575 14.5131 13.0712 14.9087 13.3231 15.1444C13.4444 15.2569 13.5975 15.3125 13.75 15.3125C13.9175 15.3125 14.0838 15.2462 14.2069 15.1137L18.5819 10.4262C18.8056 10.1862 18.8056 9.81374 18.5819 9.57374L14.2069 4.88624Z" fill="#66747F"/>
</svg>
