<svg width="18" height="18" viewBox="0 0 18 18" fill="none" xmlns="http://www.w3.org/2000/svg">
<g clip-path="url(#clip0_103_260)">
<path d="M18 8.99946C18 10.9091 17.5037 12.7626 16.5649 14.3594C15.647 15.9206 14.3544 17.1631 12.8271 17.9524C12.7778 17.9785 12.7239 17.9946 12.6683 17.9997C12.6128 18.0048 12.5568 17.9989 12.5036 17.9822C12.4504 17.9656 12.401 17.9385 12.3583 17.9027C12.3156 17.8668 12.2804 17.8228 12.2548 17.7733C12.2292 17.7237 12.2137 17.6696 12.2091 17.614C12.2045 17.5584 12.2111 17.5025 12.2283 17.4495C12.2455 17.3964 12.273 17.3473 12.3093 17.305C12.3456 17.2626 12.39 17.2279 12.4398 17.2028C15.3049 15.7221 17.1562 12.5021 17.1562 8.99946C17.1562 5.49677 15.3049 2.27678 12.4398 0.796136C12.39 0.771045 12.3456 0.736329 12.3093 0.693994C12.273 0.65166 12.2455 0.602549 12.2283 0.549501C12.2111 0.496452 12.2045 0.44052 12.2091 0.384938C12.2137 0.329357 12.2292 0.275229 12.2548 0.225687C12.2804 0.176144 12.3156 0.132169 12.3583 0.0963051C12.401 0.0604415 12.4504 0.0334009 12.5036 0.0167474C12.5568 9.38429e-05 12.6128 -0.00584214 12.6683 -0.00071724C12.7239 0.00440766 12.7778 0.0204917 12.8271 0.0466047C14.3544 0.835863 15.647 2.07828 16.5649 3.63957C17.5037 5.23634 18 7.08977 18 8.99946ZM14.1577 12.8207C14.855 11.6908 15.2236 10.3694 15.2236 8.99946C15.2236 7.62953 14.855 6.30814 14.1577 5.17819C13.473 4.06873 12.517 3.21088 11.3929 2.69732C11.2912 2.65082 11.1751 2.64665 11.0703 2.68574C10.9654 2.72482 10.8804 2.80395 10.8339 2.90572C10.7874 3.00749 10.7832 3.12357 10.8223 3.22841C10.8614 3.33325 10.9405 3.41828 11.0423 3.46478C13.0698 4.39107 14.3799 6.56359 14.3799 8.99946C14.3799 11.4353 13.0698 13.6078 11.0423 14.5341C10.9405 14.5806 10.8614 14.6657 10.8223 14.7705C10.7832 14.8754 10.7874 14.9914 10.8339 15.0932C10.8804 15.195 10.9654 15.2741 11.0703 15.3132C11.1751 15.3523 11.2912 15.3481 11.3929 15.3016C12.517 14.788 13.473 13.9302 14.1577 12.8207ZM12.4472 8.99946C12.4472 7.3044 11.4013 5.81167 9.90366 5.36937C9.79635 5.33767 9.68084 5.34989 9.58254 5.40335C9.48425 5.45682 9.41121 5.54714 9.37951 5.65445C9.34781 5.76176 9.36004 5.87727 9.4135 5.97556C9.46696 6.07386 9.55728 6.14689 9.66459 6.17859C10.8061 6.51571 11.6034 7.67572 11.6034 8.99946C11.6034 10.3232 10.8061 11.4832 9.66459 11.8203C9.61146 11.836 9.56194 11.862 9.51885 11.8969C9.47577 11.9317 9.43997 11.9747 9.4135 12.0234C9.38703 12.072 9.3704 12.1254 9.36457 12.1805C9.35874 12.2356 9.36382 12.2913 9.37951 12.3445C9.39521 12.3976 9.42122 12.4471 9.45605 12.4902C9.49089 12.5333 9.53387 12.5691 9.58254 12.5956C9.63121 12.622 9.68462 12.6387 9.73972 12.6445C9.79482 12.6503 9.85052 12.6453 9.90366 12.6296C11.4012 12.1873 12.4472 10.6945 12.4472 8.99946ZM7.96465 1.71463V16.2843C7.96462 16.3691 7.93905 16.4519 7.89127 16.5219C7.84348 16.592 7.7757 16.646 7.69676 16.6769C7.61783 16.7079 7.53139 16.7143 7.44874 16.6954C7.36609 16.6765 7.29104 16.6332 7.2334 16.571L3.18741 12.2039H0.421875C0.309987 12.2039 0.202681 12.1595 0.123564 12.0804C0.0444474 12.0012 0 11.8939 0 11.782L0 6.21684C0 6.10496 0.0444474 5.99765 0.123564 5.91853C0.202681 5.83942 0.309987 5.79497 0.421875 5.79497H3.18741L7.23333 1.42793C7.29097 1.36575 7.36601 1.32239 7.44867 1.30349C7.53132 1.28459 7.61776 1.29103 7.69669 1.32198C7.77563 1.35293 7.84341 1.40695 7.8912 1.47699C7.93898 1.54703 7.96455 1.62984 7.96458 1.71463H7.96465ZM7.1209 2.79073L3.68114 6.50354C3.64166 6.54616 3.5938 6.58017 3.54057 6.60343C3.48733 6.62669 3.42986 6.6387 3.37177 6.63872H0.84375V11.3602H3.37166C3.42976 11.3602 3.48722 11.3722 3.54046 11.3955C3.5937 11.4188 3.64155 11.4528 3.68104 11.4954L7.1209 15.2081V2.79073Z" fill="#DBDBDB"/>
</g>
<defs>
<clipPath id="clip0_103_260">
<rect width="18" height="18" fill="white"/>
</clipPath>
</defs>
</svg>
