<svg width="34" height="34" viewBox="0 0 34 34" fill="none" xmlns="http://www.w3.org/2000/svg">
<path fill-rule="evenodd" clip-rule="evenodd" d="M20.9457 23.8812L22.9923 22.908L26.1313 21.3899L25.7327 21.1715C25.6637 21.1297 25.5832 21.0982 25.5066 21.0595C25.2414 20.9231 24.6257 20.5964 24.3912 20.4505C24.2554 20.3661 23.8808 20.2077 23.7206 20.1374C23.5802 20.0758 23.6572 20.0675 23.5212 19.9933L23.2069 19.827C23.0705 19.7739 22.766 19.6158 22.6436 19.5223L20.0719 20.8009L19.6886 20.9925C19.474 21.1147 19.2479 21.2194 19.0294 21.3324L18.4047 21.6624L17.2013 22.2672C17.0745 22.3307 16.8875 22.3321 16.7911 22.2672L16.0246 21.9031L13.978 20.9258C13.0443 20.4902 12.0819 20.0125 11.1495 19.5598C11.0011 19.6719 10.855 19.7066 10.5938 19.9262C10.5043 20.0013 10.1877 20.1543 10.0802 20.2044C9.77606 20.3462 9.48536 20.5465 9.14502 20.7146C9.08049 20.7465 8.45163 21.0654 8.37846 21.1224C8.24837 21.2238 8.08708 21.2765 7.94917 21.3669C8.35928 21.5512 8.75402 21.7613 9.16032 21.9518C9.38642 22.0602 9.61259 22.1748 9.83488 22.2917C9.94987 22.3507 10.0687 22.4013 10.1837 22.458L13.1272 23.9064C13.3418 24.0084 13.5565 24.1099 13.7711 24.2115L15.6069 25.1163C15.7641 25.1953 15.9289 25.2678 16.0822 25.354C16.3428 25.5012 16.615 25.6074 16.8794 25.7442C16.9139 25.763 16.9522 25.781 16.9906 25.7997C17.7176 25.4135 18.5761 25.0033 19.3247 24.6492L20.9457 23.8812ZM12.0347 18.8344L10.1836 17.9237C10.0686 17.8674 9.9498 17.8168 9.83481 17.7574C9.61252 17.6405 9.38642 17.5259 9.16025 17.4182C8.75395 17.2269 8.35921 17.0173 7.94911 16.8326C8.08381 16.7443 8.25599 16.6848 8.37839 16.5888C8.45571 16.5281 9.0758 16.2147 9.14495 16.1806C9.48441 16.0135 9.77633 15.8113 10.0801 15.6701C10.1885 15.6197 10.5037 15.4679 10.5937 15.3915C10.8351 15.1862 11.0501 15.1074 11.1571 15.0181L12.8588 15.841L15.741 17.2281C15.8866 17.3002 16.0361 17.3645 16.1817 17.4351L16.7911 17.7337C16.9169 17.796 17.0702 17.7994 17.2013 17.7337L18.2399 17.2147C18.443 17.107 18.6462 17.0009 18.857 16.9054C19.1023 16.7929 19.4533 16.5915 19.7155 16.4585C20.0183 16.3048 20.3287 16.1588 20.6238 15.9959C20.6698 15.9699 20.7235 15.9469 20.7695 15.9227L22.6475 14.9909C22.773 15.085 23.0675 15.2397 23.2071 15.2929C23.2502 15.3094 23.5798 15.4805 23.6095 15.5248C23.6682 15.6123 24.1762 15.7829 24.3914 15.9165C24.6255 16.0619 25.2418 16.3892 25.5067 16.5255C25.5833 16.5642 25.6639 16.596 25.7328 16.6378L26.1314 16.8562L20.2636 19.6736C19.5757 20 18.8825 20.3145 18.2017 20.6555L16.9906 21.2653C16.9522 21.2473 16.914 21.2289 16.8794 21.2097C16.615 21.0729 16.3428 20.9675 16.0822 20.8196C15.9289 20.7329 15.7641 20.6609 15.6069 20.5823L13.7711 19.677C13.5565 19.5754 13.3418 19.4735 13.1272 19.3719L12.0347 18.8344ZM21.6432 24.5546L20.0718 25.3349L19.6886 25.5269C19.4739 25.6492 19.2478 25.753 19.0294 25.8665L18.4047 26.1973L17.2012 26.8021C17.0732 26.866 16.9093 26.8663 16.7911 26.8021C16.57 26.682 16.2507 26.549 16.0246 26.4368L13.9779 25.4603C12.0877 24.5538 10.1444 23.6178 8.28258 22.6571L7.68085 22.3413L6.68818 21.8449C6.31677 21.6479 6.35593 21.1294 6.70736 20.9677C7.21899 20.7322 8.50555 20.1256 8.8805 20.0122C9.24621 19.9016 9.61361 19.7194 10.0035 19.5932L10.7202 19.351L8.28258 18.123L7.68085 17.8068L6.68818 17.3109C6.32098 17.12 6.35199 16.5963 6.70736 16.4336C7.2262 16.196 8.49637 15.5939 8.8805 15.4777C9.25029 15.3658 9.6132 15.1844 10.0035 15.0588L10.7355 14.8124L6.68818 12.8171C6.28732 12.6174 6.30657 12.0535 6.69206 11.8659L8.32093 11.0813C8.57389 10.9579 8.83066 10.8287 9.08743 10.7187C9.11809 10.7053 9.15257 10.6889 9.18324 10.6735C9.9615 10.2884 12.8624 8.89454 13.5563 8.65558C14.0023 8.50197 14.5714 8.2265 15.0549 8.04889L16.0782 7.66217L16.473 7.54603C16.5436 7.57064 16.6626 7.51774 16.7489 7.5138C16.8677 7.50693 16.8677 7.50693 16.9981 7.46667C16.8984 7.52957 16.8026 7.58431 16.7374 7.64912C16.6987 7.69005 16.5479 7.73962 16.4385 7.83768C16.3772 7.8929 16.2928 7.94077 16.2047 7.9868C15.9824 8.10485 15.7678 8.23167 15.5685 8.37468C15.4257 8.47708 15.0211 8.67367 14.8595 8.7514C14.4312 8.95744 14.0199 9.22087 13.5794 9.43894C13.4783 9.48899 12.6423 9.91188 12.5292 9.99008C12.3253 10.1311 12.1094 10.2051 11.9045 10.34C11.893 10.3473 11.8815 10.3546 11.8701 10.3599C11.6286 10.4691 11.414 10.6106 11.1878 10.7409C10.9954 10.8541 10.7871 10.9382 10.6053 11.0387C10.3638 11.1721 10.1223 11.2966 9.88085 11.4258C9.30598 11.737 8.71574 12.011 8.13318 12.3084C8.1102 12.3199 8.08721 12.331 8.06416 12.3421L11.5979 14.0818C11.8892 14.2225 12.1843 14.3635 12.4794 14.5045L15.0013 15.7483C15.2198 15.8567 15.4421 15.9583 15.6529 16.0744C16.0132 16.2706 16.3849 16.4251 16.7491 16.611C16.8296 16.6524 16.91 16.693 16.9905 16.7325C17.1936 16.6297 17.3929 16.5267 17.5923 16.424C19.2038 15.6099 20.873 14.8275 22.5019 14.0431L26.0394 12.3368L22.7855 10.6914C22.5819 10.5873 22.3767 10.5124 22.1991 10.3733L21.6203 10.0582C21.5207 10.0034 21.4172 9.9586 21.3137 9.9057C20.8333 9.65668 20.251 9.35388 19.7844 9.08589C19.5504 8.95145 19.1415 8.77676 18.8838 8.65395C18.711 8.5716 18.7674 8.56127 18.5925 8.46539C18.1098 8.2008 17.4195 7.91717 16.9981 7.55895C17.0624 7.56711 17.3101 7.67625 17.389 7.70916L17.3201 7.65054C17.3277 7.64748 17.3468 7.65401 17.3622 7.65707C17.3776 7.6536 17.3929 7.65054 17.4082 7.64748C17.3785 7.61593 17.1216 7.47497 17.2855 7.5329C17.7698 7.70406 18.3866 7.98612 18.8876 8.18564C20.2215 8.71678 21.5778 9.3005 22.8812 9.90916L24.1843 10.5301L25.0581 10.9494C25.1846 11.0042 25.3073 11.059 25.4261 11.1314C25.4529 11.1483 25.4874 11.1647 25.5181 11.1766C25.7633 11.2774 26.001 11.4085 26.2425 11.5219L27.2351 11.9995C27.4929 12.1235 27.5516 12.511 27.2351 12.6855L26.7676 12.9224L22.9694 14.8303L25.2192 15.6949C25.9637 15.9887 26.4975 16.2311 27.216 16.5702C27.4579 16.6842 27.4975 17.0412 27.216 17.1839L25.7788 17.9159C25.7558 17.9236 25.7328 17.9358 25.7098 17.9485C25.5488 18.05 25.3687 18.1248 25.2 18.2148L24.1537 18.7464L22.9579 19.3601L23.8969 19.7196C24.5165 19.943 25.2702 20.249 25.89 20.4999C26.3634 20.6917 26.7621 20.8914 27.2161 21.1047C27.4817 21.2295 27.4724 21.6007 27.2161 21.7176C26.9907 21.8268 25.8894 22.4135 25.7788 22.4504C25.7559 22.4577 25.7329 22.4703 25.7098 22.483C25.5489 22.5849 25.3687 22.6593 25.2001 22.7493L24.1538 23.2809L22.5862 24.0857L21.6432 24.5546ZM30.8263 22.3397L30.8378 23.734L30.8149 25.9072C30.8149 26.2658 30.5189 26.3745 30.2591 26.5212L29.665 26.8408C29.4198 26.9811 29.1745 27.1237 28.9253 27.2601C28.4606 27.5145 26.9905 28.3081 26.6372 28.4348C26.3198 28.5486 25.9176 28.7698 25.5526 28.912C25.1755 29.0588 24.9518 29.1763 24.5485 29.2898C24.6105 29.3924 24.6391 29.4326 24.6749 29.5601C24.8043 30.0203 24.7805 30.4616 24.5714 30.8999C24.4961 31.0581 24.304 31.3283 24.1728 31.4461C23.9609 31.6364 23.7456 31.7687 23.4715 31.8528L23.0728 31.9252C22.984 31.9225 22.7985 31.9442 22.6972 31.9287L22.3714 31.8589C21.9483 31.7214 21.5369 31.3507 21.3596 30.9544C21.2541 30.7187 21.2713 30.7486 21.2101 30.5167C21.0831 30.0355 21.2174 29.5007 21.4976 29.0979C21.5163 29.071 21.5546 29.0467 21.5819 28.9944C21.6223 28.9169 21.6725 28.9413 21.7007 28.9158C21.8495 28.7881 22.0371 28.6417 22.2334 28.6089C22.3301 28.5927 22.4483 28.4707 22.494 28.5161C22.5295 28.5514 22.6803 28.4914 22.7738 28.4932C22.8198 28.494 22.9207 28.555 22.9347 28.5832L22.8466 28.633C22.8466 28.6353 22.8504 28.638 22.8504 28.6392C22.875 28.6465 22.8543 28.6713 22.8543 28.6713C22.8086 28.7527 23.0126 28.7007 22.747 28.8304C22.5939 28.9051 22.4007 29.1057 22.3139 29.2478C22.2258 29.3918 22.0477 29.6444 22.0342 29.7786C22.0289 29.8304 22.0095 29.8252 22.0112 29.8425C22.0169 30.0598 21.9521 30.1494 22.107 30.4535C22.2147 30.6649 22.3682 30.8353 22.5975 30.9061C22.7 30.9298 22.9145 30.9567 23.0153 30.9375L23.1877 30.8904C23.4476 30.7739 23.6203 30.5491 23.6898 30.2756C23.7652 29.979 23.6908 29.8634 23.6975 29.8007L23.6209 29.6337C23.5795 29.5398 23.4158 29.3449 23.4024 29.2898C23.3787 29.1933 23.0453 28.9097 23.0344 28.8598C23.0195 28.7911 22.9711 28.7352 22.9348 28.6766C22.9578 28.6624 22.9808 28.6567 22.9961 28.6237C23.004 28.6067 23.0391 28.6278 23.069 28.5892C23.1127 28.5329 23.1636 28.5933 23.2951 28.5229C23.335 28.5016 23.4471 28.5397 23.4752 28.5536C23.5482 28.5898 23.6951 28.5863 23.801 28.6571L24.0425 28.8012C24.1167 28.8155 24.1303 28.8766 24.1919 28.8951C24.1958 28.8963 24.1996 28.8982 24.1996 28.9008C24.2112 28.9374 24.3414 29 24.3797 29.0499C24.4558 28.9486 24.7326 28.8237 24.947 28.6119C25.0206 28.5391 25.3437 28.357 25.4376 28.3072C25.7372 28.1483 26.0038 27.9338 26.3306 27.7495C26.3982 27.7114 26.9926 27.3656 27.0665 27.3015C27.2087 27.1781 27.3591 27.1317 27.4996 27.0152C27.5073 27.0091 27.515 27.0029 27.5264 26.9987C27.6989 26.9109 27.8407 26.7933 27.994 26.6863C28.1114 26.6045 28.2933 26.5198 28.4117 26.443C28.8587 26.1531 29.3286 25.8795 29.7915 25.617C29.7915 25.4196 29.7915 25.2223 29.7954 25.0249C29.7992 24.8984 29.7915 24.7704 29.7915 24.6435L29.7877 22.6011V21.3961C29.7839 21.1619 29.78 20.9269 29.7762 20.692V18.6672C29.7762 18.4916 29.7647 18.3134 29.7762 18.1406C29.7954 17.8463 29.7685 17.5558 29.7724 17.263L29.7609 16.2078C29.751 14.8919 29.7818 13.5924 29.7993 12.277C29.8077 11.5373 29.8371 10.771 29.8337 10.033L29.8452 8.10172C29.3148 7.77784 28.7325 7.46021 28.1934 7.14626C28.1282 7.10756 28.063 7.06384 27.9941 7.0244C27.8301 6.929 27.716 6.89404 27.584 6.76457C27.5235 6.70521 27.0812 6.45436 26.9631 6.38398C26.6678 6.20806 26.1685 5.90621 25.8976 5.71785C25.7083 5.58783 25.1981 5.37112 25.1464 5.2855C25.1202 5.24226 24.8092 5.0558 24.7631 5.0337C24.571 4.94163 24.5153 4.89042 24.3607 4.80298C24.2741 4.90688 24.2159 4.98882 24.1039 5.08354C23.9356 5.22587 23.684 5.36003 23.4715 5.42504L23.0729 5.49671C22.9908 5.49386 22.8055 5.51725 22.6973 5.50093L22.3715 5.43075C21.9479 5.29305 21.5368 4.92293 21.3597 4.52703C21.2571 4.29774 21.2691 4.31508 21.2102 4.08857C21.0841 3.60339 21.2165 3.07686 21.4976 2.6705C21.513 2.64942 21.536 2.63099 21.5513 2.61106C21.5898 2.56306 21.605 2.50519 21.6739 2.50029C21.7069 2.49791 21.9676 2.22578 22.2335 2.18062C22.3327 2.16376 22.4475 2.04184 22.4941 2.08862C22.527 2.12174 22.6821 2.06428 22.7739 2.06564C22.8234 2.06638 22.9218 2.12867 22.9348 2.15492L22.8467 2.20476C22.8467 2.20708 22.8505 2.20973 22.8505 2.21088C22.8751 2.22074 22.8544 2.24312 22.8544 2.24312C22.8087 2.322 23.0113 2.27562 22.7471 2.40292C22.5934 2.47697 22.4007 2.67784 22.314 2.81989C22.226 2.96398 22.0474 3.2166 22.0342 3.35036C22.0289 3.4036 22.0095 3.39633 22.0112 3.41476L21.9997 3.67309C22.0019 3.88164 22.2009 4.26816 22.4137 4.39287C22.6513 4.51731 22.6608 4.47705 22.7126 4.49596C22.7472 4.51704 22.7864 4.50847 22.8467 4.51282C23.0221 4.52554 23.0428 4.4948 23.0728 4.49174C23.1928 4.47936 23.3038 4.40844 23.391 4.33269C23.5539 4.19118 23.6383 4.05069 23.6899 3.84751C23.7653 3.55042 23.6907 3.43475 23.6976 3.37341L23.6209 3.20634C23.5721 3.09747 23.4162 2.91774 23.4024 2.86178C23.3786 2.76515 23.0451 2.48098 23.0345 2.43216C23.0197 2.36416 22.9709 2.30697 22.9349 2.24856C22.9579 2.23434 22.9808 2.22904 22.9962 2.19565C23.0036 2.1794 23.0382 2.20096 23.069 2.16118C23.1127 2.10487 23.1578 2.16648 23.2951 2.09528C23.3364 2.07393 23.4475 2.11201 23.4753 2.12554C23.5504 2.16206 23.6954 2.15846 23.8011 2.22904L24.0425 2.37313C24.1116 2.38476 24.1332 2.44943 24.192 2.46704C24.1959 2.4682 24.1997 2.4701 24.1997 2.47241C24.238 2.52722 24.3032 2.55252 24.353 2.59502C24.403 2.63643 24.4337 2.70728 24.4526 2.72836C24.8543 3.1771 24.8276 4.0564 24.5292 4.54852C24.6058 4.58266 24.6864 4.61829 24.763 4.65392C25.9587 5.20037 27.1389 5.68942 28.2967 6.32454L29.6458 7.06615C29.7814 7.14286 29.9444 7.21337 30.052 7.29382L30.4813 7.52454V7.5257C30.6922 7.64755 30.6672 7.83435 30.6691 8.00673L30.7075 10.9119L30.7152 13.6879L30.719 14.1129C30.7343 14.357 30.7267 14.602 30.7305 14.8468L30.7496 15.5448C30.742 15.7115 30.7496 15.8767 30.7535 16.043C30.7672 16.4844 30.7541 16.9303 30.7611 17.3649C30.7649 17.4822 30.7726 17.5991 30.7726 17.7167C30.7726 18.4747 30.7787 19.2639 30.8071 20.0197L30.8224 21.5471L30.8263 22.3397ZM12.7515 30.0031C12.7838 30.2995 12.7193 30.6945 12.5675 30.9421C12.4122 31.1954 12.2461 31.4018 11.9811 31.5634C11.8635 31.6351 11.9088 31.6261 11.7319 31.7094C11.5262 31.8063 11.5618 31.7916 11.3448 31.842C11.1057 31.8975 10.7508 31.8789 10.5131 31.8024C10.0232 31.6449 9.715 31.4449 9.44762 30.9938C9.23247 30.6308 9.18766 30.3239 9.22152 29.9237L9.31353 29.5393L9.38635 29.3757C9.27585 29.3499 9.05513 29.1992 8.75783 29.1196C8.65433 29.092 8.33745 28.9078 8.24423 28.8514C7.97236 28.6866 7.62597 28.5523 7.30902 28.3715C7.23633 28.33 6.64051 27.998 6.54633 27.9679C6.36634 27.9105 6.23612 27.7947 6.07877 27.7418C6.07108 27.7391 6.06347 27.7349 6.05191 27.7296C5.89095 27.6253 5.71463 27.5617 5.54218 27.4851C5.40978 27.4251 5.24522 27.3115 5.12445 27.252C4.94432 27.1646 4.768 27.0684 4.58787 26.9776C4.20074 26.7802 3.82899 26.5549 3.44955 26.3437C3.1955 26.2022 3.19754 25.9897 3.19278 25.7727C3.1889 25.5232 3.19278 25.2744 3.20046 25.025C3.20046 24.8985 3.19665 24.7705 3.19278 24.6436L3.1889 22.6012V21.3961C3.18509 21.1619 3.18122 20.927 3.17741 20.6921V18.6673C3.17741 18.4917 3.16592 18.3135 3.17741 18.1407C3.19659 17.8463 3.16973 17.5558 3.1736 17.263L3.16211 16.2079L3.16979 14.0512L3.22725 10.7809L3.25024 7.99374C3.25296 7.78614 3.25037 7.58703 3.47634 7.46062L5.37741 6.40002L5.7185 6.20956C5.94385 6.06118 5.96391 6.10518 6.09413 6.0382C6.64527 5.75464 7.21573 5.41457 7.78053 5.1559C7.93102 5.08701 8.25089 4.87716 8.40525 4.78108C8.53853 4.69805 8.49923 4.76694 8.63523 4.69635L8.94565 4.53234C9.06444 4.45182 9.19092 4.38824 9.3174 4.32228C9.3174 4.32038 9.32128 4.31922 9.32509 4.31732C9.2103 4.01894 9.19514 3.8078 9.22159 3.49561L9.31359 3.1112L9.50522 2.72374C9.64401 2.51362 9.89397 2.28079 10.1337 2.20286L10.4059 2.15383C10.5283 2.12915 10.7322 2.15757 10.8505 2.20368C10.9759 2.25257 10.9846 2.37245 11.0575 2.44283C10.9881 2.49982 11.0276 2.50784 10.9923 2.51104C10.9565 2.5143 10.9711 2.5621 10.9233 2.57849C10.7815 2.62698 10.9109 2.66662 10.724 2.71646C10.667 2.7317 10.6524 2.77902 10.563 2.84179C10.4025 2.95433 10.4746 2.96201 10.4327 2.99968C10.3892 3.03878 10.4203 3.04388 10.4059 3.04878C10.3752 3.06755 10.3752 3.11161 10.3752 3.14806L10.333 3.21708L10.2564 3.53634C10.2109 3.75958 10.3046 4.03526 10.4365 4.17948C10.5088 4.25843 10.7183 4.40212 10.8275 4.42211C10.8873 4.43306 10.8573 4.4542 10.931 4.45237C11.0473 4.44944 11.0117 4.47562 11.161 4.43591C11.5411 4.33439 11.546 4.33677 11.7934 4.06565C11.8332 4.022 11.8711 3.92571 11.8892 3.86825L11.9236 3.66051L11.9045 3.44549C11.864 3.27291 11.8771 3.30623 11.7703 3.12202C11.7555 3.09638 11.7131 3.0891 11.7319 3.04232C11.7483 3.00186 11.5177 2.80541 11.4828 2.76481C11.4372 2.71177 11.3304 2.75631 11.3256 2.70198C11.3225 2.6658 11.2498 2.65146 11.2451 2.65254C11.169 2.66988 11.0814 2.58665 11.0573 2.53599L11.1301 2.49424C11.1301 2.49193 11.1263 2.48962 11.1263 2.48771C11.1066 2.47194 11.1375 2.4444 11.1378 2.42447C11.1382 2.4036 10.9609 2.34505 11.4712 2.29452C11.737 2.26821 12.0985 2.38129 12.2991 2.57584C12.413 2.68627 12.5594 2.90625 12.621 3.06184C12.6542 3.14541 12.6774 3.14595 12.6709 3.20518L12.713 3.31595C12.7587 3.55939 12.7711 3.74177 12.7437 3.98745C12.7289 4.1206 12.6416 4.39307 12.5674 4.51404C12.4131 4.76578 12.2447 4.97597 11.981 5.13529C11.9695 5.14257 11.958 5.14794 11.9465 5.15712C11.8808 5.21404 11.6534 5.32454 11.5632 5.35949L11.2451 5.43381C11.0247 5.45952 10.7298 5.44592 10.5131 5.3752C10.0366 5.21968 9.73152 5.03037 9.46299 4.59333L8.65427 5.15828C8.09925 5.5643 7.48229 5.97482 6.91041 6.36099C6.39476 6.70915 5.6826 7.11198 5.14356 7.4288L4.55332 7.77798C4.40977 7.87379 4.29567 7.91466 4.23522 7.95695C4.18157 7.99456 4.12791 8.02862 4.07039 8.0616L4.09725 10.0902L4.11255 10.912L4.11635 13.688L4.12023 14.113C4.13553 14.3571 4.12791 14.602 4.13172 14.8469L4.1509 15.5449L4.1662 17.365C4.1662 17.4823 4.17388 17.5992 4.17388 17.7169C4.17388 18.0492 4.17388 18.3822 4.17769 18.7141L4.20455 20.0199L4.23134 24.4382C4.22787 24.7824 4.2412 25.2866 4.21985 25.6106L4.82158 25.9702C5.07067 26.1112 5.31601 26.2496 5.56129 26.3929C6.01485 26.6595 7.45611 27.5217 7.74205 27.7589C7.99582 27.9694 8.40749 28.2116 8.70785 28.4454C8.97244 28.6512 9.3055 28.8797 9.53568 29.1069C9.68181 28.9226 9.95837 28.6368 10.1987 28.6182C10.4609 28.5979 10.3662 28.541 10.7124 28.5937C10.994 28.6365 10.9601 28.774 11.0573 28.8712C10.9873 28.9286 11.028 28.9348 10.9922 28.939C10.9558 28.9432 10.9712 28.9898 10.9232 29.0068C10.7811 29.0573 10.9079 29.0969 10.7238 29.1448C10.6632 29.1606 10.6538 29.2092 10.5629 29.2701C10.413 29.3706 10.4684 29.3948 10.4325 29.4277C10.421 29.4384 10.4057 29.4476 10.4095 29.4717C10.4095 29.4741 10.4095 29.4767 10.4057 29.4771C10.3751 29.4959 10.3751 29.5396 10.3751 29.576L10.3329 29.6453L10.2563 29.9639C10.2106 30.1874 10.3045 30.463 10.4364 30.6078C10.5089 30.6873 10.7138 30.8273 10.8273 30.85C10.8859 30.8617 10.8588 30.8824 10.9308 30.8806C11.0392 30.8779 11.0344 30.8994 11.1608 30.8645C11.5325 30.7631 11.5452 30.7689 11.7932 30.4932C11.8354 30.4463 11.8692 30.3572 11.889 30.2966L11.9235 30.0888L11.9043 29.8738C11.8577 29.6763 11.8809 29.7531 11.7702 29.5504C11.7566 29.5255 11.7126 29.517 11.7318 29.4707C11.7487 29.43 11.5167 29.2335 11.4827 29.1931C11.4381 29.1402 11.3302 29.1838 11.3255 29.1303C11.3222 29.0926 11.2468 29.0797 11.245 29.0801C11.1663 29.0972 11.0801 29.0126 11.0572 28.9644L11.13 28.9226C11.13 28.9203 11.1262 28.9173 11.1262 28.9161C11.1068 28.9007 11.1369 28.8718 11.1377 28.8533C11.1385 28.8325 10.9595 28.7723 11.4711 28.723C11.7422 28.6968 12.0932 28.8086 12.2989 29.0043C12.4128 29.1126 12.5577 29.3348 12.6209 29.4903C12.6546 29.5731 12.6771 29.5739 12.6708 29.6337L12.7129 29.7444L12.7515 30.0031Z" fill="#F8A466"/>
</svg>
