<svg width="97" height="97" viewBox="0 0 97 97" fill="none" xmlns="http://www.w3.org/2000/svg">
<g clip-path="url(#clip0_539_981)">
<path d="M21.8893 29.8155C20.2804 29.8155 18.9764 28.5115 18.9764 26.9027V23.0115C18.9764 21.4033 20.2804 20.0986 21.8893 20.0986C23.4982 20.0986 24.8021 21.4033 24.8021 23.0115V26.9027C24.8021 28.5115 23.4982 29.8155 21.8893 29.8155Z" fill="#FFE733"/>
<path d="M21.8893 45.7637C20.2804 45.7637 18.9764 44.4598 18.9764 42.8509V38.9597C18.9764 37.3516 20.2804 36.0469 21.8893 36.0469C23.4982 36.0469 24.8021 37.3516 24.8021 38.9597V42.8509C24.8021 44.4598 23.4982 45.7637 21.8893 45.7637Z" fill="#FFE733"/>
<path d="M15.0793 35.8435H11.1881C9.57998 35.8435 8.27527 34.5395 8.27527 32.9307C8.27527 31.3225 9.57998 30.0186 11.1881 30.0186H15.0793C16.6882 30.0186 17.9921 31.3225 17.9921 32.9307C17.9921 34.5395 16.6882 35.8435 15.0793 35.8435Z" fill="#FFE733"/>
<path d="M32.5897 35.8435H28.6985C27.0904 35.8435 25.7856 34.5395 25.7856 32.9307C25.7856 31.3225 27.0904 30.0186 28.6985 30.0186H32.5897C34.1985 30.0186 35.5025 31.3225 35.5025 32.9307C35.5025 34.5395 34.1985 35.8435 32.5897 35.8435Z" fill="#FFE733"/>
<path d="M54.5328 14.2637C52.924 14.2637 51.62 12.959 51.62 11.3509V7.45971C51.62 5.85084 52.924 4.54688 54.5328 4.54688C56.141 4.54688 57.4457 5.85084 57.4457 7.45971V11.3509C57.4457 12.9598 56.141 14.2637 54.5328 14.2637Z" fill="#FFBC36"/>
<path d="M54.5328 30.212C52.924 30.212 51.62 28.9073 51.62 27.2991V23.408C51.62 21.7991 52.924 20.4951 54.5328 20.4951C56.141 20.4951 57.4457 21.7991 57.4457 23.408V27.2991C57.4457 28.908 56.141 30.212 54.5328 30.212Z" fill="#FFBC36"/>
<path d="M47.7228 20.2925H43.8317C42.2228 20.2925 40.9188 18.9885 40.9188 17.3796C40.9188 15.7708 42.2228 14.4668 43.8317 14.4668H47.7228C49.3317 14.4668 50.6357 15.7708 50.6357 17.3796C50.6357 18.9885 49.3317 20.2925 47.7228 20.2925Z" fill="#FFBC36"/>
<path d="M65.2332 20.2925H61.342C59.7339 20.2925 58.4292 18.9885 58.4292 17.3796C58.4292 15.7708 59.7339 14.4668 61.342 14.4668H65.2332C66.8421 14.4668 68.1461 15.7708 68.1461 17.3796C68.1461 18.9885 66.8421 20.2925 65.2332 20.2925Z" fill="#FFBC36"/>
<path d="M78.7355 73.0362C77.1273 73.0362 75.8226 71.7322 75.8226 70.1234V66.2322C75.8226 64.624 77.1273 63.3193 78.7355 63.3193C80.3443 63.3193 81.6483 64.624 81.6483 66.2322V70.1234C81.6483 71.7322 80.3443 73.0362 78.7355 73.0362Z" fill="#FFBC36"/>
<path d="M78.7355 88.9844C77.1273 88.9844 75.8226 87.6805 75.8226 86.0716V82.1804C75.8226 80.5723 77.1273 79.2676 78.7355 79.2676C80.3443 79.2676 81.6483 80.5723 81.6483 82.1804V86.0716C81.6483 87.6805 80.3443 88.9844 78.7355 88.9844Z" fill="#FFBC36"/>
<path d="M71.9255 79.0649H68.0343C66.4262 79.0649 65.1222 77.761 65.1222 76.1521C65.1222 74.5432 66.4262 73.2393 68.0343 73.2393H71.9255C73.5343 73.2393 74.8383 74.5432 74.8383 76.1521C74.8383 77.761 73.5343 79.0649 71.9255 79.0649Z" fill="#FFBC36"/>
<path d="M89.4359 79.0649H85.5454C83.9365 79.0649 82.6326 77.761 82.6326 76.1521C82.6326 74.5432 83.9365 73.2393 85.5454 73.2393H89.4359C91.0447 73.2393 92.3487 74.5432 92.3487 76.1521C92.3487 77.761 91.0447 79.0649 89.4359 79.0649Z" fill="#FFBC36"/>
<path d="M29.8958 92.321C26.6358 92.321 23.3767 91.0799 20.8945 88.5986L3.31389 71.0172C-1.10495 66.5991 -1.10495 59.4095 3.31389 54.9906C5.45411 52.8504 8.30035 51.6715 11.3272 51.6715C14.354 51.6715 17.2002 52.8497 19.3404 54.9906L29.8958 65.5452L77.6594 17.7816C82.0775 13.3635 89.2671 13.3628 93.6859 17.7816C98.1048 22.2005 98.1048 29.3901 93.6859 33.8089L38.8963 88.5986C36.4149 91.0799 33.155 92.321 29.8958 92.321Z" fill="#BDF052"/>
<path d="M77.6595 17.7816L48.5 46.9411V78.9949L93.686 33.8082C98.1049 29.3901 98.1049 22.2005 93.686 17.7816C89.2672 13.3628 82.0776 13.3635 77.6595 17.7816Z" fill="#93D632"/>
</g>
<defs>
<clipPath id="clip0_539_981">
<rect width="97" height="97" fill="white"/>
</clipPath>
</defs>
</svg>
