<svg width="46" height="46" viewBox="0 0 46 46" fill="none" xmlns="http://www.w3.org/2000/svg">
<g clip-path="url(#clip0_1_802)">
<path d="M16.4357 6.56441L18.8241 11.0051L20.1917 6.90587L18.4844 5.19857C18.2958 5.00999 17.9901 5.00999 17.8015 5.19857L16.4357 6.56441Z" fill="#FF8657"/>
<path d="M4.82596 18.857L6.49042 20.5214C6.52361 20.5233 6.54719 20.5246 6.58033 20.5264L20.1899 9.63927L17.1185 6.56477C16.9299 6.37601 16.6241 6.37592 16.4354 6.56459L4.82596 18.174C4.63738 18.3626 4.63738 18.6684 4.82596 18.857Z" fill="#FFA05C"/>
<path d="M18.8241 8.27344L18.1236 13.4814L22.4261 13.6864L23.801 12.3115L23.4906 11.9201C22.4816 10.6476 21.582 9.29204 20.8581 7.83819C20.6866 7.49391 20.4636 7.17781 20.1917 6.90587L18.8241 8.27344Z" fill="#FFA05C"/>
<path d="M6.53325 20.5643C6.80523 20.8362 7.12129 21.0592 7.46557 21.2307C8.91942 21.9546 10.2749 22.8542 11.5474 23.8632L11.9388 24.1735L22.426 13.6863L21.9771 13.1202C20.8075 11.6453 19.8759 10.1992 19.1289 8.6992C19.0471 8.53489 18.9451 8.39107 18.8257 8.27169L6.53325 20.5643Z" fill="#FFB763"/>
<path d="M32.5753 30.2162L35.307 32.9479L36.6728 31.582C37.4272 30.8277 37.4272 29.6047 36.6728 28.8503L32.5753 30.2162Z" fill="#FF8657"/>
<path d="M35.307 30.2162L31.2095 31.582L28.4778 37.0454C29.2321 37.7998 30.4551 37.7998 31.2095 37.0454L35.307 32.9479C36.0613 32.1935 36.0613 30.9706 35.307 30.2162Z" fill="#FFA05C"/>
<path d="M28.4778 26.1187L35.307 30.2162L36.6728 28.8503L31.2095 23.387L28.4778 26.1187Z" fill="#FFA05C"/>
<path d="M23.0144 31.582L28.4778 37.0454L31.2094 34.3137L31.8924 32.265L33.9411 31.582L35.307 30.2162L29.8436 24.7528L23.0144 31.582Z" fill="#FFB763"/>
<path d="M30.1851 33.2893L31.2095 34.3137L33.9411 31.582L32.9168 30.5577C32.7282 30.3691 32.4224 30.3691 32.2338 30.5577L30.1851 32.6064C29.9965 32.795 29.9965 33.1008 30.1851 33.2893Z" fill="#FF8657"/>
<path d="M21.5215 12.5307L30.5917 26.7364L32.5753 24.7528C32.9255 24.4026 32.949 23.8482 32.6412 23.4601L23.801 12.3115C23.0211 12.3115 22.2592 12.3874 21.5215 12.5307Z" fill="#ABECFF"/>
<path d="M21.5215 12.5306C16.0576 13.5922 11.9389 18.3968 11.9388 24.1736L23.0875 33.0138C23.4774 33.3231 24.0373 33.2908 24.3892 32.9389L30.5917 26.7364C31.2854 26.0427 31.3489 24.9391 30.7394 24.1704L21.9772 13.1202C21.821 12.9232 21.6693 12.7268 21.5215 12.5306Z" fill="#DEF7FF"/>
<path d="M16.7771 17.1497C15.1427 18.7841 15.1427 21.4339 16.7771 23.0683C17.3163 23.6076 17.9663 23.9677 18.6536 24.1511L23.7785 19.0262C23.5951 18.3389 23.235 17.6889 22.6958 17.1496C21.0613 15.5153 18.4114 15.5153 16.7771 17.1497Z" fill="#FF8657"/>
<path d="M19.7364 20.109C18.6412 21.2042 18.2811 22.755 18.6536 24.151C20.0496 24.5236 21.6005 24.1634 22.6957 23.0683C23.7908 21.9732 24.151 20.4223 23.7784 19.0262C22.3824 18.6537 20.8315 19.0138 19.7364 20.109Z" fill="#FFCD6B"/>
</g>
<defs>
<clipPath id="clip0_1_802">
<rect width="32" height="32" fill="white" transform="translate(0 23) rotate(-45)"/>
</clipPath>
</defs>
</svg>
