<svg width="32" height="32" viewBox="0 0 32 32" fill="none" xmlns="http://www.w3.org/2000/svg">
<g clip-path="url(#clip0_1354_2852)">
<path d="M23.2436 0L21.7925 4.82897L25.6581 2.89738V0.482897C25.6581 0.216209 25.4419 0 25.1752 0L23.2436 0Z" fill="#FF8657"/>
<path d="M6.34229 0.482897V2.8368C6.36443 2.86159 6.38021 2.87916 6.40236 2.90389L23.7241 4.82897L23.7263 0.483155C23.7265 0.216338 23.5103 0 23.2434 0L6.82518 0C6.55849 0 6.34229 0.216209 6.34229 0.482897Z" fill="#FFA05C"/>
<path d="M23.7243 2.8974L19.5464 6.08465L22.4438 9.2719H24.3882L24.4455 8.77568C24.6317 7.16241 24.9542 5.56782 25.4703 4.02789C25.5925 3.66321 25.6583 3.28198 25.6583 2.8974H23.7243Z" fill="#FFA05C"/>
<path d="M6.34229 2.8974C6.34229 3.28205 6.40809 3.66321 6.53029 4.0279C7.04641 5.56783 7.3688 7.16242 7.55513 8.77568L7.61243 9.27184H22.4436L22.5265 8.55406C22.7424 6.68416 23.1062 5.00284 23.6386 3.41404C23.697 3.24 23.7265 3.06616 23.7265 2.89734L6.34229 2.8974Z" fill="#FFB763"/>
<path d="M17.9316 28.1368V32H19.8632C20.93 32 21.7948 31.1352 21.7948 30.0684L17.9316 28.1368Z" fill="#FF8657"/>
<path d="M19.8635 30.0684L16.0003 28.1368L10.2056 30.0684C10.2056 31.1352 11.0703 32 12.1372 32H17.9319C18.9987 32 19.8635 31.1352 19.8635 30.0684Z" fill="#FFA05C"/>
<path d="M17.9316 22.342L19.8632 30.0684H21.7948V22.342H17.9316Z" fill="#FFA05C"/>
<path d="M10.2056 22.342V30.0684H14.0687L16.0003 29.1026L17.9319 30.0684H19.8635V22.342H10.2056Z" fill="#FFB763"/>
<path d="M14.0688 28.6197V30.0684H17.932V28.6197C17.932 28.3531 17.7158 28.1368 17.4491 28.1368H14.5517C14.2851 28.1368 14.0688 28.3531 14.0688 28.6197Z" fill="#FF8657"/>
<path d="M22.6211 7.81506L18.9897 24.2736H21.7949C22.2903 24.2736 22.6989 23.8982 22.7557 23.4061L24.388 9.27187C23.8365 8.7204 23.2441 8.23538 22.6211 7.81506Z" fill="#ABECFF"/>
<path d="M22.6211 7.81507C18.0069 4.70212 11.6971 5.18714 7.6123 9.27187L9.24456 23.4062C9.30167 23.9006 9.72031 24.2736 10.218 24.2736H18.9897C19.9707 24.2736 20.796 23.5382 20.9085 22.5637L22.5264 8.55416C22.5552 8.3044 22.5869 8.05832 22.6211 7.81507Z" fill="#DEF7FF"/>
<path d="M16.0001 7.72638C13.6887 7.72638 11.8149 9.60009 11.8149 11.9115C11.8149 12.6741 12.0199 13.3883 12.3763 14.004H19.6239C19.9802 13.3883 20.1852 12.6741 20.1852 11.9115C20.1852 9.60009 18.3114 7.72638 16.0001 7.72638Z" fill="#FF8657"/>
<path d="M16.0003 11.9114C14.4514 11.9114 13.1002 12.7534 12.3765 14.004C13.1002 15.2546 14.4515 16.0965 16.0003 16.0965C17.549 16.0965 18.9003 15.2546 19.624 14.004C18.9003 12.7534 17.5491 11.9114 16.0003 11.9114Z" fill="#FFCD6B"/>
</g>
<defs>
<clipPath id="clip0_1354_2852">
<rect width="32" height="32" fill="white"/>
</clipPath>
</defs>
</svg>
