<svg width="32" height="32" viewBox="0 0 32 32" fill="none" xmlns="http://www.w3.org/2000/svg">
<path d="M27.5648 13.2277H27.4856V11.2871C27.4856 5.05342 22.4322 0 16.1984 0C9.96465 0 4.9113 5.05342 4.9113 11.2871V13.2277H4.43608C2.69349 13.2277 1.34698 14.7722 1.34698 16.5545V21.505C1.30309 23.2323 2.66787 24.6682 4.39522 24.7121C4.40887 24.7125 4.42244 24.7127 4.43608 24.7128H7.36676C7.78186 24.6934 8.10259 24.3409 8.08303 23.9258C8.08235 23.9109 8.08121 23.896 8.07962 23.8811V14.1782C8.07962 13.7029 7.8024 13.2276 7.36676 13.2276H6.49546V11.2871C6.49546 5.92828 10.8397 1.58408 16.1984 1.58408C21.5572 1.58408 25.9014 5.92828 25.9014 11.2871V13.2276H25.0301C24.5944 13.2276 24.3172 13.7029 24.3172 14.1782V23.8811C24.273 24.2943 24.5722 24.6652 24.9854 24.7094C25.0002 24.711 25.0152 24.7121 25.0301 24.7128H25.941L25.8617 24.8316C24.6734 26.4109 22.8086 27.336 20.832 27.3266C20.3994 25.2049 18.3285 23.8356 16.2068 24.2684C14.3925 24.6384 13.0843 26.2274 13.0697 28.0791C13.0914 30.2509 14.8582 32 17.0301 31.9998C18.1052 31.9824 19.13 31.5412 19.8815 30.7721C20.3886 30.2529 20.7208 29.5883 20.832 28.8711C23.3072 28.8805 25.6415 27.7207 27.129 25.7424L27.8816 24.6335C29.5845 24.5147 30.6538 23.4454 30.6538 21.9008V16.9503C30.6539 15.2475 29.3866 13.2277 27.5648 13.2277ZM6.49546 23.1287H4.43608C3.58328 23.1079 2.90878 22.3998 2.92955 21.547C2.92992 21.533 2.93046 21.519 2.93114 21.5049V16.5544C2.93114 15.6435 3.56479 14.8118 4.43608 14.8118H6.49546V23.1287ZM18.7331 29.6633C18.2942 30.1392 17.6775 30.4117 17.0302 30.4158C15.7416 30.3954 14.696 29.3672 14.6539 28.0792C14.6534 26.7887 15.6991 25.7421 16.9896 25.7416C18.2801 25.7411 19.3266 26.7868 19.3272 28.0773C19.3272 28.0779 19.3272 28.0786 19.3272 28.0792C19.3602 28.6672 19.1446 29.242 18.7331 29.6633ZM29.0697 21.901C29.0697 22.9703 28.04 23.1287 27.5648 23.1287H25.9014V14.8119H27.5648C28.4361 14.8119 29.0697 16.0396 29.0697 16.9505V21.901Z" fill="#9363EA"/>
</svg>
