<svg width="35" height="36" viewBox="0 0 35 36" fill="none" xmlns="http://www.w3.org/2000/svg">
<g clip-path="url(#clip0_103_264)">
<path d="M20.1557 10.1213C16.4547 9.7919 12.8387 10.2346 9.39981 11.4281C8.10004 11.8921 6.42485 12.5756 5.0259 13.8046C4.94091 13.8825 4.85945 13.9568 4.77799 14.0383C3.89613 14.9202 3.49238 15.9331 3.54196 17.1372C3.54196 17.1443 3.54196 17.1585 3.54551 17.1691C3.58801 17.6224 3.57738 18.0793 3.5703 18.561C3.56321 18.8868 3.55967 19.2232 3.56675 19.5562C3.59863 21.0968 4.59737 22.0955 6.12027 22.0955L10.3773 22.0955C11.114 22.1097 11.7444 21.8759 12.1977 21.4226C12.651 20.9693 12.8883 20.3353 12.8883 19.5916L12.8883 17.0558C13.0725 17.0062 13.2531 16.946 13.4231 16.8893C13.6356 16.8185 13.8339 16.7547 14.0252 16.7122C15.9129 16.2908 17.9174 16.1987 20.1486 16.4254C21.2961 16.5599 22.1745 16.7583 22.9607 17.0699C22.9288 17.7039 22.9324 18.3308 22.9394 18.9399C22.943 19.156 22.943 19.3755 22.943 19.5951C22.943 20.3601 23.1803 21.0082 23.6301 21.458C24.0798 21.9078 24.7244 22.1486 25.493 22.1451L27.6038 22.1451C27.8517 22.1451 28.089 22.1486 28.3333 22.1522C28.8079 22.1593 29.3002 22.1628 29.7642 22.1451C30.4866 22.138 31.1029 21.8972 31.5562 21.4438C32.006 20.9941 32.2504 20.3743 32.2681 19.6341L32.2681 16.9849C32.2681 16.0216 31.9564 15.1645 31.3366 14.4314C30.5575 13.5177 29.5021 12.7739 28.0111 12.0904C25.709 11.0279 23.2121 10.4011 20.1557 10.1213ZM30.3981 15.2212C30.8266 15.7347 31.0391 16.3085 31.0391 16.9885L31.0391 19.6234C31.0321 20.0272 30.9081 20.3566 30.6885 20.5761C30.4725 20.7922 30.1502 20.9091 29.7429 20.9055C29.286 20.9232 28.8327 20.9161 28.3475 20.9126C28.1031 20.9091 27.8552 20.9091 27.6038 20.9055L25.493 20.9055C25.0538 20.9055 24.7173 20.7957 24.4978 20.5761C24.2782 20.3566 24.1684 20.0201 24.1684 19.5809C24.1684 19.3614 24.1648 19.1382 24.1648 18.9187C24.1613 18.2564 24.1542 17.6331 24.1932 16.992C24.1932 16.9779 24.1932 16.9708 24.1932 16.9566C24.1932 16.3687 23.8673 16.1349 23.584 15.9933C23.5699 15.9862 23.5592 15.9827 23.5451 15.9756C22.6172 15.5931 21.6149 15.3487 20.2797 15.1964C17.9068 14.9485 15.7712 15.0512 13.756 15.501C13.5046 15.5541 13.2637 15.6391 13.0335 15.7135C12.821 15.7843 12.6227 15.8481 12.4314 15.8906C12.4102 15.8977 12.3925 15.9012 12.3712 15.9083C12.1942 15.9649 12.0525 16.0499 11.9392 16.1633C11.6558 16.4466 11.6523 16.8114 11.6523 16.9318L11.6523 19.5809C11.6523 19.9918 11.539 20.3247 11.3194 20.5443C11.0502 20.8134 10.6642 20.8666 10.3773 20.8559L6.10964 20.8595C5.25965 20.8595 4.80278 20.3955 4.78507 19.5137C4.77445 19.2055 4.77799 18.8974 4.78507 18.5716C4.79216 18.0828 4.80278 17.5764 4.75674 17.0629C4.72487 16.2164 5.00466 15.5258 5.63152 14.8989C5.69173 14.8387 5.75902 14.7785 5.82277 14.7218C7.0588 13.6346 8.59232 13.0077 9.78939 12.5827C13.0583 11.4458 16.5043 11.0244 20.0282 11.3396C22.9394 11.6087 25.3088 12.2002 27.4833 13.1989C28.8221 13.8081 29.7429 14.4527 30.3981 15.2212Z" fill="white"/>
</g>
<defs>
<clipPath id="clip0_103_264">
<rect width="24.1716" height="24.1716" fill="white" transform="translate(35 18) rotate(135)"/>
</clipPath>
</defs>
</svg>
