<svg width="25" height="27" viewBox="0 0 25 27" fill="none" xmlns="http://www.w3.org/2000/svg">
<path d="M12.5025 21.152H4.07111C3.0756 21.152 2.26607 20.2778 2.26607 19.2029V6.76686C2.26607 5.69193 3.0756 4.8178 4.07111 4.8178H5.76832V5.2768C5.76832 5.69614 6.08323 6.03618 6.47159 6.03618C6.85994 6.03618 7.17485 5.69614 7.17485 5.2768V4.8178H15.5859V5.2768C15.5859 5.69614 15.9008 6.03618 16.2891 6.03618C16.6775 6.03618 16.9924 5.69614 16.9924 5.2768V4.8178H18.6834C19.6781 4.8178 20.4884 5.69193 20.4884 6.76686V12.1922C20.4884 12.6115 20.8033 12.9515 21.1917 12.9515C21.58 12.9515 21.8949 12.6115 21.8949 12.1922V6.76686C21.8949 4.85493 20.454 3.29905 18.6834 3.29905H16.9924V2.91093C16.9924 2.49158 16.6775 2.15155 16.2891 2.15155C15.9008 2.15155 15.5859 2.49158 15.5859 2.91093V3.29905H7.17485V2.91093C7.17485 2.49158 6.85994 2.15155 6.47159 2.15155C6.08323 2.15155 5.76832 2.49158 5.76832 2.91093V3.29905H4.07111C2.30045 3.29905 0.859543 4.85493 0.859543 6.76686V19.2037C0.859543 21.1165 2.30045 22.6716 4.07111 22.6716H12.5025C12.8908 22.6716 13.2057 22.3315 13.2057 21.9122C13.2057 21.4928 12.8908 21.152 12.5025 21.152Z" fill="#999999"/>
<path d="M6.32468 10.3309C5.87615 10.3309 5.5128 10.7232 5.5128 11.2075C5.5128 11.6918 5.87615 12.0842 6.32468 12.0842C6.77321 12.0842 7.13656 11.6918 7.13656 11.2075C7.13656 10.7232 6.77321 10.3309 6.32468 10.3309Z" fill="#999999"/>
<path d="M11.3796 10.3309C10.9311 10.3309 10.5677 10.7232 10.5677 11.2075C10.5677 11.6918 10.9311 12.0842 11.3796 12.0842C11.8281 12.0842 12.1915 11.6918 12.1915 11.2075C12.1915 10.7232 11.8273 10.3309 11.3796 10.3309Z" fill="#999999"/>
<path d="M15.6218 11.2075C15.6218 11.6918 15.9852 12.0842 16.4337 12.0842C16.8822 12.0842 17.2456 11.6918 17.2456 11.2075C17.2456 10.7232 16.8822 10.3309 16.4337 10.3309C15.9852 10.3309 15.6218 10.7232 15.6218 11.2075Z" fill="#999999"/>
<path d="M6.32468 15.1073C5.87615 15.1073 5.5128 15.4997 5.5128 15.984C5.5128 16.4683 5.87615 16.8606 6.32468 16.8606C6.77321 16.8606 7.13656 16.4683 7.13656 15.984C7.13656 15.4997 6.77321 15.1073 6.32468 15.1073Z" fill="#999999"/>
<path d="M11.3796 15.1073C10.9311 15.1073 10.5677 15.4997 10.5677 15.984C10.5677 16.4683 10.9311 16.8606 11.3796 16.8606C11.8281 16.8606 12.1915 16.4683 12.1915 15.984C12.1915 15.4997 11.8273 15.1073 11.3796 15.1073Z" fill="#999999"/>
<path d="M19.1499 14.0611C16.3954 14.0611 14.1536 16.481 14.1536 19.4552C14.1536 22.4286 16.3946 24.8493 19.1499 24.8493C21.9051 24.8493 24.1462 22.4294 24.1462 19.4552C24.1454 16.4801 21.9043 14.0611 19.1499 14.0611ZM19.1499 23.3288C17.1713 23.3288 15.5609 21.5907 15.5609 19.4543C15.5609 17.318 17.1713 15.579 19.1499 15.579C21.1284 15.579 22.7388 17.318 22.7388 19.4543C22.7388 21.5907 21.1284 23.3288 19.1499 23.3288Z" fill="#999999"/>
<path d="M20.1688 18.074L18.6279 19.4147L18.2442 18.8856C18.0036 18.5557 17.5636 18.4984 17.2565 18.7574C16.951 19.0164 16.8979 19.4931 17.1378 19.8239L17.9614 20.9579C18.077 21.1174 18.2473 21.2211 18.4341 21.2439C18.4607 21.2473 18.4872 21.249 18.5146 21.249C18.674 21.249 18.8303 21.1899 18.9553 21.0811L21.051 19.2586C21.3542 18.9945 21.4011 18.5169 21.1581 18.1904C20.9143 17.8639 20.4712 17.8099 20.1688 18.074Z" fill="#999999"/>
</svg>
