<svg width="20" height="13" viewBox="0 0 20 13" fill="none" xmlns="http://www.w3.org/2000/svg">
<g clip-path="url(#clip0_100_238)">
<path fill-rule="evenodd" clip-rule="evenodd" d="M15.2549 9.56773C15.2538 10.1709 15.2523 10.7741 15.2505 11.3774C15.2423 12.2116 14.5283 12.9702 13.6484 12.9795C9.63562 12.9917 5.62275 12.9917 1.60988 12.9795C0.776789 12.9707 0.0164517 12.2498 0.00788072 11.3774C-0.00197586 8.12315 -0.00197586 4.86885 0.00788072 1.61461C0.0160707 0.782706 0.737839 0.0203679 1.61022 0.0124636C5.62285 0.000321392 9.63552 0.000321392 13.6481 0.0124636C14.4814 0.0199869 15.2418 0.737613 15.2505 1.61461C15.2523 2.21767 15.2538 2.82073 15.2549 3.42384C16.284 2.90287 17.3123 2.38019 18.344 1.86431C18.5075 1.78436 18.6666 1.74465 18.862 1.74608C19.4516 1.75446 19.9833 2.26419 19.9911 2.87763C20.0021 5.28983 20.0021 7.70217 19.9911 10.1144C19.9815 10.8696 19.1096 11.5105 18.3364 11.1238L15.2549 9.56773ZM14.4339 4.0049C14.4316 3.20823 14.427 2.41157 14.4192 1.6149C14.4128 1.21192 14.0693 0.847559 13.6431 0.843702C9.63581 0.831607 5.62842 0.843655 1.62107 0.843655C1.21529 0.844893 0.843309 1.19149 0.839119 1.61994C0.829262 4.87233 0.807216 8.12486 0.839167 11.3771C0.845547 11.7796 1.19072 12.1438 1.61555 12.1483C5.62637 12.1604 9.63743 12.1907 13.648 12.1482C14.0494 12.1422 14.4151 11.7953 14.4192 11.372C14.4217 10.5683 14.4248 9.76453 14.4278 8.96076C14.4232 8.93777 14.4202 8.91415 14.4192 8.89001V4.10199C14.4207 4.06876 14.4256 4.03623 14.4339 4.0049ZM15.2564 8.63726C16.4098 9.2198 17.5516 9.82586 18.7167 10.3846C18.9033 10.4719 19.1571 10.3235 19.1598 10.1072C19.1709 7.69798 19.2068 5.28826 19.1597 2.87944C19.1551 2.71945 19.0109 2.57689 18.8486 2.57727C18.8004 2.5777 18.7527 2.58932 18.7096 2.61089L15.2564 4.35474C15.2583 5.78223 15.2583 7.20972 15.2564 8.63726Z" fill="#DBDBDB"/>
</g>
<defs>
<clipPath id="clip0_100_238">
<rect width="20" height="12.9927" fill="white"/>
</clipPath>
</defs>
</svg>
