<svg width="42" height="42" viewBox="0 0 42 42" fill="none" xmlns="http://www.w3.org/2000/svg">
<circle cx="21" cy="21" r="21" fill="#383E4A"/>
<path d="M29.0584 16.7308L25.1538 18.4615V16.3846C25.1538 16.0174 25.008 15.6652 24.7483 15.4055C24.4886 15.1459 24.1364 15 23.7692 15H13.3846C13.0174 15 12.6652 15.1459 12.4055 15.4055C12.1459 15.6652 12 16.0174 12 16.3846V26.0769C12 26.4441 12.1459 26.7964 12.4055 27.056C12.6652 27.3156 13.0174 27.4615 13.3846 27.4615H23.7692C24.1364 27.4615 24.4886 27.3156 24.7483 27.056C25.008 26.7964 25.1538 26.4441 25.1538 26.0769V24L29.0584 25.7308C29.1637 25.7713 29.2774 25.7857 29.3894 25.7723C29.5014 25.759 29.6086 25.7186 29.7013 25.6543C29.7941 25.5902 29.8698 25.5044 29.9219 25.4043C29.974 25.3041 30.0008 25.1928 30 25.08V17.3815C30.0008 17.2687 29.974 17.1574 29.9219 17.0573C29.8698 16.9572 29.7941 16.8713 29.7013 16.8071C29.6086 16.743 29.5014 16.7025 29.3894 16.6892C29.2774 16.6759 29.1637 16.6901 29.0584 16.7308Z" stroke="#DBDBDB" stroke-width="1.5" stroke-linecap="round" stroke-linejoin="round"/>
</svg>
