<svg width="23" height="23" viewBox="0 0 23 23" fill="none" xmlns="http://www.w3.org/2000/svg">
<g clip-path="url(#clip0_1_867)">
<path d="M19.6281 19.6305C24.1184 15.1401 24.1184 7.85985 19.6281 3.3695C15.1377 -1.12085 7.85742 -1.12085 3.36707 3.3695C-1.12328 7.85985 -1.12328 15.1401 3.36707 19.6305C7.85742 24.1209 15.1377 24.1209 19.6281 19.6305Z" fill="#E04F5F"/>
<path fill-rule="evenodd" clip-rule="evenodd" d="M14.5973 13.9578L17.2737 15.3082C17.4266 15.3854 17.5949 15.3782 17.7407 15.2885C17.8865 15.1987 17.9687 15.0516 17.9687 14.8804V8.11965C17.9687 7.94845 17.8865 7.80133 17.7407 7.71158C17.5949 7.62182 17.4266 7.61473 17.2737 7.69186L14.5973 9.04225V13.9578ZM6.21544 7.35535H12.555C13.2063 7.35535 13.7392 7.88826 13.7392 8.53958V14.4606C13.7392 15.1119 13.2063 15.6448 12.555 15.6448H6.21544C5.56411 15.6448 5.03125 15.1119 5.03125 14.4606V8.53953C5.03121 7.88821 5.56411 7.35535 6.21544 7.35535ZM8.27205 12.2667H10.4984C10.9218 12.2667 11.265 11.9235 11.265 11.5001C11.265 11.0766 10.9218 10.7334 10.4984 10.7334H8.27205C7.84862 10.7334 7.50541 11.0767 7.50541 11.5001C7.50541 11.9235 7.84866 12.2667 8.27205 12.2667Z" fill="white"/>
</g>
<defs>
<clipPath id="clip0_1_867">
<rect width="23" height="23" fill="white"/>
</clipPath>
</defs>
</svg>
