<svg width="22" height="22" viewBox="0 0 22 22" fill="none" xmlns="http://www.w3.org/2000/svg">
<path d="M21.9185 10.7396C21.7453 10.4875 17.5817 4.58319 10.9999 4.58319C5.35226 4.58319 0.319682 10.4536 0.107928 10.7039C-0.0359762 10.8744 -0.0359762 11.1246 0.107928 11.296C0.319682 11.5463 5.35226 17.4167 10.9999 17.4167C16.6476 17.4167 21.6802 11.5463 21.8919 11.296C22.0249 11.1384 22.0368 10.9101 21.9185 10.7396ZM10.9999 16.5001C6.47247 16.5001 2.16771 12.1825 1.07414 11C2.16591 9.81657 6.46607 5.4999 10.9999 5.4999C16.2974 5.4999 20.0366 9.81106 20.9496 10.9752C19.8954 12.1202 15.5659 16.5001 10.9999 16.5001Z" fill="#999999"/>
<path d="M11 7.33325C8.97778 7.33325 7.33325 8.97778 7.33325 11C7.33325 13.0221 8.97778 14.6667 11 14.6667C13.0221 14.6667 14.6667 13.0221 14.6667 11C14.6667 8.97778 13.0221 7.33325 11 7.33325ZM11 13.75C9.48379 13.75 8.24992 12.5162 8.24992 11C8.24992 9.48383 9.48379 8.24996 11 8.24996C12.5161 8.24996 13.75 9.48383 13.75 11C13.75 12.5162 12.5161 13.75 11 13.75Z" fill="#999999"/>
</svg>
