<svg width="46" height="27" viewBox="0 0 46 27" fill="none" xmlns="http://www.w3.org/2000/svg">
<path d="M43.3551 14.6771L40.9126 13.1885L43.3551 11.6999C43.6822 11.5006 43.7826 11.079 43.5792 10.7584C43.376 10.4375 42.9459 10.3392 42.6193 10.5385L40.289 11.9586V9.26793C40.289 8.89036 39.977 8.58426 39.5919 8.58426C39.2068 8.58426 38.8948 8.89036 38.8948 9.26793V11.9587L36.5644 10.5385C36.2376 10.339 35.8075 10.4376 35.6044 10.7584C35.4011 11.0791 35.5017 11.5007 35.8286 11.6999L38.2711 13.1885L35.8286 14.6771C35.5015 14.8764 35.4011 15.298 35.6044 15.6187C35.7364 15.8271 35.9642 15.9416 36.1972 15.9416C36.3229 15.9416 36.4501 15.9083 36.5645 15.8385L38.8949 14.4183V17.1091C38.8949 17.4867 39.2069 17.7928 39.592 17.7928C39.9771 17.7928 40.2891 17.4867 40.2891 17.1091V14.4184L42.6194 15.8385C42.7338 15.9083 42.861 15.9416 42.9866 15.9416C43.2197 15.9416 43.4474 15.8271 43.5794 15.6187C43.7826 15.298 43.6821 14.8764 43.3551 14.6771Z" fill="#78B9EB"/>
<path d="M17.4632 8.71493C17.2599 8.39411 16.8299 8.29587 16.5032 8.49509L14.1728 9.9153V7.2245C14.1728 6.84694 13.8608 6.54083 13.4757 6.54083C13.0906 6.54083 12.7786 6.84694 12.7786 7.2245V9.91521L10.4483 8.49509C10.1215 8.29569 9.69141 8.39429 9.48836 8.71493C9.28504 9.03567 9.38558 9.45729 9.71252 9.65651L12.155 11.1451L9.71252 12.6337C9.3854 12.833 9.28504 13.2546 9.48836 13.5753C9.62034 13.7836 9.84809 13.8982 10.0811 13.8982C10.2068 13.8982 10.334 13.8649 10.4484 13.7951L12.7787 12.375V15.0657C12.7787 15.4433 13.0907 15.7494 13.4758 15.7494C13.8609 15.7494 14.1729 15.4433 14.1729 15.0657V12.3749L16.5033 13.7951C16.6177 13.865 16.7449 13.8982 16.8705 13.8982C17.1036 13.8982 17.3313 13.7836 17.4633 13.5753C17.6667 13.2545 17.5661 12.8329 17.2392 12.6337L14.7967 11.1451L17.2392 9.65651C17.566 9.4572 17.6664 9.03558 17.4632 8.71493Z" fill="#78B9EB"/>
<path d="M25.9889 16.6144C25.7856 16.2936 25.3558 16.1952 25.0289 16.3945L24.0357 16.9998V15.8532C24.0357 15.4756 23.7237 15.1695 23.3386 15.1695C22.9536 15.1695 22.6415 15.4756 22.6415 15.8532V16.9998L21.6485 16.3946C21.3214 16.1951 20.8915 16.2938 20.6884 16.6145C20.4851 16.9352 20.5857 17.3568 20.9125 17.556L22.0178 18.2297L20.9125 18.9033C20.5855 19.1026 20.4851 19.5242 20.6884 19.8449C20.8205 20.0533 21.0482 20.1678 21.2812 20.1678C21.4069 20.1678 21.534 20.1345 21.6486 20.0647L22.6416 19.4595V20.6062C22.6416 20.9837 22.9537 21.2898 23.3387 21.2898C23.7238 21.2898 24.0358 20.9837 24.0358 20.6062V19.4595L25.029 20.0647C25.1435 20.1345 25.2707 20.1678 25.3963 20.1678C25.6294 20.1678 25.8571 20.0533 25.9891 19.8449C26.1924 19.5241 26.0919 19.1025 25.7651 18.9033L24.6598 18.2297L25.7651 17.556C26.0919 17.3566 26.1923 16.9351 25.9889 16.6144Z" fill="#3D9AE2"/>
<path d="M37.4889 2.52743C37.2856 2.2067 36.8558 2.10828 36.5289 2.30759L35.5357 2.91284V1.76622C35.5357 1.38866 35.2237 1.08255 34.8386 1.08255C34.4536 1.08255 34.1415 1.38866 34.1415 1.76622V2.91284L33.1485 2.30768C32.8214 2.10819 32.3915 2.20688 32.1884 2.52752C31.9851 2.84825 32.0857 3.26987 32.4125 3.4691L33.5178 4.14272L32.4125 4.81634C32.0855 5.01566 31.9851 5.43728 32.1884 5.75792C32.3205 5.96631 32.5482 6.08086 32.7812 6.08086C32.9069 6.08086 33.034 6.04755 33.1486 5.97776L34.1416 5.3726V6.51922C34.1416 6.89678 34.4537 7.20289 34.8387 7.20289C35.2238 7.20289 35.5358 6.89678 35.5358 6.51922V5.37252L36.529 5.97776C36.6435 6.04755 36.7707 6.08086 36.8963 6.08086C37.1294 6.08086 37.3571 5.96631 37.4891 5.75792C37.6924 5.43719 37.5919 5.01557 37.2651 4.81634L36.1598 4.14272L37.2651 3.4691C37.5919 3.2697 37.6923 2.84816 37.4889 2.52743Z" fill="#3D9AE2"/>
<path d="M5.39215 11.9463C5.39215 12.4048 5.17096 12.8132 4.82704 13.0731C4.58257 13.2572 4.27674 13.3676 3.94396 13.3676C3.14363 13.3676 2.49487 12.7313 2.49487 11.9464C2.49487 11.1615 3.14363 10.5252 3.94396 10.5252C4.27674 10.5252 4.58257 10.6355 4.82704 10.8197C5.17087 11.0793 5.39215 11.4878 5.39215 11.9463Z" fill="#1E81CE"/>
<path d="M30.4696 8.82313C30.4696 9.28167 30.2474 9.69007 29.9035 9.94992C29.659 10.1341 29.3532 10.2444 29.0204 10.2444C28.2201 10.2444 27.5713 9.60813 27.5713 8.82322C27.5713 8.0383 28.2201 7.40204 29.0204 7.40204C29.3532 7.40204 29.659 7.51236 29.9035 7.69651C30.2474 7.95618 30.4696 8.36459 30.4696 8.82313Z" fill="#1E81CE"/>
<path d="M5.39221 11.9463C5.39221 12.4049 5.17101 12.8133 4.82709 13.0731C4.48317 12.8133 4.26099 12.4049 4.26099 11.9463C4.26099 11.4878 4.48317 11.0794 4.82709 10.8195C5.17092 11.0794 5.39221 11.4878 5.39221 11.9463Z" fill="#3D9AE2"/>
<path d="M30.4696 8.82314C30.4696 9.28168 30.2474 9.69009 29.9035 9.94993C29.5596 9.69009 29.3374 9.28168 29.3374 8.82314C29.3374 8.3646 29.5596 7.9562 29.9035 7.69635C30.2474 7.9562 30.4696 8.3646 30.4696 8.82314Z" fill="#3D9AE2"/>
</svg>
