<svg width="20" height="20" viewBox="0 0 20 20" fill="none" xmlns="http://www.w3.org/2000/svg">
<g clip-path="url(#clip0_1559_4778)">
<path d="M15.6575 16.1357C18.66 13.0026 18.5541 8.02866 15.4209 5.02617C12.2878 2.02367 7.31387 2.1296 4.31137 5.26273C1.3989 8.30197 1.3989 13.0965 4.31137 16.1357L2.26985 18.8573C2.03316 19.1729 2.09712 19.6206 2.4127 19.8573C2.72828 20.094 3.17603 20.03 3.41272 19.7144L5.39138 17.0758C8.12864 19.0702 11.8402 19.0702 14.5774 17.0758L16.5561 19.7144C16.7928 20.0301 17.2405 20.094 17.5561 19.8573C17.8717 19.6206 17.9357 19.1729 17.6989 18.8573L15.6575 16.1357Z" fill="#565656"/>
<path d="M6.08064 1.04571C4.66839 -0.331382 2.40722 -0.30288 1.03009 1.10937C-0.32239 2.49637 -0.322557 4.7087 1.02975 6.09592C1.30871 6.37479 1.76086 6.37479 2.03978 6.09592L6.08064 2.05577C6.35951 1.77681 6.35951 1.32466 6.08064 1.04571Z" fill="#565656"/>
<path d="M18.938 1.04572C17.5433 -0.348573 15.2825 -0.348573 13.8879 1.04572C13.609 1.32468 13.609 1.77683 13.8879 2.05574L17.928 6.09589C18.207 6.37477 18.6591 6.37477 18.938 6.09589C20.3323 4.70122 20.3323 2.44043 18.938 1.04572Z" fill="#565656"/>
<path d="M12.8568 14.2855L9.99972 11.4284M9.99972 11.4284L7.14258 8.57129M9.99972 11.4284L12.8569 8.57129M9.99972 11.4284L7.14258 14.2856" stroke="#0D1017" stroke-linecap="round" stroke-linejoin="round"/>
</g>
<defs>
<clipPath id="clip0_1559_4778">
<rect width="20" height="20" fill="white"/>
</clipPath>
</defs>
</svg>
