<svg width="14" height="14" viewBox="0 0 14 14" fill="none" xmlns="http://www.w3.org/2000/svg">
<g clip-path="url(#clip0_1_414)">
<path d="M10.9603 11.2949C13.062 9.10168 12.9879 5.61994 10.7947 3.51819C8.60147 1.41645 5.11973 1.4906 3.01799 3.68379C0.979258 5.81126 0.979258 9.16743 3.01799 11.2949L1.58892 13.2C1.42324 13.4209 1.46801 13.7343 1.68891 13.9C1.90982 14.0657 2.22325 14.0209 2.38893 13.8L3.77399 11.9529C5.69008 13.349 8.28816 13.349 10.2042 11.9529L11.5893 13.8C11.755 14.0209 12.0684 14.0657 12.2893 13.9C12.5102 13.7343 12.555 13.4209 12.3893 13.2L10.9603 11.2949ZM7.48918 7.49976C7.48918 7.60795 7.45408 7.71322 7.38918 7.79977L5.88913 9.79985C5.72345 10.0208 5.41002 10.0656 5.18911 9.89985C4.9682 9.73414 4.92341 9.42074 5.08912 9.19983L6.48918 7.33326V4.49965C6.48918 4.22348 6.71304 3.99962 6.98921 3.99962C7.26537 3.99962 7.48923 4.22348 7.48923 4.49965V7.49976H7.48918Z" fill="#9A86E3"/>
<path d="M4.25662 0.731969C3.26804 -0.231992 1.68522 -0.21204 0.721232 0.776531C-0.225502 1.74744 -0.225619 3.29607 0.720998 4.26712C0.916269 4.46233 1.23277 4.46233 1.42802 4.26712L4.25662 1.43902C4.45183 1.24375 4.45183 0.92724 4.25662 0.731969Z" fill="#9A86E3"/>
<path d="M13.257 0.732002C12.2807 -0.244001 10.6981 -0.244001 9.72185 0.732002C9.52664 0.927273 9.52664 1.24378 9.72185 1.43902L12.55 4.26712C12.7452 4.46234 13.0617 4.46234 13.257 4.26712C14.233 3.29086 14.233 1.7083 13.257 0.732002Z" fill="#9A86E3"/>
</g>
<defs>
<clipPath id="clip0_1_414">
<rect width="14" height="14" fill="white"/>
</clipPath>
</defs>
</svg>
