<svg width="34" height="34" viewBox="0 0 34 34" fill="none" xmlns="http://www.w3.org/2000/svg">
<path d="M15.4614 11.9577C15.4614 11.0306 14.7073 10.2768 13.7805 10.2768C12.8537 10.2768 12.0996 11.0306 12.0996 11.9577C12.0996 12.8843 12.8537 13.6386 13.7805 13.6386C14.7073 13.6386 15.4614 12.8843 15.4614 11.9577ZM13.0334 11.9577C13.0334 11.5457 13.3685 11.2106 13.7805 11.2106C14.1927 11.2106 14.5276 11.5457 14.5276 11.9577C14.5276 12.3693 14.1927 12.7048 13.7805 12.7048C13.3685 12.7048 13.0334 12.3693 13.0334 11.9577Z" fill="#DBDBDB"/>
<path d="M19.9707 15.9706C19.9707 16.8976 20.7247 17.6516 21.6516 17.6516C22.5781 17.6516 23.3325 16.8976 23.3325 15.9706C23.3325 15.0438 22.5781 14.2897 21.6516 14.2897C20.7247 14.2897 19.9707 15.0438 19.9707 15.9706ZM21.6516 15.2236C22.0634 15.2236 22.3987 15.5585 22.3987 15.9706C22.3987 16.3824 22.0634 16.7177 21.6516 16.7177C21.2395 16.7177 20.9045 16.3824 20.9045 15.9706C20.9045 15.5585 21.2395 15.2236 21.6516 15.2236Z" fill="#DBDBDB"/>
<path d="M11.4004 20.5847C11.4004 21.8981 12.4688 22.9666 13.7821 22.9666C15.0953 22.9666 16.1637 21.8981 16.1637 20.5847C16.1637 19.2714 15.0953 18.2032 13.7821 18.2032C12.4688 18.2032 11.4004 19.2714 11.4004 20.5847ZM13.7821 19.1371C14.5804 19.1371 15.2299 19.7865 15.2299 20.5847C15.2299 21.3832 14.5804 22.0327 13.7821 22.0327C12.9836 22.0327 12.3342 21.3832 12.3342 20.5847C12.3342 19.7864 12.9836 19.1371 13.7821 19.1371Z" fill="#DBDBDB"/>
<path d="M31.1824 15.2441C30.421 15.2441 29.8019 15.7624 29.5961 16.4581H27.5504C27.2865 15.5862 26.7755 15.1701 26.669 14.701C26.5287 14.0845 26.9984 13.0844 26.6026 12.2643C26.2048 11.4391 25.1183 11.1717 24.7379 10.6953C24.6156 10.5421 24.5297 10.3115 24.4463 10.0648L28.0443 6.46688C28.3456 6.64804 28.6743 6.77616 29.0349 6.77616C29.5587 6.77616 30.0508 6.57221 30.4212 6.20179C31.1855 5.43766 31.1855 4.19379 30.4212 3.42941C29.6552 2.66354 28.4151 2.66342 27.649 3.42941C27.0015 4.07675 26.9365 5.05242 27.3855 5.80497L24.074 9.11649C23.7865 8.5634 23.4226 8.25872 22.5957 8.13919C22.3403 8.10234 22.1037 8.27927 22.0666 8.53439C22.0298 8.78964 22.2067 9.02634 22.4623 9.06344C23.125 9.15932 23.2237 9.3426 23.495 10.1737C23.8363 11.219 24.0304 11.459 24.9674 12.0189C25.8708 12.559 25.9105 12.6612 25.7748 13.6803C25.6273 14.788 25.7055 15.0866 26.2934 15.9772C26.8755 16.8604 26.8755 16.99 26.2934 17.8726C25.7035 18.7671 25.628 19.0662 25.7748 20.1699C25.9108 21.1908 25.869 21.2922 24.9669 21.8314C24.0305 22.3908 23.8363 22.6309 23.495 23.6766C23.1707 24.67 23.0829 24.7357 22.0509 24.8315C20.9526 24.9331 20.6757 25.0703 19.9273 25.8529C19.1981 26.6151 19.0882 26.6313 18.1317 26.2742C17.7472 26.1309 17.35 25.9828 16.9259 25.9828C16.0923 25.9828 15.2495 26.6008 14.7433 26.4859C14.471 26.4241 14.2058 26.1466 13.9248 25.8529C13.1784 25.0724 12.9032 24.9336 11.801 24.8312C10.7687 24.7357 10.6809 24.6696 10.3568 23.6763C10.0151 22.6307 9.82127 22.3908 8.88457 21.8311C7.98123 21.2911 7.94127 21.1893 8.07686 20.1698C8.22378 19.0673 8.14858 18.7674 7.55839 17.8726C6.9763 16.99 6.9763 16.86 7.55839 15.9771C8.14845 15.0828 8.22391 14.7834 8.07686 13.68C7.94127 12.6606 7.98123 12.5585 8.88482 12.0186C9.23009 11.8123 9.58719 11.599 9.8438 11.2775C10.1017 10.9544 10.2314 10.5575 10.3568 10.1733C10.4819 9.79047 10.6 9.42876 10.8129 9.2588C11.0233 9.09046 11.4009 9.0556 11.801 9.01849C12.9006 8.91652 13.1769 8.77918 13.9248 7.99712C14.6524 7.23623 14.7614 7.21781 15.7203 7.57565C16.7643 7.96525 17.0873 7.96525 18.1317 7.57565C19.3087 7.1365 19.2269 7.33074 20.2001 8.27491C20.3848 8.45421 20.6806 8.4501 20.86 8.26482C21.0398 8.0798 21.0354 7.78409 20.85 7.60441C20.7685 7.5256 20.688 7.44093 20.602 7.35141C19.5892 6.29306 19.093 6.22047 17.8051 6.70096C17.6626 6.75388 17.5257 6.80281 17.3928 6.8439V4.2548C18.0882 4.04873 18.6067 3.42991 18.6067 2.6684C18.6067 1.74153 17.8525 0.987488 16.9258 0.987488C15.9989 0.987488 15.2449 1.74153 15.2449 2.6684C15.2449 3.42991 15.7632 4.04873 16.4589 4.2548V6.8439C16.3263 6.80281 16.1893 6.75388 16.0465 6.70096C14.7589 6.22047 14.2625 6.29293 13.2497 7.35153C13.0207 7.59097 12.8044 7.81708 12.5897 7.92092C12.367 8.02825 12.0502 8.05751 11.7146 8.08864C10.7753 8.1758 10.203 8.2977 9.77769 9.11649L7.16606 6.50485C7.65564 5.70798 7.59213 4.66532 6.90259 3.97552C6.096 3.16868 4.78315 3.16868 3.97631 3.97552C2.30562 5.64647 4.3435 8.4933 6.50565 7.16526L9.40527 10.0648C9.18464 10.7171 9.10147 10.8013 8.40545 11.217C7.16792 11.9566 6.96609 12.4137 7.15124 13.8035C7.19594 14.1392 7.23815 14.4565 7.18249 14.701C7.07591 15.1701 6.56491 15.5861 6.3012 16.4581H4.25559C4.04953 15.7624 3.4307 15.2441 2.66919 15.2441C1.74232 15.2441 0.988281 15.9981 0.988281 16.925C0.988281 17.8517 1.74232 18.6059 2.66919 18.6059C3.4307 18.6059 4.04953 18.0874 4.25559 17.3919H6.3012C6.56491 18.2639 7.07591 18.6796 7.18274 19.1489C7.32282 19.7652 6.85316 20.7658 7.24886 21.5856C7.64692 22.411 8.73328 22.6782 9.11392 23.1546C9.23606 23.3078 9.32185 23.5386 9.40527 23.7852L7.63634 25.554C6.99908 25.2079 6.19449 25.2789 5.65635 25.8174C4.59676 26.8772 5.35752 28.6859 6.84494 28.6859C8.0923 28.6859 8.9259 27.373 8.29675 26.2144L9.77781 24.7334C10.4707 26.067 11.8609 25.5776 12.5897 25.9292C13.1406 26.195 13.6331 27.1914 14.5365 27.3966C15.2098 27.5497 15.857 27.193 16.4589 27.0062V29.5953C15.7632 29.8011 15.2449 30.4202 15.2449 31.1816C15.2449 32.1083 15.9989 32.8625 16.9258 32.8625C17.8525 32.8625 18.6067 32.1083 18.6067 31.1816C18.6067 30.4202 18.0882 29.8011 17.3927 29.5953V27.0062C18.0034 27.1953 18.6429 27.5496 19.3153 27.3966C20.2164 27.1917 20.7153 26.193 21.2619 25.9292C21.9996 25.5731 23.377 26.0744 24.074 24.7334L24.5642 25.2241C24.7467 25.4062 25.0423 25.4062 25.2249 25.2241C25.4071 25.0415 25.4071 24.7458 25.2249 24.5634L24.4463 23.785C24.6671 23.132 24.7507 23.0485 25.4461 22.6329C26.6834 21.8934 26.8856 21.4362 26.7003 20.0465C26.5842 19.174 26.6081 19.0912 27.0726 18.3869C27.2677 18.0913 27.4408 17.7537 27.5501 17.3919H29.5957C29.8019 18.0874 30.421 18.6059 31.1824 18.6059C32.1091 18.6059 32.8633 17.8517 32.8633 16.925C32.8633 15.9981 32.1091 15.2441 31.1824 15.2441ZM29.0349 3.78913C29.9473 3.78913 30.4032 4.8994 29.7611 5.54163C29.3596 5.94268 28.7104 5.94281 28.309 5.54163C27.6665 4.89915 28.1229 3.78913 29.0349 3.78913ZM16.1787 2.6684C16.1787 2.25639 16.5138 1.92133 16.9258 1.92133C17.3379 1.92133 17.6729 2.25639 17.6729 2.6684C17.6729 3.08053 17.3379 3.41547 16.9258 3.41547C16.5138 3.41547 16.1787 3.08053 16.1787 2.6684ZM4.63685 6.24151C4.19408 5.79887 4.19408 5.07857 4.63685 4.63568C5.07936 4.19329 5.79966 4.19329 6.2423 4.63568C6.68507 5.07857 6.68507 5.79887 6.2423 6.24151C5.79966 6.68427 5.07936 6.68402 4.63685 6.24151ZM2.66919 17.6721C2.25718 17.6721 1.92212 17.3371 1.92212 16.925C1.92212 16.513 2.25718 16.1779 2.66919 16.1779C3.08132 16.1779 3.41626 16.513 3.41626 16.925C3.41626 17.3371 3.08132 17.6721 2.66919 17.6721ZM7.37324 27.5341C7.08164 27.8256 6.60774 27.8256 6.31651 27.5341C5.84548 27.0631 6.18366 26.2593 6.84469 26.2593C7.50547 26.2593 7.84464 27.0627 7.37324 27.5341ZM17.6729 31.1816C17.6729 31.5937 17.3379 31.9287 16.9258 31.9287C16.5138 31.9287 16.1787 31.5937 16.1787 31.1816C16.1787 30.7696 16.5138 30.4345 16.9258 30.4345C17.3379 30.4345 17.6729 30.7696 17.6729 31.1816ZM31.1824 17.6721C30.7704 17.6721 30.4353 17.3371 30.4353 16.925C30.4353 16.513 30.7704 16.1779 31.1824 16.1779C31.5945 16.1779 31.9294 16.513 31.9294 16.925C31.9294 17.3371 31.5945 17.6721 31.1824 17.6721Z" fill="#DBDBDB"/>
<path d="M27.3679 26.707L26.5709 25.9098C26.3881 25.7276 26.0927 25.7276 25.9102 25.9098C25.7278 26.0922 25.7278 26.3879 25.9102 26.5704L26.7075 27.3674C26.2329 28.1481 26.2966 29.166 26.9708 29.8401C27.7639 30.6331 29.0476 30.6334 29.8406 29.8401C30.6336 29.0471 30.6336 27.7635 29.8406 26.9703C29.1665 26.2961 28.1487 26.2324 27.3679 26.707ZM29.1803 29.1798C28.7522 29.6079 28.0596 29.6079 27.6312 29.1798C27.2043 28.7527 27.2043 28.0578 27.6312 27.6308C28.0583 27.2038 28.7531 27.2038 29.1803 27.6308C29.6084 28.0588 29.6085 28.7517 29.1803 29.1798Z" fill="#DBDBDB"/>
</svg>
