<svg width="35" height="35" viewBox="0 0 35 35" fill="none" xmlns="http://www.w3.org/2000/svg">
<circle cx="17.5" cy="17.5" r="17.5" fill="#1EB4E3"/>
<path fill-rule="evenodd" clip-rule="evenodd" d="M15.5 12C15.5 11.4477 15.0523 11 14.5 11C13.9477 11 13.5 11.4477 13.5 12V13H12.5C11.6716 13 11 13.6716 11 14.5V23.5C11 24.3284 11.6716 25 12.5 25H23.5C24.3284 25 25 24.3284 25 23.5V14.5C25 13.6716 24.3284 13 23.5 13H22.5001V12C22.5001 11.4477 22.0524 11 21.5001 11C20.9478 11 20.5001 11.4477 20.5001 12V13H15.5V12ZM17.9887 16.1251C18.0821 16.1233 18.1742 16.1477 18.2545 16.1954C18.3347 16.2432 18.4 16.3125 18.443 16.3955L18.4449 16.3991L19.1892 17.8965L19.1922 17.8971L20.8411 18.1475C20.9343 18.1602 21.022 18.1989 21.0942 18.2591C21.1672 18.32 21.2213 18.4005 21.2503 18.491C21.2793 18.5816 21.2819 18.6785 21.2578 18.7705C21.2338 18.8619 21.1845 18.9447 21.1155 19.0093L19.955 20.1121C19.9637 20.1322 19.9696 20.1535 19.9727 20.1752L20.2051 21.811C20.2226 21.9029 20.214 21.9979 20.1801 22.0853C20.1451 22.1756 20.0846 22.2539 20.0061 22.3105C19.9275 22.3672 19.8341 22.3998 19.7374 22.4045C19.6426 22.4091 19.5485 22.3866 19.4661 22.3398L18.0103 21.5691C18.0058 21.5676 18.001 21.5668 17.9962 21.5668C17.9915 21.5668 17.9867 21.5676 17.9822 21.5691L16.5264 22.3398C16.4439 22.3866 16.3499 22.4091 16.2551 22.4045C16.1583 22.3998 16.065 22.3672 15.9864 22.3105C15.9078 22.2539 15.8474 22.1756 15.8124 22.0853C15.778 21.9968 15.7696 21.9004 15.788 21.8073L16.064 20.1689C16.0655 20.1601 16.0674 20.1513 16.0698 20.1427L14.8755 18.9992L14.8705 18.9942C14.8059 18.9288 14.7606 18.8469 14.7394 18.7574C14.7183 18.668 14.7223 18.5744 14.7508 18.4871C14.7793 18.3997 14.8314 18.3218 14.9012 18.2621C14.971 18.2023 15.056 18.1629 15.1467 18.1482L15.1504 18.1476L16.8029 17.9054L16.8042 17.9033L17.5466 16.4098C17.5864 16.3266 17.6484 16.2559 17.7259 16.2056C17.8043 16.1548 17.8953 16.1269 17.9887 16.1251Z" fill="white"/>
</svg>
