<svg width="25" height="25" viewBox="0 0 25 25" fill="none" xmlns="http://www.w3.org/2000/svg">
<rect x="-0.00012207" y="0.85714" width="24.1429" height="24.1429" rx="10" fill="white"/>
<path d="M21.1756 17.9534L19.8855 16.0974C19.7094 15.8451 19.6146 15.545 19.6139 15.2373V9.91082C19.6139 7.90985 18.819 5.99084 17.4041 4.57595C15.9892 3.16105 14.0702 2.36617 12.0692 2.36617C10.0683 2.36617 8.14927 3.16105 6.73438 4.57595C5.31948 5.99084 4.5246 7.90985 4.5246 9.91082V15.2373C4.52387 15.545 4.4291 15.8451 4.25299 16.0974L2.96286 17.9534C2.76751 18.1698 2.63906 18.4382 2.59302 18.7262C2.54699 19.0141 2.58535 19.3091 2.70347 19.5757C2.82159 19.8423 3.0144 20.0689 3.2586 20.2282C3.50279 20.3875 3.78791 20.4726 4.07947 20.4733H8.37237C8.54553 21.3261 9.00818 22.0928 9.68192 22.6434C10.3557 23.1941 11.1991 23.495 12.0692 23.495C12.9394 23.495 13.7828 23.1941 14.4566 22.6434C15.1303 22.0928 15.593 21.3261 15.7661 20.4733H20.059C20.3506 20.4726 20.6357 20.3875 20.8799 20.2282C21.1241 20.0689 21.3169 19.8423 21.435 19.5757C21.5531 19.3091 21.5915 19.0141 21.5455 18.7262C21.4994 18.4382 21.371 18.1698 21.1756 17.9534ZM12.0692 21.9822C11.6023 21.9809 11.1471 21.8352 10.7662 21.5651C10.3853 21.2949 10.0973 20.9136 9.94165 20.4733H14.1968C14.0412 20.9136 13.7532 21.2949 13.3723 21.5651C12.9913 21.8352 12.5362 21.9809 12.0692 21.9822ZM4.07947 18.9644C4.11357 18.9327 4.14394 18.8973 4.17 18.8588L5.49032 16.9575C5.84253 16.4529 6.03207 15.8527 6.03353 15.2373V9.91082C6.03353 8.31004 6.66943 6.77484 7.80135 5.64292C8.93326 4.51101 10.4685 3.8751 12.0692 3.8751C13.67 3.8751 15.2052 4.51101 16.3371 5.64292C17.4691 6.77484 18.105 8.31004 18.105 9.91082V15.2373C18.1064 15.8527 18.296 16.4529 18.6482 16.9575L19.9685 18.8588C19.9945 18.8973 20.0249 18.9327 20.059 18.9644H4.07947Z" fill="#212121"/>
</svg>
