<svg width="34" height="34" viewBox="0 0 34 34" fill="none" xmlns="http://www.w3.org/2000/svg">
<path d="M14.1993 6.73412C13.7444 6.02737 13.0901 5.47137 12.3193 5.13642C11.5484 4.80146 10.6955 4.70259 9.86848 4.8523C9.04143 5.00202 8.27735 5.3936 7.67282 5.97754C7.0683 6.56147 6.6505 7.31154 6.47223 8.13291C5.88729 7.96544 5.27321 7.92553 4.67151 8.01586C4.06982 8.10619 3.49453 8.32467 2.98455 8.65651C2.47457 8.98835 2.04178 9.42583 1.71546 9.93935C1.38913 10.4529 1.17687 11.0305 1.09303 11.6331C1.00919 12.2358 1.05572 12.8494 1.22948 13.4325C1.40324 14.0156 1.70017 14.5546 2.1002 15.013C2.50024 15.4715 2.99404 15.8387 3.54823 16.0898C4.10242 16.341 4.70407 16.4702 5.31251 16.4688H6.83135C7.32539 15.9635 7.91556 15.5621 8.56709 15.2884C9.21861 15.0147 9.91832 14.8741 10.625 14.875C10.811 14.8753 10.9968 14.8851 11.1818 14.9042C11.2642 13.9437 11.5829 13.0185 12.1096 12.2111C12.6362 11.4036 13.3545 10.739 14.2003 10.2765C13.9453 9.72062 13.8128 9.11637 13.812 8.50477C13.8112 7.89317 13.942 7.28856 14.1955 6.732L14.1993 6.73412Z" fill="#4FB5DC"/>
<path d="M22.2015 12.75H28.6875C29.2959 12.7514 29.8976 12.6222 30.4518 12.3711C31.006 12.1199 31.4998 11.7527 31.8998 11.2943C32.2998 10.8358 32.5968 10.2968 32.7705 9.71373C32.9443 9.13063 32.9908 8.51702 32.907 7.91438C32.8231 7.31175 32.6109 6.73414 32.2845 6.22061C31.9582 5.70708 31.5254 5.26961 31.0155 4.93777C30.5055 4.60592 29.9302 4.38745 29.3285 4.29712C28.7268 4.20679 28.1127 4.2467 27.5278 4.41416C27.3215 3.46619 26.797 2.61734 26.0416 2.00863C25.2861 1.39992 24.3452 1.06799 23.375 1.06799C22.4048 1.06799 21.4639 1.39992 20.7084 2.00863C19.953 2.61734 19.4285 3.46619 19.2222 4.41416C18.4408 4.19261 17.6123 4.19959 16.8348 4.43427C16.0573 4.66895 15.3633 5.12151 14.835 5.73837C14.3066 6.35522 13.9661 7.11055 13.8538 7.91491C13.7414 8.71928 13.8618 9.539 14.2008 10.277C14.8863 9.90334 15.6397 9.67076 16.4165 9.59305C17.1933 9.51535 17.9778 9.59407 18.7237 9.82459C19.4695 10.0551 20.1617 10.4327 20.7592 10.9352C21.3567 11.4377 21.8475 12.0547 22.2025 12.75H22.2015Z" fill="#5ED3F2"/>
<path d="M23.375 25.5C24.784 25.5 26.1352 24.9403 27.1315 23.944C28.1278 22.9477 28.6875 21.5965 28.6875 20.1875C28.6875 18.7785 28.1278 17.4273 27.1315 16.431C26.1352 15.4347 24.784 14.875 23.375 14.875C23.189 14.8753 23.0032 14.8851 22.8183 14.9042C22.6907 13.4494 22.0226 12.0951 20.9458 11.1085C19.8689 10.122 18.4615 9.57471 17.0011 9.57471C15.5406 9.57471 14.1332 10.122 13.0563 11.1085C11.9795 12.0951 11.3114 13.4494 11.1839 14.9042C10.9982 14.885 10.8117 14.8753 10.625 14.875C9.21604 14.875 7.86478 15.4347 6.8685 16.431C5.87221 17.4273 5.3125 18.7785 5.3125 20.1875C5.3125 21.5965 5.87221 22.9477 6.8685 23.944C7.86478 24.9403 9.21604 25.5 10.625 25.5H23.375Z" fill="#95EBFC"/>
<path d="M23.375 14.875C23.1891 14.8753 23.0033 14.8851 22.8183 14.9042C22.7037 13.5806 22.1412 12.3356 21.2237 11.3748C20.3061 10.414 19.0884 9.79474 17.7714 9.61935C14.9308 11.5552 13.1315 14.4107 13.1315 17.5977C13.1315 20.7432 14.8846 23.5657 17.6593 25.5H23.375C24.784 25.5 26.1353 24.9403 27.1315 23.944C28.1278 22.9477 28.6875 21.5965 28.6875 20.1875C28.6875 18.7785 28.1278 17.4273 27.1315 16.431C26.1353 15.4347 24.784 14.875 23.375 14.875Z" fill="#AEF5FF"/>
<path d="M28.6875 4.25C28.2952 4.25082 27.9049 4.30607 27.5278 4.41416C27.3234 3.46899 26.8028 2.62178 26.0519 2.01242C25.3011 1.40305 24.3648 1.06797 23.3978 1.0625C22.6438 1.73918 22.0378 2.5644 21.6179 3.48637C21.1979 4.40834 20.973 5.40716 20.9573 6.42016C20.9573 8.98875 22.3916 11.2715 24.6229 12.7489H28.6875C29.8029 12.7313 30.8666 12.2758 31.6492 11.4808C32.4317 10.6858 32.8703 9.615 32.8703 8.49947C32.8703 7.38394 32.4317 6.31313 31.6492 5.51812C30.8666 4.72311 29.8029 4.26764 28.6875 4.25Z" fill="#75E2FC"/>
<path d="M30.2812 31.875H21.25V30.8125H30.2812C30.8448 30.8125 31.3853 30.5886 31.7839 30.1901C32.1824 29.7916 32.4062 29.2511 32.4062 28.6875C32.4062 28.1239 32.1824 27.5834 31.7839 27.1849C31.3853 26.7864 30.8448 26.5625 30.2812 26.5625C29.9995 26.5625 29.7292 26.6744 29.5299 26.8737C29.3307 27.073 29.2188 27.3432 29.2188 27.625C29.2188 27.9068 29.3307 28.177 29.5299 28.3763C29.7292 28.5756 29.9995 28.6875 30.2812 28.6875H30.8125V29.75H30.2812C29.7177 29.75 29.1772 29.5261 28.7786 29.1276C28.3801 28.7291 28.1562 28.1886 28.1562 27.625C28.1562 27.0614 28.3801 26.5209 28.7786 26.1224C29.1772 25.7239 29.7177 25.5 30.2812 25.5C31.1266 25.5 31.9374 25.8358 32.5352 26.4336C33.1329 27.0314 33.4688 27.8421 33.4688 28.6875C33.4688 29.5329 33.1329 30.3436 32.5352 30.9414C31.9374 31.5392 31.1266 31.875 30.2812 31.875Z" fill="#E2E7F6"/>
<path d="M12.75 31.3438H3.71875C2.87337 31.3438 2.06262 31.0079 1.46485 30.4102C0.867075 29.8124 0.53125 29.0016 0.53125 28.1562C0.53125 27.3109 0.867075 26.5001 1.46485 25.9023C2.06262 25.3046 2.87337 24.9688 3.71875 24.9688C4.28234 24.9688 4.82284 25.1926 5.22135 25.5911C5.61987 25.9897 5.84375 26.5302 5.84375 27.0938C5.84375 27.6573 5.61987 28.1978 5.22135 28.5964C4.82284 28.9949 4.28234 29.2188 3.71875 29.2188H3.1875V28.1562H3.71875C4.00054 28.1562 4.27079 28.0443 4.47005 27.8451C4.66931 27.6458 4.78125 27.3755 4.78125 27.0938C4.78125 26.812 4.66931 26.5417 4.47005 26.3424C4.27079 26.1432 4.00054 26.0312 3.71875 26.0312C3.15516 26.0312 2.61466 26.2551 2.21615 26.6536C1.81763 27.0522 1.59375 27.5927 1.59375 28.1562C1.59375 28.7198 1.81763 29.2603 2.21615 29.6589C2.61466 30.0574 3.15516 30.2812 3.71875 30.2812H12.75V31.3438Z" fill="#E2E7F6"/>
<path d="M7.4375 32.4062H17V33.4688H7.4375V32.4062Z" fill="#C8CDED"/>
<path d="M17 28.6875H26.5625V29.75H17V28.6875Z" fill="#C8CDED"/>
</svg>
