<svg width="30" height="30" viewBox="0 0 30 30" fill="none" xmlns="http://www.w3.org/2000/svg">
<path fill-rule="evenodd" clip-rule="evenodd" d="M22.7129 14.0625C20.6429 14.0625 18.9629 15.7425 18.9629 17.8125C18.9629 19.8825 20.6429 21.5625 22.7129 21.5625C24.7829 21.5625 26.4629 19.8825 26.4629 17.8125C26.4629 15.7425 24.7829 14.0625 22.7129 14.0625ZM22.7129 15.9375C23.7479 15.9375 24.5879 16.7775 24.5879 17.8125C24.5879 18.8475 23.7479 19.6875 22.7129 19.6875C21.6779 19.6875 20.8379 18.8475 20.8379 17.8125C20.8379 16.7775 21.6779 15.9375 22.7129 15.9375Z" fill="#9A86E3"/>
<path fill-rule="evenodd" clip-rule="evenodd" d="M19.1595 28.4375C21.0595 28.4375 24.3758 28.4375 26.2758 28.4212C26.977 28.4212 27.642 28.0738 28.0483 27.4913C28.4545 26.9088 28.5495 26.165 28.3045 25.4988C27.4883 23.21 25.292 21.5625 22.7133 21.5625C20.1383 21.5625 17.9433 23.205 17.1058 25.4938C16.8583 26.165 16.9545 26.915 17.3645 27.5012C17.7733 28.0887 18.4445 28.4375 19.1595 28.4375ZM19.1595 26.5625C19.057 26.5625 18.9608 26.5125 18.902 26.4287C18.8433 26.345 18.8295 26.2375 18.8645 26.1413C18.8658 26.1413 18.8658 26.14 18.8658 26.14C19.4408 24.5688 20.9458 23.4375 22.7133 23.4375C24.4783 23.4375 25.9808 24.565 26.542 26.1375C26.5433 26.1412 26.5433 26.145 26.5445 26.1475C26.5783 26.2387 26.5658 26.34 26.5095 26.4188C26.4545 26.4988 26.3645 26.5462 26.267 26.5462C26.2645 26.5462 26.262 26.5462 26.2595 26.5462C24.3633 26.5625 21.0545 26.5625 19.1595 26.5625Z" fill="#9A86E3"/>
<path fill-rule="evenodd" clip-rule="evenodd" d="M25.9375 11.25V8.125C25.9375 5.53625 23.8388 3.4375 21.25 3.4375H6.25C3.66125 3.4375 1.5625 5.53625 1.5625 8.125V23.125C1.5625 25.7138 3.66125 27.8125 6.25 27.8125H13.75C14.2675 27.8125 14.6875 27.3925 14.6875 26.875C14.6875 26.3575 14.2675 25.9375 13.75 25.9375C13.75 25.9375 9.5225 25.9375 6.25 25.9375C4.69625 25.9375 3.4375 24.6787 3.4375 23.125V8.125C3.4375 6.57125 4.69625 5.3125 6.25 5.3125H21.25C22.8037 5.3125 24.0625 6.57125 24.0625 8.125V11.25C24.0625 11.7675 24.4825 12.1875 25 12.1875C25.5175 12.1875 25.9375 11.7675 25.9375 11.25Z" fill="#66747F"/>
<path fill-rule="evenodd" clip-rule="evenodd" d="M7.5 2.5V6.25C7.5 6.7675 7.92 7.1875 8.4375 7.1875C8.955 7.1875 9.375 6.7675 9.375 6.25V2.5C9.375 1.9825 8.955 1.5625 8.4375 1.5625C7.92 1.5625 7.5 1.9825 7.5 2.5Z" fill="#66747F"/>
<path fill-rule="evenodd" clip-rule="evenodd" d="M18.125 2.5V6.25C18.125 6.7675 18.545 7.1875 19.0625 7.1875C19.58 7.1875 20 6.7675 20 6.25V2.5C20 1.9825 19.58 1.5625 19.0625 1.5625C18.545 1.5625 18.125 1.9825 18.125 2.5Z" fill="#66747F"/>
<path fill-rule="evenodd" clip-rule="evenodd" d="M7.5 13.4375H11.375C11.8925 13.4375 12.3125 13.0175 12.3125 12.5C12.3125 11.9825 11.8925 11.5625 11.375 11.5625H7.5C6.9825 11.5625 6.5625 11.9825 6.5625 12.5C6.5625 13.0175 6.9825 13.4375 7.5 13.4375Z" fill="#66747F"/>
<path fill-rule="evenodd" clip-rule="evenodd" d="M7.5 18.4375H13.75C14.2675 18.4375 14.6875 18.0175 14.6875 17.5C14.6875 16.9825 14.2675 16.5625 13.75 16.5625H7.5C6.9825 16.5625 6.5625 16.9825 6.5625 17.5C6.5625 18.0175 6.9825 18.4375 7.5 18.4375Z" fill="#66747F"/>
</svg>
