<svg width="15" height="15" viewBox="0 0 15 15" fill="none" xmlns="http://www.w3.org/2000/svg">
<path d="M14.501 3.43631C14.2015 3.12262 13.788 2.93726 13.3175 2.93726H10.9506V2.90874C10.9506 2.55228 10.808 2.21007 10.5656 1.98194C10.3232 1.73954 9.99525 1.59695 9.63878 1.59695H5.36122C4.99049 1.59695 4.66255 1.73954 4.42015 1.98194C4.17776 2.22433 4.03517 2.55228 4.03517 2.90874V2.93726H1.68251C1.21198 2.93726 0.798479 3.12262 0.499049 3.43631C0.19962 3.73574 0 4.16349 0 4.61977V11.7205C0 12.1911 0.185361 12.6046 0.499049 12.904C0.798479 13.2034 1.22624 13.403 1.68251 13.403H13.3175C13.788 13.403 14.2015 13.2177 14.501 12.904C14.8004 12.6046 15 12.1768 15 11.7205V4.61977C15 4.14924 14.8146 3.73574 14.501 3.43631ZM14.2586 11.7205H14.2443C14.2443 11.9772 14.1445 12.2053 13.9734 12.3764C13.8023 12.5475 13.5741 12.6473 13.3175 12.6473H1.68251C1.42586 12.6473 1.19772 12.5475 1.02662 12.3764C0.855513 12.2053 0.755704 11.9772 0.755704 11.7205V4.61977C0.755704 4.36311 0.855513 4.13498 1.02662 3.96387C1.19772 3.79277 1.42586 3.69296 1.68251 3.69296H4.43441C4.64829 3.69296 4.81939 3.52186 4.81939 3.30798V2.89448C4.81939 2.73764 4.87643 2.59505 4.97624 2.49524C5.07605 2.39543 5.21863 2.3384 5.37548 2.3384H9.63878C9.79563 2.3384 9.93821 2.39543 10.038 2.49524C10.1378 2.59505 10.1949 2.73764 10.1949 2.89448V3.30798C10.1949 3.52186 10.366 3.69296 10.5798 3.69296H13.3317C13.5884 3.69296 13.8165 3.79277 13.9876 3.96387C14.1587 4.13498 14.2586 4.36311 14.2586 4.61977V11.7205Z" fill="white"/>
<path d="M7.50004 4.66254C6.53045 4.66254 5.64642 5.06178 5.01905 5.68915C4.37741 6.33079 3.99243 7.20056 3.99243 8.17014C3.99243 9.13972 4.39167 10.0238 5.01905 10.6511C5.66068 11.2928 6.53045 11.6777 7.50004 11.6777C8.46962 11.6777 9.35365 11.2785 9.98103 10.6511C10.6227 10.0095 11.0076 9.13972 11.0076 8.17014C11.0076 7.20056 10.6084 6.31653 9.98103 5.68915C9.35365 5.06178 8.46962 4.66254 7.50004 4.66254ZM9.4392 10.1236C8.94015 10.6084 8.25574 10.922 7.50004 10.922C6.74433 10.922 6.05992 10.6084 5.56087 10.1236C5.06182 9.62451 4.76239 8.9401 4.76239 8.1844C4.76239 7.4287 5.07608 6.74429 5.56087 6.24524C6.05992 5.74619 6.74433 5.44676 7.50004 5.44676C8.25574 5.44676 8.94015 5.76045 9.4392 6.24524C9.93825 6.74429 10.2377 7.4287 10.2377 8.1844C10.2519 8.9401 9.93825 9.62451 9.4392 10.1236Z" fill="white"/>
<path d="M12.5761 6.04562C12.962 6.04562 13.2748 5.73282 13.2748 5.34695C13.2748 4.96109 12.962 4.64828 12.5761 4.64828C12.1902 4.64828 11.8774 4.96109 11.8774 5.34695C11.8774 5.73282 12.1902 6.04562 12.5761 6.04562Z" fill="white"/>
</svg>
