<svg width="20" height="20" viewBox="0 0 20 20" fill="none" xmlns="http://www.w3.org/2000/svg">
<g clip-path="url(#clip0_1_130)">
<path d="M19.0225 10.0406C19.0186 10.0445 19.0352 10.0406 18.9729 10.0406C18.3162 10.0406 17.8623 10.6495 18.0912 11.217C17.981 11.3331 18.4566 10.8577 10.4135 18.8588C10.1844 19.0863 9.81596 19.0867 9.58647 18.8588C1.54581 10.8598 2.02007 11.3343 1.90877 11.217C2.1467 10.627 1.6493 10.009 0.978215 10.0418C0.977824 10.0414 0.977824 10.041 0.977433 10.0406C0.31182 9.0006 -0.0222952 7.87229 0.0011543 6.71428C0.0920209 2.16919 5.63832 -1.18209 10 2.6329C14.3592 -1.17998 19.9079 2.1668 19.9988 6.71428C20.0223 7.87229 19.6881 9.0006 19.0225 10.0406Z" fill="#FF405C"/>
<path d="M19.0226 10.0402C19.0187 10.0441 19.0352 10.0402 18.9729 10.0402C18.3163 10.0402 17.8624 10.6491 18.0912 11.2166C17.981 11.3327 18.4566 10.8573 10.4135 18.8583C10.299 18.9721 10.1497 19.0291 10 19.0291V2.6325C12.7152 0.257613 16.103 0.560932 18.2609 2.71809C20.1797 4.63692 20.6219 7.54113 19.0226 10.0402Z" fill="#C30047"/>
<path d="M19.0217 10.0407C18.7625 10.446 18.453 10.838 18.0942 11.2132H13.751C13.5353 11.2132 13.3372 11.0947 13.2348 10.9048L11.596 7.86106L9.27845 12.7538C9.08222 13.168 8.50216 13.2085 8.2541 12.8175L6.57473 10.1787L6.1245 10.9286C6.01859 11.1053 5.82786 11.2131 5.6219 11.2131H1.90399C1.54521 10.8379 1.23568 10.4459 0.976562 10.0407H5.29009L6.05728 8.76187C6.27911 8.39129 6.81856 8.37805 7.05427 8.74898L8.67306 11.2925L11.0325 6.31141C11.239 5.87708 11.8507 5.86231 12.0787 6.28444L14.1012 10.0407H19.0217V10.0407Z" fill="#E1F3FF"/>
<path d="M12.0796 6.28438C11.852 5.86311 11.2402 5.87628 11.0333 6.31135L10 8.49285V11.2323L11.5969 7.86097L13.2356 10.9047C13.338 11.0946 13.5362 11.2131 13.7519 11.2131H18.0951C18.4539 10.8379 18.7635 10.4459 19.0226 10.0406H14.1021L12.0796 6.28438Z" fill="#B1D5F1"/>
</g>
<defs>
<clipPath id="clip0_1_130">
<rect width="20" height="20" fill="white"/>
</clipPath>
</defs>
</svg>
