<svg width="24" height="24" viewBox="0 0 24 24" fill="none" xmlns="http://www.w3.org/2000/svg">
<g clip-path="url(#clip0_1020_3753)">
<path d="M21.8906 0.726379H2.10938C0.946266 0.726379 0 1.67265 0 2.83575V16.9451C0 18.1082 0.946266 19.0545 2.10938 19.0545H4.96875V22.5701C4.96875 23.1738 5.67741 23.4915 6.12947 23.104L10.8539 19.0545H21.8906C23.0537 19.0545 24 18.1082 24 16.9451V2.83575C24 1.67265 23.0537 0.726379 21.8906 0.726379ZM22.5938 16.9451C22.5938 17.3328 22.2783 17.6483 21.8906 17.6483H10.5938C10.4259 17.6483 10.2636 17.7083 10.1362 17.8175L6.375 21.0414V18.3514C6.375 17.9631 6.06019 17.6483 5.67188 17.6483H2.10938C1.72167 17.6483 1.40625 17.3328 1.40625 16.9451V2.83575C1.40625 2.44805 1.72167 2.13263 2.10938 2.13263H21.8906C22.2783 2.13263 22.5938 2.44805 22.5938 2.83575V16.9451Z" fill="#66747F"/>
</g>
<defs>
<clipPath id="clip0_1020_3753">
<rect width="24" height="24" fill="white"/>
</clipPath>
</defs>
</svg>
