<svg width="16" height="16" viewBox="0 0 16 16" fill="none" xmlns="http://www.w3.org/2000/svg">
<g clip-path="url(#clip0_3078_4781)">
<circle cx="8" cy="8" r="6" fill="#0D1017"/>
<path d="M2.59796 2.6475C-0.350674 5.62818 -0.334649 10.4518 2.64603 13.4004C5.62671 16.349 10.4503 16.333 13.3989 13.3523C16.3475 10.3716 16.3315 5.54805 13.3508 2.59942C10.3702 -0.349209 5.54659 -0.333184 2.59796 2.6475ZM11.7002 6.54161L7.56576 10.7242C7.2132 11.0767 6.6363 11.0767 6.28374 10.7242L6.12349 10.5639L5.64274 10.0832L4.29662 8.75308C3.94407 8.40053 3.94407 7.82363 4.29662 7.47107C4.64918 7.11852 5.22608 7.11852 5.57864 7.47107L6.92475 8.80116L10.4182 5.27562C10.7708 4.92307 11.3477 4.92307 11.7003 5.27562C12.0528 5.61215 12.0528 6.18906 11.7002 6.54161Z" fill="#67CF65"/>
</g>
<defs>
<clipPath id="clip0_3078_4781">
<rect width="16" height="16" fill="white"/>
</clipPath>
</defs>
</svg>
