<svg width="18" height="18" viewBox="0 0 18 18" fill="none" xmlns="http://www.w3.org/2000/svg">
<g clip-path="url(#clip0_3577_5265)">
<path d="M5.37543 15.6927L2.36719 13.5016L3.33249 12.5757L6.00576 14.5228L5.37543 15.6927Z" fill="#EFE2DD"/>
<path d="M9.14084 15.1566L8.27344 14.1655L11.322 11.6123L12.3188 12.495L9.14084 15.1566Z" fill="#EFE2DD"/>
<path d="M9.60547 7.3457L10.7247 6.65177L12.7513 9.92046L11.6321 10.6144L9.60547 7.3457Z" fill="#EFE2DD"/>
<path d="M5.48096 5.2779L7.66128 5.03564L7.80672 6.34432L5.31345 6.62138L5.16797 5.31271L5.48096 5.2779Z" fill="#EFE2DD"/>
<path d="M1.46875 11.0601L2.15936 7.39049L3.45373 7.63409L2.76312 11.3037L1.46875 11.0601Z" fill="#EFE2DD"/>
<path d="M10.8292 4.87931L9.74609 4.1153L12.2478 1.46191L13.164 2.39255L10.8292 4.87931Z" fill="#EFE2DD"/>
<path d="M15.0949 14.5036L12.8477 12.4853L13.7648 11.5396L15.9957 13.5432L15.0949 14.5036Z" fill="#EFE2DD"/>
<path d="M3.29423 8.7203C4.61092 8.7203 5.67831 7.65291 5.67831 6.33622C5.67831 5.01954 4.61092 3.95215 3.29423 3.95215C1.97754 3.95215 0.910156 5.01954 0.910156 6.33622C0.910156 7.65291 1.97754 8.7203 3.29423 8.7203Z" fill="#FFE177"/>
<path d="M2.17405 13.6113C2.99936 13.6113 3.66841 12.9422 3.66841 12.1169C3.66841 11.2916 2.99936 10.6226 2.17405 10.6226C1.34874 10.6226 0.679688 11.2916 0.679688 12.1169C0.679688 12.9422 1.34874 13.6113 2.17405 13.6113Z" fill="#B3DAFE"/>
<path d="M12.5831 12.6252C13.3797 12.6252 14.0255 11.9793 14.0255 11.1827C14.0255 10.386 13.3797 9.74023 12.5831 9.74023C11.7864 9.74023 11.1406 10.386 11.1406 11.1827C11.1406 11.9793 11.7864 12.6252 12.5831 12.6252Z" fill="#FFE177"/>
<path d="M16.0206 15.8509C16.7375 15.8509 17.3186 15.2697 17.3186 14.5529C17.3186 13.836 16.7375 13.2549 16.0206 13.2549C15.3038 13.2549 14.7227 13.836 14.7227 14.5529C14.7227 15.2697 15.3038 15.8509 16.0206 15.8509Z" fill="#B3DAFE"/>
<path d="M13.329 2.5095C14.0219 2.5095 14.5837 1.94773 14.5837 1.25475C14.5837 0.56177 14.0219 0 13.329 0C12.636 0 12.0742 0.56177 12.0742 1.25475C12.0742 1.94773 12.636 2.5095 13.329 2.5095Z" fill="#FD8087"/>
<path d="M13.3274 0C13.3256 0 13.3238 0.000108652 13.3221 0.000144869C13.4322 0.186773 13.4956 0.404221 13.4956 0.636592C13.4956 1.3278 12.9366 1.88833 12.2461 1.8912C12.4643 2.26115 12.8667 2.5095 13.3273 2.5095C14.0203 2.5095 14.5821 1.94773 14.5821 1.25475C14.5821 0.561767 14.0203 0 13.3274 0Z" fill="#FE646F"/>
<path d="M7.36649 18.0001C8.54402 18.0001 9.4986 17.0455 9.4986 15.868C9.4986 14.6904 8.54402 13.7358 7.36649 13.7358C6.18895 13.7358 5.23438 14.6904 5.23438 15.868C5.23438 17.0455 6.18895 18.0001 7.36649 18.0001Z" fill="#FD8087"/>
<path d="M9.29978 7.56782C10.3369 7.56782 11.1777 6.72705 11.1777 5.68992C11.1777 4.65278 10.3369 3.81201 9.29978 3.81201C8.26264 3.81201 7.42188 4.65278 7.42188 5.68992C7.42188 6.72705 8.26264 7.56782 9.29978 7.56782Z" fill="#B3DAFE"/>
<path d="M4.34425 4.19678C4.50081 4.51429 4.58911 4.87151 4.58911 5.24947C4.58911 6.56615 3.52172 7.63355 2.20504 7.63355C1.82707 7.63355 1.46986 7.54525 1.15234 7.38868C1.54117 8.17731 2.3528 8.72006 3.29155 8.72006C4.60823 8.72006 5.67563 7.65267 5.67563 6.33599C5.67563 5.39724 5.13288 4.58561 4.34425 4.19678Z" fill="#FFD15B"/>
<path d="M2.53551 10.6675C2.56456 10.7838 2.58017 10.9054 2.58017 11.0306C2.58017 11.856 1.91113 12.525 1.08581 12.525C0.960531 12.525 0.838914 12.5094 0.722656 12.4803C0.88491 13.1301 1.47232 13.6115 2.17233 13.6115C2.99765 13.6115 3.66669 12.9425 3.66669 12.1171C3.66669 11.4171 3.18525 10.8298 2.53551 10.6675Z" fill="#8AC9FE"/>
<path d="M12.9021 9.77637C12.9254 9.8793 12.9382 9.98625 12.9382 10.0963C12.9382 10.8929 12.2923 11.5387 11.4957 11.5387C11.3857 11.5387 11.2787 11.526 11.1758 11.5027C11.3214 12.1453 11.8956 12.6253 12.5822 12.6253C13.3789 12.6253 14.0247 11.9794 14.0247 11.1828C14.0247 10.4962 13.5448 9.92196 12.9021 9.77637Z" fill="#FFD15B"/>
<path d="M16.218 13.2695C16.2278 13.3337 16.2329 13.3993 16.2329 13.4662C16.2329 14.183 15.6518 14.7641 14.9349 14.7641C14.868 14.7641 14.8024 14.759 14.7383 14.7493C14.833 15.3729 15.3714 15.8506 16.0214 15.8506C16.7383 15.8506 17.3194 15.2695 17.3194 14.5527C17.3194 13.9027 16.8416 13.3643 16.218 13.2695Z" fill="#8AC9FE"/>
<path d="M8.2306 13.9185C8.34762 14.1824 8.41314 14.4742 8.41314 14.7815C8.41314 15.959 7.45856 16.9136 6.28103 16.9136C5.97372 16.9136 5.68188 16.8481 5.41797 16.7311C5.74936 17.4785 6.49732 18.0001 7.36755 18.0001C8.54508 18.0001 9.49966 17.0456 9.49966 15.868C9.49966 14.9978 8.97802 14.2498 8.2306 13.9185Z" fill="#FE646F"/>
<path d="M9.96641 3.93506C10.0456 4.14276 10.0893 4.36796 10.0893 4.60352C10.0893 5.64064 9.24859 6.48142 8.21143 6.48142C7.97591 6.48142 7.75071 6.43767 7.54297 6.3585C7.81243 7.0655 8.49632 7.56794 9.29795 7.56794C10.3351 7.56794 11.1759 6.7272 11.1759 5.69004C11.1759 4.88844 10.6734 4.20452 9.96641 3.93506Z" fill="#8AC9FE"/>
</g>
<defs>
<clipPath id="clip0_3577_5265">
<rect width="18" height="18" fill="white"/>
</clipPath>
</defs>
</svg>
