<svg width="17" height="16" viewBox="0 0 17 16" fill="none" xmlns="http://www.w3.org/2000/svg">
<g clip-path="url(#clip0_1773_5258)">
<circle cx="8.49974" cy="8.00023" r="6.93333" fill="#0D1017"/>
<path fill-rule="evenodd" clip-rule="evenodd" d="M8.5 0C12.9176 0 16.5 3.58243 16.5 8C16.5 12.4176 12.9176 16 8.5 16C4.08243 16 0.5 12.4176 0.5 8C0.5 3.58243 4.08243 0 8.5 0ZM4.45654 10.8957L7.35222 8L4.45654 5.10431C4.29043 4.93814 4.29043 4.66709 4.45654 4.50098L5.00098 3.95654C5.16709 3.79043 5.43814 3.79043 5.60431 3.95654L8.5 6.85222L11.3957 3.95654C11.5619 3.79043 11.8329 3.79043 11.999 3.95654L12.5435 4.50098C12.7096 4.66709 12.7096 4.93814 12.5435 5.10431L9.64778 8L12.5435 10.8957C12.7096 11.0619 12.7096 11.3329 12.5435 11.499L11.999 12.0435C11.8329 12.2096 11.5619 12.2096 11.3957 12.0435L8.5 9.14778L5.60431 12.0435C5.43814 12.2096 5.16709 12.2096 5.00098 12.0435L4.45654 11.499C4.29043 11.3329 4.29043 11.0619 4.45654 10.8957Z" fill="#F14336"/>
</g>
<defs>
<clipPath id="clip0_1773_5258">
<rect width="16" height="16" fill="white" transform="translate(0.5)"/>
</clipPath>
</defs>
</svg>
