<svg width="32" height="32" viewBox="0 0 32 32" fill="none" xmlns="http://www.w3.org/2000/svg">
<path d="M9 9.5H6.5C6.36739 9.5 6.24021 9.55268 6.14645 9.64645C6.05268 9.74021 6 9.86739 6 10C6 10.1326 6.05268 10.2598 6.14645 10.3536C6.24021 10.4473 6.36739 10.5 6.5 10.5H9C9.13261 10.5 9.25979 10.4473 9.35355 10.3536C9.44732 10.2598 9.5 10.1326 9.5 10C9.5 9.86739 9.44732 9.74021 9.35355 9.64645C9.25979 9.55268 9.13261 9.5 9 9.5Z" fill="#191F28"/>
<path d="M1.5 10.5H2C2.13261 10.5 2.25979 10.4473 2.35355 10.3536C2.44732 10.2598 2.5 10.1326 2.5 10C2.5 9.86739 2.44732 9.74021 2.35355 9.64645C2.25979 9.55268 2.13261 9.5 2 9.5H1.5C1.36739 9.5 1.24021 9.55268 1.14645 9.64645C1.05268 9.74021 1 9.86739 1 10C1 10.1326 1.05268 10.2598 1.14645 10.3536C1.24021 10.4473 1.36739 10.5 1.5 10.5Z" fill="#191F28"/>
<path d="M4 9.5C3.86739 9.5 3.74021 9.55268 3.64645 9.64645C3.55268 9.74021 3.5 9.86739 3.5 10C3.5 10.1326 3.55268 10.2598 3.64645 10.3536C3.74021 10.4473 3.86739 10.5 4 10.5H4.5C4.63261 10.5 4.75979 10.4473 4.85355 10.3536C4.94732 10.2598 5 10.1326 5 10C5 9.86739 4.94732 9.74021 4.85355 9.64645C4.75979 9.55268 4.63261 9.5 4.5 9.5H4Z" fill="#191F28"/>
<path d="M5.96897 13.7499C6.05677 13.7501 6.14304 13.727 6.21897 13.6829L9.25047 11.9329C9.30779 11.9004 9.35811 11.8568 9.39851 11.8046C9.43891 11.7525 9.4686 11.6929 9.48588 11.6293C9.50315 11.5657 9.50767 11.4992 9.49917 11.4338C9.49067 11.3685 9.46932 11.3054 9.43635 11.2483C9.40338 11.1912 9.35944 11.1412 9.30706 11.1011C9.25468 11.0611 9.19489 11.0318 9.13115 11.0149C9.0674 10.998 9.00094 10.994 8.93561 11.0029C8.87028 11.0118 8.80736 11.0336 8.75047 11.0669L5.71897 12.8169C5.62366 12.872 5.54917 12.9569 5.50705 13.0586C5.46493 13.1603 5.45755 13.273 5.48603 13.3794C5.51452 13.4857 5.57729 13.5796 5.66461 13.6466C5.75192 13.7136 5.85891 13.7499 5.96897 13.7499Z" fill="#191F28"/>
<path d="M1.82199 15.0669L1.38849 15.3169C1.33117 15.3495 1.28086 15.3931 1.24046 15.4453C1.20006 15.4974 1.17036 15.557 1.15309 15.6206C1.13581 15.6842 1.13129 15.7507 1.13979 15.8161C1.14829 15.8814 1.16964 15.9445 1.20261 16.0016C1.23558 16.0587 1.27952 16.1087 1.3319 16.1488C1.38428 16.1888 1.44407 16.2181 1.50782 16.235C1.57157 16.2519 1.63802 16.2559 1.70335 16.247C1.76869 16.2381 1.83161 16.2163 1.88849 16.183L2.32199 15.9329C2.37932 15.9004 2.42963 15.8568 2.47003 15.8046C2.51043 15.7525 2.54012 15.6929 2.5574 15.6293C2.57467 15.5657 2.57919 15.4992 2.57069 15.4338C2.56219 15.3685 2.54085 15.3054 2.50787 15.2483C2.4749 15.1912 2.43096 15.1412 2.37858 15.1011C2.3262 15.0611 2.26642 15.0318 2.20267 15.0149C2.13892 14.998 2.07246 14.994 2.00713 15.0029C1.9418 15.0118 1.87888 15.0336 1.82199 15.0669Z" fill="#191F28"/>
<path d="M3.80406 14.9999C3.89185 15.0001 3.97812 14.977 4.05406 14.9329L4.48756 14.6829C4.54488 14.6504 4.59519 14.6068 4.63559 14.5546C4.67599 14.5025 4.70568 14.4429 4.72296 14.3793C4.74024 14.3157 4.74476 14.2492 4.73626 14.1838C4.72776 14.1185 4.70641 14.0554 4.67344 13.9983C4.64047 13.9412 4.59653 13.8912 4.54415 13.8511C4.49176 13.8111 4.43198 13.7818 4.36823 13.7649C4.30448 13.748 4.23802 13.744 4.17269 13.7529C4.10736 13.7618 4.04444 13.7836 3.98756 13.8169L3.55406 14.0669C3.45874 14.122 3.38425 14.2069 3.34213 14.3086C3.30002 14.4103 3.29263 14.523 3.32111 14.6294C3.3496 14.7357 3.41237 14.8296 3.49969 14.8966C3.58701 14.9636 3.69399 14.9999 3.80406 14.9999Z" fill="#191F28"/>
<path d="M5.71844 7.18293L8.74994 8.93293C8.80683 8.96628 8.86975 8.98805 8.93508 8.99698C9.00041 9.00591 9.06687 9.00183 9.13062 8.98498C9.19437 8.96812 9.25415 8.93883 9.30653 8.89877C9.35891 8.85872 9.40285 8.8087 9.43582 8.75159C9.46879 8.69449 9.49014 8.63143 9.49864 8.56604C9.50714 8.50065 9.50262 8.43422 9.48535 8.37058C9.46807 8.30695 9.43838 8.24736 9.39798 8.19524C9.35758 8.14313 9.30727 8.09952 9.24994 8.06693L6.21844 6.31693C6.10366 6.25167 5.96773 6.23446 5.84031 6.26906C5.71289 6.30365 5.60432 6.38724 5.5383 6.50158C5.47229 6.61593 5.45418 6.75174 5.48792 6.87939C5.52167 7.00704 5.60454 7.11615 5.71844 7.18293Z" fill="#191F28"/>
<path d="M1.38849 4.68295L1.82199 4.93295C1.87888 4.9663 1.9418 4.98807 2.00713 4.997C2.07246 5.00593 2.13892 5.00185 2.20267 4.985C2.26642 4.96814 2.3262 4.93885 2.37858 4.89879C2.43096 4.85874 2.4749 4.80872 2.50787 4.75161C2.54085 4.69451 2.56219 4.63144 2.57069 4.56605C2.57919 4.50066 2.57467 4.43424 2.5574 4.3706C2.54012 4.30697 2.51043 4.24738 2.47003 4.19526C2.42963 4.14315 2.37932 4.09954 2.32199 4.06695L1.88849 3.81695C1.83161 3.7836 1.76869 3.76183 1.70335 3.7529C1.63802 3.74397 1.57157 3.74805 1.50782 3.7649C1.44407 3.78175 1.38428 3.81105 1.3319 3.85111C1.27952 3.89116 1.23558 3.94118 1.20261 3.99829C1.16964 4.05539 1.14829 4.11845 1.13979 4.18384C1.13129 4.24923 1.13581 4.31566 1.15309 4.3793C1.17036 4.44293 1.20006 4.50252 1.24046 4.55464C1.28086 4.60675 1.33117 4.65036 1.38849 4.68295Z" fill="#191F28"/>
<path d="M3.55353 5.93295L3.98703 6.18295C4.04392 6.2163 4.10684 6.23807 4.17217 6.247C4.2375 6.25593 4.30395 6.25185 4.3677 6.235C4.43145 6.21814 4.49124 6.18885 4.54362 6.14879C4.596 6.10874 4.63994 6.05872 4.67291 6.00161C4.70588 5.94451 4.72723 5.88144 4.73573 5.81605C4.74423 5.75066 4.73971 5.68424 4.72244 5.6206C4.70516 5.55697 4.67547 5.49738 4.63507 5.44526C4.59466 5.39315 4.54435 5.34954 4.48703 5.31695L4.05353 5.06695C3.99665 5.0336 3.93373 5.01183 3.86839 5.0029C3.80306 4.99397 3.73661 4.99805 3.67286 5.0149C3.60911 5.03175 3.54932 5.06105 3.49694 5.10111C3.44456 5.14116 3.40062 5.19118 3.36765 5.24829C3.33468 5.30539 3.31333 5.36845 3.30483 5.43384C3.29633 5.49923 3.30085 5.56566 3.31813 5.6293C3.3354 5.69293 3.3651 5.75252 3.4055 5.80464C3.4459 5.85675 3.49621 5.90036 3.55353 5.93295Z" fill="#191F28"/>
<path d="M11.247 27.117L12.4065 26.9255C12.9919 26.8308 13.5243 26.5304 13.908 26.0782C14.2918 25.6261 14.5017 25.052 14.5 24.459V23.027L14.369 23.071C14.1555 23.142 13.9282 23.1613 13.7058 23.1273C13.4834 23.0933 13.2723 23.007 13.0898 22.8754C12.9073 22.7438 12.7586 22.5708 12.6561 22.3705C12.5536 22.1702 12.5001 21.9485 12.5 21.7235C12.4988 21.406 12.604 21.0972 12.7988 20.8465C12.9937 20.5958 13.267 20.4176 13.575 20.3405L14.5 20.1095V19.775C14.5004 19.537 14.4441 19.3022 14.3359 19.0902C14.2276 18.8782 14.0705 18.6951 13.8774 18.5558C13.6843 18.4166 13.4609 18.3253 13.2255 18.2895C12.9902 18.2537 12.7497 18.2745 12.524 18.35C11.6429 18.6424 10.8765 19.2051 10.3336 19.9581C9.7907 20.7112 9.49901 21.6162 9.5 22.5445V25.64C9.50037 25.8577 9.5481 26.0726 9.6399 26.27C9.73169 26.4674 9.86533 26.6424 10.0316 26.7829C10.1978 26.9235 10.3926 27.0262 10.6025 27.0838C10.8124 27.1415 11.0323 27.1528 11.247 27.117ZM12.5 19H13C13.1326 19 13.2598 19.0527 13.3536 19.1464C13.4473 19.2402 13.5 19.3674 13.5 19.5C13.5 19.6326 13.4473 19.7598 13.3536 19.8535C13.2598 19.9473 13.1326 20 13 20H12.5C12.3674 20 12.2402 19.9473 12.1464 19.8535C12.0527 19.7598 12 19.6326 12 19.5C12 19.3674 12.0527 19.2402 12.1464 19.1464C12.2402 19.0527 12.3674 19 12.5 19ZM12.5 24C12.6978 24 12.8911 24.0586 13.0556 24.1685C13.22 24.2784 13.3482 24.4346 13.4239 24.6173C13.4996 24.8 13.5194 25.0011 13.4808 25.1951C13.4422 25.3891 13.347 25.5672 13.2071 25.7071C13.0673 25.847 12.8891 25.9422 12.6951 25.9808C12.5011 26.0194 12.3 25.9996 12.1173 25.9239C11.9346 25.8482 11.7784 25.72 11.6685 25.5556C11.5587 25.3911 11.5 25.1978 11.5 25C11.5 24.7348 11.6054 24.4804 11.7929 24.2929C11.9804 24.1053 12.2348 24 12.5 24ZM10.5 21C10.5 20.8674 10.5527 20.7402 10.6464 20.6464C10.7402 20.5527 10.8674 20.5 11 20.5C11.1326 20.5 11.2598 20.5527 11.3536 20.6464C11.4473 20.7402 11.5 20.8674 11.5 21V21.5C11.5 21.6326 11.4473 21.7598 11.3536 21.8535C11.2598 21.9473 11.1326 22 11 22C10.8674 22 10.7402 21.9473 10.6464 21.8535C10.5527 21.7598 10.5 21.6326 10.5 21.5V21ZM10.5 23H11C11.1326 23 11.2598 23.0527 11.3536 23.1464C11.4473 23.2402 11.5 23.3674 11.5 23.5C11.5 23.6326 11.4473 23.7598 11.3536 23.8535C11.2598 23.9473 11.1326 24 11 24H10.5C10.3674 24 10.2402 23.9473 10.1464 23.8535C10.0527 23.7598 10 23.6326 10 23.5C10 23.3674 10.0527 23.2402 10.1464 23.1464C10.2402 23.0527 10.3674 23 10.5 23Z" fill="#191F28"/>
<path d="M19.5935 26.9255L20.7515 27.1165C20.9663 27.1526 21.1863 27.1415 21.3964 27.0839C21.6064 27.0264 21.8014 26.9238 21.9678 26.7833C22.1342 26.6428 22.268 26.4677 22.3599 26.2703C22.4518 26.0729 22.4996 25.8578 22.5 25.64V22.5445C22.5012 21.6164 22.2097 20.7114 21.6671 19.9584C21.1245 19.2054 20.3583 18.6426 19.4775 18.35C19.2517 18.2742 19.011 18.2532 18.7755 18.2889C18.54 18.3245 18.3163 18.4158 18.1231 18.555C17.9298 18.6943 17.7725 18.8776 17.6641 19.0897C17.5558 19.3019 17.4995 19.5368 17.5 19.775V20.1095L18.4245 20.3405C18.6109 20.3862 18.7861 20.4692 18.9396 20.5844C19.0931 20.6996 19.2218 20.8447 19.3177 21.0109C19.4137 21.1771 19.4751 21.361 19.4982 21.5515C19.5212 21.7421 19.5055 21.9353 19.4519 22.1196C19.3984 22.3039 19.3081 22.4755 19.1865 22.624C19.0649 22.7725 18.9145 22.8949 18.7444 22.9838C18.5743 23.0726 18.388 23.1262 18.1966 23.1412C18.0053 23.1562 17.8129 23.1323 17.631 23.071L17.5 23.027V24.459C17.4983 25.052 17.7082 25.6262 18.092 26.0783C18.4757 26.5304 19.0081 26.8308 19.5935 26.9255ZM20.5 21C20.5 20.8674 20.5527 20.7402 20.6465 20.6465C20.7402 20.5527 20.8674 20.5 21 20.5C21.1326 20.5 21.2598 20.5527 21.3536 20.6465C21.4473 20.7402 21.5 20.8674 21.5 21V21.5C21.5 21.6326 21.4473 21.7598 21.3536 21.8536C21.2598 21.9473 21.1326 22 21 22C20.8674 22 20.7402 21.9473 20.6465 21.8536C20.5527 21.7598 20.5 21.6326 20.5 21.5V21ZM19 20C18.8674 20 18.7402 19.9473 18.6465 19.8536C18.5527 19.7598 18.5 19.6326 18.5 19.5C18.5 19.3674 18.5527 19.2402 18.6465 19.1465C18.7402 19.0527 18.8674 19 19 19H19.5C19.6326 19 19.7598 19.0527 19.8536 19.1465C19.9473 19.2402 20 19.3674 20 19.5C20 19.6326 19.9473 19.7598 19.8536 19.8536C19.7598 19.9473 19.6326 20 19.5 20H19ZM20.5 22.5C20.6978 22.5 20.8911 22.5587 21.0556 22.6685C21.22 22.7784 21.3482 22.9346 21.4239 23.1173C21.4996 23.3 21.5194 23.5011 21.4808 23.6951C21.4422 23.8891 21.347 24.0673 21.2071 24.2071C21.0673 24.347 20.8891 24.4422 20.6951 24.4808C20.5011 24.5194 20.3001 24.4996 20.1173 24.4239C19.9346 24.3482 19.7784 24.22 19.6685 24.0556C19.5587 23.8911 19.5 23.6978 19.5 23.5C19.5 23.2348 19.6054 22.9804 19.7929 22.7929C19.9804 22.6054 20.2348 22.5 20.5 22.5ZM19.1465 25.1465C19.2403 25.0528 19.3674 25.0001 19.5 25.0001C19.6326 25.0001 19.7597 25.0528 19.8535 25.1465L20.3535 25.6465C20.4013 25.6926 20.4394 25.7478 20.4656 25.8088C20.4918 25.8698 20.5056 25.9354 20.5061 26.0018C20.5067 26.0682 20.4941 26.134 20.4689 26.1955C20.4438 26.2569 20.4067 26.3128 20.3597 26.3597C20.3128 26.4066 20.2569 26.4438 20.1955 26.4689C20.134 26.4941 20.0682 26.5067 20.0018 26.5061C19.9354 26.5056 19.8698 26.4918 19.8088 26.4656C19.7478 26.4394 19.6926 26.4013 19.6465 26.3535L19.1465 25.8535C19.0528 25.7597 19.0001 25.6326 19.0001 25.5C19.0001 25.3674 19.0528 25.2403 19.1465 25.1465Z" fill="#191F28"/>
<path d="M5.55496 29.9999L6.50496 21.9399C6.52194 21.8208 6.58135 21.7117 6.67229 21.6328C6.76322 21.5539 6.87957 21.5105 6.99996 21.5105C7.12034 21.5105 7.23669 21.5539 7.32762 21.6328C7.41856 21.7117 7.47797 21.8208 7.49496 21.9399L8.44496 29.9999H23.555L24.505 21.9399C24.5219 21.8208 24.5814 21.7117 24.6723 21.6328C24.7632 21.5539 24.8796 21.5105 25 21.5105C25.1203 21.5105 25.2367 21.5539 25.3276 21.6328C25.4186 21.7117 25.478 21.8208 25.495 21.9399L26.445 29.9999H29.92L28.475 20.1049C28.3404 19.1155 27.9576 18.1761 27.3622 17.3744C26.7669 16.5728 25.9783 15.9348 25.07 15.5199C25.0561 15.5163 25.0427 15.5113 25.03 15.5049C24.2797 15.1695 23.4668 14.9974 22.645 14.9999H18.5C18.3673 14.9999 18.2402 14.9473 18.1464 14.8535C18.0526 14.7597 18 14.6326 18 14.4999V11.0799C18.0003 10.9825 18.0288 10.8873 18.082 10.8057C18.1353 10.724 18.2109 10.6596 18.3 10.6199C18.9871 10.3208 19.5886 9.85478 20.0499 9.2642C20.5113 8.67362 20.8178 7.97718 20.9417 7.23808C21.0656 6.49899 21.003 5.74065 20.7595 5.0319C20.516 4.32316 20.0994 3.68644 19.5474 3.17955C18.9954 2.67266 18.3256 2.31165 17.5987 2.12929C16.8718 1.94692 16.1109 1.94898 15.385 2.13527C14.6591 2.32157 13.9913 2.6862 13.442 3.19606C12.8928 3.70593 12.4796 4.34489 12.24 5.05495C12.235 5.06995 12.23 5.07995 12.225 5.09495L11.205 7.99995H15C15.663 7.99995 16.2989 8.26334 16.7677 8.73218C17.2366 9.20102 17.5 9.8369 17.5 10.4999V11.4999C17.5 11.6326 17.4473 11.7597 17.3535 11.8535C17.2597 11.9473 17.1326 11.9999 17 11.9999C16.8673 11.9999 16.7402 11.9473 16.6464 11.8535C16.5526 11.7597 16.5 11.6326 16.5 11.4999V10.4999C16.4988 10.1025 16.3404 9.72164 16.0593 9.4406C15.7783 9.15955 15.3974 9.00113 15 8.99995H12.5V10.9999H14.5C14.7649 11.0007 15.0188 11.1063 15.2062 11.2937C15.3936 11.4811 15.4992 11.735 15.5 11.9999V13.4999C15.5 13.6326 15.4473 13.7597 15.3535 13.8535C15.2597 13.9473 15.1326 13.9999 15 13.9999C14.8673 13.9999 14.7402 13.9473 14.6464 13.8535C14.5526 13.7597 14.5 13.6326 14.5 13.4999V11.9999H14V14.4999C14 14.6326 13.9473 14.7597 13.8535 14.8535C13.7597 14.9473 13.6326 14.9999 13.5 14.9999H9.35496C8.53316 14.9974 7.7202 15.1695 6.96996 15.5049C6.95596 15.5137 6.94081 15.5204 6.92496 15.5249C6.01824 15.9387 5.23099 16.5752 4.6365 17.3751C4.04201 18.1751 3.65962 19.1124 3.52496 20.0999L2.07996 29.9999H5.55496ZM13.5 10.4999C13.4011 10.4999 13.3044 10.4706 13.2222 10.4157C13.1399 10.3607 13.0759 10.2826 13.038 10.1913C13.0002 10.0999 12.9903 9.99939 13.0096 9.9024C13.0289 9.80541 13.0765 9.71632 13.1464 9.64639C13.2163 9.57647 13.3054 9.52885 13.4024 9.50955C13.4994 9.49026 13.5999 9.50016 13.6913 9.53801C13.7827 9.57585 13.8608 9.63994 13.9157 9.72216C13.9706 9.80439 14 9.90105 14 9.99995C14 10.1326 13.9473 10.2597 13.8535 10.3535C13.7597 10.4473 13.6326 10.4999 13.5 10.4999ZM16.5 12.9999C16.5 12.8673 16.5526 12.7402 16.6464 12.6464C16.7402 12.5526 16.8673 12.4999 17 12.4999C17.1326 12.4999 17.2597 12.5526 17.3535 12.6464C17.4473 12.7402 17.5 12.8673 17.5 12.9999V13.4999C17.5 13.6326 17.4473 13.7597 17.3535 13.8535C17.2597 13.9473 17.1326 13.9999 17 13.9999C16.8673 13.9999 16.7402 13.9473 16.6464 13.8535C16.5526 13.7597 16.5 13.6326 16.5 13.4999V12.9999ZM15 10.4999C14.9011 10.4999 14.8044 10.4706 14.7222 10.4157C14.6399 10.3607 14.5759 10.2826 14.538 10.1913C14.5002 10.0999 14.4903 9.99939 14.5096 9.9024C14.5289 9.80541 14.5765 9.71632 14.6464 9.64639C14.7163 9.57647 14.8054 9.52885 14.9024 9.50955C14.9994 9.49026 15.0999 9.50016 15.1913 9.53801C15.2827 9.57585 15.3608 9.63994 15.4157 9.72216C15.4706 9.80439 15.5 9.90105 15.5 9.99995C15.5 10.1326 15.4473 10.2597 15.3535 10.3535C15.2597 10.4473 15.1326 10.4999 15 10.4999ZM14.5 14.9999C14.5 14.8673 14.5526 14.7402 14.6464 14.6464C14.7402 14.5526 14.8673 14.4999 15 14.4999C15.1326 14.4999 15.2597 14.5526 15.3535 14.6464C15.4473 14.7402 15.5 14.8673 15.5 14.9999V15.4999C15.5 15.6326 15.4473 15.7597 15.3535 15.8535C15.2597 15.9473 15.1326 15.9999 15 15.9999C14.8673 15.9999 14.7402 15.9473 14.6464 15.8535C14.5526 15.7597 14.5 15.6326 14.5 15.4999V14.9999ZM8.49996 22.5444C8.49894 21.4066 8.85646 20.2974 9.52174 19.3744C10.187 18.4513 11.1262 17.7613 12.206 17.4024C12.5818 17.2745 12.9829 17.239 13.3754 17.2987C13.7679 17.3585 14.1402 17.5119 14.461 17.7459C14.4745 17.7559 14.4865 17.7674 14.5 17.7774V17.0049C14.5 16.8723 14.5526 16.7452 14.6464 16.6514C14.7402 16.5576 14.8673 16.5049 15 16.5049C15.1326 16.5049 15.2597 16.5576 15.3535 16.6514C15.4473 16.7452 15.5 16.8723 15.5 17.0049V20.4999C15.4999 20.6115 15.4626 20.7198 15.3939 20.8077C15.3253 20.8956 15.2292 20.958 15.121 20.9849L13.818 21.3109C13.7626 21.3244 13.7105 21.349 13.6648 21.3831C13.6191 21.4172 13.5809 21.4603 13.5523 21.5096C13.5237 21.5589 13.5054 21.6135 13.4984 21.6701C13.4915 21.7267 13.4961 21.7841 13.5119 21.8388C13.5278 21.8936 13.5545 21.9446 13.5906 21.9888C13.6266 22.0329 13.6713 22.0693 13.7218 22.0958C13.7723 22.1222 13.8276 22.1382 13.8844 22.1427C13.9413 22.1472 13.9984 22.1401 14.0525 22.1219L15.842 21.5254C15.9445 21.4913 16.0554 21.4913 16.158 21.5254L17.95 22.1219C18.013 22.1424 18.0801 22.1476 18.1456 22.1372C18.2111 22.1267 18.2732 22.101 18.3268 22.062C18.3804 22.023 18.4241 21.9718 18.4542 21.9127C18.4843 21.8536 18.4999 21.7883 18.5 21.7219C18.501 21.6274 18.4701 21.5353 18.4123 21.4604C18.3545 21.3856 18.2732 21.3324 18.1815 21.3094L16.8815 20.9834C16.773 20.957 16.6766 20.895 16.6074 20.8074C16.5383 20.7198 16.5005 20.6116 16.5 20.4999V14.9999C16.5 14.8673 16.5526 14.7402 16.6464 14.6464C16.7402 14.5526 16.8673 14.4999 17 14.4999C17.1326 14.4999 17.2597 14.5526 17.3535 14.6464C17.4473 14.7402 17.5 14.8673 17.5 14.9999V17.7774C17.5135 17.7674 17.5255 17.7559 17.539 17.7459C17.8594 17.512 18.2315 17.3587 18.6237 17.2988C19.0159 17.2389 19.4168 17.2743 19.7925 17.4019C20.8725 17.7607 21.8121 18.4506 22.4776 19.3738C23.1432 20.297 23.5009 21.4064 23.5 22.5444V25.6399C23.5 26.3025 23.237 26.9379 22.7688 27.4067C22.3006 27.8754 21.6655 28.1392 21.003 28.1399C20.8636 28.1399 20.7244 28.1283 20.587 28.1054L19.43 27.9144C18.6102 27.7815 17.8648 27.3605 17.3277 26.7271C16.7906 26.0936 16.4971 25.2894 16.5 24.4589V22.6939L16 22.5269L15.5 22.6939V24.4589C15.5023 25.2891 15.2086 26.0928 14.6716 26.7258C14.1345 27.3588 13.3894 27.7796 12.57 27.9124L11.4115 28.1034C11.2743 28.1264 11.1355 28.1379 10.9965 28.1379C10.334 28.137 9.69904 27.8732 9.23095 27.4045C8.76287 26.9357 8.49996 26.3004 8.49996 25.6379V22.5444Z" fill="#191F28"/>
</svg>
