<svg width="86" height="86" viewBox="0 0 86 86" fill="none" xmlns="http://www.w3.org/2000/svg">
<path d="M43 83.3125C65.264 83.3125 83.3125 65.264 83.3125 43C83.3125 20.736 65.264 2.6875 43 2.6875C20.736 2.6875 2.6875 20.736 2.6875 43C2.6875 65.264 20.736 83.3125 43 83.3125Z" fill="#FF5A54"/>
<path fill-rule="evenodd" clip-rule="evenodd" d="M83.3051 42.4227C83.3078 42.6152 83.3125 42.8072 83.3125 43.0003C83.3125 65.2643 65.2639 83.3128 43 83.3128C42.7885 83.3128 42.5782 83.3081 42.3674 83.3048L27.4748 68.412C26.9601 67.9706 26.6202 67.3293 26.5758 66.6018L24.4935 32.4507H24.7545L21.8206 29.5168C21.6684 29.3646 21.5742 29.1547 21.5742 28.9234V24.5965C21.5742 23.1693 22.7382 22.0054 24.1653 22.0054H35.0831V19.8868C35.0831 18.2774 36.3958 16.9648 38.0051 16.9648H47.9949C48.8498 16.9648 49.6211 17.3352 50.1563 17.9239L54.2378 22.0054H61.8346C62.6374 22.0054 63.357 22.3738 63.8328 22.9501L83.3051 42.4227Z" fill="#F14336"/>
<path fill-rule="evenodd" clip-rule="evenodd" d="M34.5888 39.3781C35.3309 39.3781 35.9325 39.9798 35.9325 40.7218V57.7849C35.9325 58.527 35.3309 59.1287 34.5888 59.1287C33.8467 59.1287 33.245 58.527 33.245 57.7849V40.7218C33.245 39.9798 33.8467 39.3781 34.5888 39.3781ZM41.6564 40.7218C41.6564 39.9798 42.2581 39.3781 43.0001 39.3781C43.7422 39.3781 44.3439 39.9798 44.3439 40.7218V57.7849C44.3439 58.527 43.7422 59.1287 43.0001 59.1287C42.2581 59.1287 41.6564 58.527 41.6564 57.7849V40.7218ZM50.0678 40.7218C50.0678 39.9798 50.6694 39.3781 51.4115 39.3781C52.1536 39.3781 52.7553 39.9798 52.7553 40.7218V57.7849C52.7553 58.527 52.1536 59.1287 51.4115 59.1287C50.6694 59.1287 50.0678 58.527 50.0678 57.7849V40.7218ZM24.4937 32.4506L26.576 66.6016C26.6595 67.9709 27.7904 69.035 29.1622 69.035H56.8379C58.2097 69.035 59.3408 67.9709 59.4241 66.6016L61.5064 32.4506H24.4937ZM24.1655 22.0054H35.0833V19.8868C35.0833 18.2774 36.396 16.9648 38.0053 16.9648H47.995C49.6043 16.9648 50.917 18.2774 50.917 19.8868V22.0054H61.8347C63.2619 22.0054 64.4257 23.1694 64.4257 24.5965V28.9234C64.4257 29.386 64.0485 29.7632 63.5859 29.7632H22.4141C21.9515 29.7632 21.5742 29.386 21.5742 28.9234V24.5965C21.5742 23.1693 22.7384 22.0054 24.1655 22.0054Z" fill="white"/>
</svg>
