<svg width="57" height="57" viewBox="0 0 57 57" fill="none" xmlns="http://www.w3.org/2000/svg">
<path d="M23.9637 7.96417L22.4277 7.5807L22.8014 6.0855C23.0872 4.94284 24.109 4.14499 25.2864 4.14499H28.5428C29.0822 4.14499 29.521 3.70638 29.521 3.16675H31.1044C31.1044 4.57897 29.9553 5.72833 28.5428 5.72833H25.2864C24.8368 5.72833 24.4466 6.03293 24.3373 6.46948L23.9637 7.96417Z" fill="#75A0F3"/>
<path d="M40.6217 26.3344L37.0805 27.378L36.6651 27.4967L35.5077 27.8379C34.1031 28.2534 32.5946 27.6599 31.8429 26.3987L28.3652 21.0431L30.9058 17.6301L34.1031 21.0127C36.0765 19.8455 38.4307 18.3717 39.1132 18.248L40.6217 26.3344Z" fill="#F1F7FF"/>
<path d="M37.8958 8.2144C37.886 8.24704 37.3833 14.1892 37.9531 15.5399C38.5343 16.9174 41.0275 17.2289 42.1375 16.5297C43.2475 15.8305 42.7987 10.8252 42.7987 10.8252L41.8632 10.0004L37.8958 8.2144Z" fill="#333077"/>
<path d="M37.1384 39.3143H52.5846V49.6408H37.1384V39.3143Z" fill="#48609D"/>
<path d="M52.5853 20.9682V41.5973C52.5853 41.7061 52.4567 41.8099 52.2292 41.899C49.9145 42.8189 37.0801 42.72 37.0801 41.5973V21.8782C37.0801 20.0334 37.0702 18.2776 40.463 18.0254C40.6015 18.0106 40.9477 18.0007 41.3434 18.0007C41.65 17.9958 41.9913 17.9958 42.293 18.0057C42.293 18.0057 42.2881 18.0106 42.2831 18.0254L47.0311 18.0106L47.0361 18.0057L49.6129 18.0007C51.2549 18.0007 52.5853 19.3262 52.5853 20.9682Z" fill="#F1F7FF"/>
<path d="M41.3973 28.0163C41.3973 28.2867 41.1761 28.508 40.9057 28.508C40.6353 28.508 40.4141 28.2867 40.4141 28.0163C40.4141 27.746 40.6353 27.5308 40.9057 27.5308C41.1761 27.5308 41.3973 27.746 41.3973 28.0163Z" fill="#C7DAFA"/>
<path d="M41.3973 30.3764C41.3973 30.6468 41.1761 30.8681 40.9057 30.8681C40.6353 30.8681 40.4141 30.6468 40.4141 30.3764C40.4141 30.1061 40.6353 29.8909 40.9057 29.8909C41.1761 29.8909 41.3973 30.1061 41.3973 30.3764Z" fill="#C7DAFA"/>
<path d="M41.3973 32.7366C41.3973 33.0069 41.1761 33.2282 40.9057 33.2282C40.6353 33.2282 40.4141 33.0069 40.4141 32.7366C40.4141 32.4662 40.6353 32.251 40.9057 32.251C41.1761 32.251 41.3973 32.4662 41.3973 32.7366Z" fill="#C7DAFA"/>
<path d="M41.3973 35.0967C41.3973 35.367 41.1761 35.5884 40.9057 35.5884C40.6353 35.5884 40.4141 35.367 40.4141 35.0967C40.4141 34.8263 40.6353 34.6112 40.9057 34.6112C41.1761 34.6112 41.3973 34.8263 41.3973 35.0967Z" fill="#C7DAFA"/>
<path d="M41.3973 37.4568C41.3973 37.7272 41.1761 37.9485 40.9057 37.9485C40.6353 37.9485 40.4141 37.7272 40.4141 37.4568C40.4141 37.1864 40.6353 36.9713 40.9057 36.9713C41.1761 36.9713 41.3973 37.1864 41.3973 37.4568Z" fill="#C7DAFA"/>
<path d="M41.3973 39.8169C41.3973 40.0873 41.1761 40.3086 40.9057 40.3086C40.6353 40.3086 40.4141 40.0873 40.4141 39.8169C40.4141 39.5465 40.6353 39.3314 40.9057 39.3314C41.1761 39.3314 41.3973 39.5465 41.3973 39.8169Z" fill="#C7DAFA"/>
<path d="M52.5853 22.5558V41.5973C52.5853 41.7061 52.4567 41.8099 52.2292 41.899C50.3795 39.8712 47.6741 37.7791 45.2605 36.6465C42.6441 35.42 39.8547 34.5742 37.0801 33.7483V33.2982L37.2829 33.1201C38.1335 32.6107 39.192 32.6057 40.1762 32.7343C41.1604 32.8629 42.1397 33.1003 43.1288 33.0261C44.6769 32.9025 46.0815 32.0024 47.1201 30.85C48.1637 29.6976 48.8907 28.3029 49.6079 26.923C50.3201 25.5431 51.0373 24.1434 52.0561 22.9762C52.2045 22.8081 52.3726 22.6349 52.5853 22.5558Z" fill="#C7DAFA"/>
<path d="M46.678 18.0147L46.7401 12.535H42.2266V18.0147H46.678Z" fill="#F9C4C0"/>
<path d="M42.2246 11.6045V16.8903C42.2246 16.8903 44.1747 17.0361 46.6928 16.6492L46.7382 11.6045H42.2246Z" fill="#FD9997"/>
<path d="M38.4744 10.4611L38.7901 13.1589C39.0434 15.3233 41.0004 16.875 43.1701 16.6211C45.3345 16.3678 46.8856 14.4056 46.6323 12.2411L46.3166 9.54333C46.0633 7.37892 44.101 5.82779 41.9366 6.0811C40.8544 6.20775 39.9229 6.76199 39.295 7.55623C38.6724 8.34986 38.3477 9.37892 38.4744 10.4611Z" fill="#F9C4C0"/>
<path d="M42.7863 11.8255C42.9882 11.8019 43.1251 11.5536 43.0921 11.2709C43.0591 10.9882 42.8686 10.7781 42.6667 10.8017C42.4647 10.8253 42.3278 11.0736 42.3608 11.3563C42.3938 11.6391 42.5843 11.8491 42.7863 11.8255Z" fill="#242C3F"/>
<path d="M40.1845 12.1286C40.3864 12.105 40.5233 11.8567 40.4903 11.5739C40.4573 11.2912 40.2668 11.0812 40.0649 11.1048C39.8629 11.1284 39.726 11.3767 39.759 11.6594C39.792 11.9421 39.9825 12.1521 40.1845 12.1286Z" fill="#242C3F"/>
<path d="M43.0513 13.4839C43.0543 13.5027 43.0611 13.5198 43.0634 13.5388C43.1471 14.2539 42.6352 14.9015 41.92 14.9852C41.2049 15.0689 40.5573 14.557 40.4736 13.8419C40.4713 13.8229 40.4741 13.8046 40.4727 13.7857L43.0513 13.4839Z" fill="white"/>
<path d="M42.2436 18.0159L41.8867 24.0705L46.694 18.0159H42.2436Z" fill="#F9C4C0"/>
<path d="M52.8239 20.8227L51.5775 31.1397C51.5429 33.3455 49.713 35.0964 47.5071 35.042L34.0742 33.1032V29.3542L46.0234 29.6906L47.6654 20.6199C47.7544 19.2351 48.9117 18.2014 50.2372 18.2014C50.4153 18.2014 50.5933 18.2162 50.7714 18.2558C51.9831 18.508 52.8437 19.5862 52.8239 20.8227Z" fill="#F1F7FF"/>
<path d="M47.6646 20.6199C47.4368 22.14 47.1955 23.6576 46.9387 25.1724C46.6837 26.6874 46.411 28.1994 46.1456 29.7126L46.1271 29.8181L46.0203 29.8138L41.5491 29.6333C40.0589 29.5666 38.5693 29.483 37.0801 29.3878C38.5723 29.3936 40.0642 29.411 41.5554 29.4452L46.0286 29.5677L45.9033 29.6688C46.1846 28.1585 46.4587 26.6468 46.7504 25.1383C47.0403 23.6295 47.3456 22.1235 47.6646 20.6199Z" fill="#C7DAFA"/>
<path d="M37.0814 23.3472V27.3781L36.666 27.4968V23.3472H37.0814Z" fill="#C7DAFA"/>
<path d="M46.6944 18.0157L47.6656 17.9974L48.0179 19.3249L46.2754 20.676L47.0135 20.9398L41.0117 26.9178L41.9015 24.0523L46.6944 18.0157Z" fill="#C7DAFA"/>
<path d="M41.2054 18.0159L39.9592 19.2876L41.0462 20.0617L39.3711 20.2577L41.0121 26.918L41.8875 24.0705L42.2491 18.031L41.2054 18.0159Z" fill="#C7DAFA"/>
<path d="M41.9544 44.4785V49.6073H40.8416V45.532C40.8416 44.9483 41.3114 44.4785 41.895 44.4785H41.9544Z" fill="#333077"/>
<path d="M51.4405 13.4225C51.8361 16.4278 46.6935 16.6493 46.6935 16.6493L46.333 10.2806C42.1914 9.79881 42.4736 9.61312 42.4736 9.61312C40.4813 11.6365 36.4992 9.88997 36.3028 8.49766C36.1325 7.29068 37.5537 5.73359 40.36 4.05771C42.4183 2.82156 44.1722 3.95256 44.1722 3.95256C48.3113 2.294 49.0398 7.61423 49.1036 7.99082C49.3147 9.23678 51.1106 10.916 51.4405 13.4225Z" fill="#333077"/>
<path d="M46.1406 10.2985C46.862 10.2178 47.514 10.7344 47.5985 11.4562C47.683 12.178 47.1679 12.8313 46.4473 12.9191L46.1406 10.2985Z" fill="#F9C4C0"/>
<path d="M53.6998 39.9429L35.162 37.0921V47.3439H53.6998V39.9429Z" fill="#79AFFE"/>
<path d="M16.1198 41.581L5.53711 29.0315C6.57085 27.8056 7.92759 27.1928 9.2779 27.1928C10.6346 27.1928 11.9914 27.8056 13.0251 29.0315L16.1198 32.7014C18.1872 35.1531 18.1872 39.1294 16.1198 41.581Z" fill="#79AFFE"/>
<path d="M21.8789 47.3465H53.6992V53.8334H21.8789V47.3465Z" fill="#387094"/>
<path d="M21.8791 53.8333L4.72135 36.6755C2.82465 34.7788 2.82465 31.7036 4.72135 29.8069L5.8739 28.6544L26.466 49.2464L21.8791 53.8333Z" fill="#387094"/>
<path d="M17.942 29.1561L14.9724 32.04L11.6504 28.6321L11.8251 28.5361L14.6609 27.0081L17.2591 28.0838L17.7083 28.7866L17.942 29.1561Z" fill="#F9C4C0"/>
<path d="M17.7075 28.7866C17.4615 29.0223 17.1802 29.2371 16.8671 29.4109C15.1588 30.3715 13.0573 29.966 11.8242 28.5361L14.66 27.0081L17.2582 28.0838L17.7075 28.7866Z" fill="#FD9997"/>
<path d="M35.1609 37.0921C36.1316 37.0921 36.1316 47.3438 35.1609 47.3438L24.4914 47.3373L21.2584 44.3422L12.9157 36.6294C12.2472 35.7745 12.3308 34.5533 13.1085 33.7948L16.8621 30.1183C19.5616 27.4766 23.4823 27.9781 26.2268 30.8704L31.7801 35.8708C32.6606 36.6551 33.7919 37.0921 34.9745 37.0921H35.1609Z" fill="#FCBA97"/>
<path d="M16.9081 18.4711C17.7143 19.9094 17.4591 21.5847 16.3383 22.2129C15.2174 22.8411 13.6351 22.5628 12.829 21.1244C12.0228 19.686 12.2981 17.6323 13.4189 17.0041C14.5398 16.3759 16.102 17.0327 16.9081 18.4711Z" fill="#333077"/>
<path d="M6.20103 26.2338C7.15136 27.9294 9.72221 29.5122 11.3508 28.8001C11.4083 28.775 11.4628 28.7444 11.5174 28.7139C12.8423 27.9713 13.0119 25.7555 12.4876 24.0145C12.471 23.9593 12.4574 23.9096 12.4354 23.8575C12.3334 23.5349 12.1987 23.2306 12.0459 22.958C11.8137 22.5436 11.5197 22.1854 11.1817 21.9019C10.4259 21.2436 9.454 20.9285 8.51892 21.037C8.1123 21.0786 7.70968 21.2039 7.33893 21.4117C7.31164 21.427 7.28984 21.4392 7.26565 21.46C6.6284 21.8315 6.17705 22.4068 5.92883 23.0762C5.90833 23.1163 5.89395 23.1673 5.87957 23.2184C5.8129 23.4062 5.76387 23.6128 5.72884 23.8188C5.62308 24.6017 5.76406 25.4541 6.20103 26.2338Z" fill="#333077"/>
<path d="M16.588 21.151L17.8622 23.4246C18.9536 25.3719 19.0455 27.6623 17.1277 28.8048C15.1581 29.9783 11.9857 29.5511 10.8692 27.5589L9.59844 25.2915C8.4773 23.2911 9.1261 20.611 11.1551 19.5425C12.1094 19.0399 13.1805 18.9543 14.146 19.2302C15.1457 19.5078 16.0401 20.1734 16.588 21.151Z" fill="#F9C4C0"/>
<path d="M6.07836 25.2853C6.75367 26.4903 8.95086 27.5086 10.1558 26.8333C10.8155 26.4636 11.2381 25.3383 11.3747 24.2013C11.5005 23.2496 11.4186 22.2852 11.113 21.74C10.4377 20.535 8.29354 20.8769 7.09402 21.5492C6.3198 21.9831 5.84307 22.9095 5.78034 23.8331C5.74583 24.3468 5.84 24.86 6.07836 25.2853Z" fill="#333077"/>
<path d="M16.0969 17.5895C17.9032 20.067 8.12077 25.9069 6.44819 23.4856C4.31599 20.3991 7.9969 18.3361 10.4305 16.9722C12.864 15.6083 15.0384 16.1377 16.0969 17.5895Z" fill="#333077"/>
<path d="M14.2302 24.7881C14.3968 24.6611 14.3803 24.3595 14.1935 24.1143C14.0066 23.8692 13.7201 23.7734 13.5535 23.9003C13.387 24.0273 13.4034 24.329 13.5903 24.5741C13.7772 24.8193 14.0637 24.9151 14.2302 24.7881Z" fill="#242C3F"/>
<path d="M16.3746 23.1551C16.5412 23.0282 16.5247 22.7265 16.3379 22.4814C16.151 22.2362 15.8645 22.1404 15.6979 22.2674C15.5314 22.3943 15.5478 22.696 15.7347 22.9411C15.9216 23.1863 16.2081 23.2821 16.3746 23.1551Z" fill="#242C3F"/>
<path d="M20.361 31.0139L14.9707 32.0403C15.7957 30.7115 17.2794 29.7177 17.9402 29.1595L20.361 31.0139Z" fill="#F9C4C0"/>
<path d="M10.4444 26.5941L11.3706 27.9567C10.999 28.2093 10.4838 28.1112 10.2312 27.7395C9.97457 27.362 10.0728 26.8468 10.4444 26.5941Z" fill="#F9C4C0"/>
<path d="M17.2099 27.2411C16.9502 27.3711 16.6593 27.3776 16.3859 27.2725C16.0737 27.1577 15.7911 26.9031 15.6111 26.5477C15.5218 26.3675 15.4702 26.1809 15.4538 25.9979C15.407 25.502 15.6121 25.032 16.0156 24.8222C16.318 24.666 16.6684 24.6902 16.9829 24.8581C17.2391 24.9905 17.4622 25.2146 17.6095 25.5145C17.723 25.7427 17.7768 25.9825 17.7772 26.2089C17.7755 26.6507 17.572 27.0525 17.2099 27.2411Z" fill="#FD9997"/>
<path d="M16.9829 24.8581C16.9752 24.951 16.9274 25.039 16.8457 25.0976L15.6755 25.9374C15.6121 25.9847 15.5292 26.0062 15.4538 25.9979C15.407 25.502 15.6121 25.032 16.0156 24.8222C16.318 24.666 16.6684 24.6902 16.9829 24.8581Z" fill="white"/>
<path d="M41.5364 45.8968C41.464 46.6803 40.763 47.2887 39.9142 47.3046L37.0273 47.3587L37.4626 43.7653L39.0937 43.0667C39.3241 42.968 39.5966 43.0556 39.7101 43.265C39.8285 43.4835 39.7286 43.7504 39.4891 43.8554L38.9556 44.0893L40.1489 44.26C41.0049 44.3825 41.6103 45.0967 41.5364 45.8968Z" fill="#F9C4C0"/>
<path d="M13.1188 36.9744L24.4932 47.3373H37.4242L37.4445 43.7294L26.5808 42.872L15.9541 33.5986C14.9949 32.8567 13.6167 33.0282 12.8685 33.9825C12.1557 34.8915 12.2649 36.1964 13.1188 36.9744Z" fill="#FCBA97"/>
<path d="M35.8753 43.8038L26.5001 43.0647L15.8242 33.7479L16.0848 33.4495L26.6617 42.6797L35.9062 43.4095L35.8753 43.8038Z" fill="#F99072"/>
<path d="M34.073 29.3548V33.102L32.2035 33.3856C31.526 33.4884 30.8547 33.1661 30.5111 32.5732C29.934 31.5772 30.516 30.31 31.6475 30.0987L32.8845 29.8183L32.282 29.4218C32.0472 29.2673 31.967 28.9604 32.0962 28.7108C32.25 28.4136 32.6317 28.3219 32.9037 28.5169L34.073 29.3548Z" fill="#F9C4C0"/>
<path d="M30.9056 15.1164C30.9056 15.2455 30.8717 15.3747 30.7969 15.4972L25.8879 23.2277C25.6839 23.554 25.242 23.6561 24.9156 23.4453C24.5893 23.2345 24.4873 22.7992 24.6981 22.4662L29.607 14.7356C29.8178 14.4093 30.253 14.314 30.5793 14.518C30.7901 14.6539 30.9056 14.8784 30.9056 15.1164Z" fill="#333077"/>
<path d="M30.9062 17.6274L28.3623 21.0422L27.5938 20.5421L29.3492 17.7765L28.2953 16.1982C28.1461 15.9747 28.1493 15.6825 28.3033 15.4623C28.5619 15.0926 29.1088 15.091 29.3697 15.4591L30.9062 17.6274Z" fill="#F9C4C0"/>
<path d="M28.5602 17.8392L27.0976 20.0357C26.8198 20.453 26.2489 20.5675 25.8316 20.2896C25.5461 20.0995 25.4727 19.7145 25.6599 19.4333L27.4501 16.7449C27.6402 16.4594 28.0207 16.3831 28.3063 16.5732C28.7236 16.8511 28.841 17.4175 28.5602 17.8392Z" fill="#F9C4C0"/>
<path d="M26.4025 16.1157L14.5741 10.0703C16.253 6.8117 20.2444 5.51507 23.5111 7.17847C26.7775 8.84224 28.0813 12.8572 26.4025 16.1157Z" fill="#95BCFF"/>
<path d="M26.3329 16.2501C26.8945 15.2097 24.7334 12.9541 21.5061 11.2121C18.2787 9.47003 15.2072 8.90124 14.6456 9.94162C14.084 10.982 16.2451 13.2376 19.4724 14.9796C22.6998 16.7217 25.7713 17.2905 26.3329 16.2501Z" fill="#75A0F3"/>
<path d="M20.1605 13.3064C16.7289 11.4547 15.4388 9.54251 15.6153 9.21555C15.7917 8.88858 18.0982 8.91703 21.5298 10.7687C24.9621 12.6207 26.2522 14.5329 26.0758 14.8599C25.8994 15.1869 23.5928 15.1584 20.1605 13.3064Z" fill="#FDF3E3"/>
</svg>
