<svg width="53" height="53" viewBox="0 0 53 53" fill="none" xmlns="http://www.w3.org/2000/svg">
<g clip-path="url(#clip0_68_7372)">
<path d="M29.0645 0L25.6452 0.951723C18.0959 0.951723 14.0608 6.18112 14.0645 13.7305L25.8005 35.0484L31.6291 34.9722C37.124 32.899 41.0322 27.5915 41.0322 21.371V11.9678C41.0322 5.35818 35.6741 0 29.0645 0Z" fill="#615260"/>
<path d="M11.9669 13.6163C11.9611 24.0916 13.4601 31.0675 14.1687 33.779C14.3653 34.5311 15.0439 35.0484 15.8213 35.0484H21.3702L27.3099 35.0043L20.5154 28.2098V6.83876C20.5154 4.00606 22.8118 1.70977 25.6444 1.70977H27.354C28.2983 1.70977 29.0637 0.944273 29.0637 0.000106813H25.6444C18.1163 3.29721e-06 11.9712 6.08827 11.9669 13.6163Z" fill="#4E3D4D"/>
<path d="M33.1882 37.3085L32.7697 37.1608C32.0862 36.9196 31.629 36.2735 31.629 35.5486V33.1196L23.1251 33.2037L21.911 36.4862L15.0762 44.018L33.085 47.93L33.1882 37.3085Z" fill="#D48C64"/>
<path d="M26.4985 43.5968C24.2351 43.5968 22.0812 43.1324 20.125 42.2947L23.934 53.0001H29.063L32.888 42.2878C30.9275 43.1299 28.7679 43.5968 26.4985 43.5968Z" fill="#615260"/>
<path d="M21.3697 29.0645V35.5484C21.3697 36.2733 20.9126 36.9193 20.2291 37.1606L19.8105 37.3083L19.8454 39.1093L20.798 38.7731C22.1652 38.2905 23.0795 36.9982 23.0795 35.5484V35.5473C23.0795 34.6358 23.8859 33.9431 24.7883 34.0713C25.3471 34.1507 25.9176 34.1936 26.4988 34.1936C28.3237 34.1936 30.0563 33.8066 31.6278 33.1195V29.0646H21.3697V29.0645Z" fill="#C6805D"/>
<path d="M38.8943 17.9516C35.8492 17.9516 33.9947 12.1881 33.3537 9.78522C33.2652 9.45356 32.8867 9.30905 32.5953 9.49051C31.8175 9.97466 30.9033 10.258 29.9186 10.258L26.8123 11.0802C20.8284 11.0802 16.9756 14.8565 16.6941 20.8337C16.3936 27.2154 20.1827 32.3913 26.4984 32.3913C27.0909 32.3913 28.2397 32.348 28.2397 32.348C33.2717 31.5552 37.1746 27.3812 37.5681 22.2257H38.7723C39.8902 22.2257 40.9089 21.4213 41.0203 20.3089C41.1483 19.0298 40.1473 17.9516 38.8943 17.9516Z" fill="#E29A6C"/>
<path d="M18.805 21.371V20.5161C18.805 15.795 22.6322 11.9677 27.3534 11.9677H28.2082C29.1525 11.9677 29.9179 11.2022 29.9179 10.2581H26.8116C20.8278 10.2581 15.6789 14.8565 15.3974 20.8337C15.0969 27.2155 20.182 32.4839 26.4976 32.4839C27.0825 32.4839 27.6787 32.4352 28.239 32.3481C22.913 31.5259 18.805 26.9272 18.805 21.371Z" fill="#D48C64"/>
<path d="M29.0645 53H43.5967C45.013 53 46.1612 51.8518 46.1612 50.4355V45.5159C46.1612 43.3412 44.7899 41.403 42.7393 40.6793L33.1882 37.3083L29.0645 53Z" fill="#ECEAEC"/>
<path d="M20.2462 38.9678L11.1962 41.0165C9.14558 41.7401 7.72266 43.3413 7.72266 45.516V50.4354L8.54685 52.8542C8.81423 52.9487 9.102 52.9999 9.40168 52.9999H23.9339L20.2462 38.9678Z" fill="#ECEAEC"/>
<path d="M21.3705 20.5904C20.8979 20.5904 20.5156 20.2076 20.5156 19.7355V18.8807C20.5156 18.4087 20.898 18.0259 21.3705 18.0259C21.8429 18.0259 22.2253 18.4087 22.2253 18.8807V19.7355C22.2253 20.2077 21.8429 20.5904 21.3705 20.5904Z" fill="#4E3D4D"/>
<path d="M31.6281 20.5904C31.1556 20.5904 30.7733 20.2076 30.7733 19.7356V18.8807C30.7733 18.4087 31.1557 18.0259 31.6281 18.0259C32.1007 18.0259 32.483 18.4087 32.483 18.8807V19.7356C32.483 20.2077 32.1007 20.5904 31.6281 20.5904Z" fill="#4E3D4D"/>
<path d="M26.4995 26.5743C25.2172 26.5743 24.0334 26.1627 23.3347 25.4732C22.9983 25.1417 22.995 24.6004 23.3263 24.2644C23.6578 23.928 24.2004 23.9247 24.5351 24.256C24.8197 24.537 25.5051 24.8646 26.4994 24.8646C27.4937 24.8646 28.179 24.537 28.4637 24.256C28.7985 23.9246 29.3411 23.928 29.6725 24.2644C30.0039 24.6004 30.0005 25.1418 29.6641 25.4732C28.9655 26.1627 27.7817 26.5743 26.4995 26.5743Z" fill="#C6805D"/>
<path d="M38.8937 42.8147V39.0228C38.8937 38.5508 38.5113 38.168 38.0388 38.168C37.5663 38.168 37.184 38.5508 37.184 39.0228V42.8147C34.5257 43.228 32.4824 45.5261 32.4824 48.2983V52.1451H34.1921V48.2983C34.1921 46.1771 35.9176 44.4516 38.0388 44.4516C40.1601 44.4516 41.8856 46.1771 41.8856 48.2983V52.1451H43.5952V48.2983C43.5952 45.5261 41.5519 43.228 38.8937 42.8147Z" fill="#C9C5C9"/>
<path d="M22.2247 17.0966H20.515C20.0424 17.0966 19.6602 16.7138 19.6602 16.2418C19.6602 15.7698 20.0425 15.387 20.515 15.387H22.2247C22.6972 15.387 23.0795 15.7698 23.0795 16.2418C23.0795 16.7138 22.6971 17.0966 22.2247 17.0966Z" fill="#615260"/>
<path d="M32.4825 17.0966H30.7728C30.3003 17.0966 29.918 16.7138 29.918 16.2418C29.918 15.7698 30.3004 15.387 30.7728 15.387H32.4825C32.955 15.387 33.3373 15.7698 33.3373 16.2418C33.3373 16.7138 32.955 17.0966 32.4825 17.0966Z" fill="#615260"/>
<path d="M19.8109 37.3084L10.2598 40.6794C8.20916 41.403 6.83789 43.3414 6.83789 45.5159V50.4355C6.83789 51.5505 7.5538 52.501 8.54755 52.8543V45.5168C8.54755 44.0669 9.46191 42.7746 10.829 42.292L20.247 38.9678L19.8109 37.3084Z" fill="#DBD8DB"/>
<path d="M33.3373 52.9999C33.8094 52.9999 34.1921 52.6172 34.1921 52.1451C34.1921 51.673 33.8094 51.2903 33.3373 51.2903C32.8651 51.2903 32.4824 51.673 32.4824 52.1451C32.4824 52.6172 32.8651 52.9999 33.3373 52.9999Z" fill="#615260"/>
<path d="M42.7416 52.9999C43.2137 52.9999 43.5964 52.6172 43.5964 52.1451C43.5964 51.673 43.2137 51.2903 42.7416 51.2903C42.2694 51.2903 41.8867 51.673 41.8867 52.1451C41.8867 52.6172 42.2694 52.9999 42.7416 52.9999Z" fill="#615260"/>
<path d="M17.0951 48.0281V38.7467C17.0951 38.2746 16.7127 37.8918 16.2403 37.8918C15.7678 37.8918 15.3854 38.2746 15.3854 38.7467V48.0281C14.3917 48.3814 13.6758 49.3206 13.6758 50.4356C13.6758 51.8519 14.824 53.0001 16.2403 53.0001C17.6566 53.0001 18.8048 51.8519 18.8048 50.4356C18.8048 49.3206 18.089 48.3814 17.0951 48.0281Z" fill="#C9C5C9"/>
<path d="M16.2416 51.2902C16.7137 51.2902 17.0964 50.9075 17.0964 50.4354C17.0964 49.9633 16.7137 49.5806 16.2416 49.5806C15.7694 49.5806 15.3867 49.9633 15.3867 50.4354C15.3867 50.9075 15.7694 51.2902 16.2416 51.2902Z" fill="#615260"/>
</g>
<defs>
<clipPath id="clip0_68_7372">
<rect width="53" height="53" fill="white"/>
</clipPath>
</defs>
</svg>
