<svg width="16" height="16" viewBox="0 0 16 16" fill="none" xmlns="http://www.w3.org/2000/svg">
<path d="M13.8177 2.1821C13.4431 1.80706 12.9983 1.50952 12.5087 1.30652C12.019 1.10351 11.4942 0.999023 10.9642 0.999023C10.4341 0.999023 9.90927 1.10351 9.41964 1.30652C8.93001 1.50952 8.4852 1.80706 8.11066 2.1821L2.18196 8.11081C1.42516 8.8676 1 9.89404 1 10.9643C1 12.0346 1.42516 13.061 2.18196 13.8178C2.93875 14.5746 3.96519 14.9998 5.03546 14.9998C6.10573 14.9998 7.13216 14.5746 7.88896 13.8178L13.8177 7.88911C14.1927 7.51456 14.4902 7.06975 14.6932 6.58012C14.8962 6.09049 15.0007 5.56565 15.0007 5.03561C15.0007 4.50556 14.8962 3.98072 14.6932 3.49109C14.4902 3.00146 14.1927 2.55665 13.8177 2.1821Z" fill="#D7E9F9"/>
<path d="M13.8184 7.89014L7.88844 13.8201C7.41426 14.2954 6.82895 14.6448 6.18557 14.8366C5.54219 15.0284 4.86112 15.0565 4.20411 14.9184C3.54711 14.7804 2.93496 14.4805 2.42319 14.046C1.91142 13.6115 1.51622 13.0561 1.27344 12.4301C9.17344 11.6851 12.5784 6.24514 14.0084 2.39014C14.6789 3.16065 15.0321 4.1568 14.9969 5.17756C14.9616 6.19833 14.5405 7.16772 13.8184 7.89014Z" fill="#B3CFE5"/>
<path d="M13.8195 7.8899L10.8545 10.8549L5.14453 5.1449L8.10953 2.1799C8.86755 1.42667 9.89326 1.00466 10.9619 1.00635C12.0305 1.00805 13.0549 1.4333 13.8105 2.18893C14.5661 2.94456 14.9914 3.96893 14.9931 5.03755C14.9948 6.10617 14.5728 7.13188 13.8195 7.8899Z" fill="#FF5E57"/>
<path d="M13.8212 7.89014L10.8562 10.8551L9.28125 9.28014C11.4358 7.4389 13.0673 5.06247 14.0113 2.39014C14.6806 3.16116 15.0331 4.15707 14.9979 5.1775C14.9626 6.19793 14.5422 7.16715 13.8212 7.89014Z" fill="#D32F2F"/>
</svg>
