<svg width="29" height="29" viewBox="0 0 29 29" fill="none" xmlns="http://www.w3.org/2000/svg">
<g clip-path="url(#clip0_68_7281)">
<path d="M2.83203 21.1836V1.07617" stroke="#5C5C5C" stroke-width="1.3" stroke-miterlimit="10" stroke-linecap="round" stroke-linejoin="round"/>
<path d="M26.168 21.1836V1.07617" stroke="#5C5C5C" stroke-width="1.3" stroke-miterlimit="10" stroke-linecap="round" stroke-linejoin="round"/>
<path d="M0.849609 0.849609H28.1504" stroke="#5C5C5C" stroke-width="1.3" stroke-miterlimit="10" stroke-linecap="round" stroke-linejoin="round"/>
<path d="M0.849609 21.4102H28.1504" stroke="#5C5C5C" stroke-width="1.3" stroke-miterlimit="10" stroke-linecap="round" stroke-linejoin="round"/>
<path d="M14.5 28.1504C15.4385 28.1504 16.1992 27.3896 16.1992 26.4512C16.1992 25.5127 15.4385 24.752 14.5 24.752C13.5615 24.752 12.8008 25.5127 12.8008 26.4512C12.8008 27.3896 13.5615 28.1504 14.5 28.1504Z" stroke="#5C5C5C" stroke-width="1.3" stroke-miterlimit="10" stroke-linecap="round" stroke-linejoin="round"/>
<path d="M14.5 21.4668V24.6953" stroke="#5C5C5C" stroke-width="1.3" stroke-miterlimit="10" stroke-linecap="round" stroke-linejoin="round"/>
<path d="M14.4993 12.016L6.54883 8.30841L14.4993 4.60083L22.4498 8.30841L14.4993 12.016Z" stroke="#5C5C5C" stroke-width="1.3" stroke-miterlimit="10" stroke-linecap="round" stroke-linejoin="round"/>
<path d="M19.2302 9.98804V15.7025C16.1716 16.801 12.8261 16.801 9.76758 15.7025V9.98804" stroke="#5C5C5C" stroke-width="1.3" stroke-miterlimit="10" stroke-linecap="round" stroke-linejoin="round"/>
<path d="M22.4492 8.30835V12.0723" stroke="#5C5C5C" stroke-width="1.3" stroke-miterlimit="10" stroke-linecap="round" stroke-linejoin="round"/>
</g>
<defs>
<clipPath id="clip0_68_7281">
<rect width="29" height="29" fill="white"/>
</clipPath>
</defs>
</svg>
