<svg width="19" height="19" viewBox="0 0 19 19" fill="none" xmlns="http://www.w3.org/2000/svg">
<g clip-path="url(#clip0_3577_5346)">
<path d="M9.27216 14.5284C8.07075 15.2899 6.64464 15.1937 6.08687 14.3136C5.5291 13.4336 6.05085 12.1028 7.25225 11.3414C8.13866 10.7796 9.8844 10.8891 10.7389 10.9851C11.0006 11.0145 11.1678 11.2784 11.0827 11.5275C10.8047 12.3413 10.1586 13.9667 9.27216 14.5284Z" fill="#BBEC6C"/>
<path d="M6.84117 14.1834C6.73736 14.1834 6.63578 14.1319 6.57609 14.0377C6.48339 13.8915 6.52683 13.6978 6.67307 13.6051L7.48095 13.0932C7.62712 13.0005 7.82086 13.0439 7.91355 13.1901C8.00625 13.3364 7.96282 13.53 7.81657 13.6227L7.00869 14.1348C6.95665 14.1677 6.89855 14.1834 6.84117 14.1834Z" fill="#8BC727"/>
<path d="M3.20789 14.5284C4.4093 15.2899 5.83541 15.1937 6.39318 14.3136C6.95095 13.4336 6.4292 12.1028 5.22779 11.3414C4.34139 10.7796 2.59564 10.8891 1.74113 10.9851C1.47948 11.0145 1.31223 11.2784 1.39736 11.5275C1.67526 12.3413 2.32149 13.9667 3.20789 14.5284Z" fill="#BBEC6C"/>
<path d="M5.64066 14.1834C5.74448 14.1834 5.84605 14.1319 5.90574 14.0377C5.99844 13.8915 5.95501 13.6978 5.80876 13.6051L5.00088 13.0932C4.85471 13.0005 4.66098 13.0439 4.56828 13.1901C4.47558 13.3364 4.51901 13.53 4.66526 13.6227L5.47314 14.1348C5.52518 14.1677 5.58329 14.1834 5.64066 14.1834Z" fill="#8BC727"/>
<path d="M13.0623 1.72805C13.3922 1.72805 13.6597 1.46057 13.6597 1.13063C13.6597 0.800678 13.3922 0.533203 13.0623 0.533203C12.7323 0.533203 12.4648 0.800678 12.4648 1.13063C12.4648 1.46057 12.7323 1.72805 13.0623 1.72805Z" fill="#FFD15B"/>
<path d="M14.863 9.04738C15.193 9.04738 15.4605 8.77991 15.4605 8.44996C15.4605 8.12001 15.193 7.85254 14.863 7.85254C14.5331 7.85254 14.2656 8.12001 14.2656 8.44996C14.2656 8.77991 14.5331 9.04738 14.863 9.04738Z" fill="#FFD15B"/>
<path d="M15.9177 5.51613C16.2477 5.51613 16.5152 5.24866 16.5152 4.91871C16.5152 4.58876 16.2477 4.32129 15.9177 4.32129C15.5878 4.32129 15.3203 4.58876 15.3203 4.91871C15.3203 5.24866 15.5878 5.51613 15.9177 5.51613Z" fill="#FFD15B"/>
<path d="M6.8375 18.8542H5.9853C5.74103 18.8542 5.54297 18.6562 5.54297 18.4119V8.72363H7.27983V18.4119C7.2798 18.6562 7.08177 18.8542 6.8375 18.8542Z" fill="#22B37F"/>
<path d="M5.54297 8.72363H7.27983V12.8498H5.54297V8.72363Z" fill="#09A76D"/>
<path d="M10.1435 6.03462C8.68784 6.69034 6.98047 6.0513 6.98047 6.0513C6.98047 6.0513 7.63318 4.3491 9.08882 3.69338C10.5445 3.03766 11.8168 2.71096 12.2518 3.6767C12.7162 4.70762 11.5991 5.3789 10.1435 6.03462Z" fill="#99E6FC"/>
<path d="M6.59269 10.2905C5.93697 8.83481 6.57602 7.12744 6.57602 7.12744C6.57602 7.12744 8.27821 7.78015 8.93393 9.23579C9.58965 10.6914 9.91635 11.9638 8.95061 12.3988C7.91973 12.8632 7.24842 11.7461 6.59269 10.2905Z" fill="#99E6FC"/>
<path d="M2.33605 6.73674C3.79169 6.08102 5.49906 6.72006 5.49906 6.72006C5.49906 6.72006 4.84635 8.42225 3.39071 9.07797C1.93506 9.7337 0.662732 10.0604 0.227696 9.09465C-0.236722 8.06374 0.880405 7.39246 2.33605 6.73674Z" fill="#99E6FC"/>
<path d="M5.89009 2.4806C6.54581 3.93625 5.90677 5.64362 5.90677 5.64362C5.90677 5.64362 4.20457 4.99091 3.54885 3.53526C2.89313 2.07962 2.56643 0.80725 3.53217 0.372214C4.56305 -0.092165 5.23433 1.02492 5.89009 2.4806Z" fill="#99E6FC"/>
<path d="M8.75447 3.37618C8.18882 4.86915 6.52968 5.62456 6.52968 5.62456C6.52968 5.62456 5.78759 3.95939 6.3532 2.46641C6.91885 0.973437 7.5875 -0.157242 8.578 0.21803C9.63536 0.618628 9.32012 1.8832 8.75447 3.37618Z" fill="#DFF6FD"/>
<path d="M9.24838 8.899C7.75541 8.33336 7 6.67421 7 6.67421C7 6.67421 8.66517 5.93212 10.1581 6.49773C11.6511 7.06338 12.7818 7.73203 12.4065 8.72253C12.006 9.77985 10.7414 9.46461 9.24838 8.899Z" fill="#DFF6FD"/>
<path d="M12.2519 3.67671C12.0304 3.185 11.5915 3.02883 11.0222 3.08006C11.0478 3.12172 11.072 3.16554 11.0936 3.21342C11.558 4.24433 10.4409 4.91561 8.98527 5.57133C8.33924 5.86236 7.64376 5.89827 7.06981 5.84827C7.00985 5.97479 6.98047 6.05131 6.98047 6.05131C6.98047 6.05131 8.68784 6.69035 10.1435 6.03463C11.5991 5.37891 12.7163 4.70763 12.2519 3.67671Z" fill="#62DBFB"/>
<path d="M8.93134 9.23612C8.9135 9.19651 8.89474 9.15756 8.87536 9.11914C9.22673 10.1741 9.22233 11.0419 8.36816 11.4266C7.86521 11.6532 7.45095 11.5762 7.08984 11.299C7.60368 12.2059 8.17466 12.7475 8.94802 12.3992C9.91376 11.9641 9.58706 10.6918 8.93134 9.23612Z" fill="#62DBFB"/>
<path d="M8.57762 0.217967C8.23015 0.0863129 7.92233 0.14021 7.64462 0.329853C8.42419 0.821142 8.1166 2.00155 7.59582 3.37611C7.32321 4.09562 6.79667 4.64374 6.32422 5.01866C6.42483 5.39026 6.52927 5.6245 6.52927 5.6245C6.52927 5.6245 8.18845 4.86909 8.75406 3.37611C9.31971 1.88314 9.63495 0.618565 8.57762 0.217967Z" fill="#C8EFFE"/>
<path d="M11.5135 7.11896C11.5246 7.25984 11.503 7.40783 11.4439 7.5638C11.0433 8.62113 9.77869 8.30589 8.28571 7.74028C7.88087 7.58689 7.53042 7.35308 7.23438 7.09375C7.56197 7.62419 8.23595 8.51399 9.25092 8.89853C10.7439 9.46418 12.0085 9.77941 12.4091 8.72205C12.6567 8.06853 12.2486 7.55512 11.5135 7.11896Z" fill="#C8EFFE"/>
<path d="M3.72852 9.39487C4.29417 7.90189 5.95332 7.14648 5.95332 7.14648C5.95332 7.14648 6.6954 8.81165 6.1298 10.3046C5.56419 11.7976 4.89549 12.9283 3.905 12.553C2.84764 12.1525 3.16287 10.8878 3.72852 9.39487Z" fill="#DFF6FD"/>
<path d="M3.23067 3.87254C4.72365 4.43818 5.47905 6.09733 5.47905 6.09733C5.47905 6.09733 3.81388 6.83942 2.32091 6.27381C0.827929 5.7082 -0.302749 5.03951 0.0725219 4.04901C0.47312 2.99169 1.73769 3.30693 3.23067 3.87254Z" fill="#DFF6FD"/>
<path d="M6.23846 8.62779C7.47688 8.62779 8.48082 7.62385 8.48082 6.38543C8.48082 5.14701 7.47688 4.14307 6.23846 4.14307C5.00003 4.14307 3.99609 5.14701 3.99609 6.38543C3.99609 7.62385 5.00003 8.62779 6.23846 8.62779Z" fill="#FFD15B"/>
<path d="M7.03589 4.28864C6.97941 4.26725 6.92254 4.24898 6.86556 4.23242C7.20693 4.80085 7.29449 5.51414 7.04134 6.18229C6.62398 7.28389 5.43234 7.86456 4.32031 7.54099C4.57061 7.9578 4.95708 8.29686 5.44701 8.48248C6.6051 8.92123 7.89964 8.33813 8.33838 7.18C8.77712 6.02191 8.19398 4.72738 7.03589 4.28864Z" fill="#FFC344"/>
<path d="M17.9979 12.3391C17.8379 12.3391 17.7083 12.2095 17.7083 12.0495C17.7083 11.8896 17.8379 11.76 17.9979 11.76C18.2303 11.76 18.4193 11.5709 18.4193 11.3385C18.4193 11.1061 18.2303 10.917 17.9979 10.917H14.8755C14.7155 10.917 14.5859 10.7874 14.5859 10.6275C14.5859 10.4675 14.7155 10.3379 14.8755 10.3379H17.9979C18.5496 10.3379 18.9984 10.7867 18.9984 11.3385C18.9984 11.8902 18.5496 12.3391 17.9979 12.3391Z" fill="#FFE177"/>
<path d="M17.6653 2.60344H16.6489C16.489 2.60344 16.3594 2.47379 16.3594 2.31388C16.3594 2.15396 16.489 2.02432 16.6489 2.02432H17.6653C17.9193 2.02432 18.126 1.81769 18.126 1.56368C18.126 1.30968 17.9193 1.10305 17.6653 1.10305C17.5054 1.10305 17.3758 0.973402 17.3758 0.813487C17.3758 0.653572 17.5054 0.523926 17.6653 0.523926C18.2387 0.523926 18.7051 0.990351 18.7051 1.56368C18.7051 2.13701 18.2387 2.60344 17.6653 2.60344Z" fill="#FFE177"/>
<path d="M13.4481 10.917H12.3755C12.2155 10.917 12.0859 10.7874 12.0859 10.6275C12.0859 10.4675 12.2155 10.3379 12.3755 10.3379H13.4481C13.6081 10.3379 13.7377 10.4675 13.7377 10.6275C13.7377 10.7874 13.6081 10.917 13.4481 10.917Z" fill="#FFE177"/>
<path d="M15.4956 2.60354H14.8091C14.6491 2.60354 14.5195 2.47389 14.5195 2.31398C14.5195 2.15406 14.6491 2.02441 14.8091 2.02441H15.4956C15.6556 2.02441 15.7852 2.15406 15.7852 2.31398C15.7852 2.47389 15.6556 2.60354 15.4956 2.60354Z" fill="#FFE177"/>
<path d="M10.5513 1.69533C10.7112 1.69533 10.8408 1.56569 10.8408 1.40577C10.8408 1.24585 10.7112 1.11621 10.5513 1.11621C10.3914 1.11621 10.2617 1.24585 10.2617 1.40577C10.2617 1.56569 10.3914 1.69533 10.5513 1.69533Z" fill="#FFC344"/>
<path d="M14.106 4.35158C14.2659 4.35158 14.3955 4.22194 14.3955 4.06202C14.3955 3.9021 14.2659 3.77246 14.106 3.77246C13.946 3.77246 13.8164 3.9021 13.8164 4.06202C13.8164 4.22194 13.946 4.35158 14.106 4.35158Z" fill="#FFE177"/>
<path d="M13.063 6.67531C13.2229 6.67531 13.3526 6.54567 13.3526 6.38575C13.3526 6.22583 13.2229 6.09619 13.063 6.09619C12.9031 6.09619 12.7734 6.22583 12.7734 6.38575C12.7734 6.54567 12.9031 6.67531 13.063 6.67531Z" fill="#FFE177"/>
<path d="M16.8794 8.41115C17.0393 8.41115 17.169 8.28151 17.169 8.12159C17.169 7.96167 17.0393 7.83203 16.8794 7.83203C16.7195 7.83203 16.5898 7.96167 16.5898 8.12159C16.5898 8.28151 16.7195 8.41115 16.8794 8.41115Z" fill="#FFC344"/>
<path d="M17.8911 5.7593C18.051 5.7593 18.1807 5.62966 18.1807 5.46974C18.1807 5.30982 18.051 5.18018 17.8911 5.18018C17.7312 5.18018 17.6016 5.30982 17.6016 5.46974C17.6016 5.62966 17.7312 5.7593 17.8911 5.7593Z" fill="#FFE177"/>
</g>
<defs>
<clipPath id="clip0_3577_5346">
<rect width="19" height="19" fill="white"/>
</clipPath>
</defs>
</svg>
