<svg width="28" height="28" viewBox="0 0 28 28" fill="none" xmlns="http://www.w3.org/2000/svg">
<g clip-path="url(#clip0_1449_5669)">
<path d="M10.4993 11.6667C7.28285 11.6667 4.66602 9.04983 4.66602 5.83333C4.66602 2.61683 7.28285 0 10.4993 0C13.7158 0 16.3327 2.61683 16.3327 5.83333C16.3327 9.04983 13.7158 11.6667 10.4993 11.6667ZM10.4993 1.16667C7.92568 1.16667 5.83268 3.25967 5.83268 5.83333C5.83268 8.407 7.92568 10.5 10.4993 10.5C13.073 10.5 15.166 8.407 15.166 5.83333C15.166 3.25967 13.073 1.16667 10.4993 1.16667Z" fill="#DBDBDB"/>
<path d="M7.58333 24.5H0.583333C0.261333 24.5 0 24.2387 0 23.9167V19.25C0 16.3555 2.3555 14 5.25 14H15.75C17.1815 14 18.5593 14.5892 19.5335 15.617C19.7552 15.8503 19.7458 16.2202 19.5113 16.4418C19.278 16.6647 18.9082 16.6542 18.6865 16.4197C17.9328 15.624 16.8618 15.1667 15.75 15.1667H5.25C2.99833 15.1667 1.16667 16.9983 1.16667 19.25V23.3333H7.58333C7.90533 23.3333 8.16667 23.5947 8.16667 23.9167C8.16667 24.2387 7.90533 24.5 7.58333 24.5Z" fill="#DBDBDB"/>
<path d="M16.9167 28C16.6962 28 16.4943 27.8764 16.3952 27.678L14.2228 23.3334H11.0833C10.7613 23.3334 10.5 23.072 10.5 22.75C10.5 22.428 10.7613 22.1667 11.0833 22.1667H14.5833C14.8038 22.1667 15.0057 22.2915 15.1048 22.4887L16.8758 26.0307L19.88 19.0202C19.9698 18.8114 20.1717 18.6737 20.3992 18.6667C20.6243 18.6749 20.8367 18.7857 20.9382 18.9887L24.2772 25.6667H27.4167C27.7387 25.6667 28 25.928 28 26.25C28 26.572 27.7387 26.8334 27.4167 26.8334H23.9167C23.6962 26.8334 23.4943 26.7085 23.3952 26.5114L20.4575 20.636L17.4533 27.6465C17.3635 27.8554 17.1617 27.993 16.9342 28C16.9283 28 16.9225 28 16.9167 28Z" fill="#DBDBDB"/>
</g>
<defs>
<clipPath id="clip0_1449_5669">
<rect width="28" height="28" fill="white"/>
</clipPath>
</defs>
</svg>
