<svg width="16" height="16" viewBox="0 0 16 16" fill="none" xmlns="http://www.w3.org/2000/svg">
<g clip-path="url(#clip0_3577_5415)">
<path d="M14.9198 12.4839H1.08019C0.483626 12.4839 0 12.0003 0 11.4037V11.191C0 10.5945 0.483626 10.1108 1.08019 10.1108H14.9198C15.5164 10.1108 16 10.5945 16 11.191V11.4037C16 12.0003 15.5164 12.4839 14.9198 12.4839Z" fill="#E94444"/>
<path d="M16.0012 11.1909V11.4037C16.0012 12.0004 15.5178 12.4841 14.9211 12.4841H14.2891C14.8858 12.4841 15.3692 12.0004 15.3692 11.4037V11.1909C15.3692 10.5946 14.8858 10.1108 14.2891 10.1108H14.9211C15.5178 10.1108 16.0012 10.5946 16.0012 11.1909Z" fill="#D83131"/>
<path d="M14.9188 12.4839H7.99896H1.07915C1.07915 12.4839 0.601883 14.7885 3.31783 15.6951C3.78307 15.8504 4.26878 15.9227 4.75587 15.9227H7.99899H11.2421C11.7292 15.9227 12.2149 15.8504 12.6802 15.6951C15.396 14.7885 14.9188 12.4839 14.9188 12.4839Z" fill="#FE9738"/>
<path d="M12.6828 15.6949C12.2175 15.8503 11.7318 15.9227 11.2449 15.9227H10.5117C10.999 15.9227 11.4846 15.8503 11.95 15.6949C14.6657 14.7882 14.1884 12.4839 14.1884 12.4839H14.9216C14.9216 12.4839 15.3989 14.7882 12.6828 15.6949Z" fill="#FE860A"/>
<path d="M14.9442 10.5411C14.9442 11.0804 14.3175 11.3728 13.9009 11.0303C13.7296 10.8896 13.5273 10.778 13.2068 10.778C12.3382 10.778 12.3382 11.466 11.4696 11.466C10.6011 11.466 10.6011 10.778 9.73248 10.778C8.86393 10.778 8.86393 11.466 7.99538 11.466C7.12686 11.466 7.12686 10.778 6.25831 10.778C5.38973 10.778 5.38973 11.466 4.52114 11.466C3.65259 11.466 3.65259 10.778 2.78404 10.778C2.46364 10.778 2.26144 10.8895 2.09021 11.0302C1.67354 11.3726 1.04688 11.0803 1.04688 10.541V9.26465H14.9441V10.5411H14.9442Z" fill="#BBEC6C"/>
<path d="M14.9447 9.26465V10.5411C14.9447 11.0457 14.396 11.3341 13.9844 11.0885C14.1662 10.9823 14.2969 10.7876 14.2969 10.5411V9.26465H14.9447Z" fill="#A2E62E"/>
<path d="M1.05469 8.2417V9.27388H2.54454C2.85447 9.27388 3.10574 9.52515 3.10574 9.83508V12.8078C3.10574 13.2041 3.42699 13.5253 3.82325 13.5253C4.21952 13.5253 4.54073 13.2041 4.54073 12.8078V9.83508C4.54073 9.52515 4.792 9.27388 5.10193 9.27388H14.945V8.2417H1.05469Z" fill="#FEE45A"/>
<path d="M14.2969 8.2417H14.9448V9.27385H14.2969V8.2417Z" fill="#FEDF30"/>
<path d="M14.9198 8.3125H1.08019C0.483626 8.3125 0 7.82891 0 7.23231V7.01964C0 6.42308 0.483626 5.93945 1.08019 5.93945H14.9198C15.5164 5.93945 16 6.42308 16 7.01964V7.23231C16 7.82891 15.5164 8.3125 14.9198 8.3125Z" fill="#9E5528"/>
<path d="M16.0012 7.01955V7.23228C16.0012 7.82897 15.5178 8.31238 14.9211 8.31238H14.2891C14.8858 8.31238 15.3692 7.82897 15.3692 7.23228V7.01955C15.3692 6.42317 14.8858 5.93945 14.2891 5.93945H14.9211C15.5178 5.93948 16.0012 6.4232 16.0012 7.01955Z" fill="#904D24"/>
<path d="M8.00179 0.0771484C2.60676 0.155224 0.794101 3.08175 0.195698 4.78218C-0.00936664 5.36485 0.427838 5.97462 1.04553 5.97462H8.00179H14.958C15.5803 5.97462 16.0118 5.35871 15.8043 4.77205C15.2023 3.07016 13.3861 0.155068 8.00179 0.0771484Z" fill="#FE9738"/>
<path d="M14.9577 5.97484H14.8808C15.0903 5.74118 15.1765 5.40099 15.0597 5.07015C14.4576 3.36794 12.6415 0.45307 7.25712 0.375181C5.86419 0.395121 4.70976 0.605295 3.75391 0.935169C4.83787 0.437274 6.22562 0.102883 8.00151 0.0771484C13.3859 0.155349 15.202 3.07025 15.8041 4.77212C16.0114 5.35884 15.5798 5.97484 14.9577 5.97484Z" fill="#FE860A"/>
<path d="M5.77255 2.55114C5.73504 2.55114 5.697 2.54207 5.66167 2.52301C5.54814 2.46166 5.50586 2.31987 5.5672 2.20634L5.7766 1.81889C5.83794 1.70536 5.97973 1.66309 6.09326 1.72443C6.20679 1.78578 6.24907 1.92756 6.18773 2.04109L5.97833 2.42854C5.93608 2.50674 5.85564 2.55114 5.77255 2.55114Z" fill="#E57917"/>
<path d="M7.99538 2.57767C7.86634 2.57767 7.76172 2.47305 7.76172 2.344V1.90359C7.76172 1.77454 7.86634 1.66992 7.99538 1.66992C8.12443 1.66992 8.22905 1.77454 8.22905 1.90359V2.344C8.22905 2.47305 8.12443 2.57767 7.99538 2.57767Z" fill="#E57917"/>
<path d="M10.2283 2.54811C10.1477 2.54811 10.0693 2.50636 10.026 2.43162L9.80501 2.05062C9.74027 1.93899 9.77828 1.79602 9.88991 1.73128C10.0015 1.66654 10.1445 1.70455 10.2093 1.81618L10.4302 2.19718C10.4949 2.30881 10.4569 2.45178 10.3453 2.51652C10.3084 2.53796 10.2681 2.54811 10.2283 2.54811Z" fill="#E57917"/>
</g>
<defs>
<clipPath id="clip0_3577_5415">
<rect width="16" height="16" fill="white"/>
</clipPath>
</defs>
</svg>
