<svg width="29" height="29" viewBox="0 0 29 29" fill="none" xmlns="http://www.w3.org/2000/svg">
<path d="M4.7604 25.1447C4.33264 25.1447 3.95691 24.8591 3.84687 24.4457C3.47756 23.0585 3.00966 21.3916 2.25295 19.4779C1.3426 17.1758 0.560279 15.565 0.0430185 14.5852C-0.126351 14.2644 0.238524 13.9286 0.543771 14.1246C2.36665 15.2951 5.92831 17.8225 8.25733 21.0225C9.40049 22.6087 10.1611 24.0384 10.6622 25.1447H4.7604Z" fill="#80D34A"/>
<path d="M23.3427 25.1447C23.7722 25.1447 24.1467 24.8584 24.2569 24.4432C24.7035 22.7603 25.2678 20.7238 26.196 18.3766C27.3562 15.4426 28.3423 13.4488 28.9554 12.3077C29.1286 11.9854 28.7627 11.6492 28.4536 11.845C26.3533 13.1751 21.9016 16.2685 19.0247 20.2214C17.6594 22.1159 16.751 23.8234 16.1525 25.1447H23.3427Z" fill="#66A53D"/>
<path d="M7.05879 25.1447C6.92108 22.7809 6.76789 19.8023 6.12978 16.2925C5.35159 12.0122 4.5483 9.2617 4.09048 7.88245C3.98044 7.55097 4.36432 7.28502 4.64344 7.49497C6.73465 9.06793 11.8177 13.2641 14.5121 18.7053C15.7224 21.1832 16.4159 23.4166 16.8239 25.1447H7.05879Z" fill="#66A53D"/>
<path d="M20.4561 25.1447C20.6206 22.3215 20.8036 18.764 21.5657 14.5721C22.535 9.24058 23.5369 5.8963 24.0694 4.32457C24.1814 3.99411 23.8045 3.71949 23.5244 3.92763C21.154 5.68953 14.8542 10.7899 11.5544 17.4538C10.1088 20.4133 9.28048 23.0807 8.79321 25.1447H20.4561Z" fill="#80D34A"/>
</svg>
