<svg width="29" height="29" viewBox="0 0 29 29" fill="none" xmlns="http://www.w3.org/2000/svg">
<path d="M19.7742 27.1869H9.22543C8.03249 27.2312 6.87027 26.803 5.99127 25.9953C5.11227 25.1875 4.58753 24.0656 4.53105 22.8731V17.2181C4.53105 16.9778 4.62653 16.7473 4.79649 16.5773C4.96644 16.4074 5.19695 16.3119 5.4373 16.3119C5.67765 16.3119 5.90816 16.4074 6.07812 16.5773C6.24807 16.7473 6.34355 16.9778 6.34355 17.2181V22.8731C6.39925 23.585 6.73273 24.2463 7.27195 24.7143C7.81117 25.1823 8.51285 25.4194 9.22543 25.3744H19.7742C20.4867 25.4194 21.1884 25.1823 21.7277 24.7143C22.2669 24.2463 22.6004 23.585 22.6561 22.8731V17.2181C22.6561 16.9778 22.7515 16.7473 22.9215 16.5773C23.0914 16.4074 23.3219 16.3119 23.5623 16.3119C23.8027 16.3119 24.0332 16.4074 24.2031 16.5773C24.3731 16.7473 24.4686 16.9778 24.4686 17.2181V22.8731C24.4121 24.0656 23.8873 25.1875 23.0083 25.9953C22.1293 26.803 20.9671 27.2312 19.7742 27.1869ZM26.9245 15.1428C27.0094 15.0586 27.0769 14.9584 27.1229 14.8479C27.1689 14.7375 27.1926 14.619 27.1926 14.4994C27.1926 14.3798 27.1689 14.2613 27.1229 14.1509C27.0769 14.0404 27.0094 13.9402 26.9245 13.856L15.1432 2.07471C15.059 1.98977 14.9588 1.92235 14.8483 1.87634C14.7379 1.83033 14.6194 1.80664 14.4998 1.80664C14.3802 1.80664 14.2617 1.83033 14.1513 1.87634C14.0408 1.92235 13.9406 1.98977 13.8564 2.07471L2.07511 13.856C1.90446 14.0266 1.80859 14.2581 1.80859 14.4994C1.80859 14.7407 1.90446 14.9722 2.07511 15.1428C2.24576 15.3135 2.47722 15.4094 2.71855 15.4094C2.95989 15.4094 3.19134 15.3135 3.36199 15.1428L14.4998 3.99596L25.6376 15.1428C25.7219 15.2278 25.8221 15.2952 25.9325 15.3412C26.043 15.3872 26.1614 15.4109 26.2811 15.4109C26.4007 15.4109 26.5191 15.3872 26.6296 15.3412C26.74 15.2952 26.8402 15.2278 26.9245 15.1428Z" fill="#5C5C5C"/>
</svg>
