<svg width="27" height="27" viewBox="0 0 27 27" fill="none" xmlns="http://www.w3.org/2000/svg">
<path d="M18.7742 26.1869H8.22543C7.03249 26.2312 5.87027 25.803 4.99127 24.9953C4.11227 24.1875 3.58753 23.0656 3.53105 21.8731V16.2181C3.53105 15.9778 3.62653 15.7473 3.79649 15.5773C3.96644 15.4074 4.19695 15.3119 4.4373 15.3119C4.67765 15.3119 4.90816 15.4074 5.07812 15.5773C5.24807 15.7473 5.34355 15.9778 5.34355 16.2181V21.8731C5.39925 22.585 5.73273 23.2463 6.27195 23.7143C6.81117 24.1823 7.51285 24.4194 8.22543 24.3744H18.7742C19.4867 24.4194 20.1884 24.1823 20.7277 23.7143C21.2669 23.2463 21.6004 22.585 21.6561 21.8731V16.2181C21.6561 15.9778 21.7515 15.7473 21.9215 15.5773C22.0914 15.4074 22.3219 15.3119 22.5623 15.3119C22.8027 15.3119 23.0332 15.4074 23.2031 15.5773C23.3731 15.7473 23.4686 15.9778 23.4686 16.2181V21.8731C23.4121 23.0656 22.8873 24.1875 22.0083 24.9953C21.1293 25.803 19.9671 26.2312 18.7742 26.1869ZM25.9245 14.1428C26.0094 14.0586 26.0769 13.9584 26.1229 13.8479C26.1689 13.7375 26.1926 13.619 26.1926 13.4994C26.1926 13.3798 26.1689 13.2613 26.1229 13.1509C26.0769 13.0404 26.0094 12.9402 25.9245 12.856L14.1432 1.07471C14.059 0.989766 13.9588 0.922347 13.8483 0.876338C13.7379 0.830328 13.6194 0.806641 13.4998 0.806641C13.3802 0.806641 13.2617 0.830328 13.1513 0.876338C13.0408 0.922347 12.9406 0.989766 12.8564 1.07471L1.07511 12.856C0.904464 13.0266 0.808594 13.2581 0.808594 13.4994C0.808594 13.7407 0.904464 13.9722 1.07511 14.1428C1.24576 14.3135 1.47722 14.4094 1.71855 14.4094C1.95989 14.4094 2.19134 14.3135 2.36199 14.1428L13.4998 2.99596L24.6376 14.1428C24.7219 14.2278 24.8221 14.2952 24.9325 14.3412C25.043 14.3872 25.1614 14.4109 25.2811 14.4109C25.4007 14.4109 25.5191 14.3872 25.6296 14.3412C25.74 14.2952 25.8402 14.2278 25.9245 14.1428Z" fill="#0E0E10"/>
</svg>
