<svg width="28" height="26" viewBox="0 0 28 26" fill="none" xmlns="http://www.w3.org/2000/svg">
<g clip-path="url(#clip0_1258_3851)">
<path d="M24.4221 0H3.57793C1.60502 0 0 1.49043 0 3.32241V22.6776C0 24.5096 1.60502 26 3.57793 26H24.4221C26.395 26 28 24.5096 28 22.6776V3.32241C28 1.49043 26.395 0 24.4221 0ZM26.3507 22.6776C26.3507 23.6652 25.4855 24.4685 24.4221 24.4685H3.57793C2.51442 24.4685 1.64921 23.6651 1.64921 22.6776V19.8843L7.07722 15.5958C7.2753 15.4393 7.56427 15.4378 7.7642 15.592L11.1643 18.2137C11.4922 18.4664 11.9734 18.4457 12.2747 18.1657L20.3536 10.6524C20.4997 10.5165 20.6699 10.5033 20.7588 10.5076C20.8474 10.5118 21.0155 10.5411 21.1459 10.6902L26.3508 16.6412L26.3507 22.6776ZM26.3507 14.2119L22.426 9.72456C22.0368 9.27951 21.4599 9.00743 20.8433 8.97802C20.227 8.94908 19.6228 9.16449 19.1866 9.57023L11.6392 16.5893L8.81792 14.4139C7.99985 13.783 6.81838 13.7896 6.00846 14.4295L1.64921 17.8736V3.32241C1.64921 2.33487 2.51442 1.53146 3.57793 1.53146H24.4221C25.4856 1.53146 26.3507 2.33487 26.3507 3.32241V14.2119Z" fill="#999999"/>
<path d="M8.81438 3.19897C6.62169 3.19897 4.83789 4.85546 4.83789 6.89143C4.83789 8.92745 6.62174 10.5839 8.81438 10.5839C11.007 10.5839 12.7909 8.92745 12.7909 6.89143C12.7909 4.85541 11.0071 3.19897 8.81438 3.19897ZM8.81438 9.05248C7.53109 9.05248 6.4871 8.08301 6.4871 6.89143C6.4871 5.6998 7.53109 4.73038 8.81438 4.73038C10.0977 4.73038 11.1417 5.69985 11.1417 6.89143C11.1417 8.08301 10.0977 9.05248 8.81438 9.05248Z" fill="#999999"/>
</g>
<defs>
<clipPath id="clip0_1258_3851">
<rect width="28" height="26" fill="white"/>
</clipPath>
</defs>
</svg>
