<svg width="38" height="38" viewBox="0 0 38 38" fill="none" xmlns="http://www.w3.org/2000/svg">
<path d="M1.0001 31.0002C1 30.871 1 30.7378 1 30.6004V7.40039C1 5.16018 1 4.03924 1.43597 3.18359C1.81947 2.43095 2.43095 1.81947 3.18359 1.43597C4.03924 1 5.16018 1 7.40039 1H30.6004C32.8406 1 33.9601 1 34.8158 1.43597C35.5684 1.81947 36.181 2.43095 36.5645 3.18359C37 4.0384 37 5.15799 37 7.39382V30.6062C37 31.5762 37 32.3358 36.9644 32.9548M1.0001 31.0002C1.00164 32.9768 1.02674 34.0116 1.43597 34.8148C1.81947 35.5674 2.43095 36.181 3.18359 36.5645C4.0384 37 5.15799 37 7.39382 37H30.6072C32.843 37 33.961 37 34.8158 36.5645C35.5684 36.181 36.181 35.5674 36.5645 34.8148C36.811 34.3308 36.918 33.7625 36.9644 32.9548M1.0001 31.0002L10.536 19.875L10.5388 19.8719C11.3845 18.8852 11.8081 18.391 12.3105 18.2129C12.7519 18.0564 13.2337 18.0601 13.6729 18.2227C14.1733 18.4079 14.5901 18.9077 15.4238 19.9082L20.7662 26.319C21.5379 27.2451 21.926 27.7108 22.3972 27.8978C22.8129 28.0626 23.2713 28.0812 23.7002 27.9547C24.1884 27.8106 24.6181 27.3809 25.4775 26.5215L26.4717 25.5273C27.3467 24.6524 27.7842 24.2152 28.2794 24.0723C28.7143 23.9468 29.1793 23.9737 29.5977 24.1465C30.074 24.3432 30.4604 24.8248 31.2334 25.791L36.9644 32.9548M36.9644 32.9548L37 32.9992M25 13C23.8954 13 23 12.1046 23 11C23 9.89543 23.8954 9 25 9C26.1046 9 27 9.89543 27 11C27 12.1046 26.1046 13 25 13Z" stroke="#48505B" stroke-width="2" stroke-linecap="round" stroke-linejoin="round"/>
</svg>
