<svg width="32" height="32" viewBox="0 0 32 32" fill="none" xmlns="http://www.w3.org/2000/svg">
<g clip-path="url(#clip0_3526_7222)">
<path d="M31.5311 31.9999C31.4112 31.9999 31.2912 31.9542 31.1996 31.8626L22.889 23.552C22.7059 23.3689 22.7059 23.0721 22.889 22.8891C23.0721 22.7061 23.3689 22.7061 23.5519 22.8891L31.8626 31.1998C32.0456 31.3828 32.0456 31.6796 31.8626 31.8626C31.7711 31.9541 31.6511 31.9999 31.5311 31.9999Z" fill="#A9D8FC"/>
<path d="M20.0448 22.2367L22.5168 24.7087C22.7727 24.9647 23.1877 24.9647 23.4436 24.7087L24.7089 23.4435C24.9648 23.1876 24.9648 22.7726 24.7089 22.5167L22.2369 20.0447L20.0448 22.2367Z" fill="#C5E2FF"/>
<path d="M20.0448 22.2367L21.638 23.8299L21.9651 23.5028C22.3224 23.1455 22.9015 23.1455 23.2588 23.5028L23.4909 23.7348C23.7467 23.9906 23.7471 24.4053 23.4909 24.6616L24.709 23.4434C24.965 23.1875 24.965 22.7726 24.709 22.5166L22.2367 20.0443L20.0448 22.2367Z" fill="#8DCAFC"/>
<path d="M4.4198 9.87537L9.87227 4.42289L17.3379 11.8885L11.8854 17.341L4.4198 9.87537Z" fill="#EAF6FF"/>
<path d="M17.3411 11.8875L9.87489 4.42126L9.87458 4.42158L9.87427 4.42126L4.42114 9.87439L5.60489 11.0581L8.99352 7.66951C9.35202 7.31101 9.93333 7.31101 10.2918 7.66951L15.9255 13.3031L17.3411 11.8875Z" fill="#C5E2FF"/>
<path d="M16.7924 11.3386L23.6002 18.1465C24.1119 18.6582 24.1119 19.4884 23.6002 20.0001L20.0002 23.6001C19.4885 24.1118 18.6582 24.1118 18.1466 23.6001L11.3387 16.7923L16.7924 11.3386Z" fill="#FB4A59"/>
<path d="M11.3387 16.7923L12.9317 18.3852C13.5096 18.2865 14.0634 18.0144 14.5088 17.5691L16.6499 15.4279C17.0367 15.0412 17.6636 15.0412 18.0504 15.4279L22.1846 19.5622C22.6963 20.0739 22.6963 20.9041 22.1846 21.4157L23.6002 20.0001C24.1121 19.4882 24.1121 18.6584 23.6002 18.1466L16.7924 11.3386L11.3387 16.7923Z" fill="#F82F40"/>
<path d="M6.59143 8.02283L8.02059 6.59367L14.1903 12.7634L12.7611 14.1925L6.59143 8.02283Z" fill="#A9D8FC"/>
<path d="M6.59155 8.02246L8.02071 6.5933L9.04431 7.61691L7.61516 9.04606L6.59155 8.02246Z" fill="#8DCAFC"/>
<path d="M1.89551 3.32568L3.32471 1.89648L7.86104 6.43282L6.43184 7.86202L1.89551 3.32568Z" fill="#EAF6FF"/>
<path d="M1.89563 3.32544L3.32483 1.89624L4.53999 3.1114L3.11079 4.5406L1.89563 3.32544Z" fill="#C5E2FF"/>
<path d="M0.468919 5.22142C0.348919 5.22142 0.228981 5.17567 0.137419 5.08411C-0.0456436 4.90105 -0.0456436 4.60423 0.137419 4.42123L4.42136 0.137297C4.60448 -0.0457656 4.90123 -0.0457656 5.08429 0.137297C5.26736 0.320359 5.26736 0.617172 5.08429 0.800172L0.800419 5.08411C0.708856 5.17567 0.588856 5.22142 0.468919 5.22142Z" fill="#A9D8FC"/>
<path d="M3.4373 11.3269C3.3173 11.3269 3.19737 11.2812 3.1058 11.1896C2.92274 11.0066 2.92274 10.7097 3.1058 10.5267L10.5268 3.1058C10.7099 2.92274 11.0067 2.92274 11.1897 3.1058C11.3728 3.28887 11.3728 3.58568 11.1897 3.76868L3.7688 11.1896C3.67724 11.2812 3.55724 11.3269 3.4373 11.3269Z" fill="#A9D8FC"/>
<path d="M16.6918 11.2382C17.0222 11.5686 17.1877 12.0018 17.1872 12.4349C17.1872 12.8676 17.0222 13.3003 16.6918 13.6307L13.6311 16.6914C12.9702 17.3523 11.8991 17.3528 11.2382 16.6919C11.1035 16.5572 11.0363 16.3812 11.0367 16.2053C11.0367 16.0288 11.1039 15.8529 11.2386 15.7182L15.7186 11.2383C15.9871 10.9696 16.4228 10.9692 16.6918 11.2382Z" fill="#688D97"/>
<path d="M16.6919 11.2382C17.0223 11.5686 17.1877 12.0018 17.1873 12.4349C17.1873 12.8676 17.0223 13.3003 16.6919 13.6307L16.4724 13.8501L14.7896 12.1673L15.7186 11.2383C15.9871 10.9696 16.4229 10.9692 16.6919 11.2382Z" fill="#557983"/>
<path d="M15.4823 18.972C15.3623 18.972 15.2424 18.9263 15.1508 18.8347C14.9678 18.6517 14.9678 18.3548 15.1509 18.1718L15.5463 17.7764C15.7293 17.5933 16.0262 17.5935 16.2092 17.7764C16.3922 17.9595 16.3922 18.2563 16.2091 18.4393L15.8137 18.8347C15.7223 18.9263 15.6023 18.972 15.4823 18.972Z" fill="#EAF6FF"/>
<path d="M17.0885 20.5782C16.9685 20.5782 16.8486 20.5325 16.757 20.4409C16.574 20.2579 16.574 19.9611 16.7571 19.778L17.1525 19.3826C17.3355 19.1995 17.6324 19.1997 17.8154 19.3826C17.9984 19.5657 17.9984 19.8625 17.8153 20.0456L17.4199 20.4409C17.3285 20.5324 17.2085 20.5782 17.0885 20.5782Z" fill="#EAF6FF"/>
<path d="M18.6947 22.1844C18.5747 22.1844 18.4548 22.1387 18.3632 22.0471C18.1802 21.8641 18.1802 21.5673 18.3633 21.3842L18.7587 20.9888C18.9417 20.8058 19.2386 20.8058 19.4216 20.9888C19.6046 21.1719 19.6046 21.4687 19.4215 21.6517L19.0261 22.0471C18.9347 22.1386 18.8147 22.1844 18.6947 22.1844Z" fill="#EAF6FF"/>
</g>
<defs>
<clipPath id="clip0_3526_7222">
<rect width="32" height="32" fill="white"/>
</clipPath>
</defs>
</svg>
