<svg width="17" height="17" viewBox="0 0 17 17" fill="none" xmlns="http://www.w3.org/2000/svg">
<g clip-path="url(#clip0_3577_5320)">
<path d="M7.26994 2.9739H6.27344V1.00249L7.10598 0.0205078L7.86608 0.664912L7.26994 1.36808V2.9739Z" fill="#D0E95A"/>
<path d="M10.7255 2.9739H9.72895V1.36808L9.13281 0.664912L9.89291 0.0205078L10.7255 1.00249V2.9739Z" fill="#9EBC2C"/>
<path d="M5.92578 4.23193V5.46231H8.49951L8.84347 3.60228L8.49954 1.6582C7.0781 1.6582 5.92578 2.81049 5.92578 4.23193Z" fill="#5A781E"/>
<path d="M8.5 1.6582V5.46231H11.0737V4.23193C11.0737 2.81049 9.92141 1.6582 8.5 1.6582Z" fill="#355E16"/>
<path d="M4.75616 7.30959H2.22508L0.109375 5.19388L0.814001 4.48926L2.63783 6.31309H4.75616V7.30959Z" fill="#5A781E"/>
<path d="M0.707748 12.4252L0 11.7237L2.09883 9.60645H4.0523V10.6029H2.51414L0.707748 12.4252Z" fill="#5A781E"/>
<path d="M2.23869 16.9792H1.24219V14.7948L3.84654 12.4854L4.50769 13.2309L2.23869 15.243V16.9792Z" fill="#5A781E"/>
<path d="M14.7733 7.30959H12.2422V6.31309H14.3605L16.1843 4.48926L16.889 5.19388L14.7733 7.30959Z" fill="#355E16"/>
<path d="M16.2938 12.4252L14.4874 10.6029H12.9492V9.60645H14.9027L17.0015 11.7237L16.2938 12.4252Z" fill="#355E16"/>
<path d="M15.7577 16.9792H14.7612V15.243L12.4922 13.2309L13.1533 12.4854L15.7577 14.7948V16.9792Z" fill="#355E16"/>
<path d="M8.50159 4.41113C5.90324 4.41113 3.79688 6.5175 3.79688 9.11584L8.50159 11.3902L9.13486 7.90068L8.50159 4.41113Z" fill="#D0E95A"/>
<path d="M8.5 4.41113V11.3902L13.2047 9.11584C13.2047 6.5175 11.0983 4.41113 8.5 4.41113Z" fill="#9EBC2C"/>
<path d="M3.79688 12.2744V9.11562C3.79688 9.02895 3.7994 8.94292 3.80402 8.85742H5.96905C7.36774 8.85742 8.50159 9.99127 8.50159 11.39L9.25461 14.3055L8.50159 16.9791C5.90324 16.9791 3.79688 14.8727 3.79688 12.2744Z" fill="#9EBC2C"/>
<path d="M13.2047 12.2744V9.11562C13.2047 9.02895 13.2022 8.94292 13.1976 8.85742H11.0325C9.63385 8.85742 8.5 9.99127 8.5 11.39V16.9791C11.0983 16.9791 13.2047 14.8727 13.2047 12.2744Z" fill="#5A781E"/>
</g>
<defs>
<clipPath id="clip0_3577_5320">
<rect width="17" height="17" fill="white"/>
</clipPath>
</defs>
</svg>
