<svg width="16" height="16" viewBox="0 0 16 16" fill="none" xmlns="http://www.w3.org/2000/svg">
<g clip-path="url(#clip0_3577_5289)">
<path d="M14.125 13.2024V1.40625C14.125 0.630844 13.4942 0 12.7188 0H1.40625C0.630844 0 0 0.630844 0 1.40625V14.5938C0 15.3692 0.630844 16 1.40625 16H10.7541L14.125 13.2024Z" fill="#FFF5F5"/>
<path d="M10.7541 16H7.0625V0H12.7188C13.4941 0 14.125 0.630938 14.125 1.40625V13.2025L10.7541 16Z" fill="#ECE6F2"/>
<path d="M2.375 2.84375C2.63388 2.84375 2.84375 2.63388 2.84375 2.375C2.84375 2.11612 2.63388 1.90625 2.375 1.90625C2.11612 1.90625 1.90625 2.11612 1.90625 2.375C1.90625 2.63388 2.11612 2.84375 2.375 2.84375Z" fill="#ECE6F2"/>
<path d="M5.5 2.84375C5.75888 2.84375 5.96875 2.63388 5.96875 2.375C5.96875 2.11612 5.75888 1.90625 5.5 1.90625C5.24112 1.90625 5.03125 2.11612 5.03125 2.375C5.03125 2.63388 5.24112 2.84375 5.5 2.84375Z" fill="#ECE6F2"/>
<path d="M8.625 2.84375C8.88388 2.84375 9.09375 2.63388 9.09375 2.375C9.09375 2.11612 8.88388 1.90625 8.625 1.90625C8.36612 1.90625 8.15625 2.11612 8.15625 2.375C8.15625 2.63388 8.36612 2.84375 8.625 2.84375Z" fill="#CFCFE6"/>
<path d="M11.75 2.84375C12.0089 2.84375 12.2188 2.63388 12.2188 2.375C12.2188 2.11612 12.0089 1.90625 11.75 1.90625C11.4911 1.90625 11.2812 2.11612 11.2812 2.375C11.2812 2.63388 11.4911 2.84375 11.75 2.84375Z" fill="#CFCFE6"/>
<path d="M2.375 14.0938C2.63388 14.0938 2.84375 13.8839 2.84375 13.625C2.84375 13.3661 2.63388 13.1562 2.375 13.1562C2.11612 13.1562 1.90625 13.3661 1.90625 13.625C1.90625 13.8839 2.11612 14.0938 2.375 14.0938Z" fill="#ECE6F2"/>
<path d="M5.5 14.0938C5.75888 14.0938 5.96875 13.8839 5.96875 13.625C5.96875 13.3661 5.75888 13.1562 5.5 13.1562C5.24112 13.1562 5.03125 13.3661 5.03125 13.625C5.03125 13.8839 5.24112 14.0938 5.5 14.0938Z" fill="#ECE6F2"/>
<path d="M2.375 11.2812C2.63388 11.2812 2.84375 11.0714 2.84375 10.8125C2.84375 10.5536 2.63388 10.3438 2.375 10.3438C2.11612 10.3438 1.90625 10.5536 1.90625 10.8125C1.90625 11.0714 2.11612 11.2812 2.375 11.2812Z" fill="#ECE6F2"/>
<path d="M5.5 11.2812C5.75888 11.2812 5.96875 11.0714 5.96875 10.8125C5.96875 10.5536 5.75888 10.3438 5.5 10.3438C5.24112 10.3438 5.03125 10.5536 5.03125 10.8125C5.03125 11.0714 5.24112 11.2812 5.5 11.2812Z" fill="#ECE6F2"/>
<path d="M2.375 8.46875C2.63388 8.46875 2.84375 8.25888 2.84375 8C2.84375 7.74112 2.63388 7.53125 2.375 7.53125C2.11612 7.53125 1.90625 7.74112 1.90625 8C1.90625 8.25888 2.11612 8.46875 2.375 8.46875Z" fill="#ECE6F2"/>
<path d="M5.5 8.46875C5.75888 8.46875 5.96875 8.25888 5.96875 8C5.96875 7.74112 5.75888 7.53125 5.5 7.53125C5.24112 7.53125 5.03125 7.74112 5.03125 8C5.03125 8.25888 5.24112 8.46875 5.5 8.46875Z" fill="#ECE6F2"/>
<path d="M8.625 8.46875C8.88388 8.46875 9.09375 8.25888 9.09375 8C9.09375 7.74112 8.88388 7.53125 8.625 7.53125C8.36612 7.53125 8.15625 7.74112 8.15625 8C8.15625 8.25888 8.36612 8.46875 8.625 8.46875Z" fill="#CFCFE6"/>
<path d="M2.375 5.65625C2.63388 5.65625 2.84375 5.44638 2.84375 5.1875C2.84375 4.92862 2.63388 4.71875 2.375 4.71875C2.11612 4.71875 1.90625 4.92862 1.90625 5.1875C1.90625 5.44638 2.11612 5.65625 2.375 5.65625Z" fill="#ECE6F2"/>
<path d="M5.5 5.65625C5.75888 5.65625 5.96875 5.44638 5.96875 5.1875C5.96875 4.92862 5.75888 4.71875 5.5 4.71875C5.24112 4.71875 5.03125 4.92862 5.03125 5.1875C5.03125 5.44638 5.24112 5.65625 5.5 5.65625Z" fill="#ECE6F2"/>
<path d="M8.625 5.65625C8.88388 5.65625 9.09375 5.44638 9.09375 5.1875C9.09375 4.92862 8.88388 4.71875 8.625 4.71875C8.36612 4.71875 8.15625 4.92862 8.15625 5.1875C8.15625 5.44638 8.36612 5.65625 8.625 5.65625Z" fill="#CFCFE6"/>
<path d="M11.75 5.65625C12.0089 5.65625 12.2188 5.44638 12.2188 5.1875C12.2188 4.92862 12.0089 4.71875 11.75 4.71875C11.4911 4.71875 11.2812 4.92862 11.2812 5.1875C11.2812 5.44638 11.4911 5.65625 11.75 5.65625Z" fill="#CFCFE6"/>
<path d="M11.9555 7.73947L13.1041 8.8881C14.1688 9.95275 14.1688 11.6789 13.1041 12.7436L11.7345 14.1132L10.3649 12.7436C9.30023 11.679 9.30023 9.95278 10.3649 8.8881L11.5135 7.73947C11.6356 7.61744 11.8335 7.61744 11.9555 7.73947Z" fill="#ACEF43"/>
<path d="M13.1041 12.7436L11.7344 14.1133V7.64795C11.8144 7.64795 11.8944 7.67857 11.9553 7.73951L13.1041 8.88795C14.1684 9.95264 14.1684 11.6789 13.1041 12.7436Z" fill="#8CD96B"/>
<path d="M12.2031 13.8446V11.0044C12.2031 10.7455 11.9933 10.5356 11.7344 10.5356C11.4755 10.5356 11.2656 10.7455 11.2656 11.0044V13.8446L11.7344 14.3133L12.2032 13.8446" fill="#5AB267"/>
<path d="M11.7344 14.3135V10.5356C11.9931 10.5356 12.2031 10.7456 12.2031 11.0044V13.8447L11.7344 14.3135Z" fill="#009653"/>
<path d="M11.734 14.2285C11.734 12.8513 10.6176 11.7349 9.24038 11.7349H7.78125C7.60866 11.7349 7.46875 11.8748 7.46875 12.0474V13.5065C7.46875 14.8837 8.58519 16.0001 9.96241 16.0001H11.0775L11.7333 15.6859L12.0085 15.0564L11.734 14.2285Z" fill="#8CD96B"/>
<path d="M15.9997 12.0474V13.5064C15.9997 14.8836 14.8831 16.0002 13.5059 16.0002H12.3906L11.7344 15.6877V14.2286C11.7344 12.8514 12.8506 11.7349 14.2278 11.7349H15.6872C15.8597 11.7349 15.9997 11.8749 15.9997 12.0474Z" fill="#5AB267"/>
<path d="M13.9039 14.4881L12.3917 16.0003H11.0789L9.56703 14.4881C9.38391 14.3053 9.38391 14.0085 9.56703 13.8253C9.75016 13.6422 10.0467 13.6422 10.2298 13.8253L11.7355 15.331L13.2408 13.8253C13.4239 13.6422 13.7208 13.6422 13.9039 13.8253C14.087 14.0085 14.087 14.3053 13.9039 14.4881Z" fill="#5AB267"/>
<path d="M13.9028 14.4881L12.3906 16.0003H11.7344V15.331L13.2397 13.8253C13.4228 13.6422 13.7197 13.6422 13.9028 13.8253C14.0859 14.0085 14.0859 14.3053 13.9028 14.4881Z" fill="#009653"/>
</g>
<defs>
<clipPath id="clip0_3577_5289">
<rect width="16" height="16" fill="white"/>
</clipPath>
</defs>
</svg>
