<svg width="78" height="78" viewBox="0 0 78 78" fill="none" xmlns="http://www.w3.org/2000/svg">
<g clip-path="url(#clip0_65_1825)">
<path d="M36.7051 20.2539V55.0589L37.8521 57.353L38.9992 55.0589L40.5795 37.853L38.9992 20.6471L37.8353 18.353L36.7051 20.2539Z" fill="#4F4F86"/>
<path d="M41.2941 20.2539L40.1639 18.353L39 20.6471V55.0588L40.1471 57.353L41.2941 55.0588C41.2941 53.5129 41.2941 21.7995 41.2941 20.2539Z" fill="#3F3F72"/>
<path d="M10.3235 16.0588C10.0325 16.7573 0.291047 40.1368 0 40.8353L2.48529 43.0529L4.97059 40.8353C5.91439 38.5704 12.8238 21.9876 13.7647 19.7294C14.7056 21.9877 21.615 38.5704 22.5588 40.8353L25.0441 43.0529L27.5294 40.8353C27.2384 40.1368 17.4969 16.7573 17.2059 16.0588L13.7647 13.0509L10.3235 16.0588Z" fill="#D8E3FD"/>
<path d="M60.7941 16.0588C60.5031 16.7573 50.7616 40.1368 50.4706 40.8353L52.9559 43.0529L55.4412 40.8353C56.385 38.5704 63.2944 21.9876 64.2353 19.7294C65.1754 21.9856 71.921 38.1752 73.0294 40.8353L75.5147 43.0529L78 40.8353C77.7089 40.1368 67.9675 16.7573 67.6765 16.0588L64.2353 13.4588L60.7941 16.0588Z" fill="#B3C9F0"/>
<path d="M27.5294 55.0588V64.2353L33.2647 66.5294L39 64.2353L41.2941 59.6471L39 55.0588C35.9115 55.0588 29.3286 55.0588 27.5294 55.0588Z" fill="#FF9059"/>
<path d="M50.4706 55.0588C47.3821 55.0588 40.7992 55.0588 39 55.0588V64.2353L44.7353 66.5294L50.4706 64.2353C50.4706 63.1251 50.4706 56.1764 50.4706 55.0588Z" fill="#FF5959"/>
<path d="M26.7653 64.2354C22.1272 64.2354 18.3535 68.0087 18.3535 72.6471C18.3535 72.6717 18.3535 73.4606 18.3535 73.4118L28.677 75.7059L39.0006 73.4118L41.2947 68.8236L39.0006 64.2354C37.5203 64.2354 28.2552 64.2354 26.7653 64.2354Z" fill="#FF5959"/>
<path d="M59.6471 72.6471C59.6471 68.009 55.8737 64.2353 51.2353 64.2353C49.755 64.2353 40.49 64.2353 39 64.2353V73.4118L49.3235 75.7059L59.6471 73.4118C59.6471 73.3871 59.6471 72.5983 59.6471 72.6471Z" fill="#D8135F"/>
<path d="M13.7656 73.4121V78.0003H39.0009L41.295 75.7062L39.0009 73.4121C38.289 73.4121 14.4771 73.4121 13.7656 73.4121Z" fill="#4F4F86"/>
<path d="M64.2353 73.4117C63.5234 73.4117 39.7115 73.4117 39 73.4117V78H64.2353C64.2353 76.3953 64.2353 75.0164 64.2353 73.4117Z" fill="#3F3F72"/>
<path d="M50.4706 41.2941C50.4706 48.8838 56.6453 55.0588 64.2353 55.0588C71.825 55.0588 78 48.8841 78 41.2941C78 41.2424 78 40.8124 78 40.8353C76.4706 40.8353 52 40.8353 50.4706 40.8353C50.4706 40.887 50.4706 41.3171 50.4706 41.2941Z" fill="#FFB048"/>
<path d="M0 41.2941C0 48.8838 6.17469 55.0588 13.7647 55.0588C21.3544 55.0588 27.5294 48.8841 27.5294 41.2941C27.5294 41.2424 27.5294 40.8124 27.5294 40.8353C26 40.8353 1.52941 40.8353 0 40.8353C0 40.887 0 41.3171 0 41.2941Z" fill="#FFD737"/>
<path d="M34.7177 13.7647L32.5109 11.4706C30.704 11.4706 1.80669 11.4706 0 11.4706V16.0588H32.5109L34.7177 13.7647Z" fill="#4F4F86"/>
<path d="M43.5879 13.7648L45.4888 16.0589H77.9997C77.9997 14.4543 77.9997 13.0754 77.9997 11.4707C76.193 11.4707 47.2956 11.4707 45.4888 11.4707L43.5879 13.7648Z" fill="#3F3F72"/>
<path d="M36.7051 0V7.27556L37.8353 9.17647C41.7927 1.41104 40.4881 3.97112 40.758 3.44118L38.9992 0C38.1969 0 37.5074 0 36.7051 0Z" fill="#FFB048"/>
<path d="M41.2941 0C40.4918 0 39.8023 0 39 0V6.88235L40.1639 9.17647L41.2941 7.27556C41.2941 4.96264 41.2941 2.31293 41.2941 0Z" fill="#FF9059"/>
<path d="M32.1172 13.7647C32.1172 17.5656 35.1983 20.647 38.9995 20.647L41.2937 13.7647L38.9995 6.88232C35.1986 6.88232 32.1172 9.96348 32.1172 13.7647Z" fill="#FFD737"/>
<path d="M45.8824 13.7647C45.8824 9.96378 42.8012 6.88232 39 6.88232V20.647C42.8009 20.647 45.8824 17.5659 45.8824 13.7647Z" fill="#FFB048"/>
</g>
<defs>
<clipPath id="clip0_65_1825">
<rect width="78" height="78" fill="white"/>
</clipPath>
</defs>
</svg>
