<svg width="50" height="50" viewBox="0 0 50 50" fill="none" xmlns="http://www.w3.org/2000/svg">
<g clip-path="url(#clip0_115_3852)">
<path d="M43.2904 12.976C44.8407 12.4747 46.3 11.6462 47.558 10.5027L45.5795 8.32655C42.8173 10.8372 38.76 11.3233 35.4832 9.53602C33.5402 8.47613 31.4427 7.72136 29.2792 7.28925C29.6752 6.58232 29.9019 5.76831 29.9019 4.902C29.9019 2.19903 27.703 0 25 0C22.2971 0 20.0981 2.19903 20.0981 4.902C20.0981 5.76831 20.3248 6.58232 20.7208 7.28925C18.5572 7.72117 16.4599 8.47613 14.5168 9.53592C11.2399 11.3234 7.18255 10.8373 4.42054 8.32655L2.44213 10.5028C3.79842 11.7356 5.3889 12.6016 7.07507 13.0868L0 24.5838V26.4707C0 31.6062 4.17813 35.7844 9.31372 35.7844H11.2745C16.079 35.7844 20.0968 32.1275 20.5882 27.451V24.6062L13.8863 12.9896C14.5831 12.7667 15.2661 12.4773 15.9253 12.1178C18.3192 10.8121 20.909 10.0587 23.5295 9.85323V40.9207H21.2491C17.0536 40.9207 13.6404 44.3339 13.6404 48.5293V49.9999H36.2745V48.5293C36.2745 44.3339 32.8613 40.9207 28.6659 40.9207H26.4707V9.85332C29.0911 10.0588 31.6809 10.8123 34.0749 12.118C34.8485 12.5399 35.6548 12.867 36.4782 13.1009L29.4118 24.5838V26.4707C29.4118 31.6062 33.5899 35.7844 38.7255 35.7844H40.6863C45.4908 35.7844 49.5085 32.1275 50 27.451V24.6062L43.2904 12.976ZM3.1974 25L10.1356 13.7255H10.9155L17.42 25H3.1974ZM32.6092 25L39.5473 13.7255H40.3273L46.8318 25H32.6092Z" fill="white"/>
</g>
<defs>
<clipPath id="clip0_115_3852">
<rect width="50" height="50" fill="white"/>
</clipPath>
</defs>
</svg>
