<svg width="30" height="30" viewBox="0 0 30 30" fill="none" xmlns="http://www.w3.org/2000/svg">
<g clip-path="url(#clip0_68_2813)">
<path d="M14.9999 6.08826L11.5114 15L14.9999 23.6185L19.83 22.065C20.9307 21.331 21.8573 20.3518 22.5276 19.2078C23.3067 17.878 23.7185 16.3563 23.7185 14.8068C23.7185 12.4667 22.8035 10.2694 21.143 8.61985C19.4969 6.98591 17.3181 6.08826 15.0005 6.08826H14.9999Z" fill="#FFE666"/>
<path d="M6.28143 14.7814C6.2768 16.3355 6.68688 17.8624 7.46654 19.1973C8.13689 20.346 9.06577 21.3287 10.1699 22.065L15 23.6185V6.08826C10.2195 6.08479 6.29335 10.0001 6.28143 14.7814Z" fill="#FFC34D"/>
<path d="M15.0001 0.193359L14.4197 1.9129L15.0001 4.3531C15.479 4.3531 15.8677 3.96501 15.8677 3.48552V1.06094C15.8677 0.582034 15.479 0.193359 15.0001 0.193359Z" fill="#FFC34D"/>
<path d="M20.7084 5.88321C21.0083 5.88321 21.2998 5.72762 21.4605 5.4493L22.6729 3.34936C22.9125 2.93443 22.7703 2.40382 22.3554 2.16425C21.9405 1.92463 21.4099 2.06685 21.1703 2.48179L19.9579 4.58173C19.7183 4.99666 19.8605 5.52727 20.2754 5.76684C20.412 5.84573 20.5612 5.88321 20.7084 5.88321Z" fill="#FFC34D"/>
<path d="M9.29152 5.88325C9.43872 5.88325 9.58789 5.84577 9.7245 5.76688C10.1395 5.52731 10.2817 4.9967 10.042 4.58177L8.82962 2.48182C8.59006 2.06683 8.05956 1.92461 7.64451 2.16429C7.22952 2.40386 7.08736 2.93447 7.32698 3.3494L8.53939 5.44934C8.70007 5.72766 8.99169 5.88325 9.29152 5.88325Z" fill="#FF9933"/>
<path d="M24.8894 10.0627C25.0366 10.0627 25.1857 10.0252 25.3224 9.94635L27.4223 8.73394C27.8372 8.49437 27.9794 7.96376 27.7398 7.54883C27.5003 7.13389 26.9696 6.99161 26.5547 7.23129L24.4548 8.4437C24.0398 8.68327 23.8977 9.21388 24.1372 9.62881C24.2979 9.90708 24.5895 10.0627 24.8894 10.0627Z" fill="#FFC34D"/>
<path d="M5.1107 10.0627C5.41054 10.0627 5.70216 9.90709 5.86283 9.62878C6.10246 9.21384 5.96029 8.68323 5.5453 8.44367L3.4453 7.23126C3.03031 6.99169 2.49976 7.1338 2.26019 7.54879C2.02057 7.96372 2.16273 8.49433 2.57773 8.7339L4.67772 9.94631C4.81434 10.0251 4.9635 10.0627 5.1107 10.0627Z" fill="#FF9933"/>
<path d="M26.7076 15.7718H29.1324C29.6116 15.7718 30 15.3833 30 14.9042C30 14.4251 29.6116 14.0366 29.1324 14.0366H26.7076C26.2285 14.0366 25.84 14.4251 25.84 14.9042C25.84 15.3833 26.2285 15.7718 26.7076 15.7718Z" fill="#FFC34D"/>
<path d="M0.867515 15.7718H3.29234C3.77147 15.7718 4.15991 15.3833 4.15991 14.9042C4.15991 14.4251 3.77147 14.0366 3.29234 14.0366H0.867515C0.388381 14.0366 -6.05583e-05 14.4251 -6.05583e-05 14.9042C-6.05583e-05 15.3833 0.388381 15.7718 0.867515 15.7718Z" fill="#FF9933"/>
<path d="M15 13.9665L14.2515 16.6571L15 22.7174L15.8675 22.065V15.553L17.697 13.7235C18.0359 13.3846 18.0359 12.8351 17.697 12.4962C17.358 12.1578 16.8086 12.1578 16.4702 12.4962L15 13.9665Z" fill="#FFC34D"/>
<path d="M15 25.5891L13.8953 27.4135L15 29.8067H16.483C17.8572 29.8067 18.9758 28.6887 18.9758 27.3139V25.5891H15Z" fill="#624D8C"/>
<path d="M12.303 13.7235L14.1324 15.553V22.065L15 22.7174V13.9665L13.5297 12.4962C13.1914 12.1578 12.6419 12.1578 12.303 12.4962C11.9641 12.8351 11.9641 13.3846 12.303 13.7235Z" fill="#FF9933"/>
<path d="M15 22.0649L14.2515 23.1399L15 25.172H19.8301V22.0649H15Z" fill="#624D8C"/>
<path d="M11.0242 25.5891V27.3139C11.0242 28.6887 12.1422 29.8067 13.517 29.8067H15V25.5891H11.0242Z" fill="#493373"/>
<path d="M15 22.0649H10.1699V25.172H15V22.0649Z" fill="#493373"/>
<path d="M15 24.6012L14.2515 25.4688L15 26.3363H20.224C20.7029 26.3363 21.0916 25.9477 21.0916 25.4688C21.0916 24.9899 20.7029 24.6012 20.224 24.6012H15Z" fill="#E6EAFF"/>
<path d="M14.1324 1.06094V3.48552C14.1324 3.96501 14.5211 4.3531 15 4.3531V0.193359C14.5211 0.193359 14.1324 0.582034 14.1324 1.06094Z" fill="#FF9933"/>
<path d="M8.90845 25.4688C8.90845 25.9477 9.29713 26.3363 9.77603 26.3363H15V24.6012H9.77603C9.29713 24.6012 8.90845 24.9899 8.90845 25.4688Z" fill="#CCD5FF"/>
</g>
<defs>
<clipPath id="clip0_68_2813">
<rect width="30" height="30" fill="white" transform="matrix(-1 0 0 1 30 0)"/>
</clipPath>
</defs>
</svg>
