<svg width="22" height="22" viewBox="0 0 22 22" fill="none" xmlns="http://www.w3.org/2000/svg">
<path d="M14.3316 17.9691V21.424C14.3316 21.7421 14.0737 22 13.7556 22H8.39826C8.08016 22 7.82227 21.7421 7.82227 21.424V17.9691H14.3316Z" fill="#FFA733"/>
<path d="M20.6707 12.6096C20.3295 13.7305 19.3275 14.7376 18.3112 14.427C17.2737 14.1118 17.0315 12.699 17.3633 11.6032C17.7284 10.4055 18.7536 9.49164 19.7234 9.78581C20.6366 10.0636 21.061 11.3279 20.6707 12.6096Z" fill="#FFA733"/>
<path d="M2.03166 12.8024C2.42164 14.0841 3.47817 14.8978 4.39148 14.6199C5.3048 14.342 5.72904 13.0778 5.33906 11.7961C4.94908 10.5144 3.89255 9.70068 2.97923 9.97858C2.06592 10.2565 1.64168 11.5208 2.03166 12.8024Z" fill="#FFA733"/>
<path d="M18.8299 8.9538L18.35 13.3364C18.35 15.4262 16.1433 17.5267 14.1042 18.7695C13.0049 19.4396 11.954 19.8604 11.3239 19.8964C9.17016 20.019 5.09591 16.9015 4.33919 14.4491C4.20323 14.0012 4.31031 14.6512 3.68597 8.95333C3.68597 5.09014 5.8562 2.68264 8.55339 1.7384C12.9814 0.188091 18.8299 2.58179 18.8299 8.9538Z" fill="#FFB655"/>
<path d="M18.8299 8.95384L18.35 13.3365C18.35 15.4263 16.1433 17.5267 14.1042 18.7696C13.6945 18.9233 13.335 19.014 13.0569 19.03C10.9031 19.1526 6.82845 16.035 6.07216 13.5831C5.93621 13.1352 6.04328 13.7849 5.41852 8.08695C5.41852 5.09868 6.71691 2.98136 8.55343 1.73849C12.9814 0.18813 18.8299 2.58183 18.8299 8.95384Z" fill="#FFC477"/>
<path d="M6.62845 3.57452C5.95217 4.03085 5.57533 4.33881 5.36783 4.67164C5.1221 5.06622 5.1132 5.49591 5.12656 6.2504C5.13769 6.88939 4.97458 7.51948 4.65735 8.07447L3.99524 9.71411L3.8797 10.0003C3.81215 10.1678 3.57754 10.1789 3.4971 10.0172C2.95235 8.92138 3.05762 7.98247 3.05762 5.60256C3.05766 3.74068 5.06748 2.59784 6.62845 3.57452Z" fill="#AA6100"/>
<path d="M5.12656 6.25043C5.13769 6.88942 4.97458 7.51951 4.65734 8.0745L3.99524 9.71414V5.94514C3.99524 5.24174 4.56535 4.67163 5.26875 4.67163H5.36783C5.12214 5.06621 5.11324 5.4959 5.12656 6.25043Z" fill="#CC7400"/>
<path d="M19.356 8.18331C19.356 8.63745 19.2671 9.46971 19.0622 10.0372C18.9947 10.2242 18.7286 10.2176 18.6734 10.0265C17.6221 6.3708 17.8905 7.44794 17.7576 6.05043C15.5519 4.15082 11.5501 4.73339 8.91372 5.15771C8.06766 5.29366 7.36293 5.4132 6.90256 5.42966C3.67484 5.54653 1.44553 1.28167 1.23404 0.88975C1.08073 0.605813 1.30116 0.265887 1.62239 0.289434C2.60839 0.603149 3.52556 0.74443 4.39512 0.780008C7.19986 0.893746 9.50875 -0.0993906 12.0415 0.00816023C20.7251 0.380527 19.356 5.3799 19.356 8.18331Z" fill="#884D00"/>
<path d="M19.356 8.18331C19.356 8.63745 19.2671 9.46971 19.0623 10.0372C18.9947 10.2242 18.7286 10.2176 18.6734 10.0265C17.6221 6.3708 17.8905 7.44794 17.7577 6.05043C15.5519 4.15082 11.5501 4.73339 8.91374 5.15771C6.35916 4.44185 4.63641 1.22877 4.39514 0.779965C7.19988 0.893746 9.50877 -0.0993905 12.0416 0.00816024C20.7251 0.380527 19.356 5.3799 19.356 8.18331Z" fill="#AA6100"/>
<path d="M18.0775 5.56872C18.0268 5.72469 17.8826 6.15743 17.7579 6.0504C15.5874 4.11435 11.4535 4.74698 8.57658 5.20924C8.5734 5.20984 8.57013 5.20984 8.56696 5.21053C8.43062 5.13594 15.255 3.45491 17.6139 4.52247C18.0119 4.70247 18.2119 5.15325 18.0775 5.56872Z" fill="#884D00"/>
<path d="M11.786 14.5731H10.6212C10.1014 14.5731 9.67859 14.1502 9.67859 13.6305V10.3483C9.67859 10.1642 9.82778 10.015 10.0119 10.015C10.1959 10.015 10.3451 10.1642 10.3451 10.3483V13.6305C10.3451 13.7827 10.469 13.9066 10.6212 13.9066H11.786C11.9701 13.9066 12.1193 14.0558 12.1193 14.2398C12.1193 14.4239 11.9701 14.5731 11.786 14.5731Z" fill="#EE8700"/>
<path d="M11.1299 17.1656C9.95134 17.1656 9.14464 16.6526 9.09364 16.6194C8.93951 16.5188 8.89607 16.3123 8.99661 16.1581C9.09703 16.0043 9.30294 15.9607 9.45694 16.0606C9.52393 16.1036 11.0774 17.073 12.9747 15.9809C13.1342 15.8891 13.338 15.9439 13.4298 16.1034C13.5216 16.2629 13.4667 16.4667 13.3072 16.5586C12.5133 17.0155 11.7672 17.1656 11.1299 17.1656Z" fill="#EE8700"/>
<path d="M12.5629 9.74002H9.87733C9.69325 9.74002 9.54407 9.59079 9.54407 9.40675C9.54407 9.22272 9.69325 9.07349 9.87733 9.07349H12.5629C12.747 9.07349 12.8962 9.22272 12.8962 9.40675C12.8962 9.59079 12.747 9.74002 12.5629 9.74002Z" fill="#2D2D30"/>
<path d="M10.4285 9.93408L10.2903 11.28C10.1962 12.1923 9.42787 12.8855 8.51118 12.8855H6.46273C5.54561 12.8855 4.77775 12.1923 4.68357 11.28L4.53073 9.79233C4.47031 9.2058 4.93064 8.69568 5.5203 8.69568H9.31104C9.97706 8.69568 10.4969 9.27155 10.4285 9.93408Z" fill="#1D1D1F"/>
<path d="M10.4285 9.93408L10.2904 11.28C10.1962 12.1923 9.42789 12.8855 8.5112 12.8855H7.9291C7.01197 12.8855 6.24412 12.1923 6.14994 11.28L5.9971 9.79233C5.93668 9.2058 6.39701 8.69568 6.98667 8.69568H9.31106C9.97708 8.69568 10.497 9.27155 10.4285 9.93408Z" fill="#2D2D30"/>
<path d="M17.9136 9.79233L17.7603 11.28C17.6665 12.1923 16.8982 12.8855 15.9815 12.8855H13.9326C13.0159 12.8855 12.2476 12.1923 12.1539 11.28L12.0153 9.93408C11.9473 9.27155 12.4672 8.69568 13.1328 8.69568H16.924C17.5137 8.69568 17.974 9.2058 17.9136 9.79233Z" fill="#1D1D1F"/>
<path d="M17.9136 9.79233L17.7603 11.28C17.6665 12.1923 16.8983 12.8855 15.9816 12.8855H15.399C14.4823 12.8855 13.7141 12.1923 13.6203 11.28L13.4817 9.93408C13.4137 9.27155 13.9336 8.69568 14.5992 8.69568H16.924C17.5137 8.69568 17.9741 9.2058 17.9136 9.79233Z" fill="#2D2D30"/>
</svg>
