<svg width="22" height="22" viewBox="0 0 22 22" fill="none" xmlns="http://www.w3.org/2000/svg">
<g clip-path="url(#clip0_1_260)">
<path d="M18.0802 4.94318L16.0098 2.59399H13.7826L11.7123 4.94318C11.6278 5.03909 11.5544 5.14299 11.4921 5.25264V10.2361H18.5431V6.16844C18.5431 5.71726 18.3785 5.28165 18.0802 4.94318Z" fill="#A44F3E"/>
<path d="M16.245 6.04401H13.5475C13.3519 6.04401 13.1934 6.20256 13.1934 6.39811V7.86678L13.3467 7.90975H16.4404L16.5991 7.86678V6.39811C16.5991 6.20256 16.4405 6.04401 16.245 6.04401Z" fill="#FFE177"/>
<path d="M18.0802 4.94317L16.0489 2.63824H14.8391L16.9557 5.04312C17.254 5.38158 17.4185 5.8172 17.4185 6.26837V10.2361H18.5431V6.16843C18.5431 5.71726 18.3785 5.28164 18.0802 4.94317Z" fill="#883F2E"/>
<path d="M13.1934 2.39839V0.47966C13.1934 0.214758 13.4081 0 13.6731 0H16.1194C16.3843 0 16.5991 0.214758 16.5991 0.47966V2.39839C16.5991 2.53086 16.4917 2.63824 16.3593 2.63824H13.4332C13.3007 2.63824 13.1934 2.53086 13.1934 2.39839Z" fill="#F3EAE6"/>
<path d="M16.1194 0H15.4265V1.49097C15.4265 1.62345 15.3192 1.73082 15.1867 1.73082H13.1934V2.39843C13.1934 2.5309 13.3007 2.63828 13.4332 2.63828H16.3593C16.4917 2.63828 16.5991 2.5309 16.5991 2.39843V0.47966C16.5991 0.214758 16.3843 0 16.1194 0Z" fill="#E1D3CE"/>
<path d="M16.245 6.04401H15.5137V6.80404C15.5137 7.04853 15.3155 7.2467 15.0711 7.2467H13.1934V7.86678H16.5991V6.39811C16.5991 6.20256 16.4406 6.04401 16.245 6.04401Z" fill="#FFD15B"/>
<path d="M13.1934 7.86676H16.5991V10.2361H13.1934V7.86676Z" fill="white"/>
<path d="M15.5137 7.86676H16.5991V10.2361H15.5137V7.86676Z" fill="#F9F3F1"/>
<path d="M11.5363 10.2361V3.82901C11.5363 3.21782 11.0408 2.72235 10.4296 2.72235H4.55649C3.9453 2.72235 3.44983 3.21782 3.44983 3.82901V10.2361H11.5363Z" fill="#E1D3CE"/>
<path d="M10.4298 2.72235H9.70224V7.72434C9.70224 8.33553 9.20677 8.831 8.59558 8.831H3.45007V10.2361H11.5365V3.82901C11.5365 3.21782 11.041 2.72235 10.4298 2.72235Z" fill="#CDBFBA"/>
<path d="M5.91931 6.2171C6.3346 6.2171 6.67126 5.88044 6.67126 5.46515C6.67126 5.04986 6.3346 4.7132 5.91931 4.7132C5.50402 4.7132 5.16736 5.04986 5.16736 5.46515C5.16736 5.88044 5.50402 6.2171 5.91931 6.2171Z" fill="white"/>
<path d="M9.06689 6.2171C9.48219 6.2171 9.81885 5.88044 9.81885 5.46515C9.81885 5.04986 9.48219 4.7132 9.06689 4.7132C8.6516 4.7132 8.31494 5.04986 8.31494 5.46515C8.31494 5.88044 8.6516 6.2171 9.06689 6.2171Z" fill="white"/>
<path d="M9.30568 4.75256C9.32815 4.82393 9.3404 4.8999 9.3404 4.97871C9.3404 5.394 9.00374 5.73066 8.58845 5.73066C8.50487 5.73066 8.42478 5.71648 8.34967 5.6913C8.44566 5.99608 8.73042 6.21711 9.0669 6.21711C9.4822 6.21711 9.81886 5.88045 9.81886 5.46516C9.81886 5.1334 9.6038 4.85242 9.30568 4.75256Z" fill="#F9F3F1"/>
<path d="M6.15804 4.75256C6.18051 4.82393 6.19276 4.8999 6.19276 4.97871C6.19276 5.394 5.8561 5.73066 5.4408 5.73066C5.35723 5.73066 5.27714 5.71648 5.20203 5.6913C5.29802 5.99608 5.58277 6.21711 5.91926 6.21711C6.33455 6.21711 6.67121 5.88045 6.67121 5.46516C6.67126 5.1334 6.45616 4.85242 6.15804 4.75256Z" fill="#F9F3F1"/>
<path d="M5.91931 8.92413C6.3346 8.92413 6.67126 8.58747 6.67126 8.17218C6.67126 7.75689 6.3346 7.42023 5.91931 7.42023C5.50402 7.42023 5.16736 7.75689 5.16736 8.17218C5.16736 8.58747 5.50402 8.92413 5.91931 8.92413Z" fill="white"/>
<path d="M9.06689 8.92413C9.48219 8.92413 9.81885 8.58747 9.81885 8.17218C9.81885 7.75689 9.48219 7.42023 9.06689 7.42023C8.6516 7.42023 8.31494 7.75689 8.31494 8.17218C8.31494 8.58747 8.6516 8.92413 9.06689 8.92413Z" fill="white"/>
<path d="M17.3081 13.752C17.1537 13.752 17.012 13.6616 16.9469 13.5217L15.4276 10.2559L15.3489 10.1918L15.3041 10.2266V22H19.3274C19.5719 22 19.7701 21.8018 19.7701 21.5574V13.7963L19.7158 13.7521H17.3081V13.752Z" fill="#EA9B58"/>
<path d="M19.7158 13.752H18.3923V20.163C18.3923 20.4074 18.1942 20.6056 17.9497 20.6056H15.3041V22H19.3274C19.5719 22 19.7701 21.8018 19.7701 21.5573V13.7963L19.7158 13.752Z" fill="#D88A55"/>
<path d="M19.7701 17.7284H17.153C17.0796 17.7284 17.0201 17.7879 17.0201 17.8612V19.8089C17.0201 19.8822 17.0796 19.9417 17.153 19.9417H19.7701V17.7284Z" fill="#FE646F"/>
<path d="M18.3923 17.7284H19.77V19.9417H18.3923V17.7284Z" fill="#FD4755"/>
<path d="M15.2809 10.236L13.8298 13.5148C13.7661 13.6589 13.6231 13.752 13.4656 13.752H2.31731L2.15527 13.7963V21.5574C2.15527 21.8018 2.35345 22 2.59794 22H15.3489V10.1918L15.2809 10.236Z" fill="#FED2A4"/>
<path d="M15.2809 10.236L13.9682 13.2022V19.499C13.9682 20.1102 13.4728 20.6056 12.8616 20.6056H2.15527V21.5574C2.15527 21.8018 2.35345 22 2.59794 22H15.3489V10.1918L15.2809 10.236Z" fill="#FFBD86"/>
<path d="M8.44015 20.4092C10.3446 20.4092 11.8885 18.8653 11.8885 16.9608C11.8885 15.5021 10.9823 14.2559 9.70253 13.752H7.17777C5.89803 14.2559 4.99182 15.5021 4.99182 16.9608C4.99186 18.8653 6.53573 20.4092 8.44015 20.4092Z" fill="#FE646F"/>
<path d="M11.8885 16.9608C11.8885 15.5017 10.9818 14.2555 9.7014 13.752H9.18074C9.68825 14.3524 9.99522 15.1277 9.99522 15.9755C9.99522 17.8799 8.45135 19.4238 6.54689 19.4238C6.35383 19.4238 6.16477 19.4072 5.98035 19.3767C6.60601 20.0137 7.47673 20.4092 8.44014 20.4092C10.3446 20.4092 11.8885 18.8653 11.8885 16.9608Z" fill="#FD4755"/>
<path d="M10.1473 16.2811H9.25783C9.18165 16.2811 9.1199 16.2193 9.1199 16.1431V15.2537C9.1199 15.1775 9.05815 15.1157 8.98197 15.1157H7.89826C7.82207 15.1157 7.76033 15.1775 7.76033 15.2537V16.1431C7.76033 16.2193 7.69858 16.2811 7.6224 16.2811H6.7329C6.65672 16.2811 6.59497 16.3428 6.59497 16.419V17.5027C6.59497 17.5789 6.65672 17.6407 6.7329 17.6407H7.6224C7.69858 17.6407 7.76033 17.7024 7.76033 17.7786V18.6681C7.76033 18.7443 7.82207 18.806 7.89826 18.806H8.98197C9.05815 18.806 9.1199 18.7443 9.1199 18.6681V17.7786C9.1199 17.7024 9.18165 17.6407 9.25783 17.6407H10.1473C10.2235 17.6407 10.2853 17.5789 10.2853 17.5027V16.419C10.2853 16.3428 10.2235 16.2811 10.1473 16.2811Z" fill="white"/>
<path d="M21.0998 13.7962H17.308C17.1359 13.7962 16.9793 13.6964 16.9067 13.5403L15.3489 10.1918H19.5442C19.6819 10.1918 19.8071 10.2717 19.8652 10.3965L21.3004 13.4816C21.3688 13.6283 21.2616 13.7962 21.0998 13.7962Z" fill="#FFE5C2"/>
<path d="M21.3005 13.4816L19.8654 10.3965C19.8073 10.2717 19.682 10.1918 19.5443 10.1918H18.4814L19.4523 12.2789C19.5206 12.4255 19.4135 12.5936 19.2517 12.5936H16.4663L16.9068 13.5404C16.9794 13.6965 17.136 13.7963 17.3081 13.7963H21.0999C21.2617 13.7962 21.3688 13.6283 21.3005 13.4816Z" fill="#FED2A4"/>
<path d="M13.4656 13.7962H0.900093C0.740077 13.7962 0.632956 13.6317 0.69771 13.4854L2.06201 10.4026C2.11873 10.2744 2.2457 10.1918 2.38582 10.1918H15.3489L13.8704 13.5328C13.7995 13.693 13.6408 13.7962 13.4656 13.7962Z" fill="#FFF3DE"/>
<path d="M13.8061 10.1918L12.8599 12.33C12.789 12.4902 12.6303 12.5936 12.4551 12.5936H1.09238L0.69771 13.4854C0.632956 13.6317 0.740077 13.7963 0.900093 13.7963H13.4656C13.6408 13.7963 13.7995 13.693 13.8704 13.5328L15.3489 10.1918H13.8061Z" fill="#FFE5C2"/>
<path d="M9.30568 7.45953C9.32815 7.5309 9.3404 7.60687 9.3404 7.68568C9.3404 8.10097 9.00374 8.43763 8.58845 8.43763C8.50487 8.43763 8.42478 8.42345 8.34967 8.39827C8.44566 8.70305 8.73042 8.92408 9.0669 8.92408C9.4822 8.92408 9.81886 8.58742 9.81886 8.17213C9.81886 7.84041 9.6038 7.55944 9.30568 7.45953Z" fill="#F9F3F1"/>
<path d="M6.15804 7.45953C6.18051 7.5309 6.19276 7.60687 6.19276 7.68568C6.19276 8.10097 5.8561 8.43763 5.4408 8.43763C5.35723 8.43763 5.27714 8.42345 5.20203 8.39827C5.29802 8.70305 5.58277 8.92408 5.91926 8.92408C6.33455 8.92408 6.67121 8.58742 6.67121 8.17213C6.67126 7.84041 6.45616 7.55944 6.15804 7.45953Z" fill="#F9F3F1"/>
</g>
<defs>
<clipPath id="clip0_1_260">
<rect width="22" height="22" fill="white"/>
</clipPath>
</defs>
</svg>
