<svg width="25" height="25" viewBox="0 0 25 25" fill="none" xmlns="http://www.w3.org/2000/svg">
<path d="M3.93155 1.06332L8.72548 5.85725H0.421908C0.59135 4.83941 0.997131 3.8755 1.60666 3.04293C2.21618 2.21036 3.01247 1.53234 3.93155 1.06332ZM10.3751 0.321534H6.96512C6.75477 0.321534 6.54441 0.332605 6.33405 0.343677L11.8476 5.85725H15.9108L10.3751 0.321534ZM18.0366 0.321534H13.5194L19.0551 5.85725H24.5798C24.3204 4.30954 23.5206 2.90396 22.3226 1.89038C21.1245 0.876802 19.6058 0.320911 18.0366 0.321534ZM10.8201 18.7289L16.3558 15.6842C16.5296 15.5889 16.6746 15.4485 16.7756 15.2779C16.8766 15.1073 16.9299 14.9127 16.9299 14.7144C16.9299 14.5161 16.8766 14.3215 16.7756 14.1509C16.6746 13.9803 16.5296 13.8399 16.3558 13.7445L10.8201 10.6999C10.6515 10.6072 10.4617 10.56 10.2694 10.563C10.077 10.566 9.88876 10.619 9.72316 10.7169C9.55756 10.8148 9.42032 10.9542 9.32497 11.1213C9.22962 11.2883 9.17945 11.4774 9.17941 11.6697V17.759C9.17945 17.9514 9.22962 18.1404 9.32497 18.3075C9.42032 18.4746 9.55756 18.614 9.72316 18.7119C9.88876 18.8098 10.077 18.8628 10.2694 18.8658C10.4617 18.8688 10.6515 18.8216 10.8201 18.7289ZM24.6794 8.07153V18.0358C24.678 19.7972 23.9777 21.486 22.7322 22.7315C21.4867 23.9769 19.7979 24.6773 18.0366 24.6787H6.96512C5.20376 24.6773 3.51494 23.9769 2.26947 22.7315C1.024 21.486 0.323673 19.7972 0.322266 18.0358V8.07153H24.6794Z" fill="#66747F"/>
</svg>
