<svg width="25" height="21" viewBox="0 0 25 21" fill="none" xmlns="http://www.w3.org/2000/svg">
<g clip-path="url(#clip0_2320_6133)">
<path d="M23.4126 0.777832H1.58732C0.710738 0.777832 0 1.48853 0 2.36511V18.635C0 19.5115 0.710738 20.2222 1.58732 20.2222H23.4126C24.2893 20.2222 25 19.5115 25 18.6349V2.36511C25 1.48853 24.2893 0.777832 23.4126 0.777832ZM23.4126 2.36511V13.9091L20.2845 11.0651C19.8143 10.6377 19.0912 10.6548 18.642 11.1044L15.4761 14.2698L9.23373 6.81351C8.76188 6.25001 7.89759 6.24447 7.41865 6.80121L1.58732 13.5782V2.36511H23.4126ZM16.6667 6.53178C16.6667 5.32622 17.6436 4.34923 18.8491 4.34923C20.0547 4.34923 21.0317 5.32622 21.0317 6.53178C21.0317 7.73734 20.0548 8.71429 18.8491 8.71429C17.6436 8.71433 16.6667 7.73734 16.6667 6.53178Z" fill="#66747F"/>
</g>
<defs>
<clipPath id="clip0_2320_6133">
<rect width="25" height="21" fill="white"/>
</clipPath>
</defs>
</svg>
