<svg width="32" height="32" viewBox="0 0 32 32" fill="none" xmlns="http://www.w3.org/2000/svg">
<g clip-path="url(#clip0_1_333)">
<path d="M2.00957 20.4419H3.0825C3.42527 20.4419 3.74736 20.2779 3.94898 20.0008L9.96015 11.7386C10.4406 11.1101 11.1865 10.7413 11.9777 10.7413H13.2993C13.5848 10.7413 13.8163 10.5099 13.8163 10.2244V8.99967C13.8163 8.75787 13.6926 8.53425 13.4906 8.40148C12.2338 7.57592 11.4088 6.14692 11.4278 4.52654C11.4569 2.03117 13.5209 0.00216388 16.0165 0.0135979C18.5292 0.0251569 20.5627 2.06566 20.5627 4.58114C20.5627 6.17828 19.7429 7.58398 18.5012 8.40042C18.2985 8.53363 18.1738 8.75731 18.1738 8.99986V10.2244C18.1738 10.5098 18.4053 10.7413 18.6908 10.7413H20.363C21.1542 10.7413 21.9001 11.1101 22.3806 11.7386L28.3822 20.067C28.5835 20.3465 28.907 20.5121 29.2515 20.5121H29.9905C31.1003 20.512 32 21.4118 32 22.5216C32 23.6315 31.1003 24.5311 29.9905 24.5311H28.0164C29.2343 25.2115 30.0584 26.5127 30.0584 28.0069C30.0584 30.2048 28.2767 31.9865 26.0789 31.9865H9.21982L22.4639 24.6482C23.5167 24.2398 24.6382 24.0274 25.7733 24.0274H25.8514C25.6958 23.9031 25.5548 23.7587 25.4341 23.5948L21.6182 17.9126V22.9211C21.5997 22.9299 21.5811 22.9381 21.5629 22.9482L15.9551 26.0563L10.7224 22.9172V17.9126L6.89677 23.5246C6.77056 23.6959 6.62236 23.8461 6.45835 23.974C7.90509 23.9957 9.43294 24.3932 10.7224 25.1094V25.103L14.0612 27.106L5.4922 31.8552C3.66276 31.4966 2.28224 29.8852 2.28224 27.9508V27.9317C2.28224 26.4306 3.11361 25.1331 4.34068 24.461H2.00951C0.899664 24.461 0 23.5613 0 22.4514C0 21.3415 0.899725 20.4419 2.00957 20.4419Z" fill="#191F28"/>
</g>
<defs>
<clipPath id="clip0_1_333">
<rect width="32" height="32" fill="white" transform="matrix(-1 0 0 1 32 0)"/>
</clipPath>
</defs>
</svg>
