<svg width="26" height="26" viewBox="0 0 26 26" fill="none" xmlns="http://www.w3.org/2000/svg">
<g clip-path="url(#clip0_1_198)">
<path fill-rule="evenodd" clip-rule="evenodd" d="M14.5588 23.5895C14.2882 14.6438 16.0108 9.55523 19.529 8.20645C19.948 8.04582 20.1575 7.57594 19.9968 7.15694C19.8362 6.73794 19.3663 6.5285 18.9473 6.68913C14.5883 8.36026 12.6498 14.0383 12.9336 23.6056L14.5588 23.5895Z" fill="#107476"/>
<path fill-rule="evenodd" clip-rule="evenodd" d="M14.4326 23.5808C13.4399 16.6265 10.9514 13 6.85388 13V14.625C9.89007 14.625 11.909 17.5381 12.802 23.6517L14.4326 23.5808Z" fill="#107476"/>
<path fill-rule="evenodd" clip-rule="evenodd" d="M19.0833 2.24188C19.0713 2.15395 19.0651 2.06418 19.0651 1.97297C19.0651 0.883329 19.9485 0 21.0381 0C22.1278 0 23.0111 0.883329 23.0111 1.97297C23.0111 2.06418 23.0049 2.15395 22.9929 2.24188C23.0728 2.20331 23.1563 2.16968 23.243 2.1415C24.2793 1.80478 25.3924 2.37191 25.7291 3.40822C26.0658 4.44453 25.4987 5.55759 24.4624 5.89431C24.3757 5.9225 24.2884 5.94435 24.201 5.96012C24.2624 6.02421 24.3202 6.0932 24.3738 6.16699C25.0143 7.04853 24.8189 8.28236 23.9373 8.92284C23.0558 9.56331 21.8219 9.36789 21.1815 8.48636C21.1279 8.41256 21.0801 8.3363 21.0381 8.25813C20.9961 8.3363 20.9484 8.41256 20.8948 8.48636C20.2543 9.36789 19.0204 9.56331 18.1389 8.92284C17.2574 8.28236 17.0619 7.04853 17.7024 6.16699C17.756 6.0932 17.8138 6.02421 17.8752 5.96012C17.7879 5.94435 17.7006 5.9225 17.6138 5.89431C16.5775 5.55759 16.0104 4.44453 16.3471 3.40822C16.6838 2.37191 17.7969 1.80478 18.8332 2.1415C18.9199 2.16968 19.0034 2.20331 19.0833 2.24188ZM20.1786 3.74936C20.2181 4.03538 20.1951 4.33455 20.0999 4.62758C20.0047 4.92062 19.8474 5.17614 19.6473 5.38431C19.9316 5.43513 20.209 5.5494 20.4583 5.73051C20.7075 5.91161 20.9019 6.14016 21.0381 6.39477C21.1743 6.14016 21.3687 5.91161 21.618 5.73051C21.8672 5.5494 22.1447 5.43513 22.4289 5.38431C22.2288 5.17614 22.0715 4.92062 21.9763 4.62758C21.8811 4.33455 21.8582 4.03538 21.8977 3.74936C21.6378 3.87531 21.3462 3.94594 21.0381 3.94594C20.73 3.94594 20.4384 3.87531 20.1786 3.74936Z" fill="#FFBF00"/>
<path d="M21.0389 6.94364C22.1284 6.94364 23.0117 6.06041 23.0117 4.97089C23.0117 3.88137 22.1284 2.99814 21.0389 2.99814C19.9494 2.99814 19.0662 3.88137 19.0662 4.97089C19.0662 6.06041 19.9494 6.94364 21.0389 6.94364Z" fill="white"/>
<path fill-rule="evenodd" clip-rule="evenodd" d="M2.83331 10.3669C2.82133 10.279 2.81514 10.1892 2.81514 10.098C2.81514 9.00833 3.69847 8.125 4.78811 8.125C5.87775 8.125 6.76108 9.00833 6.76108 10.098C6.76108 10.1892 6.75489 10.279 6.74291 10.3669C6.82283 10.3283 6.90629 10.2947 6.99304 10.2665C8.02935 9.92978 9.14241 10.4969 9.47913 11.5332C9.81584 12.5695 9.24871 13.6826 8.2124 14.0193C8.12565 14.0475 8.03836 14.0693 7.95104 14.0851C8.01241 14.1492 8.07019 14.2182 8.1238 14.292C8.76428 15.1735 8.56886 16.4074 7.68732 17.0478C6.80578 17.6883 5.57194 17.4929 4.93147 16.6114C4.87785 16.5376 4.8301 16.4613 4.78811 16.3831C4.74612 16.4613 4.69837 16.5376 4.64475 16.6114C4.00428 17.4929 2.77044 17.6883 1.8889 17.0478C1.00737 16.4074 0.811946 15.1735 1.45242 14.292C1.50604 14.2182 1.56381 14.1492 1.62518 14.0851C1.53786 14.0693 1.45057 14.0475 1.36382 14.0193C0.327511 13.6826 -0.239621 12.5695 0.0970967 11.5332C0.433814 10.4969 1.54687 9.92978 2.58318 10.2665C2.66993 10.2947 2.75339 10.3283 2.83331 10.3669ZM3.92857 11.8744C3.96806 12.1604 3.94512 12.4596 3.84991 12.7526C3.7547 13.0456 3.59741 13.3011 3.39734 13.5093C3.68156 13.5601 3.959 13.6744 4.20827 13.8555C4.45754 14.0366 4.65195 14.2652 4.78811 14.5198C4.92427 14.2652 5.11868 14.0366 5.36795 13.8555C5.61722 13.6744 5.89466 13.5601 6.17888 13.5093C5.97881 13.3011 5.82153 13.0456 5.72631 12.7526C5.6311 12.4596 5.60816 12.1604 5.64766 11.8744C5.38784 12.0003 5.09622 12.0709 4.78811 12.0709C4.48 12.0709 4.18838 12.0003 3.92857 11.8744Z" fill="#FFBF00"/>
<path d="M4.78891 15.0686C5.87843 15.0686 6.76166 14.1854 6.76166 13.0959C6.76166 12.0064 5.87843 11.1231 4.78891 11.1231C3.69939 11.1231 2.81616 12.0064 2.81616 13.0959C2.81616 14.1854 3.69939 15.0686 4.78891 15.0686Z" fill="white"/>
<path fill-rule="evenodd" clip-rule="evenodd" d="M2.07787 25.5472C2.07787 25.5472 3.77404 23.0496 7.35333 22.0906C7.8974 21.9448 8.41551 21.8391 8.90353 21.7668C5.61952 20.8887 1.625 19.6224 1.625 19.6224C1.625 19.6224 4.31935 18.2603 7.91483 19.1568C8.67799 19.3471 9.35896 19.5812 9.95689 19.8376L8.33702 17.4248C10.5296 18.2999 12.1082 20.0817 13.073 22.7704C13.0549 21.8291 13.7583 18.9132 15.7782 16.7471C18.3054 14.037 21.307 13.7119 21.307 13.7119C21.307 13.7119 18.3813 17.2723 16.0414 19.8376C16.6393 19.5812 17.3203 19.3471 18.0834 19.1568C21.6789 18.2603 24.3732 19.6224 24.3732 19.6224C24.3732 19.6224 20.3787 20.8887 17.0947 21.7668C17.5827 21.8391 18.1009 21.9448 18.6449 22.0906C22.2242 23.0496 23.9204 25.5472 23.9204 25.5472C23.9204 25.5472 20.3046 25.1023 13.073 24.2124C5.74291 25.1023 2.07787 25.5472 2.07787 25.5472Z" fill="#30AD63"/>
</g>
<defs>
<clipPath id="clip0_1_198">
<rect width="26" height="26" fill="white"/>
</clipPath>
</defs>
</svg>
