<svg width="40" height="40" viewBox="0 0 40 40" fill="none" xmlns="http://www.w3.org/2000/svg">
<path d="M13.8928 37.1625C13.902 37.7191 14.12 38.2519 14.5036 38.6552C14.8872 39.0586 15.4085 39.303 15.9639 39.34C16.5193 39.3769 17.0684 39.2038 17.5021 38.8549C17.9358 38.5059 18.2225 38.0067 18.3053 37.4563L19.9178 25.625H20.0803L21.6928 37.45C21.7639 37.9819 22.0253 38.4701 22.4286 38.824C22.832 39.1779 23.35 39.3737 23.8866 39.375C24.1945 39.3753 24.4991 39.3116 24.781 39.1878C25.0629 39.064 25.3159 38.8828 25.524 38.6559C25.7321 38.429 25.8907 38.1613 25.9897 37.8697C26.0887 37.5782 26.126 37.2692 26.0991 36.9625L25.4741 29.9438L24.2241 30.0563L24.8491 37.075C24.8613 37.2086 24.8454 37.3432 24.8025 37.4703C24.7597 37.5973 24.6907 37.7141 24.6001 37.8129C24.5095 37.9118 24.3992 37.9906 24.2763 38.0444C24.1534 38.0981 24.0207 38.1256 23.8866 38.125C23.6559 38.1208 23.4342 38.0344 23.2616 37.8813C23.0877 37.7305 22.9744 37.5218 22.9428 37.2938L21.2491 24.9188C21.2292 24.7675 21.1547 24.6286 21.0396 24.5285C20.9245 24.4283 20.7767 24.3737 20.6241 24.375H19.3741C19.2215 24.3737 19.0737 24.4283 18.9586 24.5285C18.8434 24.6286 18.7689 24.7675 18.7491 24.9188L17.0616 37.2938C17.0233 37.5324 16.8972 37.7481 16.708 37.8985C16.5188 38.0489 16.2803 38.1232 16.0392 38.1067C15.7981 38.0903 15.5718 37.9843 15.4048 37.8096C15.2378 37.6349 15.1421 37.4041 15.1366 37.1625C15.1341 37.1334 15.1341 37.1041 15.1366 37.075L15.2803 35.4438C15.8475 35.2245 16.3154 34.806 16.5963 34.2666C16.8771 33.7273 16.9518 33.104 16.8062 32.5136C16.6607 31.9231 16.3049 31.406 15.8055 31.059C15.3062 30.7119 14.6974 30.5588 14.0933 30.6283C13.4892 30.6978 12.9311 30.9851 12.5235 31.4364C12.1159 31.8877 11.8868 32.4721 11.8791 33.0802C11.8714 33.6883 12.0856 34.2783 12.4815 34.7398C12.8775 35.2014 13.4282 35.5027 14.0303 35.5875L13.9116 36.9375C13.8991 37.0119 13.8928 37.0871 13.8928 37.1625ZM13.1241 33.125C13.1241 32.8778 13.1974 32.6361 13.3347 32.4306C13.4721 32.225 13.6673 32.0648 13.8957 31.9702C14.1241 31.8756 14.3755 31.8508 14.6179 31.899C14.8604 31.9473 15.0832 32.0663 15.258 32.2411C15.4328 32.416 15.5518 32.6387 15.6001 32.8812C15.6483 33.1236 15.6235 33.375 15.5289 33.6034C15.4343 33.8318 15.2741 34.027 15.0685 34.1644C14.863 34.3017 14.6213 34.375 14.3741 34.375C14.0426 34.375 13.7246 34.2433 13.4902 34.0089C13.2558 33.7745 13.1241 33.4565 13.1241 33.125Z" fill="#DBDBDB"/>
<path d="M13.4496 21.2125L14.9996 17.5V24.3187L14.5684 29.3187L15.8184 29.4312L16.2496 24.375V14.375C16.2479 14.2315 16.197 14.0931 16.1053 13.9828C16.0136 13.8725 15.8867 13.7971 15.746 13.7692C15.6053 13.7414 15.4593 13.7628 15.3325 13.8298C15.2057 13.8969 15.1058 14.0055 15.0496 14.1375L12.2996 20.7375C12.2237 20.9133 12.0897 21.0578 11.9202 21.1469C11.7506 21.2359 11.5556 21.2642 11.3677 21.2269C11.1799 21.1896 11.0104 21.0891 10.8877 20.942C10.765 20.7949 10.6964 20.6102 10.6934 20.4187C10.6935 20.3115 10.7148 20.2053 10.7559 20.1062L12.4559 15.85L11.2934 15.3875L9.58711 19.6562C9.4949 19.9 9.44625 20.1581 9.44336 20.4187C9.44277 20.9009 9.60964 21.3684 9.91547 21.7412C10.2213 22.1141 10.6471 22.3691 11.1201 22.4629C11.5931 22.5566 12.084 22.4831 12.5089 22.2551C12.9338 22.027 13.2663 21.6585 13.4496 21.2125Z" fill="#DBDBDB"/>
<path d="M24.375 4.99999C24.376 4.23454 24.1762 3.48221 23.7955 2.81815C23.4148 2.1541 22.8665 1.60155 22.2054 1.21569C21.5443 0.829834 20.7935 0.624178 20.0281 0.619261C19.2627 0.614345 18.5093 0.810339 17.8433 1.18767C17.1774 1.565 16.622 2.11046 16.2328 2.76957C15.8436 3.42869 15.6341 4.17838 15.6253 4.94379C15.6165 5.70919 15.8086 6.46351 16.1826 7.13141C16.5565 7.79932 17.0991 8.35742 17.7563 8.74999H16.9125C15.8303 8.74785 14.7866 9.15149 13.9875 9.88124C13.559 9.55701 13.0374 9.37949 12.5 9.37499C12.0055 9.37499 11.5222 9.52162 11.1111 9.79632C10.7 10.071 10.3795 10.4615 10.1903 10.9183C10.0011 11.3751 9.95157 11.8778 10.048 12.3627C10.1445 12.8477 10.3826 13.2931 10.7322 13.6428C11.0819 13.9924 11.5273 14.2305 12.0123 14.327C12.4972 14.4234 12.9999 14.3739 13.4567 14.1847C13.9135 13.9955 14.304 13.675 14.5787 13.2639C14.8534 12.8528 15 12.3694 15 11.875C15.0003 11.521 14.9235 11.1713 14.775 10.85C15.3535 10.3052 16.1178 10.0012 16.9125 9.99999H23.0875C23.7116 10.0001 24.3213 10.1871 24.8382 10.5369C25.355 10.8867 25.7553 11.3832 25.9875 11.9625L26.55 13.3562L27.7063 12.8937L27.15 11.5C26.8252 10.6881 26.2646 9.99219 25.5405 9.50201C24.8163 9.01184 23.9619 8.7499 23.0875 8.74999H22.2438C22.8927 8.36231 23.4301 7.8131 23.8036 7.15589C24.1771 6.49869 24.374 5.75592 24.375 4.99999ZM12.5 13.125C12.2528 13.125 12.0111 13.0517 11.8055 12.9143C11.6 12.777 11.4398 12.5818 11.3452 12.3533C11.2505 12.1249 11.2258 11.8736 11.274 11.6311C11.3223 11.3887 11.4413 11.1659 11.6161 10.9911C11.7909 10.8163 12.0137 10.6972 12.2561 10.649C12.4986 10.6008 12.7499 10.6255 12.9784 10.7201C13.2068 10.8148 13.402 10.975 13.5393 11.1805C13.6767 11.3861 13.75 11.6278 13.75 11.875C13.75 12.2065 13.6183 12.5245 13.3839 12.7589C13.1495 12.9933 12.8315 13.125 12.5 13.125ZM20 8.12499C19.3819 8.12499 18.7777 7.94171 18.2638 7.59834C17.7499 7.25496 17.3494 6.7669 17.1129 6.19588C16.8764 5.62486 16.8145 4.99653 16.935 4.39034C17.0556 3.78414 17.3533 3.22732 17.7903 2.79028C18.2273 2.35324 18.7842 2.05562 19.3903 1.93504C19.9965 1.81446 20.6249 1.87635 21.1959 2.11287C21.7669 2.34939 22.255 2.74993 22.5983 3.26384C22.9417 3.77774 23.125 4.38193 23.125 4.99999C23.125 5.82879 22.7958 6.62365 22.2097 7.2097C21.6237 7.79575 20.8288 8.12499 20 8.12499Z" fill="#DBDBDB"/>
<path d="M5.25 13.25L6 14.25L8.5 12.375C8.57762 12.3168 8.64062 12.2413 8.68402 12.1545C8.72741 12.0677 8.75 11.972 8.75 11.875C8.75 11.778 8.72741 11.6823 8.68402 11.5955C8.64062 11.5087 8.57762 11.4332 8.5 11.375L6 9.5L5.25 10.5L6.25 11.25H0.625V12.5H6.25L5.25 13.25Z" fill="#DBDBDB"/>
<path d="M29.3744 13.75C28.7817 13.7598 28.2118 13.98 27.7664 14.3711C27.3209 14.7623 27.029 15.299 26.9426 15.8855C26.8563 16.4719 26.9811 17.07 27.2949 17.573C27.6087 18.0759 28.091 18.451 28.6557 18.6312L29.2432 20.1062C29.3261 20.311 29.3242 20.5402 29.2381 20.7436C29.1519 20.9469 28.9885 21.1077 28.7838 21.1906C28.5791 21.2735 28.3498 21.2717 28.1465 21.1855C27.9431 21.0994 27.7823 20.936 27.6994 20.7312L24.9494 14.1375C24.8932 14.0055 24.7934 13.8969 24.6666 13.8298C24.5398 13.7628 24.3938 13.7414 24.253 13.7692C24.1123 13.7971 23.9855 13.8725 23.8938 13.9828C23.8021 14.0931 23.7511 14.2316 23.7494 14.375V24.1C23.228 24.4095 22.8368 24.8979 22.6487 25.4743C22.4606 26.0508 22.4884 26.6759 22.727 27.2334C22.9655 27.7908 23.3985 28.2426 23.9453 28.5045C24.4922 28.7665 25.1156 28.8208 25.6995 28.6573C26.2834 28.4938 26.7879 28.1237 27.1192 27.6158C27.4505 27.108 27.586 26.4971 27.5003 25.8968C27.4147 25.2965 27.1138 24.7479 26.6538 24.3529C26.1937 23.958 25.6057 23.7437 24.9994 23.75V17.5L26.5494 21.2125C26.693 21.5594 26.9277 21.861 27.2288 22.0854C27.5298 22.3098 27.886 22.4485 28.2594 22.487C28.6329 22.5254 29.0098 22.4621 29.3503 22.3037C29.6907 22.1454 29.982 21.8979 30.1932 21.5875C30.3846 21.3055 30.504 20.9809 30.5411 20.642C30.5781 20.3032 30.5316 19.9605 30.4057 19.6438L29.9994 18.6563C30.5766 18.4941 31.0762 18.1299 31.4073 17.6301C31.7384 17.1303 31.8788 16.5282 31.8031 15.9336C31.7273 15.3389 31.4404 14.7912 30.9946 14.3904C30.5488 13.9896 29.9738 13.7623 29.3744 13.75ZM26.2494 26.25C26.2494 26.4972 26.1761 26.7389 26.0388 26.9445C25.9014 27.15 25.7062 27.3102 25.4778 27.4049C25.2494 27.4995 24.998 27.5242 24.7556 27.476C24.5131 27.4278 24.2904 27.3087 24.1155 27.1339C23.9407 26.9591 23.8217 26.7363 23.7734 26.4939C23.7252 26.2514 23.75 26.0001 23.8446 25.7716C23.9392 25.5432 24.0994 25.348 24.305 25.2107C24.5105 25.0733 24.7522 25 24.9994 25C25.331 25 25.6489 25.1317 25.8833 25.3661C26.1177 25.6005 26.2494 25.9185 26.2494 26.25ZM29.3744 17.5C29.1272 17.5 28.8855 17.4267 28.68 17.2893C28.4744 17.152 28.3142 16.9568 28.2196 16.7284C28.125 16.4999 28.1002 16.2486 28.1484 16.0061C28.1967 15.7637 28.3157 15.5409 28.4905 15.3661C28.6654 15.1913 28.8881 15.0722 29.1306 15.024C29.373 14.9758 29.6244 15.0005 29.8528 15.0952C30.0812 15.1898 30.2764 15.35 30.4138 15.5555C30.5511 15.7611 30.6244 16.0028 30.6244 16.25C30.6244 16.5815 30.4927 16.8995 30.2583 17.1339C30.0239 17.3683 29.7059 17.5 29.3744 17.5Z" fill="#DBDBDB"/>
<path d="M36.625 14.875L35.875 13.875L33.375 15.75C33.2974 15.8082 33.2344 15.8837 33.191 15.9705C33.1476 16.0573 33.125 16.153 33.125 16.25C33.125 16.347 33.1476 16.4427 33.191 16.5295C33.2344 16.6163 33.2974 16.6918 33.375 16.75L35.875 18.625L36.625 17.625L35.625 16.875H39.375V15.625H35.625L36.625 14.875Z" fill="#DBDBDB"/>
<path d="M31.5 23.875L29 25.75C28.9224 25.8082 28.8594 25.8837 28.816 25.9705C28.7726 26.0573 28.75 26.153 28.75 26.25C28.75 26.347 28.7726 26.4427 28.816 26.5295C28.8594 26.6163 28.9224 26.6918 29 26.75L31.5 28.625L32.25 27.625L31.25 26.875H35.625V25.625H31.25L32.25 24.875L31.5 23.875Z" fill="#DBDBDB"/>
<path d="M7.875 35.5L10.375 33.625C10.4526 33.5668 10.5156 33.4913 10.559 33.4045C10.6024 33.3177 10.625 33.222 10.625 33.125C10.625 33.028 10.6024 32.9323 10.559 32.8455C10.5156 32.7587 10.4526 32.6832 10.375 32.625L7.875 30.75L7.125 31.75L8.125 32.5H3.75V33.75H8.125L7.125 34.5L7.875 35.5Z" fill="#DBDBDB"/>
</svg>
