<svg width="24" height="24" viewBox="0 0 24 24" fill="none" xmlns="http://www.w3.org/2000/svg">
<path d="M1.49998 7.49998V13.785C1.50051 15.1937 1.8292 16.5829 2.45998 17.8425C2.70715 18.3411 3.08891 18.7606 3.56209 19.0535C4.03527 19.3464 4.58097 19.5011 5.13748 19.5H13.7325C14.2481 19.4982 14.7547 19.3642 15.2038 19.1107C15.6528 18.8573 16.0294 18.493 16.2975 18.0525L19.245 13.185C19.4573 12.8115 19.5408 12.3785 19.4825 11.9529C19.4242 11.5272 19.2274 11.1326 18.9225 10.83C18.5727 10.4957 18.1145 10.2982 17.6313 10.2734C17.1481 10.2486 16.6721 10.3982 16.29 10.695L15 11.8875V5.99998C15.0024 5.63936 14.9175 5.28351 14.7526 4.96281C14.5877 4.6421 14.3476 4.36607 14.0528 4.15828C13.7581 3.95048 13.4174 3.8171 13.06 3.76951C12.7025 3.72192 12.3388 3.76153 12 3.88498V3.74998C11.9986 3.28578 11.8537 2.83337 11.5852 2.45473C11.3167 2.07609 10.9376 1.78976 10.5 1.63498C10.2604 1.54416 10.0062 1.49839 9.74998 1.49998C9.25711 1.50197 8.77859 1.66607 8.38823 1.96697C7.99787 2.26787 7.71736 2.68885 7.58998 3.16498C7.56119 3.15165 7.531 3.14159 7.49998 3.13498C7.01617 2.95499 6.48378 2.95499 5.99998 3.13498C5.56234 3.28976 5.18329 3.57609 4.91475 3.95473C4.64621 4.33337 4.50133 4.78578 4.49998 5.24998V5.38498C4.25945 5.29773 4.00583 5.25208 3.74998 5.24998C3.49379 5.24839 3.23952 5.29416 2.99998 5.38498C2.56234 5.53976 2.18328 5.82609 1.91475 6.20473C1.64621 6.58337 1.50134 7.03578 1.49998 7.49998Z" fill="#FFBC85"/>
<path d="M18.4394 5.25L16.7197 3.53025C16.5831 3.3888 16.5075 3.19935 16.5092 3.0027C16.5109 2.80605 16.5898 2.61794 16.7288 2.47889C16.8679 2.33983 17.056 2.26095 17.2526 2.25924C17.4493 2.25754 17.6387 2.33313 17.7802 2.46975L19.4999 4.18943L21.2197 2.46975C21.3611 2.33313 21.5506 2.25754 21.7472 2.25924C21.9439 2.26095 22.132 2.33983 22.2711 2.47889C22.4101 2.61794 22.489 2.80605 22.4907 3.0027C22.4924 3.19935 22.4168 3.3888 22.2802 3.53025L20.5605 5.25L22.2802 6.96975C22.3518 7.03894 22.409 7.12169 22.4483 7.2132C22.4876 7.3047 22.5083 7.40312 22.5091 7.5027C22.51 7.60228 22.491 7.70104 22.4533 7.79322C22.4156 7.88539 22.3599 7.96913 22.2895 8.03955C22.2191 8.10997 22.1353 8.16566 22.0432 8.20337C21.951 8.24108 21.8522 8.26005 21.7526 8.25919C21.6531 8.25832 21.5546 8.23763 21.4631 8.19833C21.3716 8.15902 21.2889 8.10188 21.2197 8.03025L19.4999 6.31058L17.7802 8.03032C17.6388 8.16744 17.4492 8.24346 17.2523 8.24195C17.0553 8.24045 16.8669 8.16154 16.7277 8.02228C16.5884 7.88302 16.5095 7.69458 16.508 7.49765C16.5065 7.30072 16.5826 7.1111 16.7197 6.96975L18.4394 5.25Z" fill="#FF5555"/>
<path d="M1.52245 21.568L2.27245 18.568C2.31304 18.4057 2.40668 18.2617 2.53849 18.1588C2.6703 18.0559 2.83273 18 2.99995 18H14.25C14.4172 18 14.5796 18.0559 14.7114 18.1588C14.8432 18.2617 14.9369 18.4057 14.9775 18.568L15.7275 21.568C15.7551 21.6785 15.7572 21.794 15.7336 21.9055C15.71 22.017 15.6612 22.1216 15.5911 22.2115C15.521 22.3013 15.4313 22.374 15.3288 22.424C15.2264 22.474 15.1139 22.5 15 22.5H2.24995C2.13597 22.5 2.0235 22.474 1.92106 22.424C1.81863 22.374 1.72895 22.3013 1.65881 22.2115C1.58868 22.1216 1.53995 22.017 1.51632 21.9055C1.49269 21.794 1.49479 21.6785 1.52245 21.568Z" fill="#52B1FF"/>
<path d="M10.5 1.63501V10.5C10.5 10.6989 10.579 10.8897 10.7197 11.0303C10.8603 11.171 11.0511 11.25 11.25 11.25C11.4489 11.25 11.6397 11.171 11.7803 11.0303C11.921 10.8897 12 10.6989 12 10.5V3.75001C11.9986 3.28581 11.8538 2.8334 11.5852 2.45476C11.3167 2.07612 10.9376 1.78979 10.5 1.63501Z" fill="#FFA766"/>
<path d="M6 3.13499V10.5C6 10.6989 6.07902 10.8897 6.21967 11.0303C6.36032 11.171 6.55109 11.25 6.75 11.25C6.94891 11.25 7.13968 11.171 7.28033 11.0303C7.42098 10.8897 7.5 10.6989 7.5 10.5V3.13499C7.0162 2.955 6.4838 2.955 6 3.13499Z" fill="#FFA766"/>
<path d="M3 5.38504V10.5C3 10.699 3.07902 10.8897 3.21967 11.0304C3.36032 11.171 3.55109 11.25 3.75 11.25C3.94891 11.25 4.13968 11.171 4.28033 11.0304C4.42098 10.8897 4.5 10.699 4.5 10.5V5.38504C4.25948 5.29779 4.00585 5.25214 3.75 5.25004C3.49382 5.24845 3.23955 5.29422 3 5.38504Z" fill="#FFA766"/>
</svg>
