<svg width="90" height="90" viewBox="0 0 90 90" fill="none" xmlns="http://www.w3.org/2000/svg">
<g clip-path="url(#clip0_3096_6559)">
<path d="M60.8189 21.4983C61.6724 21.6219 62.4676 21.8341 63.0821 22.3244C64.7177 23.6304 64.7205 26.5981 66.0258 28.233C67.3256 29.8603 70.2205 30.5188 71.1344 32.4133C72.0339 34.2768 70.754 36.9479 71.223 39.0133C71.6782 41.0142 74.0012 42.8619 74.0012 45.0002C74.0012 47.1384 71.6782 48.9868 71.223 50.987C70.754 53.0531 72.0339 55.7235 71.1344 57.5871C70.2205 59.4815 67.3256 60.1407 66.0258 61.768C64.7205 63.4029 64.717 66.3706 63.0821 67.6759C61.4548 68.9751 58.5633 68.3228 56.6689 69.2367C54.8053 70.1355 53.5185 72.812 51.4531 73.2817C49.4522 73.7363 47.1368 71.8933 44.9986 71.8933C42.8604 71.8933 40.5444 73.7363 38.5442 73.2817C36.478 72.812 35.192 70.1355 33.3284 69.2367C31.4339 68.3228 28.5418 68.9751 26.9144 67.6759C25.2795 66.3706 25.2768 63.4029 23.9708 61.768C22.6717 60.1407 19.7761 59.4815 18.8622 57.5871C17.9633 55.7235 19.2432 53.0531 18.7736 50.987C18.319 48.9868 15.9961 47.1384 15.9961 45.0002C15.9961 42.8619 18.319 41.0142 18.7736 39.0133C19.2432 36.9479 17.9633 34.2768 18.8622 32.4133C19.7761 30.5188 22.6717 29.8603 23.9715 28.233C25.2768 26.5981 25.2795 23.6304 26.9151 22.3244C28.5425 21.0252 31.4339 21.6782 33.3284 20.7643C35.192 19.8648 36.4787 17.1883 38.5442 16.7186C40.5444 16.264 42.8604 18.107 44.9986 18.107C47.1368 18.107 49.4529 16.264 51.4531 16.7186C53.3599 17.1519 54.6034 19.4652 56.2486 20.5261L60.8189 21.4983Z" fill="#141921"/>
<path d="M71.2246 50.9867C71.6791 48.9865 74.0027 47.1381 74.0027 44.9999C74.0027 42.8616 71.6791 41.0132 71.2246 39.013C70.7549 36.9476 72.0355 34.2765 71.136 32.413C70.2221 30.5185 67.3265 29.8593 66.0274 28.2327C64.722 26.5971 64.7186 23.6301 63.0837 22.3241C62.4692 21.8331 61.674 21.621 60.8205 21.498L57.1051 20.707C61.6933 25.7168 64.4941 32.391 64.4941 39.7196C64.4941 55.2721 51.8866 67.8796 36.3341 67.8796C32.5555 67.8796 28.9526 67.1339 25.6602 65.7846C25.9609 66.5344 26.3344 67.2108 26.916 67.6756C28.5434 68.9748 31.4355 68.3218 33.33 69.2357C35.1935 70.1352 36.4796 72.8118 38.5457 73.2814C40.5459 73.736 42.862 71.893 45.0002 71.893C47.1384 71.893 49.4538 73.736 51.4547 73.2814C53.5201 72.8118 54.8069 70.1352 56.6704 69.2357C58.5649 68.3218 61.4564 68.9748 63.0837 67.6756C64.7186 66.3696 64.722 63.402 66.0274 61.7671C67.3265 60.1397 70.2221 59.4812 71.136 57.5868C72.0355 55.7232 70.7556 53.0522 71.2246 50.9867Z" fill="#141921"/>
<path d="M39.5508 30.9746C39.5508 32.8677 38.0161 34.4023 36.123 34.4023C34.23 34.4023 32.6953 32.8677 32.6953 30.9746C32.6953 29.0808 34.23 27.5469 36.123 27.5469C38.0161 27.5469 39.5508 29.0808 39.5508 30.9746Z" fill="#9A86E3"/>
<path d="M48.4258 4.74609C48.4258 6.63918 46.8911 8.17383 44.998 8.17383C43.105 8.17383 41.5703 6.63918 41.5703 4.74609C41.5703 2.85301 43.105 1.31836 44.998 1.31836C46.8911 1.31836 48.4258 2.85301 48.4258 4.74609Z" fill="#9A86E3"/>
<path d="M61.7734 42.3057C61.7734 44.1987 60.2388 45.7334 58.3457 45.7334C56.4526 45.7334 54.918 44.1987 54.918 42.3057C54.918 40.4126 56.4526 38.8779 58.3457 38.8779C60.2388 38.8779 61.7734 40.4126 61.7734 42.3057Z" fill="#9A86E3"/>
<path d="M41.5281 55.3332C41.5281 58.3194 39.1077 60.7399 36.1215 60.7399C33.1353 60.7399 30.7148 58.3194 30.7148 55.3332C30.7148 52.3477 33.1353 49.9272 36.1215 49.9272C39.1077 49.9272 41.5281 52.3477 41.5281 55.3332Z" fill="#9A86E3"/>
<path d="M82.1709 7.82771C80.5244 6.18113 77.8547 6.18113 76.2081 7.82771C74.5608 9.47428 74.5608 12.1446 76.2081 13.7912C77.8547 15.4378 80.5244 15.4378 82.1709 13.7912C83.8182 12.1446 83.8182 9.47428 82.1709 7.82771Z" fill="#9A86E3"/>
<path d="M88.6797 45C88.6797 46.8931 87.145 48.4277 85.252 48.4277C83.3589 48.4277 81.8242 46.8931 81.8242 45C81.8242 43.1069 83.3589 41.5723 85.252 41.5723C87.145 41.5723 88.6797 43.1069 88.6797 45Z" fill="#9A86E3"/>
<path d="M80.5304 74.2955C78.8076 72.5727 76.0144 72.5727 74.2916 74.2955C72.5695 76.0183 72.5695 78.8116 74.2916 80.5337C76.0144 82.2565 78.8076 82.2565 80.5304 80.5337C82.2532 78.8116 82.2532 76.0183 80.5304 74.2955Z" fill="#9A86E3"/>
<path d="M48.4258 85.2539C48.4258 87.147 46.8911 88.6816 44.998 88.6816C43.105 88.6816 41.5703 87.147 41.5703 85.2539C41.5703 83.3608 43.105 81.8262 44.998 81.8262C46.8911 81.8262 48.4258 83.3608 48.4258 85.2539Z" fill="#9A86E3"/>
<path d="M18.9574 71.0399C17.6184 69.7009 15.448 69.7009 14.1097 71.0399C12.7707 72.3781 12.7707 74.5486 14.1097 75.8876C15.448 77.2259 17.6184 77.2259 18.9574 75.8876C20.2957 74.5486 20.2957 72.3781 18.9574 71.0399Z" fill="#9A86E3"/>
<path d="M8.17188 45C8.17188 46.8931 6.63722 48.4277 4.74414 48.4277C2.85106 48.4277 1.31641 46.8931 1.31641 45C1.31641 43.1069 2.85106 41.5723 4.74414 41.5723C6.63722 41.5723 8.17188 43.1069 8.17188 45Z" fill="#9A86E3"/>
<path d="M15.7655 9.36949C13.9988 7.60275 11.1348 7.60275 9.36802 9.36949C7.60128 11.1362 7.60128 14.0009 9.36802 15.7677C11.1348 17.5344 13.9988 17.5344 15.7655 15.7677C17.5322 14.0009 17.5322 11.1362 15.7655 9.36949Z" fill="#9A86E3"/>
<path d="M40.8672 30.9746C40.8672 28.3571 38.7379 26.2285 36.1211 26.2285C33.5043 26.2285 31.375 28.3571 31.375 30.9746C31.375 33.5914 33.5043 35.7207 36.1211 35.7207C38.7379 35.7207 40.8672 33.5914 40.8672 30.9746ZM34.0117 30.9746C34.0117 29.8114 34.9579 28.8652 36.1211 28.8652C37.2843 28.8652 38.2305 29.8114 38.2305 30.9746C38.2305 32.1371 37.2843 33.084 36.1211 33.084C34.9579 33.084 34.0117 32.1371 34.0117 30.9746Z" fill="#0D1017"/>
<path d="M53.6016 42.3047C53.6016 44.9222 55.7309 47.0508 58.3477 47.0508C60.9645 47.0508 63.0938 44.9222 63.0938 42.3047C63.0938 39.6879 60.9645 37.5586 58.3477 37.5586C55.7309 37.5586 53.6016 39.6879 53.6016 42.3047ZM58.3477 40.1953C59.5108 40.1953 60.457 41.1415 60.457 42.3047C60.457 43.4679 59.5108 44.4141 58.3477 44.4141C57.1845 44.4141 56.2383 43.4679 56.2383 42.3047C56.2383 41.1415 57.1845 40.1953 58.3477 40.1953Z" fill="#0D1017"/>
<path d="M29.3984 55.3332C29.3984 59.0418 32.4156 62.0582 36.1234 62.0582C39.8313 62.0582 42.8484 59.0418 42.8484 55.3332C42.8484 51.6253 39.8313 48.6089 36.1234 48.6089C32.4156 48.6089 29.3984 51.6253 29.3984 55.3332ZM36.1234 51.2456C38.3777 51.2456 40.2117 53.0796 40.2117 55.3332C40.2117 57.5875 38.3777 59.4215 36.1234 59.4215C33.8692 59.4215 32.0352 57.5875 32.0352 55.3332C32.0352 53.0789 33.8692 51.2456 36.1234 51.2456Z" fill="#0D1017"/>
<path d="M85.2539 40.2539C83.104 40.2539 81.3565 41.7178 80.7749 43.6816H74.9989C74.2538 41.22 72.8112 40.0452 72.5105 38.7206C72.1143 36.98 73.4402 34.1558 72.323 31.8404C71.1996 29.5107 68.1317 28.7553 67.0578 27.4102C66.7124 26.9783 66.47 26.3267 66.2345 25.6297L76.3934 15.4715C77.2442 15.983 78.1725 16.3442 79.1908 16.3442C80.6692 16.3442 82.0589 15.7688 83.1047 14.7231C85.2628 12.5649 85.2628 9.05342 83.1047 6.89529C80.9418 4.73236 77.4406 4.73167 75.2769 6.89529C73.4491 8.72246 73.2658 11.4773 74.5333 13.6024L65.1833 22.9525C64.3716 21.3911 63.3437 20.5307 61.0091 20.1936C60.2882 20.0892 59.6201 20.5891 59.5157 21.3094C59.4113 22.0296 59.9112 22.6984 60.6322 22.8028C62.504 23.0733 62.7827 23.5911 63.5484 25.9373C64.5124 28.8892 65.0597 29.567 67.7053 31.1476C70.2562 32.672 70.3688 32.961 69.9857 35.8388C69.5689 38.9664 69.79 39.809 71.4496 42.3241C73.0934 44.8174 73.0934 45.1833 71.4496 47.6759C69.7838 50.2013 69.5709 51.0459 69.9857 54.1619C70.3695 57.0444 70.2514 57.3308 67.7046 58.8531C65.0603 60.433 64.5124 61.1108 63.5484 64.0633C62.6324 66.8683 62.3845 67.0537 59.4711 67.3242C56.3695 67.6112 55.5881 67.9985 53.4746 70.2081C51.416 72.3601 51.1057 72.4061 48.4044 71.3981C47.3195 70.993 46.1982 70.5748 45.0007 70.5748C42.6469 70.5748 40.267 72.3196 38.838 71.9955C38.069 71.8211 37.3199 71.0376 36.5268 70.2081C34.4188 68.004 33.6422 67.6126 30.5296 67.3235C27.6155 67.0537 27.3676 66.8669 26.4523 64.0627C25.4876 61.1101 24.9403 60.433 22.2954 58.8524C19.7452 57.328 19.6319 57.0403 20.015 54.1612C20.4298 51.0493 20.2176 50.202 18.5511 47.6759C16.9073 45.1833 16.9073 44.8167 18.5511 42.3235C20.2169 39.7987 20.4305 38.9534 20.015 35.8381C19.6319 32.9597 19.7452 32.6713 22.2961 31.1469C23.2711 30.5647 24.2791 29.9618 25.0035 29.0547C25.732 28.1422 26.098 27.0209 26.4523 25.9367C26.8053 24.8552 27.139 23.8342 27.7398 23.3542C28.3344 22.879 29.4008 22.7808 30.5296 22.6758C33.6346 22.3881 34.4147 22.0001 36.5268 19.7919C38.5812 17.6434 38.8889 17.5919 41.5963 18.6019C44.5441 19.7019 45.4559 19.7019 48.4044 18.6019C51.7284 17.3618 51.497 17.9105 54.245 20.576C54.7668 21.0828 55.6018 21.0704 56.1086 20.5479C56.616 20.0253 56.6036 19.1904 56.0804 18.6836C55.8504 18.4605 55.6224 18.2215 55.38 17.9688C52.5201 14.9805 51.1194 14.7752 47.4829 16.132C47.0805 16.2817 46.694 16.4198 46.319 16.5358V9.22508C48.2822 8.64349 49.7461 6.89598 49.7461 4.74609C49.7461 2.12929 47.6168 0 45 0C42.3832 0 40.2539 2.12929 40.2539 4.74609C40.2539 6.89598 41.7178 8.64349 43.6816 9.22508V16.5358C43.3067 16.4198 42.9202 16.2817 42.5178 16.132C38.882 14.7752 37.4799 14.9799 34.6207 17.9695C33.9738 18.6452 33.3634 19.2838 32.7571 19.5763C32.1281 19.8798 31.2334 19.9628 30.2859 20.0507C27.634 20.2966 26.0184 20.6406 24.8167 22.9525L17.4429 15.5786C18.8258 13.3285 18.6465 10.3848 16.6992 8.43681C14.4216 6.15921 10.7151 6.15921 8.43681 8.43681C3.71956 13.1548 9.47365 21.1933 15.5786 17.4429L23.7655 25.6297C23.1427 27.472 22.9079 27.7096 20.9427 28.8837C17.4483 30.9718 16.8784 32.2627 17.401 36.1862C17.5273 37.1345 17.6468 38.0305 17.4895 38.7206C17.1888 40.0452 15.7462 41.2193 15.0011 43.6816H9.22508C8.64349 41.7178 6.89598 40.2539 4.74609 40.2539C2.12929 40.2539 0 42.3832 0 45C0 47.6168 2.12929 49.7461 4.74609 49.7461C6.89598 49.7461 8.64349 48.2822 9.22508 46.3184H15.0011C15.7462 48.7807 17.1888 49.9541 17.4902 51.2794C17.8857 53.0193 16.5598 55.8449 17.677 58.1596C18.801 60.4893 21.8683 61.2447 22.9429 62.5898C23.2876 63.0224 23.53 63.6733 23.7655 64.3703L18.7715 69.3642C16.9718 68.3871 14.7004 68.5876 13.1802 70.1079C10.1884 73.1003 12.3363 78.2076 16.5365 78.2076C20.0583 78.2076 22.4121 74.5004 20.6358 71.2292L24.8174 67.0475C26.7744 70.8131 30.6992 69.4308 32.7571 70.4237C34.3124 71.1742 35.7028 73.9874 38.2537 74.567C40.155 74.9995 41.9822 73.9915 43.6816 73.4642V80.7749C41.7178 81.3565 40.2539 83.104 40.2539 85.2539C40.2539 87.8707 42.3832 90 45 90C47.6168 90 49.7461 87.8707 49.7461 85.2539C49.7461 83.104 48.2822 81.3565 46.3184 80.7749V73.4642C48.0425 73.9984 49.8484 74.9989 51.747 74.567C54.291 73.9888 55.6993 71.1681 57.2429 70.4237C59.3262 69.4185 63.2153 70.8337 65.1833 67.0475L66.5675 68.4325C67.0832 68.9468 67.9175 68.9468 68.4325 68.4325C68.9474 67.9175 68.9474 67.0825 68.4325 66.5675L66.2345 64.3696C66.858 62.5259 67.0942 62.2897 69.0573 61.1163C72.551 59.0282 73.1216 57.7373 72.599 53.8138C72.2708 51.3508 72.3381 51.1166 73.6503 49.1274C74.2003 48.2932 74.6892 47.3401 74.9982 46.3184H80.7742C81.3565 48.2822 83.104 49.7461 85.2539 49.7461C87.8707 49.7461 90 47.6168 90 45C90 42.3832 87.8707 40.2539 85.2539 40.2539ZM79.1908 7.91084C81.7671 7.91084 83.0539 11.0454 81.2405 12.8588C80.1075 13.9911 78.2742 13.9918 77.1412 12.8588C75.3271 11.0447 76.6152 7.91084 79.1908 7.91084ZM42.8906 4.74609C42.8906 3.58292 43.8368 2.63672 45 2.63672C46.1632 2.63672 47.1094 3.58292 47.1094 4.74609C47.1094 5.90927 46.1632 6.85547 45 6.85547C43.8368 6.85547 42.8906 5.90927 42.8906 4.74609ZM10.3017 14.835C9.05136 13.5853 9.05136 11.5514 10.3017 10.3011C11.5514 9.05136 13.5853 9.05136 14.835 10.3011C16.0854 11.5514 16.0854 13.5853 14.835 14.835C13.5853 16.0854 11.5514 16.0847 10.3017 14.835ZM4.74609 47.1094C3.58292 47.1094 2.63672 46.1632 2.63672 45C2.63672 43.8368 3.58292 42.8906 4.74609 42.8906C5.90927 42.8906 6.85547 43.8368 6.85547 45C6.85547 46.1632 5.90927 47.1094 4.74609 47.1094ZM18.0279 74.9556C17.2053 75.7782 15.867 75.7782 15.0444 74.9556C13.7144 73.6256 14.6695 71.3555 16.5358 71.3555C18.4014 71.3555 19.3593 73.6242 18.0279 74.9556ZM47.1094 85.2539C47.1094 86.4171 46.1632 87.3633 45 87.3633C43.8368 87.3633 42.8906 86.4171 42.8906 85.2539C42.8906 84.0907 43.8368 83.1445 45 83.1445C46.1632 83.1445 47.1094 84.0907 47.1094 85.2539ZM85.2539 47.1094C84.0907 47.1094 83.1445 46.1632 83.1445 45C83.1445 43.8368 84.0907 42.8906 85.2539 42.8906C86.4171 42.8906 87.3633 43.8368 87.3633 45C87.3633 46.1632 86.4171 47.1094 85.2539 47.1094Z" fill="#48505B"/>
<path d="M74.4864 72.6201L72.2355 70.3686C71.7199 69.8543 70.8856 69.8543 70.3706 70.3686C69.8556 70.8836 69.8556 71.7186 70.3706 72.2336L72.6221 74.4844C71.2818 76.6885 71.4617 79.5628 73.3651 81.4662C75.6042 83.7053 79.229 83.706 81.4682 81.4662C83.7073 79.227 83.7073 75.6029 81.4682 73.3631C79.5648 71.4597 76.6912 71.2798 74.4864 72.6201ZM79.6039 79.602C78.3948 80.8105 76.4392 80.8105 75.23 79.602C74.0243 78.3962 74.0243 76.4338 75.23 75.228C76.4358 74.0223 78.3975 74.0223 79.6039 75.228C80.8124 76.4365 80.8131 78.3928 79.6039 79.602Z" fill="#48505B"/>
</g>
<defs>
<clipPath id="clip0_3096_6559">
<rect width="90" height="90" fill="white"/>
</clipPath>
</defs>
</svg>
