<svg width="89" height="89" viewBox="0 0 89 89" fill="none" xmlns="http://www.w3.org/2000/svg">
<path d="M79.2667 51.5923V49.8958C79.2667 47.3607 78.2606 44.9293 76.4693 43.1354C74.6781 41.3416 72.2481 40.3319 69.7131 40.3283H33.2092C30.9177 40.3267 28.7019 41.1489 26.9661 42.6448C25.2302 44.1407 24.0898 46.2107 23.7529 48.4773L12.7392 38.2701C12.6688 38.2072 12.6126 38.13 12.5742 38.0437C12.5359 37.9574 12.5162 37.8639 12.5167 37.7695V32.6798C12.5182 31.8796 12.3213 31.0914 11.9436 30.386C11.5658 29.6805 11.019 29.0797 10.3521 28.6374C9.6852 28.1951 8.91902 27.9251 8.12217 27.8515C7.32532 27.778 6.52266 27.9032 5.78606 28.2159C4.87449 28.6272 4.10383 29.2972 3.56981 30.1427C3.0358 30.9882 2.76195 31.972 2.78231 32.9719V81.3656C2.78075 82.1658 2.97767 82.954 3.35543 83.6594C3.73319 84.3649 4.27999 84.9657 4.94689 85.408C5.61379 85.8503 6.37997 86.1203 7.17682 86.1939C7.97367 86.2674 8.77633 86.1423 9.51293 85.8295C10.4245 85.4183 11.1952 84.7483 11.7292 83.9027C12.2632 83.0572 12.537 82.0734 12.5167 81.0736V73.0219C12.5167 72.8374 12.5899 72.6606 12.7203 72.5302C12.8507 72.3998 13.0276 72.3265 13.212 72.3265H75.7901C75.9745 72.3265 76.1514 72.3998 76.2818 72.5302C76.4122 72.6606 76.4854 72.8374 76.4854 73.0219V81.3656C76.4804 82.1671 76.675 82.9572 77.0518 83.6647C77.4287 84.3721 77.9757 84.9745 78.6437 85.4175C79.3117 85.8605 80.0795 86.1302 80.8777 86.2021C81.676 86.274 82.4797 86.146 83.2161 85.8295C84.1276 85.4183 84.8983 84.7483 85.4323 83.9027C85.9663 83.0572 86.2402 82.0734 86.2198 81.0736V59.797C86.2145 57.8291 85.5138 55.9263 84.2415 54.425C82.9692 52.9236 81.2071 51.9203 79.2667 51.5923ZM83.4386 81.0736C83.4542 81.5266 83.3394 81.9746 83.1076 82.3641C82.8758 82.7537 82.537 83.0684 82.1314 83.2708C81.7565 83.4363 81.3402 83.4837 80.9377 83.4067C80.5352 83.3297 80.1658 83.1319 79.8786 82.8397C79.4873 82.4489 79.2672 81.9186 79.2667 81.3656V73.0219C79.2685 72.5641 79.1799 72.1106 79.006 71.6872C78.8322 71.2638 78.5764 70.8789 78.2533 70.5546C77.9303 70.2303 77.5465 69.9729 77.1238 69.7973C76.7011 69.6218 76.2478 69.5314 75.7901 69.5314H13.212C12.7543 69.5314 12.3011 69.6218 11.8784 69.7973C11.4556 69.9729 11.0718 70.2303 10.7488 70.5546C10.4258 70.8789 10.17 71.2638 9.99607 71.6872C9.82217 72.1106 9.7336 72.5641 9.73543 73.0219V81.0736C9.75112 81.5266 9.63624 81.9746 9.40448 82.3641C9.17272 82.7537 8.83385 83.0684 8.42825 83.2708C8.05341 83.4363 7.63704 83.4837 7.23457 83.4067C6.83211 83.3297 6.46266 83.1319 6.17543 82.8397C5.78413 82.4489 5.56404 81.9186 5.56356 81.3656V32.9719C5.54787 32.5188 5.66275 32.0709 5.89451 31.6813C6.12627 31.2918 6.46514 30.977 6.87074 30.7747C7.2452 30.6071 7.66207 30.5586 8.06499 30.6357C8.4679 30.7128 8.83742 30.9118 9.12356 31.2058C9.51486 31.5966 9.73495 32.1268 9.73543 32.6798V37.7695C9.7341 38.2497 9.83226 38.725 10.0237 39.1654C10.2152 39.6058 10.4958 40.0017 10.8479 40.3283L23.6417 52.1625V62.5783H79.2667V54.4431C80.4554 54.75 81.5092 55.4416 82.2638 56.41C83.0185 57.3784 83.4315 58.5693 83.4386 59.797V81.0736Z" fill="#48505B"/>
<path d="M29.2031 18.0781C29.2031 21.1036 30.1003 24.0611 31.7811 26.5766C33.462 29.0922 35.851 31.0528 38.6461 32.2106C41.4413 33.3684 44.517 33.6713 47.4843 33.0811C50.4516 32.4908 53.1772 31.034 55.3165 28.8946C57.4558 26.7553 58.9127 24.0297 59.503 21.0624C60.0932 18.0951 59.7903 15.0194 58.6325 12.2243C57.4747 9.42913 55.514 7.04008 52.9985 5.35924C50.4829 3.6784 47.5254 2.78125 44.5 2.78125C40.443 2.78125 36.5522 4.39288 33.6835 7.2616C30.8148 10.1303 29.2031 14.0211 29.2031 18.0781ZM44.5 5.5625C46.9754 5.5625 49.3951 6.29653 51.4533 7.67176C53.5115 9.047 55.1157 11.0017 56.0629 13.2886C57.0102 15.5755 57.2581 18.092 56.7751 20.5198C56.2922 22.9476 55.1002 25.1777 53.3499 26.928C51.5995 28.6783 49.3695 29.8703 46.9417 30.3533C44.5139 30.8362 41.9974 30.5883 39.7105 29.6411C37.4235 28.6938 35.4689 27.0896 34.0936 25.0314C32.7184 22.9732 31.9844 20.5535 31.9844 18.0781C31.9844 14.7588 33.303 11.5754 35.6501 9.22824C37.9973 6.88111 41.1806 5.5625 44.5 5.5625Z" fill="#9A86E3"/>
<path d="M41.7188 26.4219H47.2812V20.8594H52.8438V15.2969H47.2812V9.73438H41.7188V15.2969H36.1562V20.8594H41.7188V26.4219Z" fill="#9A86E3"/>
<path d="M22.25 40.3281C25.3221 40.3281 27.8125 37.8377 27.8125 34.7656C27.8125 31.6935 25.3221 29.2031 22.25 29.2031C19.1779 29.2031 16.6875 31.6935 16.6875 34.7656C16.6875 37.8377 19.1779 40.3281 22.25 40.3281Z" fill="#48505B"/>
</svg>
