<svg width="20" height="20" viewBox="0 0 20 20" fill="none" xmlns="http://www.w3.org/2000/svg">
<circle cx="10" cy="10" r="10" fill="#67CF65"/>
<path d="M11.2159 9.25231C11.2159 10.0359 11.0691 10.7071 10.7756 11.2658C10.4844 11.8221 10.0866 12.2483 9.58239 12.5442C9.08049 12.8401 8.51113 12.9881 7.87429 12.9881C7.23745 12.9881 6.6669 12.8401 6.16264 12.5442C5.66075 12.2459 5.26302 11.8186 4.96946 11.2623C4.67827 10.7035 4.53267 10.0336 4.53267 9.25231C4.53267 8.46869 4.67827 7.79871 4.96946 7.24237C5.26302 6.68365 5.66075 6.25633 6.16264 5.9604C6.6669 5.66448 7.23745 5.51651 7.87429 5.51651C8.51113 5.51651 9.08049 5.66448 9.58239 5.9604C10.0866 6.25633 10.4844 6.68365 10.7756 7.24237C11.0691 7.79871 11.2159 8.46869 11.2159 9.25231ZM9.89134 9.25231C9.89134 8.7007 9.80492 8.2355 9.6321 7.85671C9.46165 7.47556 9.22491 7.18791 8.92188 6.99379C8.61884 6.79729 8.26965 6.69904 7.87429 6.69904C7.47893 6.69904 7.12973 6.79729 6.8267 6.99379C6.52367 7.18791 6.28575 7.47556 6.11293 7.85671C5.94247 8.2355 5.85724 8.7007 5.85724 9.25231C5.85724 9.80392 5.94247 10.2703 6.11293 10.6515C6.28575 11.0302 6.52367 11.3179 6.8267 11.5144C7.12973 11.7085 7.47893 11.8056 7.87429 11.8056C8.26965 11.8056 8.61884 11.7085 8.92188 11.5144C9.22491 11.3179 9.46165 11.0302 9.6321 10.6515C9.80492 10.2703 9.89134 9.80392 9.89134 9.25231ZM11.9022 14.1387V13.432L13.6103 12.0151C13.7524 11.8967 13.8743 11.789 13.9761 11.6919C14.0779 11.5925 14.156 11.4954 14.2105 11.4007C14.2649 11.3037 14.2922 11.1983 14.2922 11.0847C14.2922 10.9 14.2188 10.7556 14.072 10.6515C13.9252 10.5473 13.7453 10.4952 13.5322 10.4952C13.3049 10.4952 13.1215 10.5532 12.9818 10.6692C12.8445 10.7828 12.7758 10.9415 12.7758 11.1451H11.8348C11.8348 10.7047 11.9946 10.3579 12.3142 10.1046C12.6361 9.8489 13.0469 9.72106 13.5464 9.72106C13.885 9.72106 14.1797 9.78143 14.4306 9.90217C14.684 10.0205 14.8805 10.1815 15.0201 10.3851C15.1598 10.5887 15.2297 10.8172 15.2297 11.0705C15.2297 11.2741 15.1882 11.4635 15.1054 11.6387C15.0225 11.8115 14.8935 11.9855 14.7183 12.1607C14.5431 12.3335 14.3194 12.5205 14.0471 12.7218L13.3156 13.3042V13.3361H15.3078V14.1387H11.9022Z" fill="white"/>
</svg>
