<svg width="28" height="28" viewBox="0 0 28 28" fill="none" xmlns="http://www.w3.org/2000/svg">
<path d="M10.5 2.625H5.25C4.55381 2.625 3.88613 2.90156 3.39384 3.39384C2.90156 3.88613 2.625 4.55381 2.625 5.25V10.5C2.625 11.1962 2.90156 11.8639 3.39384 12.3562C3.88613 12.8484 4.55381 13.125 5.25 13.125H10.5C11.1962 13.125 11.8639 12.8484 12.3562 12.3562C12.8484 11.8639 13.125 11.1962 13.125 10.5V5.25C13.125 4.55381 12.8484 3.88613 12.3562 3.39384C11.8639 2.90156 11.1962 2.625 10.5 2.625ZM11.375 10.5C11.375 10.7321 11.2828 10.9546 11.1187 11.1187C10.9546 11.2828 10.7321 11.375 10.5 11.375H5.25C5.01794 11.375 4.79538 11.2828 4.63128 11.1187C4.46719 10.9546 4.375 10.7321 4.375 10.5V5.25C4.375 5.01794 4.46719 4.79538 4.63128 4.63128C4.79538 4.46719 5.01794 4.375 5.25 4.375H10.5C10.7321 4.375 10.9546 4.46719 11.1187 4.63128C11.2828 4.79538 11.375 5.01794 11.375 5.25V10.5Z" fill="#DBDBDB"/>
<path d="M22.75 2.625H17.5C16.8038 2.625 16.1361 2.90156 15.6438 3.39384C15.1516 3.88613 14.875 4.55381 14.875 5.25V10.5C14.875 11.1962 15.1516 11.8639 15.6438 12.3562C16.1361 12.8484 16.8038 13.125 17.5 13.125H22.75C23.4462 13.125 24.1139 12.8484 24.6062 12.3562C25.0984 11.8639 25.375 11.1962 25.375 10.5V5.25C25.375 4.55381 25.0984 3.88613 24.6062 3.39384C24.1139 2.90156 23.4462 2.625 22.75 2.625ZM23.625 10.5C23.625 10.7321 23.5328 10.9546 23.3687 11.1187C23.2046 11.2828 22.9821 11.375 22.75 11.375H17.5C17.2679 11.375 17.0454 11.2828 16.8813 11.1187C16.7172 10.9546 16.625 10.7321 16.625 10.5V5.25C16.625 5.01794 16.7172 4.79538 16.8813 4.63128C17.0454 4.46719 17.2679 4.375 17.5 4.375H22.75C22.9821 4.375 23.2046 4.46719 23.3687 4.63128C23.5328 4.79538 23.625 5.01794 23.625 5.25V10.5Z" fill="#DBDBDB"/>
<path d="M10.5 14.875H5.25C4.55381 14.875 3.88613 15.1516 3.39384 15.6438C2.90156 16.1361 2.625 16.8038 2.625 17.5V22.75C2.625 23.4462 2.90156 24.1139 3.39384 24.6062C3.88613 25.0984 4.55381 25.375 5.25 25.375H10.5C11.1962 25.375 11.8639 25.0984 12.3562 24.6062C12.8484 24.1139 13.125 23.4462 13.125 22.75V17.5C13.125 16.8038 12.8484 16.1361 12.3562 15.6438C11.8639 15.1516 11.1962 14.875 10.5 14.875ZM11.375 22.75C11.375 22.9821 11.2828 23.2046 11.1187 23.3687C10.9546 23.5328 10.7321 23.625 10.5 23.625H5.25C5.01794 23.625 4.79538 23.5328 4.63128 23.3687C4.46719 23.2046 4.375 22.9821 4.375 22.75V17.5C4.375 17.2679 4.46719 17.0454 4.63128 16.8813C4.79538 16.7172 5.01794 16.625 5.25 16.625H10.5C10.7321 16.625 10.9546 16.7172 11.1187 16.8813C11.2828 17.0454 11.375 17.2679 11.375 17.5V22.75Z" fill="#DBDBDB"/>
<path d="M24.5 19.25H21V15.75C21 15.5179 20.9078 15.2954 20.7437 15.1313C20.5796 14.9672 20.3571 14.875 20.125 14.875C19.8929 14.875 19.6704 14.9672 19.5063 15.1313C19.3422 15.2954 19.25 15.5179 19.25 15.75V19.25H15.75C15.5179 19.25 15.2954 19.3422 15.1313 19.5063C14.9672 19.6704 14.875 19.8929 14.875 20.125C14.875 20.3571 14.9672 20.5796 15.1313 20.7437C15.2954 20.9078 15.5179 21 15.75 21H19.25V24.5C19.25 24.7321 19.3422 24.9546 19.5063 25.1187C19.6704 25.2828 19.8929 25.375 20.125 25.375C20.3571 25.375 20.5796 25.2828 20.7437 25.1187C20.9078 24.9546 21 24.7321 21 24.5V21H24.5C24.7321 21 24.9546 20.9078 25.1187 20.7437C25.2828 20.5796 25.375 20.3571 25.375 20.125C25.375 19.8929 25.2828 19.6704 25.1187 19.5063C24.9546 19.3422 24.7321 19.25 24.5 19.25Z" fill="#DBDBDB"/>
</svg>
