<svg width="18" height="18" viewBox="0 0 18 18" fill="none" xmlns="http://www.w3.org/2000/svg">
<g clip-path="url(#clip0_1_418)">
<path d="M13.5 7.5H4.49999C3.46573 7.5 2.625 8.3415 2.625 9.37499V16.125C2.625 17.1585 3.46573 18 4.49999 18H13.5C14.5343 18 15.375 17.1585 15.375 16.125V9.37502C15.375 8.3415 14.5343 7.5 13.5 7.5ZM14.625 16.125C14.625 16.7453 14.1203 17.25 13.5 17.25H4.49999C3.87973 17.25 3.37499 16.7453 3.37499 16.125V9.37502C3.37499 8.75476 3.87973 8.25002 4.49999 8.25002H13.5C14.1203 8.25002 14.625 8.75476 14.625 9.37502V16.125Z" fill="#5A2D7E"/>
<path d="M9.00001 0C6.312 0 4.125 2.187 4.125 4.87501V7.875C4.125 8.082 4.29301 8.25001 4.50001 8.25001H13.5C13.707 8.25001 13.875 8.082 13.875 7.875V4.87501C13.875 2.187 11.688 0 9.00001 0ZM13.125 7.49999H4.87502V4.87498C4.87502 2.60023 6.72603 0.749988 9.00001 0.749988C11.274 0.749988 13.125 2.60023 13.125 4.87498V7.49999Z" fill="#5A2D7E"/>
<path d="M9.00001 12.75C8.79301 12.75 8.625 12.918 8.625 13.125V15.375C8.625 15.582 8.79301 15.75 9.00001 15.75C9.20701 15.75 9.37502 15.582 9.37502 15.375V13.125C9.37502 12.918 9.20701 12.75 9.00001 12.75Z" fill="#5A2D7E"/>
<path d="M8.99999 9.75C7.96573 9.75 7.125 10.5915 7.125 11.625C7.125 12.6585 7.96573 13.5 8.99999 13.5C10.0342 13.5 10.875 12.6585 10.875 11.625C10.875 10.5915 10.0342 9.75 8.99999 9.75ZM8.99999 12.75C8.37973 12.75 7.87499 12.2453 7.87499 11.625C7.87499 11.0048 8.37973 10.5 8.99999 10.5C9.62025 10.5 10.125 11.0048 10.125 11.625C10.125 12.2452 9.62025 12.75 8.99999 12.75Z" fill="#5A2D7E"/>
</g>
<defs>
<clipPath id="clip0_1_418">
<rect width="18" height="18" fill="white"/>
</clipPath>
</defs>
</svg>
