<svg width="31" height="31" viewBox="0 0 31 31" fill="none" xmlns="http://www.w3.org/2000/svg">
<path d="M15.4986 7.30379C17.3855 7.30379 18.9152 5.77414 18.9152 3.88722C18.9152 2.0003 17.3855 0.470642 15.4986 0.470642C13.6117 0.470642 12.082 2.0003 12.082 3.88722C12.082 5.77414 13.6117 7.30379 15.4986 7.30379Z" fill="#66747F"/>
<path d="M7.85821 12.0308C8.80141 12.0308 9.56603 11.2662 9.56603 10.323C9.56603 9.37979 8.80141 8.61517 7.85821 8.61517C6.91501 8.61517 6.15039 9.37979 6.15039 10.323C6.15039 11.2662 6.91501 12.0308 7.85821 12.0308Z" fill="#9A86E3"/>
<path d="M19.5945 17.8992C20.5377 17.8992 21.3024 17.1346 21.3024 16.1914C21.3024 15.2482 20.5377 14.4836 19.5945 14.4836C18.6513 14.4836 17.8867 15.2482 17.8867 16.1914C17.8867 17.1346 18.6513 17.8992 19.5945 17.8992Z" fill="#9A86E3"/>
<path d="M5.51054 10.323C5.51054 9.84673 5.65521 9.40616 5.89757 9.03791L3.94176 9.25867C3.11603 9.35261 2.52327 10.0966 2.61721 10.9223C2.71115 11.7462 3.45421 12.3389 4.27994 12.2459L6.24891 12.0233C5.79612 11.5959 5.51054 10.9937 5.51054 10.323Z" fill="#66747F"/>
<path d="M27.0554 9.25867L18.9222 8.339C17.6709 8.19152 16.9494 8.78991 15.4981 8.78991C14.0448 8.78991 13.3253 8.19058 12.074 8.339L9.47656 8.63303C9.92277 9.05952 10.2008 9.65791 10.2008 10.323C10.2008 10.803 10.0562 11.2492 9.80629 11.6212L10.8819 11.5001L11.2539 17.5159C11.2539 17.747 11.3037 19.7912 11.3037 20.026V21.8757C11.5958 21.747 11.9143 21.6718 12.2544 21.6718C13.5498 21.6718 14.5991 22.7211 14.5991 24.0165C14.5991 25.312 13.5498 26.3632 12.2544 26.3632C11.9152 26.3632 11.5958 26.288 11.3037 26.1593V28.7389C11.3037 29.7281 12.1059 30.5294 13.0942 30.5294C14.0824 30.5294 14.8847 29.7271 14.8847 28.7389V21.002H15.499H16.1115V28.7389C16.1115 29.7281 16.9137 30.5294 17.902 30.5294C18.8902 30.5294 19.6906 29.7271 19.6906 28.7389V20.026C19.6906 19.8917 19.7075 19.1655 19.7216 18.523C19.6774 18.5267 19.637 18.5361 19.5929 18.5361C18.2975 18.5361 17.2482 17.4849 17.2482 16.1914C17.2482 14.8941 18.2975 13.8448 19.5929 13.8448C19.7216 13.8448 19.8447 13.8636 19.9668 13.8814L20.1133 11.5001L26.7163 12.2459C27.542 12.3389 28.2851 11.7462 28.379 10.9223C28.4739 10.0966 27.8793 9.35261 27.0554 9.25867Z" fill="#66747F"/>
<path d="M12.2547 25.7244C13.1979 25.7244 13.9625 24.9598 13.9625 24.0165C13.9625 23.0733 13.1979 22.3087 12.2547 22.3087C11.3115 22.3087 10.5469 23.0733 10.5469 24.0165C10.5469 24.9598 11.3115 25.7244 12.2547 25.7244Z" fill="#9A86E3"/>
<path d="M7.68842 7.5781C8.57051 6.69788 9.59069 5.95952 10.7264 5.41185C10.5724 4.92713 10.4662 4.42173 10.4662 3.88628C10.4662 3.72564 10.4991 3.57158 10.5141 3.41376C8.26427 4.36161 6.34133 5.9257 4.94727 7.89279L7.68842 7.5781Z" fill="#9A86E3"/>
<path d="M23.3094 7.5781L26.0506 7.89279C24.6565 5.92476 22.7336 4.36067 20.4837 3.41376C20.4987 3.57158 20.5316 3.72564 20.5316 3.88628C20.5316 4.42173 20.4255 4.92713 20.2695 5.41185C21.4053 5.96046 22.4273 6.69882 23.3094 7.5781Z" fill="#9A86E3"/>
<path d="M9.86107 24.8132C6.62862 22.8846 4.4464 19.3731 4.4464 15.3441C4.4464 14.7034 4.52156 14.0834 4.63146 13.4728L2.67753 13.6964C2.60237 14.2375 2.54883 14.7823 2.54883 15.3441C2.54883 20.4628 5.53986 24.8808 9.86013 26.9822V24.8132H9.86107Z" fill="#9A86E3"/>
<path d="M28.3203 13.6964L26.3663 13.4728C26.4744 14.0834 26.5495 14.7043 26.5495 15.3441C26.5495 19.375 24.3701 22.8921 21.1367 24.8207V26.9822C25.4561 24.8817 28.448 20.4638 28.448 15.3441C28.449 14.7823 28.3935 14.2375 28.3203 13.6964Z" fill="#9A86E3"/>
</svg>
