<svg width="77" height="77" viewBox="0 0 77 77" fill="none" xmlns="http://www.w3.org/2000/svg">
<path d="M76.2252 73.9367H30.999C30.5712 73.9367 30.2244 73.5899 30.2244 73.162V3.83796C30.2244 3.41009 30.5712 3.06329 30.999 3.06329H76.2252C76.6531 3.06329 76.9999 3.41009 76.9999 3.83796V73.162C76.9999 73.5899 76.6531 73.9367 76.2252 73.9367Z" fill="#DDEBFD"/>
<path d="M76.2248 3.06329H71.4219C71.8497 3.06329 72.1965 3.41009 72.1965 3.83796V73.162C72.1965 73.5899 71.8497 73.9367 71.4219 73.9367H76.2248C76.6526 73.9367 76.9994 73.5899 76.9994 73.162V3.83796C76.9994 3.41009 76.6526 3.06329 76.2248 3.06329Z" fill="#BED9FD"/>
<path d="M55.6601 34.0004H38.5682C37.9265 34.0004 37.4062 33.4802 37.4062 32.8385C37.4062 32.1968 37.9265 31.6766 38.5682 31.6766H55.6601C56.3018 31.6766 56.822 32.1968 56.822 32.8385C56.822 33.4802 56.3018 34.0004 55.6601 34.0004Z" fill="#6CBFF8"/>
<path d="M68.6582 34.0004H63.8436C63.2018 34.0004 62.6816 33.4802 62.6816 32.8385C62.6816 32.1968 63.2018 31.6766 63.8436 31.6766H68.6582C69.2999 31.6766 69.8201 32.1968 69.8201 32.8385C69.8201 33.4802 69.2999 34.0004 68.6582 34.0004Z" fill="#6CBFF8"/>
<path d="M55.6593 45.2518H40.2437C39.602 45.2518 39.0818 44.7316 39.0818 44.0898C39.0818 43.4481 39.602 42.9279 40.2437 42.9279H55.6593C56.3011 42.9279 56.8213 43.4481 56.8213 44.0898C56.8213 44.7316 56.3011 45.2518 55.6593 45.2518Z" fill="#6CBFF8"/>
<path d="M55.6593 56.5027H40.2437C39.602 56.5027 39.0818 55.9825 39.0818 55.3408C39.0818 54.6991 39.602 54.1789 40.2437 54.1789H55.6593C56.3011 54.1789 56.8213 54.6991 56.8213 55.3408C56.8213 55.9825 56.3011 56.5027 55.6593 56.5027Z" fill="#6CBFF8"/>
<path d="M61.27 14.6573H56.7159C56.542 14.6573 56.4011 14.5164 56.4011 14.3426V9.78845C56.4011 9.52767 56.1896 9.31622 55.9289 9.31622H51.2938C51.033 9.31622 50.8216 9.52767 50.8216 9.78845V14.3426C50.8216 14.5164 50.6807 14.6573 50.5068 14.6573H45.9527C45.6919 14.6573 45.4805 14.8688 45.4805 15.1296V19.7646C45.4805 20.0254 45.6919 20.2368 45.9527 20.2368H50.5068C50.6807 20.2368 50.8216 20.3778 50.8216 20.5516V25.1057C50.8216 25.3665 51.033 25.578 51.2938 25.578H55.9289C56.1896 25.578 56.4011 25.3665 56.4011 25.1057V20.5516C56.4011 20.3778 56.542 20.2368 56.7159 20.2368H61.27C61.5308 20.2368 61.7422 20.0254 61.7422 19.7646V15.1296C61.7422 14.8688 61.5308 14.6573 61.27 14.6573Z" fill="#DF646E"/>
<path d="M0 39.6938V66.0227C0 67.0059 0.79707 67.803 1.78032 67.803H39.4127C40.396 67.803 41.193 67.0059 41.193 66.0227V39.6938C41.193 38.7105 40.396 37.9135 39.4127 37.9135H1.78032C0.79707 37.9135 0 38.7105 0 39.6938Z" fill="#5392F9"/>
<path d="M39.4122 37.9134H34.6094C35.5926 37.9134 36.3897 38.7105 36.3897 39.6937V66.0226C36.3897 67.0057 35.5926 67.8028 34.6094 67.8028H39.4122C40.3955 67.8028 41.1926 67.0057 41.1926 66.0224V39.6936C41.1926 38.7105 40.3955 37.9134 39.4122 37.9134Z" fill="#4071F7"/>
<path d="M5.77148 44.1889V49.9066C5.77148 50.1853 5.99737 50.4112 6.27604 50.4112H11.9937C12.2724 50.4112 12.4983 50.1853 12.4983 49.9066V44.1889C12.4983 43.9103 12.2724 43.6844 11.9937 43.6844H6.27604C5.99737 43.6844 5.77148 43.9103 5.77148 44.1889Z" fill="#DDEBFD"/>
<path d="M11.7744 30.0837C18.2772 30.0837 23.5488 24.8121 23.5488 18.3093C23.5488 11.8065 18.2772 6.53491 11.7744 6.53491C5.27157 6.53491 0 11.8065 0 18.3093C0 24.8121 5.27157 30.0837 11.7744 30.0837Z" fill="#FFA95F"/>
<path d="M11.963 6.53979C16.3672 8.24357 19.492 12.5166 19.492 17.5221C19.492 24.0248 14.2205 29.2965 7.71759 29.2965C7.65442 29.2965 7.59231 29.2927 7.5293 29.2916C8.84672 29.8013 10.2772 30.0837 11.7747 30.0837C18.2774 30.0837 23.5491 24.8123 23.5491 18.3094C23.5492 11.8698 18.3786 6.64086 11.963 6.53979Z" fill="#FF8B5A"/>
<path d="M68.6582 45.2514H63.8436C63.2018 45.2514 62.6816 44.7312 62.6816 44.0895C62.6816 43.4478 63.2018 42.9276 63.8436 42.9276H68.6582C69.2999 42.9276 69.8201 43.4478 69.8201 44.0895C69.8202 44.7312 69.2999 45.2514 68.6582 45.2514Z" fill="#6CBFF8"/>
<path d="M68.6582 56.5029H63.8436C63.2018 56.5029 62.6816 55.9826 62.6816 55.3409C62.6816 54.6992 63.2018 54.179 63.8436 54.179H68.6582C69.2999 54.179 69.8201 54.6992 69.8201 55.3409C69.8202 55.9826 69.2999 56.5029 68.6582 56.5029Z" fill="#6CBFF8"/>
<path d="M9.58587 61.6239H7.65411C7.01239 61.6239 6.49219 61.1037 6.49219 60.462C6.49219 59.8203 7.01239 59.3001 7.65411 59.3001H9.58587C10.2276 59.3001 10.7478 59.8203 10.7478 60.462C10.7479 61.1036 10.2277 61.6239 9.58587 61.6239Z" fill="#6CBFF8"/>
<path d="M17.5702 61.6239H15.6385C14.9968 61.6239 14.4766 61.1037 14.4766 60.462C14.4766 59.8203 14.9968 59.3001 15.6385 59.3001H17.5702C18.212 59.3001 18.7322 59.8203 18.7322 60.462C18.7323 61.1036 18.2121 61.6239 17.5702 61.6239Z" fill="#6CBFF8"/>
<path d="M25.5566 61.6239H23.6248C22.9831 61.6239 22.4629 61.1037 22.4629 60.462C22.4629 59.8203 22.9831 59.3001 23.6248 59.3001H25.5566C26.1983 59.3001 26.7185 59.8203 26.7185 60.462C26.7185 61.1036 26.1983 61.6239 25.5566 61.6239Z" fill="#6CBFF8"/>
<path d="M33.5411 61.6239H31.6092C30.9675 61.6239 30.4473 61.1037 30.4473 60.462C30.4473 59.8203 30.9675 59.3001 31.6092 59.3001H33.5411C34.1828 59.3001 34.703 59.8203 34.703 60.462C34.703 61.1036 34.1828 61.6239 33.5411 61.6239Z" fill="#6CBFF8"/>
<path d="M34.2129 48.2099H26.3377C25.696 48.2099 25.1758 47.6897 25.1758 47.048C25.1758 46.4063 25.696 45.886 26.3377 45.886H34.2129C34.8546 45.886 35.3748 46.4063 35.3748 47.048C35.3748 47.6897 34.8548 48.2099 34.2129 48.2099Z" fill="#FFA95F"/>
<path d="M16.0282 20.6289C16.0282 18.7092 14.4664 17.1474 12.5465 17.1474H11.0012C10.3628 17.1474 9.84352 16.6281 9.84352 15.9897C9.84352 15.3513 10.3628 14.832 11.0012 14.832H13.6558C14.2975 14.832 14.8177 14.3118 14.8177 13.67C14.8177 13.0283 14.2975 12.5081 13.6558 12.5081H12.9358V11.7091C12.9358 11.0674 12.4156 10.5472 11.7739 10.5472C11.1322 10.5472 10.612 11.0674 10.612 11.7091V12.5304C8.8747 12.7244 7.51953 14.2014 7.51953 15.9895C7.51953 17.9094 9.08134 19.4712 11.0012 19.4712H12.5466C13.185 19.4712 13.7043 19.9905 13.7043 20.6289C13.7043 21.2673 13.185 21.7866 12.5466 21.7866H8.6816C8.03988 21.7866 7.51968 22.3068 7.51968 22.9485C7.51968 23.5903 8.03988 24.1105 8.6816 24.1105H10.612V24.9095C10.612 25.5512 11.1322 26.0714 11.7739 26.0714C12.4156 26.0714 12.9358 25.5512 12.9358 24.9095V24.0882C14.673 23.894 16.0282 22.4171 16.0282 20.6289Z" fill="#407194"/>
<path d="M68.4792 68.1191H58.7335C57.6655 68.1191 56.7969 67.2503 56.7969 66.1826V64.1344C56.7969 63.4927 57.3171 62.9725 57.9588 62.9725C58.6005 62.9725 59.1207 63.4927 59.1207 64.1344V65.7953H68.0918V64.1344C68.0918 63.4927 68.612 62.9725 69.2537 62.9725C69.8954 62.9725 70.4156 63.4927 70.4156 64.1344V66.1826C70.4158 67.2505 69.5471 68.1191 68.4792 68.1191Z" fill="#5392F9"/>
</svg>
