<svg width="20" height="20" viewBox="0 0 20 20" fill="none" xmlns="http://www.w3.org/2000/svg">
<g clip-path="url(#clip0_1_137)">
<path d="M17.0993 15.9943L17.9281 17.9281L15.8562 20L15.0274 19.1712L17.0993 15.9943Z" fill="#ECE6F2"/>
<path d="M19.1712 15.0273L20 15.8561L17.9281 17.928L16.5468 16.5468L19.1712 15.0273Z" fill="#FFF5F5"/>
<path d="M15.0274 19.1712L12.8833 17.0271L15.5077 14.4026L17.0994 17.0993L15.0274 19.1712Z" fill="#CFCFE6"/>
<path d="M19.1727 15.0261L17.0289 12.8823L14.9573 14.9539L17.1011 17.0977L19.1727 15.0261Z" fill="#ECE6F2"/>
<path d="M7.43797 7.43803L9.98564 0.876221C10.4896 1.16404 10.964 1.52234 11.3937 1.95201L15.7001 6.25851C16.1298 6.68818 16.4881 7.16255 16.7759 7.6665L10.2141 10.2142L7.43797 7.43803Z" fill="#9999FF"/>
<path d="M7.99047 6.8855L0.876149 9.98567C1.16397 10.4897 1.52227 10.964 1.95194 11.3937L6.25844 15.7001C6.68811 16.1298 7.16248 16.4881 7.66643 16.7759L10.7666 9.6616L7.99047 6.8855Z" fill="#8066FF"/>
<path d="M7.66644 16.7759C10.2155 18.2318 13.5267 17.8735 15.7001 15.7001L14.0181 12.9131L9.66159 9.66162L7.66644 16.7759Z" fill="#ECE6F2"/>
<path d="M16.7759 7.6665C18.2318 10.2156 17.8735 13.5268 15.7001 15.7001L9.66157 9.66162L16.7759 7.6665Z" fill="#FFF5F5"/>
<path d="M1.95196 1.95203C-0.221431 4.12541 -0.57969 7.43659 0.876163 9.98566L7.99048 7.99051L5.18598 4.08095L1.95196 1.95203Z" fill="#ECE6F2"/>
<path d="M1.95196 1.95199C4.12534 -0.221401 7.43653 -0.57966 9.9856 0.876192L7.99044 7.99051L1.95196 1.95199Z" fill="#FFF5F5"/>
<path d="M13.4678 14.2936L12.6391 13.4649L11.8105 14.2936L12.6391 15.1222L13.4678 14.2936Z" fill="#8066FF"/>
<path d="M15.125 12.6361L14.2964 11.8075L13.4677 12.6361L14.2964 13.4648L15.125 12.6361Z" fill="#9999FF"/>
<path d="M3.8522 8.90918C3.85196 8.83174 3.86443 6.99485 5.42959 5.42969L9.37853 8.27361L12.2224 12.2225C10.6675 13.7774 8.84439 13.7999 8.74472 13.7999H8.74296L8.50128 13.7992L3.85298 9.15085L3.8522 8.90918Z" fill="#6B2EE6"/>
<path d="M8.90732 3.85229C8.90798 3.85229 8.90857 3.85229 8.90908 3.85229L9.15079 3.85304L13.7991 8.50134L13.7998 8.74306C13.8 8.82049 13.7876 10.6573 12.2224 12.2225L5.42963 5.42973C6.98456 3.87476 8.80766 3.85229 8.90732 3.85229Z" fill="#8066FF"/>
<path d="M6.25842 6.25842L9.37856 8.2735L11.3937 11.3936C10.4595 12.3278 9.42009 12.5549 8.96982 12.6101L5.04183 8.68208C5.09668 8.23412 5.32328 7.19357 6.25842 6.25842Z" fill="#2EE6A8"/>
<path d="M8.68236 5.04199L12.6104 8.96999C12.5555 9.41795 12.3289 10.4585 11.3938 11.3937L6.2585 6.25843C7.19275 5.32418 8.23213 5.09716 8.68236 5.04199Z" fill="#AAFF99"/>
<path d="M6.59149 8.57429L7.58286 7.58289L8.26672 7.71423L8.41162 8.41165L7.42026 9.40301L6.59149 8.57429Z" fill="#284866"/>
<path d="M9.07785 11.0606L8.24909 10.2319L9.24049 9.24048L9.9379 9.38538L10.0692 10.0692L9.07785 11.0606Z" fill="#284866"/>
<path d="M9.40491 7.42078L8.57626 6.59213L7.58504 7.58336L8.41368 8.412L9.40491 7.42078Z" fill="#406A80"/>
<path d="M11.0625 9.078L10.2339 8.24936L9.24263 9.24058L10.0713 10.0692L11.0625 9.078Z" fill="#406A80"/>
</g>
<defs>
<clipPath id="clip0_1_137">
<rect width="20" height="20" fill="white" transform="matrix(-1 0 0 1 20 0)"/>
</clipPath>
</defs>
</svg>
