<svg width="14" height="15" viewBox="0 0 14 15" fill="none" xmlns="http://www.w3.org/2000/svg">
<path d="M10.08 4.03999C10.08 2.34159 8.69844 0.959991 7.00004 0.959991C5.30164 0.959991 3.92004 2.34159 3.92004 4.03999C3.92004 5.73839 5.30164 7.11999 7.00004 7.11999C8.69844 7.11999 10.08 5.73839 10.08 4.03999ZM4.80004 4.03999C4.80004 2.82779 5.78784 1.83999 7.00004 1.83999C8.21224 1.83999 9.20004 2.82779 9.20004 4.03999C9.20004 5.25219 8.21224 6.23999 7.00004 6.23999C5.78784 6.23999 4.80004 5.25219 4.80004 4.03999Z" fill="#5A2D7E"/>
<path d="M0.840027 12.9808V14.38C0.840027 14.622 1.03803 14.82 1.28003 14.82H12.72C12.962 14.82 13.16 14.622 13.16 14.38V12.9808C13.16 10.3562 11.0238 8.22 8.39923 8.22H5.60083C2.97623 8.22 0.840027 10.3562 0.840027 12.9808ZM5.60083 9.1H8.39923C10.5398 9.1 12.28 10.8402 12.28 12.9808V13.94H1.72003V12.9808C1.72003 10.8402 3.46023 9.1 5.60083 9.1Z" fill="#5A2D7E"/>
</svg>
