<svg width="78" height="78" viewBox="0 0 78 78" fill="none" xmlns="http://www.w3.org/2000/svg">
<path d="M39.373 77.9998C38.9998 77.9998 38.751 77.751 38.751 77.3778V6.46869C38.751 6.09548 38.9998 5.84668 39.373 5.84668C39.7462 5.84668 39.995 6.09548 39.995 6.46869V77.3778C39.995 77.751 39.6218 77.9998 39.373 77.9998Z" fill="#604B9A"/>
<path d="M39.3731 6.4689C41.1595 6.4689 42.6076 5.02079 42.6076 3.23445C42.6076 1.44811 41.1595 0 39.3731 0C37.5868 0 36.1387 1.44811 36.1387 3.23445C36.1387 5.02079 37.5868 6.4689 39.3731 6.4689Z" fill="#DA8BC1"/>
<path d="M39.373 0C41.1147 0 42.6075 1.49282 42.6075 3.23445C42.6075 4.97608 41.1147 6.4689 39.373 6.4689" fill="#DA8BC1"/>
<path d="M38.9123 0.609333C38.7515 0.38648 38.2146 0.499164 37.7132 0.861021C37.2118 1.22288 36.9357 1.69688 37.0965 1.91973C37.2573 2.14258 37.7942 2.0299 38.2956 1.66804C38.797 1.30619 39.0731 0.832185 38.9123 0.609333Z" fill="#ECC3DF"/>
<path d="M37.1338 2.48806C37.1338 2.61246 37.0094 2.73687 36.885 2.73687C36.7606 2.73687 36.6362 2.61246 36.6362 2.48806C36.6362 2.36366 36.7606 2.23926 36.885 2.23926C37.0094 2.23926 37.1338 2.36366 37.1338 2.48806Z" fill="#ECC3DF"/>
<path d="M39.1246 28.2395C38.8758 28.2395 38.627 28.1151 38.627 27.8663L31.5361 14.4308C31.4117 14.182 31.5361 13.8088 31.7849 13.56C32.0337 13.4356 32.4069 13.56 32.6557 13.8088L39.7466 27.2442C39.871 27.493 39.7466 27.8663 39.4978 28.1151C39.3734 28.2395 39.249 28.2395 39.1246 28.2395Z" fill="#604B9A"/>
<path d="M30.9139 14.4304C32.2193 14.4304 33.2776 13.3722 33.2776 12.0668C33.2776 10.7614 32.2193 9.70312 30.9139 9.70312C29.6085 9.70312 28.5503 10.7614 28.5503 12.0668C28.5503 13.3722 29.6085 14.4304 30.9139 14.4304Z" fill="#DA8BC1"/>
<path d="M29.7944 9.95212C30.9141 9.33011 32.4069 9.82772 33.0289 10.9473C33.6509 12.067 33.1533 13.5598 32.0337 14.1818" fill="#DA8BC1"/>
<path d="M29.7561 10.3899C29.5714 10.2984 29.2486 10.5736 29.0351 11.0045C28.8216 11.4355 28.7983 11.8591 28.983 11.9505C29.1677 12.042 29.4904 11.7668 29.7039 11.3359C29.9174 10.9049 29.9408 10.4814 29.7561 10.3899Z" fill="#ECC3DF"/>
<path d="M29.0477 12.5647C29.1164 12.5647 29.1721 12.509 29.1721 12.4403C29.1721 12.3716 29.1164 12.3159 29.0477 12.3159C28.979 12.3159 28.9233 12.3716 28.9233 12.4403C28.9233 12.509 28.979 12.5647 29.0477 12.5647Z" fill="#ECC3DF"/>
<path d="M38.627 28.3636C38.5026 28.3636 38.3782 28.3636 38.2538 28.2392L15.115 11.5693C14.8662 11.3205 14.7418 10.9473 14.9906 10.6985C15.2394 10.4497 15.6126 10.3253 15.8614 10.5741L39.0002 27.244C39.249 27.4928 39.3734 27.866 39.1246 28.1148C39.0002 28.2392 38.8758 28.3636 38.627 28.3636Z" fill="#604B9A"/>
<path d="M12.8757 12.4403C14.5933 12.4403 15.9857 11.0479 15.9857 9.33026C15.9857 7.61263 14.5933 6.22021 12.8757 6.22021C11.158 6.22021 9.76562 7.61263 9.76562 9.33026C9.76562 11.0479 11.158 12.4403 12.8757 12.4403Z" fill="#DA8BC1"/>
<path d="M10.3877 7.58847C11.3829 6.22005 13.2489 5.84684 14.6174 6.84206C15.9858 7.83728 16.359 9.7033 15.3638 11.0717" fill="#DA8BC1"/>
<path d="M10.6363 8.21045C10.8851 8.21045 11.1339 8.70806 11.1339 9.33007C11.1339 9.95208 10.8851 10.4497 10.6363 10.4497C10.3875 10.4497 10.1387 9.95208 10.1387 9.33007C10.1387 8.70806 10.2631 8.21045 10.6363 8.21045Z" fill="#ECC3DF"/>
<path d="M11.1339 10.6983C11.2584 10.8227 11.2584 10.9471 11.2584 11.0715C11.1339 11.0715 11.0095 11.1959 10.8851 11.0715C10.7607 10.9471 10.7607 10.8227 10.7607 10.6983C10.8851 10.5739 11.0095 10.5739 11.1339 10.6983Z" fill="#ECC3DF"/>
<path d="M22.2056 38.0671C21.9568 38.0671 21.8324 37.9427 21.708 37.6939C21.5836 37.4451 21.708 37.0719 21.9568 36.8231L39.1243 27.2441C39.3731 27.1197 39.7463 27.2441 39.9951 27.4929C40.1195 27.7417 39.9951 28.1149 39.7463 28.3637L22.5788 37.9427C22.4544 38.0671 22.33 38.0671 22.2056 38.0671Z" fill="#604B9A"/>
<path d="M19.4689 42.0477C21.1866 42.0477 22.579 40.6553 22.579 38.9377C22.579 37.2201 21.1866 35.8276 19.4689 35.8276C17.7513 35.8276 16.3589 37.2201 16.3589 38.9377C16.3589 40.6553 17.7513 42.0477 19.4689 42.0477Z" fill="#DA8BC1"/>
<path d="M16.8565 40.4304C15.9857 38.9376 16.6077 37.0716 18.1005 36.2008C19.5934 35.3299 21.4594 35.952 22.3302 37.4448" fill="#DA8BC1"/>
<path d="M17.4784 40.5553C17.6028 40.3065 18.1004 40.3065 18.7224 40.5553C19.3445 40.8041 19.7177 41.1773 19.5933 41.4261C19.4689 41.6749 18.9712 41.6749 18.3492 41.4261C17.7272 41.1773 17.354 40.8041 17.4784 40.5553Z" fill="#ECC3DF"/>
<path d="M20.0911 41.5503C20.2285 41.5503 20.3399 41.4389 20.3399 41.3015C20.3399 41.1641 20.2285 41.0527 20.0911 41.0527C19.9537 41.0527 19.8423 41.1641 19.8423 41.3015C19.8423 41.4389 19.9537 41.5503 20.0911 41.5503Z" fill="#ECC3DF"/>
<path d="M38.6268 28.8613C38.5024 28.8613 38.5024 28.8613 38.6268 28.8613L26.0622 27.6173C25.689 27.6173 25.4402 27.2441 25.5646 26.9953C25.5646 26.6221 25.9378 26.3733 26.1866 26.4977L38.6268 27.7417C39 27.7417 39.2488 28.1149 39.1244 28.3637C39.1244 28.6125 38.8756 28.8613 38.6268 28.8613Z" fill="#604B9A"/>
<path d="M24.196 28.8612C25.2953 28.8612 26.1864 27.9701 26.1864 26.8708C26.1864 25.7715 25.2953 24.8804 24.196 24.8804C23.0967 24.8804 22.2056 25.7715 22.2056 26.8708C22.2056 27.9701 23.0967 28.8612 24.196 28.8612Z" fill="#DA8BC1"/>
<path d="M22.2056 26.6218C22.33 25.5022 23.3252 24.7558 24.3204 24.8802C25.44 25.0046 26.1864 25.9998 26.062 26.995" fill="#DA8BC1"/>
<path d="M22.579 26.8707C22.7034 26.7463 22.9522 26.9951 23.201 27.3683C23.4498 27.7416 23.4498 28.1148 23.3254 28.1148C23.201 28.2392 22.9522 27.9904 22.7034 27.6172C22.4546 27.2439 22.3302 26.9951 22.579 26.8707Z" fill="#ECC3DF"/>
<path d="M23.5741 28.1147C23.6985 28.1147 23.6985 28.2391 23.6985 28.2391C23.6985 28.3636 23.5741 28.3635 23.5741 28.3635C23.4497 28.3635 23.4497 28.2391 23.4497 28.2391C23.4497 28.1147 23.5741 28.1147 23.5741 28.1147Z" fill="#ECC3DF"/>
<path d="M34.024 39.9328C33.8996 39.9328 33.8996 39.9328 33.7752 39.9328C33.402 39.8084 33.2776 39.4352 33.5264 39.062L38.7513 27.617C38.8757 27.2438 39.2489 27.1194 39.6221 27.3682C39.9953 27.4926 40.1197 27.8658 39.8709 28.239L34.646 39.684C34.3972 39.8084 34.1484 39.9328 34.024 39.9328Z" fill="#604B9A"/>
<path d="M33.153 43.0429C34.2523 43.0429 35.1435 42.1517 35.1435 41.0524C35.1435 39.9532 34.2523 39.062 33.153 39.062C32.0537 39.062 31.1626 39.9532 31.1626 41.0524C31.1626 42.1517 32.0537 43.0429 33.153 43.0429Z" fill="#DA8BC1"/>
<path d="M32.2822 42.9186C31.287 42.421 30.9138 41.3013 31.287 40.3061C31.7846 39.3109 32.9042 38.9377 33.8994 39.3109" fill="#DA8BC1"/>
<path d="M32.6553 42.6697C32.6553 42.5453 32.9041 42.2965 33.2773 42.1721C33.6505 42.0477 34.0237 42.1721 34.0237 42.2965C34.0237 42.4209 33.7749 42.6697 33.4017 42.7941C33.0285 42.9185 32.6553 42.7941 32.6553 42.6697Z" fill="#ECC3DF"/>
<path d="M34.2723 42.1721C34.3411 42.1721 34.3968 42.1164 34.3968 42.0477C34.3968 41.979 34.3411 41.9233 34.2723 41.9233C34.2036 41.9233 34.1479 41.979 34.1479 42.0477C34.1479 42.1164 34.2036 42.1721 34.2723 42.1721Z" fill="#ECC3DF"/>
<path d="M39.4976 28.2395C39.3732 28.2395 39.2488 28.2395 39.2488 28.1151C39 27.9907 38.8756 27.6174 39 27.2442L46.0909 13.8088C46.2153 13.56 46.5885 13.4356 46.9617 13.56C47.2105 13.6844 47.3349 14.0576 47.2105 14.4308L40.1196 27.8663C39.9952 28.1151 39.7464 28.2395 39.4976 28.2395Z" fill="#604B9A"/>
<path d="M47.7084 14.4304C49.0138 14.4304 50.072 13.3722 50.072 12.0668C50.072 10.7614 49.0138 9.70312 47.7084 9.70312C46.403 9.70312 45.3447 10.7614 45.3447 12.0668C45.3447 13.3722 46.403 14.4304 47.7084 14.4304Z" fill="#DA8BC1"/>
<path d="M48.8277 9.95212C47.7081 9.33011 46.2152 9.82772 45.5932 10.9473C44.9712 12.067 45.4688 13.5598 46.5884 14.1818" fill="#DA8BC1"/>
<path d="M48.8656 10.4194C48.6809 10.5109 48.7042 10.9345 48.9177 11.3654C49.1312 11.7964 49.454 12.0716 49.6387 11.9801C49.8234 11.8886 49.8001 11.4651 49.5866 11.0341C49.3731 10.6031 49.0503 10.328 48.8656 10.4194Z" fill="#ECC3DF"/>
<path d="M49.5741 12.5647C49.6428 12.5647 49.6985 12.509 49.6985 12.4403C49.6985 12.3716 49.6428 12.3159 49.5741 12.3159C49.5054 12.3159 49.4497 12.3716 49.4497 12.4403C49.4497 12.509 49.5054 12.5647 49.5741 12.5647Z" fill="#ECC3DF"/>
<path d="M39.995 28.3636C39.7462 28.3636 39.6218 28.2392 39.4974 28.1148C39.2486 27.866 39.373 27.4928 39.6218 27.244L62.885 10.5741C63.1338 10.3253 63.507 10.4497 63.7558 10.6985C64.0046 10.9473 63.8802 11.3205 63.6314 11.5693L40.3682 28.2392C40.2438 28.3636 40.1194 28.3636 39.995 28.3636Z" fill="#604B9A"/>
<path d="M65.7463 12.4403C67.4639 12.4403 68.8563 11.0479 68.8563 9.33026C68.8563 7.61263 67.4639 6.22021 65.7463 6.22021C64.0286 6.22021 62.6362 7.61263 62.6362 9.33026C62.6362 11.0479 64.0286 12.4403 65.7463 12.4403Z" fill="#DA8BC1"/>
<path d="M68.3587 7.58847C67.3634 6.22005 65.4974 5.84684 64.129 6.84206C62.7606 7.83728 62.3874 9.7033 63.3826 11.0717" fill="#DA8BC1"/>
<path d="M68.1104 8.21045C67.8616 8.21045 67.6128 8.70806 67.6128 9.33007C67.6128 9.95208 67.8616 10.4497 68.1104 10.4497C68.3592 10.4497 68.608 9.95208 68.608 9.33007C68.608 8.70806 68.3592 8.21045 68.1104 8.21045Z" fill="#ECC3DF"/>
<path d="M67.4882 10.6984C67.3638 10.8228 67.3638 10.9472 67.3638 11.0716C67.4882 11.196 67.6126 11.196 67.737 11.196C67.8614 11.0716 67.8614 10.9472 67.8614 10.8228C67.737 10.574 67.6126 10.574 67.4882 10.6984Z" fill="#ECC3DF"/>
<path d="M56.416 38.0671C56.2916 38.0671 56.1672 38.0671 56.1672 37.9427L38.9998 28.3637C38.751 28.2393 38.6265 27.8661 38.751 27.4929C38.8754 27.2441 39.2486 27.1197 39.6218 27.2441L56.7892 36.8231C57.038 36.9475 57.1624 37.3207 57.038 37.6939C56.9136 37.9427 56.6648 38.0671 56.416 38.0671Z" fill="#604B9A"/>
<path d="M59.153 42.0477C60.8706 42.0477 62.2631 40.6553 62.2631 38.9377C62.2631 37.2201 60.8706 35.8276 59.153 35.8276C57.4354 35.8276 56.043 37.2201 56.043 38.9377C56.043 40.6553 57.4354 42.0477 59.153 42.0477Z" fill="#DA8BC1"/>
<path d="M61.7657 40.4304C62.6365 38.9376 62.0145 37.0716 60.5217 36.2008C59.0288 35.3299 57.1628 35.952 56.292 37.4448" fill="#DA8BC1"/>
<path d="M61.1436 40.5553C61.0192 40.3065 60.5215 40.3065 59.8995 40.5553C59.2775 40.8041 58.9043 41.1773 59.0287 41.4261C59.1531 41.6749 59.6507 41.6749 60.2727 41.4261C60.8947 41.1773 61.268 40.8041 61.1436 40.5553Z" fill="#ECC3DF"/>
<path d="M58.531 41.5503C58.6684 41.5503 58.7798 41.4389 58.7798 41.3015C58.7798 41.1641 58.6684 41.0527 58.531 41.0527C58.3936 41.0527 58.2822 41.1641 58.2822 41.3015C58.2822 41.4389 58.3936 41.5503 58.531 41.5503Z" fill="#ECC3DF"/>
<path d="M40.1196 28.8611C39.7464 28.8611 39.4976 28.6123 39.4976 28.2391C39.4976 27.8659 39.7464 27.6171 39.9952 27.6171L52.4354 26.373C52.8086 26.373 53.0574 26.6219 53.0574 26.8707C53.0574 27.2439 52.8086 27.4927 52.5598 27.4927L40.1196 28.8611Z" fill="#604B9A"/>
<path d="M54.55 28.8612C55.6493 28.8612 56.5404 27.9701 56.5404 26.8708C56.5404 25.7715 55.6493 24.8804 54.55 24.8804C53.4507 24.8804 52.5596 25.7715 52.5596 26.8708C52.5596 27.9701 53.4507 28.8612 54.55 28.8612Z" fill="#DA8BC1"/>
<path d="M56.4164 26.6218C56.292 25.5022 55.2967 24.7558 54.3015 24.8802C53.1819 25.0046 52.4355 25.9998 52.5599 26.995" fill="#DA8BC1"/>
<path d="M56.1675 26.8707C56.0431 26.7463 55.7943 26.9951 55.5455 27.3683C55.2967 27.7416 55.2967 28.1148 55.4211 28.1148C55.5455 28.2392 55.7943 27.9904 56.0431 27.6172C56.2919 27.2439 56.2919 26.9951 56.1675 26.8707Z" fill="#ECC3DF"/>
<path d="M55.0477 28.1147C54.9233 28.1147 54.9233 28.2391 54.9233 28.2391C54.9233 28.3636 55.0477 28.3635 55.0477 28.3635C55.1721 28.3635 55.1721 28.2391 55.1721 28.2391C55.1721 28.1147 55.1721 28.1147 55.0477 28.1147Z" fill="#ECC3DF"/>
<path d="M44.7224 39.9331C44.4736 39.9331 44.2247 39.8087 44.1003 39.5599L38.8755 28.1149C38.7511 27.7417 38.8755 27.4929 39.1243 27.2441C39.4975 27.1197 39.7463 27.2441 39.9951 27.4929L45.22 38.9379C45.3444 39.3111 45.22 39.5599 44.9712 39.8087C44.8468 39.9331 44.7224 39.9331 44.7224 39.9331Z" fill="#604B9A"/>
<path d="M45.4689 43.0429C46.5682 43.0429 47.4594 42.1517 47.4594 41.0524C47.4594 39.9532 46.5682 39.062 45.4689 39.062C44.3697 39.062 43.4785 39.9532 43.4785 41.0524C43.4785 42.1517 44.3697 43.0429 45.4689 43.0429Z" fill="#DA8BC1"/>
<path d="M46.3399 42.9186C47.3351 42.421 47.7083 41.3013 47.3351 40.3061C46.8375 39.3109 45.7179 38.9377 44.7227 39.3109" fill="#DA8BC1"/>
<path d="M45.9666 42.6697C45.9666 42.5453 45.7178 42.2965 45.3446 42.1721C44.9714 42.0477 44.5981 42.1721 44.5981 42.2965C44.5981 42.4209 44.8469 42.6697 45.2202 42.7941C45.5934 42.9185 45.9666 42.7941 45.9666 42.6697Z" fill="#ECC3DF"/>
<path d="M44.3495 42.1721C44.4182 42.1721 44.4739 42.1164 44.4739 42.0477C44.4739 41.979 44.4182 41.9233 44.3495 41.9233C44.2808 41.9233 44.2251 41.979 44.2251 42.0477C44.2251 42.1164 44.2808 42.1721 44.3495 42.1721Z" fill="#ECC3DF"/>
<path d="M15.6125 22.268C16.0934 22.268 16.4833 21.8781 16.4833 21.3972C16.4833 20.9162 16.0934 20.5264 15.6125 20.5264C15.1316 20.5264 14.7417 20.9162 14.7417 21.3972C14.7417 21.8781 15.1316 22.268 15.6125 22.268Z" fill="#ECC3DF"/>
<path d="M18.8469 21.8946C18.9844 21.8946 19.0958 21.7832 19.0958 21.6458C19.0958 21.5084 18.9844 21.397 18.8469 21.397C18.7095 21.397 18.5981 21.5084 18.5981 21.6458C18.5981 21.7832 18.7095 21.8946 18.8469 21.8946Z" fill="#ECC3DF"/>
<path d="M22.5789 9.45425C22.9912 9.45425 23.3253 9.12007 23.3253 8.70784C23.3253 8.29561 22.9912 7.96143 22.5789 7.96143C22.1667 7.96143 21.8325 8.29561 21.8325 8.70784C21.8325 9.12007 22.1667 9.45425 22.5789 9.45425Z" fill="#ECC3DF"/>
<path d="M27.6795 7.09085C28.4352 7.09085 29.0479 6.47818 29.0479 5.72242C29.0479 4.96667 28.4352 4.354 27.6795 4.354C26.9237 4.354 26.311 4.96667 26.311 5.72242C26.311 6.47818 26.9237 7.09085 27.6795 7.09085Z" fill="#ECC3DF"/>
<path d="M37.0095 9.45464C37.147 9.45464 37.2584 9.34325 37.2584 9.20584C37.2584 9.06842 37.147 8.95703 37.0095 8.95703C36.8721 8.95703 36.7607 9.06842 36.7607 9.20584C36.7607 9.34325 36.8721 9.45464 37.0095 9.45464Z" fill="#ECC3DF"/>
<path d="M55.1722 9.08128C56.4776 9.08128 57.5359 8.02304 57.5359 6.71764C57.5359 5.41224 56.4776 4.354 55.1722 4.354C53.8668 4.354 52.8086 5.41224 52.8086 6.71764C52.8086 8.02304 53.8668 9.08128 55.1722 9.08128Z" fill="#ECC3DF"/>
<path d="M55.9189 13.3109C56.2624 13.3109 56.5409 13.0324 56.5409 12.6889C56.5409 12.3454 56.2624 12.0669 55.9189 12.0669C55.5754 12.0669 55.2969 12.3454 55.2969 12.6889C55.2969 13.0324 55.5754 13.3109 55.9189 13.3109Z" fill="#ECC3DF"/>
<path d="M65.622 23.5121C66.5839 23.5121 67.3636 22.7323 67.3636 21.7704C67.3636 20.8086 66.5839 20.0288 65.622 20.0288C64.6601 20.0288 63.8804 20.8086 63.8804 21.7704C63.8804 22.7323 64.6601 23.5121 65.622 23.5121Z" fill="#ECC3DF"/>
<path d="M57.6604 22.2681C57.7978 22.2681 57.9092 22.1567 57.9092 22.0193C57.9092 21.8819 57.7978 21.7705 57.6604 21.7705C57.523 21.7705 57.4116 21.8819 57.4116 22.0193C57.4116 22.1567 57.523 22.2681 57.6604 22.2681Z" fill="#ECC3DF"/>
<path d="M52.5598 24.1338C52.6973 24.1338 52.8086 24.0224 52.8086 23.885C52.8086 23.7476 52.6973 23.6362 52.5598 23.6362C52.4224 23.6362 52.311 23.7476 52.311 23.885C52.311 24.0224 52.4224 24.1338 52.5598 24.1338Z" fill="#ECC3DF"/>
<path d="M9.51676 24.8802C9.72288 24.8802 9.88997 24.7131 9.88997 24.507C9.88997 24.3009 9.72288 24.1338 9.51676 24.1338C9.31064 24.1338 9.14355 24.3009 9.14355 24.507C9.14355 24.7131 9.31064 24.8802 9.51676 24.8802Z" fill="#ECC3DF"/>
<path d="M12.3782 31.3491C13.1339 31.3491 13.7466 30.7365 13.7466 29.9807C13.7466 29.225 13.1339 28.6123 12.3782 28.6123C11.6224 28.6123 11.0098 29.225 11.0098 29.9807C11.0098 30.7365 11.6224 31.3491 12.3782 31.3491Z" fill="#ECC3DF"/>
<path d="M18.9711 26.9954C19.0398 26.9954 19.0955 26.9397 19.0955 26.871C19.0955 26.8023 19.0398 26.7466 18.9711 26.7466C18.9024 26.7466 18.8467 26.8023 18.8467 26.871C18.8467 26.9397 18.9024 26.9954 18.9711 26.9954Z" fill="#ECC3DF"/>
<path d="M63.5073 29.2344C64.1257 29.2344 64.6269 28.7331 64.6269 28.1147C64.6269 27.4964 64.1257 26.9951 63.5073 26.9951C62.889 26.9951 62.3877 27.4964 62.3877 28.1147C62.3877 28.7331 62.889 29.2344 63.5073 29.2344Z" fill="#ECC3DF"/>
<path d="M59.5265 33.7131C60.0761 33.7131 60.5217 33.2675 60.5217 32.7179C60.5217 32.1682 60.0761 31.7227 59.5265 31.7227C58.9768 31.7227 58.5312 32.1682 58.5312 32.7179C58.5312 33.2675 58.9768 33.7131 59.5265 33.7131Z" fill="#ECC3DF"/>
<path d="M51.0672 30.3541C51.2046 30.3541 51.316 30.2427 51.316 30.1053C51.316 29.9678 51.2046 29.8564 51.0672 29.8564C50.9298 29.8564 50.8184 29.9678 50.8184 30.1053C50.8184 30.2427 50.9298 30.3541 51.0672 30.3541Z" fill="#ECC3DF"/>
<path d="M23.4497 33.2153C24.068 33.2153 24.5693 32.714 24.5693 32.0957C24.5693 31.4773 24.068 30.9761 23.4497 30.9761C22.8313 30.9761 22.3301 31.4773 22.3301 32.0957C22.3301 32.714 22.8313 33.2153 23.4497 33.2153Z" fill="#ECC3DF"/>
<path d="M13.9954 16.5456C14.4077 16.5456 14.7418 16.2114 14.7418 15.7991C14.7418 15.3869 14.4077 15.0527 13.9954 15.0527C13.5832 15.0527 13.249 15.3869 13.249 15.7991C13.249 16.2114 13.5832 16.5456 13.9954 16.5456Z" fill="#ECC3DF"/>
<path d="M26.8085 48.0193C27.4955 48.0193 28.0525 47.4623 28.0525 46.7753C28.0525 46.0882 27.4955 45.5312 26.8085 45.5312C26.1214 45.5312 25.5645 46.0882 25.5645 46.7753C25.5645 47.4623 26.1214 48.0193 26.8085 48.0193Z" fill="#ECC3DF"/>
<path d="M28.1771 40.3063C28.5893 40.3063 28.9235 39.9721 28.9235 39.5599C28.9235 39.1477 28.5893 38.8135 28.1771 38.8135C27.7648 38.8135 27.4307 39.1477 27.4307 39.5599C27.4307 39.9721 27.7648 40.3063 28.1771 40.3063Z" fill="#ECC3DF"/>
<path d="M46.0909 48.0191C46.3657 48.0191 46.5885 47.7964 46.5885 47.5215C46.5885 47.2467 46.3657 47.0239 46.0909 47.0239C45.816 47.0239 45.5933 47.2467 45.5933 47.5215C45.5933 47.7964 45.816 48.0191 46.0909 48.0191Z" fill="#ECC3DF"/>
<path d="M51.5645 40.6793C51.8393 40.6793 52.0621 40.4565 52.0621 40.1817C52.0621 39.9069 51.8393 39.6841 51.5645 39.6841C51.2897 39.6841 51.0669 39.9069 51.0669 40.1817C51.0669 40.4565 51.2897 40.6793 51.5645 40.6793Z" fill="#ECC3DF"/>
<path d="M54.1772 45.9043C54.7956 45.9043 55.2969 45.403 55.2969 44.7847C55.2969 44.1663 54.7956 43.665 54.1772 43.665C53.5589 43.665 53.0576 44.1663 53.0576 44.7847C53.0576 45.403 53.5589 45.9043 54.1772 45.9043Z" fill="#ECC3DF"/>
<path d="M34.024 48.2677C34.2988 48.2677 34.5216 48.0449 34.5216 47.7701C34.5216 47.4952 34.2988 47.2725 34.024 47.2725C33.7492 47.2725 33.5264 47.4952 33.5264 47.7701C33.5264 48.0449 33.7492 48.2677 34.024 48.2677Z" fill="#ECC3DF"/>
<path d="M61.6412 19.2823C61.916 19.2823 62.1388 19.0595 62.1388 18.7847C62.1388 18.5099 61.916 18.2871 61.6412 18.2871C61.3663 18.2871 61.1436 18.5099 61.1436 18.7847C61.1436 19.0595 61.3663 19.2823 61.6412 19.2823Z" fill="#ECC3DF"/>
<path d="M29.4211 17.7895C29.902 17.7895 30.2919 17.3996 30.2919 16.9187C30.2919 16.4377 29.902 16.0479 29.4211 16.0479C28.9402 16.0479 28.5503 16.4377 28.5503 16.9187C28.5503 17.3996 28.9402 17.7895 29.4211 17.7895Z" fill="#ECC3DF"/>
<path d="M46.4643 6.3446C46.8078 6.3446 47.0863 6.06612 47.0863 5.7226C47.0863 5.37907 46.8078 5.10059 46.4643 5.10059C46.1208 5.10059 45.8423 5.37907 45.8423 5.7226C45.8423 6.06612 46.1208 6.3446 46.4643 6.3446Z" fill="#ECC3DF"/>
<path d="M20.5886 5.22466C20.7261 5.22466 20.8375 5.11327 20.8375 4.97585C20.8375 4.83844 20.7261 4.72705 20.5886 4.72705C20.4512 4.72705 20.3398 4.83844 20.3398 4.97585C20.3398 5.11327 20.4512 5.22466 20.5886 5.22466Z" fill="#ECC3DF"/>
</svg>
