<svg width="58" height="58" viewBox="0 0 58 58" fill="none" xmlns="http://www.w3.org/2000/svg">
<g clip-path="url(#clip0_981_4738)">
<path d="M33.1692 48.1464C32.3485 48.1464 31.6246 48.0818 31.0648 48.0077C30.5381 47.9382 30.0835 47.6341 29.8176 47.1739C29.5518 46.7136 29.5159 46.1679 29.719 45.6769C30.3992 44.0326 31.975 41.0231 34.8875 39.3416C37.7994 37.6604 41.1934 37.8003 42.9573 38.0331C43.4844 38.1028 43.9392 38.4069 44.2051 38.8674C44.4709 39.3279 44.5068 39.8738 44.3034 40.365C43.6234 42.0089 42.0478 45.018 39.1355 46.6994C37.1474 47.8472 34.9346 48.1464 33.1692 48.1464Z" fill="#8EE26B"/>
<path d="M24.8313 52.6775C23.0659 52.6775 20.8531 52.3786 18.8647 51.2307C15.9524 49.5494 14.3768 46.5403 13.6967 44.8962C13.4934 44.4052 13.5293 43.8594 13.7951 43.3988C14.061 42.9383 14.5157 42.6341 15.0428 42.5645C16.8068 42.3314 20.2008 42.1918 23.1127 43.873C26.0251 45.5543 27.6007 48.5634 28.2808 50.2074C28.4841 50.6987 28.4481 51.2445 28.1822 51.7051C27.9163 52.1656 27.4616 52.4697 26.9345 52.5392C26.375 52.6131 25.6513 52.6775 24.8313 52.6775Z" fill="#CCFC5C"/>
<path d="M29 58C28.0616 58 27.3008 57.2392 27.3008 56.3008V35.6836C27.3008 34.7452 28.0616 33.9844 29 33.9844C29.9384 33.9844 30.6992 34.7452 30.6992 35.6836V56.3008C30.6992 57.2392 29.9384 58 29 58Z" fill="#CCFC5C"/>
<path d="M30.6992 56.3008V35.6836C30.6992 34.7452 29.9384 33.9844 29 33.9844V58C29.9384 58 30.6992 57.2392 30.6992 56.3008Z" fill="#8EE26B"/>
<path d="M52.9023 10.1953C50.0915 10.1953 47.8047 7.9085 47.8047 5.09766C47.8047 2.28681 50.0915 0 52.9023 0C55.7132 0 58 2.28681 58 5.09766C58 7.9085 55.7132 10.1953 52.9023 10.1953Z" fill="#FFB454"/>
<path d="M52.9023 54.375C50.0915 54.375 47.8047 52.0882 47.8047 49.2773C47.8047 46.4665 50.0915 44.1797 52.9023 44.1797C55.7132 44.1797 58 46.4665 58 49.2773C58 52.0882 55.7132 54.375 52.9023 54.375Z" fill="#FFB454"/>
<path d="M5.09766 38.5156C2.28681 38.5156 0 36.2288 0 33.418C0 30.6071 2.28681 28.3203 5.09766 28.3203C7.9085 28.3203 10.1953 30.6071 10.1953 33.418C10.1953 36.2288 7.9085 38.5156 5.09766 38.5156Z" fill="#FFDD54"/>
<path d="M29 37.3828C27.2898 37.3828 25.6717 36.6656 24.5106 35.4458C22.895 35.9217 21.1352 35.7337 19.6543 34.8785C18.1733 34.0235 17.1306 32.5933 16.7349 30.9565C15.0981 30.5609 13.6681 29.5183 12.8129 28.0371C11.9577 26.5562 11.7698 24.7962 12.2456 23.1807C11.0258 22.0196 10.3086 20.4016 10.3086 18.6914C10.3086 16.9812 11.0257 15.3632 12.2456 14.2021C11.7697 12.5865 11.9577 10.8267 12.8129 9.34559C13.6679 7.86466 15.0982 6.82202 16.7349 6.42622C17.1306 4.7893 18.1733 3.35913 19.6543 2.50408C21.1352 1.64904 22.8953 1.46099 24.5107 1.93677C25.6718 0.71707 27.2898 0 29 0C30.7102 0 32.3282 0.71707 33.4893 1.93688C35.1047 1.46099 36.8644 1.64904 38.3457 2.5042C39.8267 3.35924 40.8694 4.78942 41.2651 6.42633C42.9019 6.82191 44.3319 7.86455 45.1871 9.3457C46.0423 10.8267 46.2303 12.5865 45.7544 14.2021C46.9743 15.3632 47.6914 16.9812 47.6914 18.6914C47.6914 20.4016 46.9742 22.0196 45.7544 23.1807C46.2302 24.7962 46.0423 26.5562 45.1871 28.0372C44.3321 29.5181 42.9016 30.5608 41.2651 30.9566C40.8694 32.5934 39.8267 34.0236 38.3457 34.8786C36.8646 35.734 35.105 35.9216 33.4893 35.4459C32.3282 36.6655 30.7101 37.3828 29 37.3828Z" fill="#FFDD54"/>
<path d="M33.4893 35.4458C35.105 35.9215 36.8646 35.7339 38.3457 34.8785C39.8267 34.0235 40.8694 32.5933 41.2651 30.9565C42.9016 30.5608 44.3321 29.5181 45.1871 28.0371C46.0423 26.5561 46.2302 24.7961 45.7544 23.1806C46.9742 22.0196 47.6914 20.4016 47.6914 18.6914C47.6914 16.9812 46.9743 15.3632 45.7544 14.2021C46.2303 12.5865 46.0423 10.8267 45.1871 9.3457C44.3319 7.86455 42.9019 6.82191 41.2651 6.42633C40.8694 4.78942 39.8267 3.35924 38.3457 2.5042C36.8644 1.64904 35.1047 1.46099 33.4893 1.93688C32.3282 0.71707 30.7102 0 29 0V37.3828C30.7101 37.3828 32.3282 36.6655 33.4893 35.4458Z" fill="#FFB454"/>
<path d="M29 24.9219C25.5645 24.9219 22.7695 22.1269 22.7695 18.6914C22.7695 15.2559 25.5645 12.4609 29 12.4609C32.4355 12.4609 35.2305 15.2559 35.2305 18.6914C35.2305 22.1269 32.4355 24.9219 29 24.9219Z" fill="#B48E6E"/>
<path d="M35.2305 18.6914C35.2305 15.2559 32.4355 12.4609 29 12.4609V24.9219C32.4355 24.9219 35.2305 22.1269 35.2305 18.6914Z" fill="#9D5E4A"/>
</g>
<defs>
<clipPath id="clip0_981_4738">
<rect width="58" height="58" fill="white"/>
</clipPath>
</defs>
</svg>
