<svg width="58" height="58" viewBox="0 0 58 58" fill="none" xmlns="http://www.w3.org/2000/svg">
<g clip-path="url(#clip0_981_4757)">
<path d="M28.9642 40.8623C29.5986 40.8641 30.1156 41.381 30.1173 42.0154C30.1213 43.485 29.7797 46.1888 27.5482 48.4202C25.3167 50.6516 22.6129 50.9932 21.1434 50.9893C20.5089 50.9875 19.992 50.4706 19.9903 49.8362C19.9863 48.3666 20.3278 45.6628 22.5593 43.4314C24.7908 41.2 27.4947 40.8584 28.9642 40.8623Z" fill="#B9EA6A"/>
<path d="M20.6748 50.8872C20.8182 50.9516 20.9764 50.9884 21.1432 50.9889C22.6128 50.9929 25.3166 50.6513 27.548 48.4198C29.7794 46.1883 30.121 43.4845 30.1171 42.0149C30.1154 41.3805 29.5984 40.8636 28.964 40.8619C28.641 40.8609 28.2584 40.8769 27.8343 40.9257C27.8344 40.9259 27.8344 40.9261 27.8345 40.9262C27.9381 42.0117 28.0272 45.5895 25.1815 48.4352C23.727 49.8899 22.0816 50.5763 20.6748 50.8872Z" fill="#95D528"/>
<path d="M18.843 57.9269H17.6094C16.9759 57.9269 16.4624 57.4134 16.4624 56.7799V34.9971H19.99V56.7799C19.99 57.4134 19.4765 57.9269 18.843 57.9269Z" fill="#B9EA6A"/>
<path d="M16.4624 38.5363C17.0273 38.6813 17.6179 38.7599 18.2263 38.7599C18.8345 38.7599 19.4252 38.6813 19.9901 38.5363V34.9971H16.4625V38.5363H16.4624Z" fill="#95D528"/>
<path d="M36.4526 18.2995C36.4526 16.808 35.6283 15.5093 34.4105 14.8335C33.8304 14.5115 33.6339 13.778 33.9753 13.2092C34.692 12.0151 34.7564 10.4782 34.0107 9.18656C33.2649 7.89491 31.9018 7.18228 30.5092 7.20579C29.8458 7.21703 29.3089 6.68012 29.3201 6.01669C29.3438 4.62411 28.6311 3.261 27.3394 2.51522C26.0477 1.76944 24.5108 1.8339 23.3166 2.55055C22.7477 2.89201 22.0143 2.69541 21.6923 2.11526C21.0165 0.897481 19.7177 0.0732422 18.2262 0.0732422C16.7346 0.0732422 15.436 0.897481 14.76 2.11526C14.4381 2.69541 13.7046 2.8919 13.1358 2.55055C11.9416 1.8339 10.4047 1.76944 9.11297 2.51522C7.82144 3.26089 7.1088 4.62399 7.13243 6.01657C7.14367 6.68 6.60676 7.21692 5.94333 7.20568C4.55075 7.18205 3.18765 7.89468 2.44186 9.18644C1.69608 10.4781 1.76054 12.015 2.47731 13.2091C2.81877 13.778 2.62217 14.5114 2.04202 14.8334C0.824239 15.5093 0 16.808 0 18.2995C0 19.7911 0.824239 21.0897 2.04202 21.7656C2.62217 22.0875 2.81865 22.821 2.47731 23.3898C1.76066 24.584 1.69619 26.1209 2.44186 27.4125C3.18765 28.7041 4.55075 29.4168 5.94333 29.3933C6.60676 29.382 7.14367 29.9189 7.13243 30.5824C7.1088 31.9749 7.82144 33.338 9.1132 34.0838C10.4048 34.8296 11.9417 34.7652 13.136 34.0485C13.7049 33.707 14.4383 33.9036 14.7603 34.4838C15.4361 35.7016 16.7348 36.5258 18.2264 36.5258C19.718 36.5258 21.0166 35.7016 21.6925 34.4838C22.0145 33.9036 22.748 33.7072 23.3168 34.0485C24.511 34.7652 26.0478 34.8296 27.3396 34.0838C28.6312 33.338 29.3439 31.9749 29.3204 30.5824C29.3091 29.9189 29.846 29.382 30.5095 29.3933C31.902 29.4169 33.2652 28.7043 34.0109 27.4125C34.7567 26.1209 34.6923 24.584 33.9755 23.3898C33.634 22.8209 33.8306 22.0875 34.4108 21.7656C35.6283 21.0897 36.4526 19.791 36.4526 18.2995Z" fill="#FC8086"/>
<path d="M8.61426 29.3968C7.903 29.1985 7.17694 29.7007 7.13749 30.438C7.06029 31.88 7.77683 33.3122 9.11309 34.0837C10.4047 34.8295 11.9416 34.765 13.1359 34.0484C13.7048 33.7069 14.4382 33.9035 14.7601 34.4837C15.436 35.7015 16.7347 36.5257 18.2263 36.5257C19.7179 36.5257 21.0165 35.7015 21.6924 34.4837C22.0144 33.9035 22.7479 33.707 23.3167 34.0484C24.5109 34.765 26.0477 34.8295 27.3395 34.0837C28.6311 33.3379 29.3438 31.9748 29.3203 30.5822C29.309 29.9188 29.8459 29.3819 30.5094 29.3931C31.9019 29.4168 33.265 28.7041 34.0108 27.4124C34.7566 26.1207 34.6921 24.5839 33.9754 23.3897C33.6339 22.8208 33.8305 22.0874 34.4107 21.7654C35.6284 21.0896 36.4527 19.7909 36.4527 18.2994C36.4527 16.8223 35.6443 15.5342 34.4458 14.853C33.7529 14.4592 32.8798 14.8873 32.7401 15.672C31.931 20.2189 27.8122 34.7497 8.61426 29.3968Z" fill="#FB636F"/>
<path d="M33.9973 13.1694L22.4446 16.2658C21.979 16.3906 21.7025 16.8693 21.8273 17.335C21.9318 17.7251 22.2845 17.9823 22.67 17.9823C22.7448 17.9823 22.8209 17.9725 22.8966 17.9522L34.4484 14.8561C34.4356 14.8488 34.4233 14.8405 34.4103 14.8333C33.8302 14.5113 33.6337 13.7778 33.9752 13.209C33.983 13.1962 33.9896 13.1825 33.9973 13.1694Z" fill="#FA4954"/>
<path d="M20.7538 15.7721C20.9243 15.9425 21.1478 16.0277 21.3712 16.0277C21.5945 16.0277 21.8181 15.9425 21.9887 15.7721L30.5543 7.20643C30.5394 7.20655 30.5244 7.2054 30.5094 7.20574C29.846 7.21698 29.3091 6.68007 29.3203 6.01664C29.3205 6.00162 29.3195 5.98671 29.3196 5.97168L20.7539 14.5374C20.4128 14.8783 20.4128 15.4312 20.7538 15.7721Z" fill="#FA4954"/>
<path d="M19.1302 14.9286C19.2059 14.9489 19.2819 14.9585 19.3567 14.9585C19.7422 14.9585 20.0949 14.7012 20.1994 14.3111L23.3563 2.52861C23.3434 2.53618 23.3298 2.54283 23.3169 2.55052C22.748 2.89198 22.0146 2.69539 21.6926 2.11534C21.6854 2.10238 21.6771 2.09011 21.6698 2.07715L18.5129 13.8593C18.3881 14.325 18.6645 14.8038 19.1302 14.9286Z" fill="#FA4954"/>
<path d="M22.3415 21.1798C22.0006 20.8389 21.4479 20.8388 21.1067 21.1798C20.7659 21.5207 20.7659 22.0735 21.1067 22.4144L29.3198 30.6273C29.3197 30.6123 29.3207 30.5974 29.3205 30.5824C29.3092 29.9189 29.8461 29.382 30.5096 29.3933C30.5246 29.3935 30.5395 29.3925 30.5544 29.3926L22.3415 21.1798Z" fill="#FA4954"/>
<path d="M23.0724 18.6944C22.6063 18.5699 22.1279 18.846 22.0031 19.3117C21.8783 19.7774 22.1546 20.2562 22.6204 20.3811L33.9972 23.4296C33.9896 23.4165 33.983 23.403 33.9752 23.39C33.6338 22.8211 33.8304 22.0877 34.4104 21.7657C34.4234 21.7585 34.4356 21.7503 34.4486 21.7429L23.0724 18.6944Z" fill="#FA4954"/>
<path d="M23.3168 34.0485C23.3298 34.0563 23.3433 34.0628 23.3563 34.0704L20.3752 22.946C20.2504 22.4802 19.7717 22.2042 19.306 22.3287C18.8403 22.4535 18.5639 22.9323 18.6887 23.3981L21.6696 34.522C21.677 34.5091 21.6852 34.4967 21.6924 34.4838C22.0144 33.9036 22.7479 33.707 23.3168 34.0485Z" fill="#FA4954"/>
<path d="M14.4639 15.7721C14.6345 15.9426 14.8578 16.0277 15.0814 16.0277C15.3047 16.0277 15.5282 15.9425 15.6988 15.7721C16.0397 15.4312 16.0397 14.8783 15.6988 14.5374L7.13308 5.97168C7.13319 5.98671 7.13204 6.00162 7.13239 6.01664C7.14363 6.68007 6.60671 7.21698 5.94329 7.20574C5.92826 7.20551 5.91335 7.20655 5.89844 7.20643L14.4639 15.7721Z" fill="#FA4954"/>
<path d="M17.1466 22.3287C16.6808 22.2041 16.2021 22.4803 16.0774 22.946L13.0962 34.0705C13.1093 34.0628 13.1228 34.0563 13.1358 34.0485C13.7047 33.707 14.4381 33.9036 14.76 34.4837C14.7673 34.4966 14.7755 34.5089 14.7829 34.5217L17.7638 23.398C17.8886 22.9323 17.6123 22.4535 17.1466 22.3287Z" fill="#FA4954"/>
<path d="M14.7829 2.07715C14.7755 2.08999 14.7673 2.10227 14.76 2.11523C14.4381 2.69539 13.7046 2.89187 13.1358 2.5504C13.1228 2.5426 13.1093 2.53607 13.0962 2.52838L16.2545 14.3111C16.3591 14.7011 16.7117 14.9584 17.0972 14.9584C17.172 14.9584 17.248 14.9486 17.3237 14.9283C17.7894 14.8035 18.0658 14.3248 17.941 13.859L14.7829 2.07715Z" fill="#FA4954"/>
<path d="M13.556 17.9525C13.6317 17.9728 13.7076 17.9825 13.7825 17.9825C14.1679 17.9825 14.5207 17.7252 14.6252 17.3352C14.75 16.8696 14.4737 16.3908 14.0079 16.266L2.45514 13.1694C2.46282 13.1825 2.46936 13.196 2.47716 13.2091C2.81863 13.778 2.62203 14.5114 2.04199 14.8334C2.02903 14.8406 2.01675 14.8489 2.00391 14.8562L13.556 17.9525Z" fill="#FA4954"/>
<path d="M2.45537 23.4297L13.8324 20.381C14.2981 20.2562 14.5745 19.7775 14.4497 19.3117C14.3249 18.846 13.8462 18.57 13.3805 18.6944L2.00391 21.7429C2.01687 21.7502 2.02914 21.7586 2.0421 21.7658C2.62226 22.0878 2.81874 22.8213 2.47728 23.3901C2.46959 23.4031 2.46294 23.4166 2.45537 23.4297Z" fill="#FA4954"/>
<path d="M15.3466 21.1806C15.0057 20.8396 14.4528 20.8395 14.1119 21.1805L5.89844 29.3927C5.91346 29.3926 5.92837 29.3936 5.9434 29.3934C6.60683 29.3822 7.14374 29.9191 7.1325 30.5825C7.13227 30.5974 7.1333 30.6123 7.13319 30.6272L15.3466 22.4151C15.6875 22.0744 15.6875 21.5216 15.3466 21.1806Z" fill="#FA4954"/>
<path d="M18.2265 23.5038C20.9059 23.5038 23.078 21.3317 23.078 18.6523C23.078 15.9729 20.9059 13.8008 18.2265 13.8008C15.5471 13.8008 13.375 15.9729 13.375 18.6523C13.375 21.3317 15.5471 23.5038 18.2265 23.5038Z" fill="#D13026"/>
<path d="M20.4401 14.3359C20.7814 14.9999 20.9752 15.752 20.9752 16.55C20.9752 19.2294 18.8031 21.4015 16.1237 21.4015C15.3259 21.4015 14.5737 21.2077 13.9097 20.8664C14.7144 22.4321 16.3445 23.5038 18.226 23.5038C20.9054 23.5038 23.0775 21.3318 23.0775 18.6524C23.0776 16.7708 22.0058 15.1407 20.4401 14.3359Z" fill="#FCEE56"/>
<path d="M7.48857 40.8623C6.85416 40.8641 6.3372 41.381 6.33548 42.0154C6.33147 43.485 6.67305 46.1888 8.90455 48.4202C11.1361 50.6516 13.8399 50.9932 15.3094 50.9893C15.9438 50.9875 16.4608 50.4706 16.4625 49.8362C16.4665 48.3666 16.125 45.6628 13.8935 43.4314C11.662 41.2 8.958 40.8584 7.48857 40.8623Z" fill="#B9EA6A"/>
<path d="M13.8936 43.4311C12.2341 41.7716 10.3145 41.1584 8.83447 40.9541C9.93468 41.5263 11.0786 42.3936 12.0292 43.7125C13.9874 46.4292 13.8741 49.3196 13.6185 50.8431C14.2622 50.956 14.8386 50.9891 15.2967 50.9886C15.9364 50.9879 16.4609 50.4749 16.4626 49.8353C16.4665 48.3656 16.1247 45.6622 13.8936 43.4311Z" fill="#95D528"/>
<path d="M24.4291 45.3158L19.9909 49.754C19.9908 49.7786 19.9907 49.8026 19.9908 49.8265C19.9919 50.4685 20.5112 50.9876 21.153 50.9888C21.1769 50.9888 21.2011 50.9888 21.2256 50.9886L25.6382 46.5761C25.9762 46.2381 26.0104 45.6828 25.6826 45.3349C25.3433 44.9749 24.7764 44.9686 24.4291 45.3158Z" fill="#7DB723"/>
<path d="M10.7699 45.3349C10.4421 45.6828 10.4762 46.2381 10.8143 46.5761L15.2268 50.9886C15.2513 50.9888 15.2755 50.9889 15.2994 50.9888C15.9414 50.9876 16.4605 50.4685 16.4617 49.8265C16.4617 49.8026 16.4617 49.7784 16.4615 49.754L12.0233 45.3158C11.676 44.9686 11.109 44.9749 10.7699 45.3349Z" fill="#7DB723"/>
<path d="M43.2729 11.7646H37.7461C37.2639 11.7646 36.873 11.3737 36.873 10.8916C36.873 10.4094 37.2638 10.0186 37.7461 10.0186H43.2729C43.764 10.0186 44.1636 9.61897 44.1636 9.12782C44.1636 8.63667 43.764 8.23694 43.2729 8.23694C42.7907 8.23694 42.3999 7.84604 42.3999 7.36395C42.3999 6.88187 42.7907 6.49097 43.2729 6.49097C44.7268 6.49097 45.9097 7.67387 45.9097 9.12794C45.9097 10.582 44.7268 11.7646 43.2729 11.7646Z" fill="#E98C85"/>
<path d="M49.7403 19.6429H39.8628C39.3806 19.6429 38.9897 19.252 38.9897 18.7699C38.9897 18.2877 39.3805 17.8969 39.8628 17.8969H49.7403C50.2314 17.8969 50.6311 17.4973 50.6311 17.0061C50.6311 16.515 50.2314 16.1154 49.7403 16.1154C49.2581 16.1154 48.8672 15.7245 48.8672 15.2424C48.8672 14.7602 49.258 14.3694 49.7403 14.3694C51.1942 14.3694 52.3771 15.5523 52.3771 17.0062C52.3771 18.46 51.1942 19.6429 49.7403 19.6429Z" fill="#E98C85"/>
<path d="M46.2123 22.9354H38.6866C38.2044 22.9354 37.8135 22.5445 37.8135 22.0624C37.8135 21.5802 38.2043 21.1895 38.6866 21.1895H46.2123C46.6945 21.1895 47.0853 21.5804 47.0853 22.0624C47.0854 22.5445 46.6945 22.9354 46.2123 22.9354Z" fill="#E98C85"/>
<path d="M43.8605 15.6449H39.2745C38.7923 15.6449 38.4014 15.254 38.4014 14.7719C38.4014 14.2898 38.7922 13.8989 39.2745 13.8989H43.8604C44.3426 13.8989 44.7334 14.2898 44.7334 14.7719C44.7334 15.254 44.3427 15.6449 43.8605 15.6449Z" fill="#E98C85"/>
<path d="M44.2137 29.8731H36.5704C36.0882 29.8731 35.6973 29.4822 35.6973 29.0001C35.6973 28.5179 36.0881 28.1271 36.5704 28.1271H44.2137C44.7048 28.1271 45.1044 27.7275 45.1044 27.2363C45.1044 26.7452 44.7048 26.3456 44.2137 26.3456C43.7315 26.3456 43.3406 25.9547 43.3406 25.4726C43.3406 24.9905 43.7314 24.5996 44.2137 24.5996C45.6676 24.5996 46.8505 25.7825 46.8505 27.2365C46.8505 28.6904 45.6676 29.8731 44.2137 29.8731Z" fill="#E98C85"/>
<path d="M49.9755 11.0378C51.0287 11.0378 51.8857 10.1809 51.8857 9.12764C51.8857 8.07434 51.0287 7.21753 49.9755 7.21753C48.9224 7.21753 48.0654 8.07446 48.0654 9.12764C48.0654 10.1808 48.9224 11.0378 49.9755 11.0378Z" fill="#D13026"/>
<path d="M56.0903 18.9162C57.1452 18.9162 58.0004 18.061 58.0004 17.0061C58.0004 15.9511 57.1452 15.0959 56.0903 15.0959C55.0354 15.0959 54.1802 15.9511 54.1802 17.0061C54.1802 18.061 55.0354 18.9162 56.0903 18.9162Z" fill="#D13026"/>
<path d="M50.5634 29.1464C51.6184 29.1464 52.4735 28.2912 52.4735 27.2363C52.4735 26.1814 51.6184 25.3262 50.5634 25.3262C49.5085 25.3262 48.6533 26.1814 48.6533 27.2363C48.6533 28.2912 49.5085 29.1464 50.5634 29.1464Z" fill="#D13026"/>
</g>
<defs>
<clipPath id="clip0_981_4757">
<rect width="58" height="58" fill="white"/>
</clipPath>
</defs>
</svg>
