<svg width="66" height="66" viewBox="0 0 66 66" fill="none" xmlns="http://www.w3.org/2000/svg">
<g clip-path="url(#clip0_1_80)">
<path fill-rule="evenodd" clip-rule="evenodd" d="M0.914614 32.65C0.476204 44.0451 7.88187 51.4192 17.7828 46.3828C16.4831 34.3039 5.74538 34.1495 0.914614 32.65Z" fill="#90EF90"/>
<path fill-rule="evenodd" clip-rule="evenodd" d="M0.903621 33.0414C0.712324 41.4052 4.78267 47.5138 10.9483 47.9665C12.6153 47.8494 14.4094 47.3415 16.2941 46.3828C15.1145 35.4193 6.15977 34.2795 0.903621 33.0414Z" fill="#ADFFAD"/>
<path fill-rule="evenodd" clip-rule="evenodd" d="M34.6247 40.1092C35.0632 51.5042 27.6575 58.8783 17.7566 53.8419C19.0562 41.763 29.794 41.6086 34.6247 40.1092Z" fill="#75E075"/>
<path fill-rule="evenodd" clip-rule="evenodd" d="M23.1023 55.4257C21.4353 55.3085 19.6413 54.8006 17.7565 53.842C18.9361 42.8785 27.8908 41.7388 33.1471 40.5007C33.3384 48.8645 29.2681 54.9731 23.1023 55.4258V55.4257Z" fill="#90EF90"/>
<path fill-rule="evenodd" clip-rule="evenodd" d="M26.9702 48.1461C27.4373 47.8236 28.0776 47.9407 28.4002 48.4079C28.7229 48.8751 28.6056 49.5153 28.1384 49.838C26.7016 50.8329 25.2173 51.6892 23.6071 52.4798C22.1162 53.2118 20.5366 53.8793 18.801 54.5427V64.0664C18.801 64.6359 18.3392 65.0977 17.7697 65.0977C17.2002 65.0977 16.7385 64.6359 16.7385 64.0664V47.0835C15.0028 46.4202 13.4233 45.7527 11.9323 45.0206C10.3222 44.2301 8.83781 43.3739 7.40102 42.3788C6.93387 42.0563 6.81656 41.416 7.13921 40.9487C7.46187 40.4815 8.10214 40.3643 8.5693 40.6869C9.92861 41.6282 11.3254 42.4346 12.8347 43.1757C14.0387 43.7669 15.3284 44.3227 16.7385 44.877V33.754C16.7385 33.1845 17.2002 32.7227 17.7697 32.7227C18.3392 32.7227 18.801 33.1845 18.801 33.754V52.3362C20.2112 51.7819 21.5009 51.226 22.7049 50.6349C24.2141 49.8938 25.6108 49.0874 26.9702 48.1461Z" fill="#60D175"/>
<path fill-rule="evenodd" clip-rule="evenodd" d="M44.0344 8.61738C44.6695 9.71746 43.2683 11.7155 40.9046 13.0802C39.8821 13.6705 38.8472 14.0455 37.9503 14.1921C38.0187 13.5751 37.8985 12.9317 37.5642 12.353C37.2301 11.7742 36.733 11.3483 36.1646 11.0991C36.7399 10.3956 37.582 9.68679 38.6045 9.09652C40.9681 7.73192 43.3992 7.51742 44.0343 8.61751L44.0344 8.61738Z" fill="#F9AC00"/>
<path d="M24.6099 27.5751C26.9444 27.47 28.7516 25.4922 28.6465 23.1577C28.5413 20.8232 26.5636 19.016 24.2291 19.1211C21.8946 19.2263 20.0873 21.204 20.1925 23.5385C20.2976 25.873 22.2754 27.6803 24.6099 27.5751Z" fill="#ED7E07"/>
<path fill-rule="evenodd" clip-rule="evenodd" d="M23.6557 27.4967C21.6882 27.1334 20.1979 25.409 20.1979 23.3363C20.1979 21.2636 21.6882 19.5392 23.6557 19.1758C25.6232 19.5392 27.1134 21.2636 27.1134 23.3363C27.1134 25.409 25.623 27.1334 23.6557 27.4967Z" fill="#F38B03"/>
<path fill-rule="evenodd" clip-rule="evenodd" d="M24.4291 8.62666C26.2107 8.62666 27.655 11.7298 27.655 15.5578C27.655 17.2136 27.3846 18.7337 26.9336 19.9258C26.2324 19.4099 25.3664 19.1049 24.4291 19.1049C23.4918 19.1049 22.6259 19.4099 21.9246 19.9258C21.4737 18.7337 21.2032 17.2138 21.2032 15.5578C21.2032 11.7298 22.6475 8.62666 24.4291 8.62666Z" fill="#F99500"/>
<path fill-rule="evenodd" clip-rule="evenodd" d="M31.7839 10.5974C33.3268 11.4881 33.0259 14.8977 31.112 18.2128C30.2841 19.6469 29.2899 20.828 28.3034 21.635C27.9539 20.8376 27.3566 20.1404 26.5449 19.6719C25.7331 19.2033 24.8307 19.0344 23.9655 19.1305C24.1709 17.8726 24.6969 16.4211 25.5247 14.987C27.4387 11.6719 30.241 9.70664 31.784 10.5974H31.7839Z" fill="#FDC72E"/>
<path fill-rule="evenodd" clip-rule="evenodd" d="M37.168 30.691C36.2772 32.2339 32.8677 31.933 29.5524 30.0192C28.1184 29.1912 26.9372 28.1971 26.1304 27.2106C26.9277 26.8612 27.6248 26.2637 28.0935 25.452C28.5622 24.6403 28.7311 23.7378 28.6349 22.8726C29.8928 23.0781 31.3442 23.604 32.7783 24.4319C36.0934 26.3459 38.0587 29.1483 37.168 30.6912V30.691Z" fill="#F99500"/>
<path fill-rule="evenodd" clip-rule="evenodd" d="M31.784 36.0751C30.2411 36.9659 27.4388 35.0006 25.5248 31.6854C24.6969 30.2513 24.1711 28.7998 23.9655 27.542C24.8307 27.6381 25.7331 27.4693 26.5449 27.0006C27.3566 26.5319 27.9541 25.8347 28.3034 25.0375C29.2901 25.8444 30.2842 27.0256 31.1121 28.4597C33.0261 31.7747 33.327 35.1843 31.784 36.0751Z" fill="#F9AC00"/>
<path fill-rule="evenodd" clip-rule="evenodd" d="M24.4291 38.0458C22.6475 38.0458 21.2032 34.9426 21.2032 31.1146C21.2032 29.4587 21.4737 27.9388 21.9246 26.7466C22.6259 27.2625 23.4917 27.5675 24.4291 27.5675C25.3665 27.5675 26.2324 27.2625 26.9336 26.7466C27.3846 27.9388 27.655 29.4587 27.655 31.1146C27.655 34.9425 26.2107 38.0458 24.4291 38.0458Z" fill="#FDC72E"/>
<path fill-rule="evenodd" clip-rule="evenodd" d="M17.0744 36.0751C15.5315 35.1843 15.8322 31.7748 17.7462 28.4597C18.5742 27.0256 19.5683 25.8444 20.5548 25.0376C20.9042 25.8349 21.5016 26.532 22.3134 27.0007C23.1251 27.4694 24.0276 27.6382 24.8928 27.5421C24.6872 28.8 24.1614 30.2515 23.3334 31.6855C21.4194 35.0006 18.6171 36.9659 17.0742 36.0752L17.0744 36.0751Z" fill="#FCDB35"/>
<path fill-rule="evenodd" clip-rule="evenodd" d="M11.6902 30.691C10.7994 29.1482 12.7647 26.3457 16.0798 24.4317C17.5139 23.6038 18.9654 23.078 20.2232 22.8725C20.1271 23.7377 20.2959 24.6402 20.7646 25.4519C21.2332 26.2636 21.9305 26.8611 22.7278 27.2104C21.9208 28.197 20.7396 29.1912 19.3057 30.019C15.9906 31.933 12.581 32.2339 11.6902 30.691Z" fill="#FFE259"/>
<path fill-rule="evenodd" clip-rule="evenodd" d="M9.71948 23.3363C9.71948 21.5547 12.8226 20.1104 16.6506 20.1104C18.3066 20.1104 19.8265 20.3809 21.0186 20.8318C20.5027 21.533 20.1978 22.399 20.1978 23.3363C20.1978 24.2736 20.5027 25.1396 21.0186 25.8408C19.8265 26.2917 18.3066 26.5622 16.6506 26.5622C12.8226 26.5622 9.71948 25.1179 9.71948 23.3363Z" fill="#FCDB35"/>
<path fill-rule="evenodd" clip-rule="evenodd" d="M11.6902 15.9815C12.5809 14.4387 15.9906 14.7395 19.3057 16.6534C20.1009 17.1126 20.8183 17.6228 21.4374 18.1545C21.5587 18.7984 21.7236 19.3942 21.9243 19.925C21.4655 20.2615 21.0674 20.6963 20.7646 21.2207C20.2959 22.0324 20.1272 22.9349 20.2232 23.8001C18.9654 23.5945 17.5138 23.0687 16.0798 22.2407C12.7647 20.3267 10.7994 17.5245 11.6902 15.9815Z" fill="#FDC72E"/>
<path fill-rule="evenodd" clip-rule="evenodd" d="M17.0743 10.5974C18.1774 9.96059 19.9242 10.7838 21.5299 12.5162C21.3208 13.4345 21.2032 14.4666 21.2032 15.5578C21.2032 17.2135 21.4735 18.7334 21.9244 19.9254C21.3089 20.3763 20.8459 20.9709 20.5549 21.635C19.5684 20.828 18.5743 19.6469 17.7463 18.2129C15.8323 14.8977 15.5316 11.4883 17.0745 10.5974H17.0743Z" fill="#F9AC00"/>
<path fill-rule="evenodd" clip-rule="evenodd" d="M44.2573 20.0467C44.2573 21.6064 41.5408 22.8707 38.1896 22.8707C36.74 22.8707 35.4093 22.634 34.3657 22.2393C34.8173 21.6254 35.0844 20.8673 35.0844 20.0467C35.0844 19.2261 34.8173 18.4681 34.3657 17.8542C35.4093 17.4595 36.7399 17.2228 38.1896 17.2228C41.5406 17.2228 44.2573 18.4871 44.2573 20.0467Z" fill="#F99500"/>
<path d="M34.2406 7.21069C35.7605 6.85142 36.7013 5.32807 36.3421 3.8082C35.9828 2.28833 34.4595 1.34748 32.9396 1.70675C31.4197 2.06602 30.4789 3.58937 30.8381 5.10924C31.1974 6.62911 32.7208 7.56996 34.2406 7.21069Z" fill="#FFE259"/>
<path d="M59.3043 8.05267C60.2801 7.821 60.8834 6.84214 60.6517 5.86633C60.42 4.89051 59.4412 4.28726 58.4654 4.51893C57.4895 4.7506 56.8863 5.72946 57.118 6.70527C57.3496 7.68109 58.3285 8.28434 59.3043 8.05267Z" fill="#FFF2B2"/>
<path d="M47.4393 5.44655C48.6942 5.44655 49.7114 4.42929 49.7114 3.17445C49.7114 1.9196 48.6942 0.902344 47.4393 0.902344C46.1845 0.902344 45.1672 1.9196 45.1672 3.17445C45.1672 4.42929 46.1845 5.44655 47.4393 5.44655Z" fill="#FCDB35"/>
<path d="M52.3398 11.2804C53.3166 11.0517 53.9231 10.0745 53.6944 9.09768C53.4658 8.12086 52.4886 7.51436 51.5117 7.74302C50.5349 7.97168 49.9284 8.94891 50.1571 9.92573C50.3857 10.9026 51.363 11.5091 52.3398 11.2804Z" fill="#FDC72E"/>
<path d="M49.1383 18.6729C50.5149 18.6729 51.631 17.5568 51.631 16.1802C51.631 14.8035 50.5149 13.6875 49.1383 13.6875C47.7616 13.6875 46.6456 14.8035 46.6456 16.1802C46.6456 17.5568 47.7616 18.6729 49.1383 18.6729Z" fill="#F9AC00"/>
<path fill-rule="evenodd" clip-rule="evenodd" d="M54.5066 35.9717H35.1385C34.5686 35.9717 34.1074 35.5104 34.1074 34.9406C34.1074 34.3707 34.5685 33.9096 35.1385 33.9096H54.5066C55.3922 33.9096 56.1113 33.1899 56.1113 32.3048C56.1113 31.4197 55.3923 30.6994 54.5066 30.6994C53.992 30.6994 53.5215 30.9374 53.2164 31.3513C52.8776 31.8094 52.2313 31.9057 51.7739 31.5676C51.3152 31.2283 51.2195 30.5825 51.5576 30.1251C52.2469 29.1935 53.3494 28.6373 54.5067 28.6373C56.5291 28.6373 58.1742 30.2824 58.1742 32.3048C58.1742 34.3272 56.5291 35.9717 54.5067 35.9717H54.5066ZM61.4363 40.5646C63.4594 40.5646 65.1038 38.9201 65.1038 36.8971C65.1038 34.874 63.4594 33.2296 61.4363 33.2296C60.2791 33.2296 59.1771 33.7858 58.4872 34.7174C58.1478 35.1754 58.2449 35.8212 58.7022 36.16C59.1615 36.4975 59.8072 36.4024 60.1448 35.945C60.4519 35.5298 60.9224 35.2923 61.4363 35.2923C62.322 35.2923 63.0411 36.012 63.0411 36.8971C63.0411 37.7822 62.322 38.5025 61.4363 38.5025H39.039C38.4697 38.5025 38.0079 38.9636 38.0079 39.5336C38.0079 40.1036 38.4696 40.5646 39.039 40.5646H61.4363ZM59.1796 48.7505C58.361 48.7505 57.5836 48.3963 57.0459 47.7773C56.6717 47.3479 56.7171 46.6971 57.1466 46.323C57.5754 45.9495 58.2281 45.9941 58.6022 46.4237C58.7476 46.5915 58.9577 46.6878 59.1796 46.6878C59.601 46.6878 59.9446 46.3441 59.9446 45.9221C59.9446 45.5 59.601 45.1564 59.1796 45.1564H44.6245C44.0546 45.1564 43.5934 44.6953 43.5934 44.1253C43.5934 43.5552 44.0545 43.0941 44.6245 43.0941H59.1796C60.7376 43.0941 62.0074 44.3626 62.0074 45.922C62.0074 47.4813 60.7376 48.7504 59.1796 48.7504V48.7505Z" fill="#C3D95F"/>
</g>
<defs>
<clipPath id="clip0_1_80">
<rect width="66" height="66" fill="white"/>
</clipPath>
</defs>
</svg>
