<svg width="32" height="32" viewBox="0 0 32 32" fill="none" xmlns="http://www.w3.org/2000/svg">
<g clip-path="url(#clip0_3526_7187)">
<path d="M28.865 16.765L27.385 16.675L14.12 24.25H10.44H8.49L8.495 24.175L7.165 23.525L7.265 22.06L5.935 21.41L6.03 19.945L4.7 19.295L4.795 17.83L3.465 17.18L3.56 15.715L2.235 15.065L2.33 13.605L1 12.955L3.135 11.735L4.615 11.83L19.57 3.285L20.23 1.97L22.365 0.75L22.27 2.215L23.6 2.865L23.505 4.325L24.835 4.975L24.735 6.44L26.065 7.09L25.97 8.555L27.3 9.205L27.205 10.67L28.535 11.32L28.44 12.78L29.765 13.43L29.67 14.895L31 15.545L28.865 16.765Z" fill="#8FF3AD"/>
<path d="M15.5 31.25C15.7761 31.25 16 31.0261 16 30.75C16 30.4739 15.7761 30.25 15.5 30.25C15.2239 30.25 15 30.4739 15 30.75C15 31.0261 15.2239 31.25 15.5 31.25Z" fill="#979FAF"/>
<path d="M14 29.25C14.2761 29.25 14.5 29.0261 14.5 28.75C14.5 28.4739 14.2761 28.25 14 28.25C13.7239 28.25 13.5 28.4739 13.5 28.75C13.5 29.0261 13.7239 29.25 14 29.25Z" fill="#979FAF"/>
<path d="M13 27.25C13.2761 27.25 13.5 27.0261 13.5 26.75C13.5 26.4739 13.2761 26.25 13 26.25C12.7239 26.25 12.5 26.4739 12.5 26.75C12.5 27.0261 12.7239 27.25 13 27.25Z" fill="#979FAF"/>
<path d="M13 31.25C13.2761 31.25 13.5 31.0261 13.5 30.75C13.5 30.4739 13.2761 30.25 13 30.25C12.7239 30.25 12.5 30.4739 12.5 30.75C12.5 31.0261 12.7239 31.25 13 31.25Z" fill="#979FAF"/>
<path d="M11.5 29.25C11.7761 29.25 12 29.0261 12 28.75C12 28.4739 11.7761 28.25 11.5 28.25C11.2239 28.25 11 28.4739 11 28.75C11 29.0261 11.2239 29.25 11.5 29.25Z" fill="#979FAF"/>
<path d="M10.5 27.25C10.7761 27.25 11 27.0261 11 26.75C11 26.4739 10.7761 26.25 10.5 26.25C10.2239 26.25 10 26.4739 10 26.75C10 27.0261 10.2239 27.25 10.5 27.25Z" fill="#979FAF"/>
<path d="M10.5 31.25C10.7761 31.25 11 31.0261 11 30.75C11 30.4739 10.7761 30.25 10.5 30.25C10.2239 30.25 10 30.4739 10 30.75C10 31.0261 10.2239 31.25 10.5 31.25Z" fill="#979FAF"/>
<path d="M9 29.25C9.27614 29.25 9.5 29.0261 9.5 28.75C9.5 28.4739 9.27614 28.25 9 28.25C8.72386 28.25 8.5 28.4739 8.5 28.75C8.5 29.0261 8.72386 29.25 9 29.25Z" fill="#979FAF"/>
<path d="M8 31.25C8.27614 31.25 8.5 31.0261 8.5 30.75C8.5 30.4739 8.27614 30.25 8 30.25C7.72386 30.25 7.5 30.4739 7.5 30.75C7.5 31.0261 7.72386 31.25 8 31.25Z" fill="#979FAF"/>
<path d="M27.3 9.20497L25.97 8.55497L26.065 7.08997" stroke="#303E58" stroke-width="1.5" stroke-linecap="round" stroke-linejoin="round"/>
<path d="M5.93495 21.41L6.02995 19.945L4.69995 19.295" stroke="#303E58" stroke-width="1.5" stroke-linecap="round" stroke-linejoin="round"/>
<path d="M27.3 9.20496L27.205 10.67L28.535 11.32" stroke="#303E58" stroke-width="1.5" stroke-linecap="round" stroke-linejoin="round"/>
<path d="M5.93506 21.41L7.26506 22.06L7.16506 23.525" stroke="#303E58" stroke-width="1.5" stroke-linecap="round" stroke-linejoin="round"/>
<path d="M26.065 7.08998L24.735 6.43998L24.835 4.97498" stroke="#303E58" stroke-width="1.5" stroke-linecap="round" stroke-linejoin="round"/>
<path d="M4.69997 19.2951L4.79497 17.8301L3.46497 17.1801" stroke="#303E58" stroke-width="1.5" stroke-linecap="round" stroke-linejoin="round"/>
<path d="M28.5349 11.3199L28.4399 12.7799L29.7649 13.4299" stroke="#303E58" stroke-width="1.5" stroke-linecap="round" stroke-linejoin="round"/>
<path d="M24.835 4.97499L23.505 4.32499L23.6 2.86499" stroke="#303E58" stroke-width="1.5" stroke-linecap="round" stroke-linejoin="round"/>
<path d="M3.46499 17.1799L3.55999 15.7149L2.23499 15.0649" stroke="#303E58" stroke-width="1.5" stroke-linecap="round" stroke-linejoin="round"/>
<path d="M22.365 0.75L20.23 1.97L19.57 3.285L4.615 11.83L3.135 11.735L1 12.955" stroke="#303E58" stroke-width="1.5" stroke-linecap="round" stroke-linejoin="round"/>
<path d="M29.765 13.4301L29.67 14.8951L31 15.5451" stroke="#303E58" stroke-width="1.5" stroke-linecap="round" stroke-linejoin="round"/>
<path d="M23.6 2.865L22.27 2.215L22.365 0.75" stroke="#303E58" stroke-width="1.5" stroke-linecap="round" stroke-linejoin="round"/>
<path d="M2.235 15.065L2.33 13.605L1 12.955" stroke="#303E58" stroke-width="1.5" stroke-linecap="round" stroke-linejoin="round"/>
<path d="M28.8649 16.765L22.6949 6.19995" stroke="#303E58" stroke-width="1.5" stroke-linecap="round" stroke-linejoin="round"/>
<path d="M9.52002 22.68L5.39502 15.61" stroke="#303E58" stroke-width="1.5" stroke-linecap="round" stroke-linejoin="round"/>
<path d="M16.53 7.83997L9.76501 11.705" stroke="white" stroke-width="1.5" stroke-linecap="round" stroke-linejoin="round"/>
<path d="M22.44 17.15L16.385 20.605" stroke="white" stroke-width="1.5" stroke-linecap="round" stroke-linejoin="round"/>
<path d="M24.575 15.93L25.85 15.67" stroke="white" stroke-width="1.5" stroke-linecap="round" stroke-linejoin="round"/>
<path d="M19.025 6.415L20.245 5.25" stroke="white" stroke-width="1.5" stroke-linecap="round" stroke-linejoin="round"/>
<path d="M13.895 22.03L12.675 23.195" stroke="white" stroke-width="1.5" stroke-linecap="round" stroke-linejoin="round"/>
<path d="M7.62998 12.925L6.35498 13.18" stroke="white" stroke-width="1.5" stroke-linecap="round" stroke-linejoin="round"/>
<path d="M7.16504 23.525L8.49504 24.175L8.49004 24.25H10.44H14.12L27.385 16.675L28.865 16.765L31 15.545" stroke="#303E58" stroke-width="1.5" stroke-linecap="round" stroke-linejoin="round"/>
</g>
<defs>
<clipPath id="clip0_3526_7187">
<rect width="32" height="32" fill="white"/>
</clipPath>
</defs>
</svg>
