<svg width="91" height="91" viewBox="0 0 91 91" fill="none" xmlns="http://www.w3.org/2000/svg">
<g clip-path="url(#clip0_65_1377)">
<path d="M48.3556 85.266C46.4102 85.266 45.2501 83.3387 45.8499 81.6884L57.2722 50.2766C57.7755 48.8929 59.3057 48.1792 60.6894 48.6819C62.0731 49.1852 62.7868 50.7154 62.2834 52.0991L50.8612 83.5102C50.4669 84.5932 49.4449 85.266 48.3556 85.266Z" fill="#3AB4FB"/>
<path d="M76.9127 85.2661C75.8268 85.2661 74.8062 84.5975 74.4098 83.5186L62.873 52.1068C62.3655 50.7245 63.0751 49.1929 64.4567 48.6854C65.8383 48.1772 67.3705 48.8867 67.8781 50.2684L79.4148 81.6801C80.0647 83.4491 78.7317 85.2661 76.9127 85.2661Z" fill="#1D9CFD"/>
<path d="M82.6238 5.6875H42.644C38.0181 5.6875 34.2676 9.43797 34.2676 14.0639V45.4771C34.2676 50.103 38.0181 53.8535 42.644 53.8535H82.6238C87.2498 53.8535 91.0003 50.103 91.0003 45.4771V14.0639C91.0003 9.43797 87.2498 5.6875 82.6238 5.6875Z" fill="#EFF6FE"/>
<path d="M82.6236 5.6875H62.2834V53.8535H82.6236C87.2496 53.8535 91 50.103 91 45.4771V14.0639C91 9.43797 87.2496 5.6875 82.6236 5.6875Z" fill="#D9E4EF"/>
<path d="M28.5555 22.632C28.5555 29.045 23.3568 34.2437 16.9438 34.2437C10.5308 34.2437 5.33203 29.045 5.33203 22.632C5.33203 16.2183 10.5308 11.0195 16.9438 11.0195C23.3568 11.0195 28.5555 16.2183 28.5555 22.632Z" fill="#FFCFBE"/>
<path d="M42.8803 50.7171C41.5632 50.0582 41.03 48.4572 41.6882 47.1402L48.8274 32.8617C49.4863 31.5447 51.088 31.0115 52.4044 31.6697C53.7214 32.3285 54.2546 33.9295 53.5964 35.2466L46.4572 49.5243C45.7976 50.8435 44.1952 51.3746 42.8803 50.7171Z" fill="#FFB826"/>
<path d="M28.5572 22.6317C28.5572 29.0447 23.3585 34.2434 16.9434 34.2434V11.0186C23.3585 11.0186 28.5572 16.2173 28.5572 22.6317Z" fill="#F9BCAA"/>
<path d="M76.9118 21.015H48.3556C46.883 21.015 45.6896 19.8209 45.6896 18.349C45.6896 16.8764 46.883 15.683 48.3556 15.683H76.9118C78.3837 15.683 79.5778 16.8764 79.5778 18.349C79.5778 19.8209 78.3844 21.015 76.9118 21.015Z" fill="#3AB4FB"/>
<path d="M76.9118 32.4365H64.9495C63.4769 32.4365 62.2834 31.2431 62.2834 29.7705C62.2834 28.298 63.4769 27.1045 64.9495 27.1045H76.9118C78.3844 27.1045 79.5778 28.298 79.5778 29.7705C79.5778 31.2431 78.3844 32.4365 76.9118 32.4365Z" fill="#1D9CFD"/>
<path d="M76.9118 43.8588H64.9495C63.4769 43.8588 62.2834 42.6646 62.2834 41.1927C62.2834 39.7202 63.4769 38.5267 64.9495 38.5267H76.9118C78.3844 38.5267 79.5778 39.7202 79.5778 41.1927C79.5778 42.6646 78.3844 43.8588 76.9118 43.8588Z" fill="#1D9CFD"/>
<path d="M76.9118 15.683H62.2834V21.015H76.9118C78.3844 21.015 79.5778 19.8209 79.5778 18.349C79.5778 16.8764 78.3844 15.683 76.9118 15.683Z" fill="#1D9CFD"/>
<path d="M25.5104 85.2653H8.37712C6.90456 85.2653 5.71111 84.0718 5.71111 82.5993V67.6967C2.39455 66.581 0 63.4421 0 59.7542V51.1875C0 46.6546 1.76415 42.3987 4.96684 39.2043C8.10913 36.0537 12.4761 34.2437 16.9445 34.2437H19.3001C23.9768 34.2437 26.7178 35.9565 30.5592 37.8664C34.7894 39.9701 40.0673 42.5945 43.4331 44.2711C46.5386 45.8145 48.0258 49.4338 46.908 52.71C46.9045 52.7205 46.901 52.7309 46.8976 52.7413C46.2248 54.7311 44.7169 56.3342 42.7597 57.1395C40.7963 57.9386 38.5961 57.8539 36.7119 56.9118C34.025 55.5677 30.7043 53.9077 28.1771 52.6448V82.5993C28.1765 84.0718 26.983 85.2653 25.5104 85.2653Z" fill="#FF7579"/>
<path d="M43.4334 44.2711C40.0676 42.5944 34.7897 39.97 30.5588 37.8664C26.7181 35.9564 23.9771 34.2437 19.3004 34.2437H16.9441C16.9441 34.2437 16.9441 34.2437 16.9434 34.2437V85.2652H25.5107C26.9833 85.2652 28.1767 84.0718 28.1767 82.5992V52.6447C30.7046 53.9076 34.0253 55.5676 36.7121 56.9117C38.5957 57.8539 40.7966 57.9379 42.7593 57.1395C44.7164 56.3341 46.2251 54.731 46.8979 52.7405C46.9013 52.7301 46.9048 52.7197 46.9083 52.7093C48.026 49.4337 46.5389 45.8144 43.4334 44.2711Z" fill="#FE4A60"/>
</g>
<defs>
<clipPath id="clip0_65_1377">
<rect width="91" height="91" fill="white"/>
</clipPath>
</defs>
</svg>
