<svg width="61" height="61" viewBox="0 0 61 61" fill="none" xmlns="http://www.w3.org/2000/svg">
<path d="M59.0342 8.20152H37.2941C37.2255 6.58132 35.8865 5.28424 34.2497 5.28424H17.3054C15.6251 5.28424 14.2578 6.6515 14.2578 8.33198V16.8455C14.2578 18.526 15.6251 19.8933 17.3054 19.8933H18.694V23.2773C18.694 23.4378 18.786 23.584 18.9307 23.6533C18.988 23.6807 19.0496 23.6943 19.1109 23.6943C19.2042 23.6943 19.2967 23.663 19.3721 23.6024L20.2821 22.8711V36.6173C20.2821 36.6173 20.2821 36.6181 20.2821 36.6186L8.06677 36.5793C4.43834 36.5689 1.54871 39.8624 1.54871 43.1388V53.5063C1.54871 54.7215 2.54305 55.7158 3.75817 55.7158C4.97328 55.7158 5.96763 54.7215 5.96763 53.5063V55.7158H18.8657V42.9973L26.3055 40.9499L30.7497 37.0341H57.1767C57.407 37.0341 57.5936 36.8475 57.5936 36.6172V12.3428H59.0339C59.2642 12.3428 59.4509 12.1562 59.4509 11.9259V8.61851C59.4509 8.38821 59.2642 8.20152 59.0339 8.20152H59.0342Z" fill="#DCEAE9"/>
<path d="M59.035 8.20142H37.2949C37.2968 8.24466 37.2983 8.28815 37.2983 8.33188V12.3429H59.035C59.2653 12.3429 59.452 12.1562 59.452 11.9259V8.61853C59.452 8.38823 59.2653 8.20142 59.035 8.20142Z" fill="#757575"/>
<path d="M49.9574 27.7361H46.8711C46.4105 27.7361 46.0371 27.3627 46.0371 26.9021C46.0371 26.4415 46.4105 26.0681 46.8711 26.0681H49.9574C50.418 26.0681 50.7914 26.4415 50.7914 26.9021C50.7914 27.3627 50.418 27.7361 49.9574 27.7361Z" fill="#757575"/>
<path d="M49.9583 31.917H36.5527C36.0921 31.917 35.7188 31.5436 35.7188 31.083C35.7188 30.6224 36.0921 30.249 36.5527 30.249H49.9583C50.4189 30.249 50.7923 30.6224 50.7923 31.083C50.7923 31.5436 50.4189 31.917 49.9583 31.917Z" fill="#757575"/>
<path d="M43.3402 27.7361H27.922C27.4614 27.7361 27.088 27.3627 27.088 26.9021C27.088 26.4415 27.4614 26.0681 27.922 26.0681H43.3402C43.8008 26.0681 44.1742 26.4415 44.1742 26.9021C44.1742 27.3627 43.8008 27.7361 43.3402 27.7361Z" fill="#757575"/>
<path d="M49.9584 23.5518H27.9219C27.4613 23.5518 27.0879 23.1785 27.0879 22.7179C27.0879 22.2573 27.4613 21.8839 27.9219 21.8839H49.9584C50.419 21.8839 50.7924 22.2573 50.7924 22.7179C50.7924 23.1785 50.419 23.5518 49.9584 23.5518Z" fill="#757575"/>
<path d="M49.9577 19.3711H40.5879C40.1273 19.3711 39.7539 18.9977 39.7539 18.5371C39.7539 18.0765 40.1273 17.7031 40.5879 17.7031H49.9577C50.4183 17.7031 50.7917 18.0765 50.7917 18.5371C50.7917 18.9977 50.4183 19.3711 49.9577 19.3711Z" fill="#757575"/>
<path d="M33.3936 31.601C32.5478 30.6412 31.0666 30.548 30.107 31.3938L24.162 36.6311L8.06702 36.5793C4.43859 36.5689 1.54895 39.8624 1.54895 43.1388V53.5063C1.54895 54.7215 2.54318 55.7158 3.75841 55.7158C4.97365 55.7158 5.96788 54.7215 5.96788 53.5063V55.7158H18.8659V42.9973L26.3058 40.9499L33.1863 34.8876C34.1461 34.0418 34.2394 32.5641 33.3936 31.601Z" fill="#64B5F6"/>
<path d="M12.4159 25.803C9.82318 25.803 7.7207 27.9055 7.7207 30.5016C7.7207 33.0978 9.82318 35.1969 12.4159 35.1969C15.0087 35.1969 17.1111 33.0944 17.1111 30.5016C17.1111 27.9089 15.0087 25.803 12.4159 25.803Z" fill="#FFCCBC"/>
<path d="M12.4169 25.803C12.1113 25.803 11.8127 25.8333 11.5233 25.889C13.6887 26.3066 15.325 28.2116 15.325 30.5017C15.325 32.7918 13.6887 34.6934 11.5233 35.1109C11.8127 35.1666 12.1112 35.1969 12.4169 35.1969C15.0097 35.1969 17.1121 33.0944 17.1121 30.5017C17.1121 27.9089 15.0097 25.803 12.4169 25.803Z" fill="#F4B5A4"/>
<path d="M49.9795 39.827C48.0808 39.827 46.541 41.3668 46.541 43.2656C46.541 45.1643 48.0808 46.7041 49.9795 46.7041C51.8783 46.7041 53.418 45.1643 53.418 43.2656C53.418 41.3668 51.8784 39.827 49.9795 39.827Z" fill="#FFCCBC"/>
<path d="M42.7812 54.1042V51.5534C42.7812 49.5618 44.5389 47.9282 46.6879 47.9282H53.2731C55.422 47.9282 57.1761 49.5618 57.1761 51.5534V54.1042C57.1761 54.9923 56.4524 55.7158 55.5644 55.7158H44.3929C43.5085 55.7158 42.7812 54.9923 42.7812 54.1042Z" fill="#81C784"/>
<path d="M35.585 39.8271C33.6863 39.8271 32.1465 41.3669 32.1465 43.2657C32.1465 45.1644 33.6863 46.7042 35.585 46.7042C37.4837 46.7042 39.0236 45.1644 39.0236 43.2657C39.0236 41.3669 37.4839 39.8271 35.585 39.8271Z" fill="#FFCCBC"/>
<path d="M28.3867 54.1042V51.5534C28.3867 49.5618 30.1445 47.9282 32.2933 47.9282H38.8786C41.0274 47.9282 42.7815 49.5618 42.7815 51.5534V54.1042C42.7815 54.9923 42.0579 55.7158 41.1699 55.7158H29.9983C29.1103 55.7158 28.3867 54.9923 28.3867 54.1042Z" fill="#FFD54F"/>
<path d="M49.9795 39.827C49.7553 39.827 49.5364 39.8492 49.3242 39.8902C50.9096 40.1963 52.1075 41.5909 52.1075 43.2656C52.1075 44.9402 50.9096 46.3349 49.3242 46.6409C49.5364 46.6819 49.7553 46.7041 49.9795 46.7041C51.8784 46.7041 53.418 45.1643 53.418 43.2656C53.418 41.3668 51.8784 39.827 49.9795 39.827Z" fill="#F4B5A4"/>
<path d="M53.2734 47.9282H51.7246C53.8734 47.9282 55.6275 49.5618 55.6275 51.5534V54.1042C55.6275 54.9923 54.904 55.7158 54.0159 55.7158H55.5647C56.4528 55.7158 57.1764 54.9923 57.1764 54.1042V51.5534C57.1764 49.5618 55.4223 47.9282 53.2734 47.9282Z" fill="#66BB6A"/>
<path d="M35.585 39.8271C35.3609 39.8271 35.1419 39.8493 34.9297 39.8903C36.5151 40.1964 37.7129 41.591 37.7129 43.2657C37.7129 44.9403 36.515 46.335 34.9297 46.641C35.1419 46.682 35.3607 46.7042 35.585 46.7042C37.4838 46.7042 39.0236 45.1644 39.0236 43.2657C39.0236 41.3669 37.4838 39.8271 35.585 39.8271Z" fill="#F4B5A4"/>
<path d="M38.879 47.9281H37.3302C39.479 47.9281 41.2332 49.5617 41.2332 51.5533V54.1041C41.2332 54.9922 40.5096 55.7158 39.6216 55.7158H41.1705C42.0585 55.7158 42.7821 54.9922 42.7821 54.1041V51.5533C42.7821 49.5617 41.0278 47.9281 38.879 47.9281Z" fill="#EFC44B"/>
<path d="M34.2497 5.28424H17.3054C15.6251 5.28424 14.2578 6.6515 14.2578 8.33198V16.8455C14.2578 18.526 15.6251 19.8933 17.3054 19.8933H18.694V23.2773C18.694 23.4378 18.786 23.584 18.9307 23.6533C18.9881 23.6807 19.0496 23.6943 19.1109 23.6943C19.2042 23.6943 19.2967 23.663 19.3722 23.6024L23.9876 19.8933H34.2496C35.9301 19.8933 37.2973 18.526 37.2973 16.8455V8.33198C37.2973 6.6515 35.9301 5.28424 34.2496 5.28424H34.2497Z" fill="#89CAF7"/>
<path d="M18.6935 23.1898V23.2773C18.6935 23.4378 18.7855 23.5839 18.9302 23.6533C18.9875 23.6807 19.0491 23.6943 19.1104 23.6943C19.2036 23.6943 19.2962 23.6629 19.3716 23.6023L23.987 19.8932H22.7956L18.6935 23.1898Z" fill="#6EBFED"/>
<path d="M34.25 5.28418H33.0586C34.7391 5.28418 36.1063 6.65144 36.1063 8.33192V16.8455C36.1063 18.5259 34.7391 19.8932 33.0586 19.8932H34.25C35.9305 19.8932 37.2977 18.5259 37.2977 16.8455V8.33192C37.2977 6.65144 35.9305 5.28418 34.25 5.28418Z" fill="#6EBFED"/>
<path d="M32.4225 11.2166H23.657C23.1964 11.2166 22.823 10.8432 22.823 10.3826C22.823 9.92197 23.1964 9.54858 23.657 9.54858H32.4225C32.8831 9.54858 33.2565 9.92197 33.2565 10.3826C33.2565 10.8432 32.8831 11.2166 32.4225 11.2166ZM20.2598 11.2166H19.1309C18.6703 11.2166 18.2969 10.8432 18.2969 10.3826C18.2969 9.92197 18.6703 9.54858 19.1309 9.54858H20.2598C20.7204 9.54858 21.0938 9.92197 21.0938 10.3826C21.0938 10.8432 20.7204 11.2166 20.2598 11.2166Z" fill="white"/>
<path d="M32.4244 15.6287H19.1328C18.6722 15.6287 18.2988 15.2553 18.2988 14.7947C18.2988 14.3341 18.6722 13.9607 19.1328 13.9607H32.4244C32.885 13.9607 33.2584 14.3341 33.2584 14.7947C33.2584 15.2553 32.885 15.6287 32.4244 15.6287Z" fill="white"/>
<path d="M56.5225 12.3428V36.6171C56.5225 36.8474 56.3358 37.0341 56.1055 37.0341H57.1777C57.408 37.0341 57.5947 36.8474 57.5947 36.6171V12.3428H56.5225Z" fill="#CADDDB"/>
<path d="M59.0336 8.20142H57.8174V11.0847C57.8174 11.315 57.6307 11.5017 57.4004 11.5017H37.2969V12.3427H59.0336C59.2639 12.3427 59.4506 12.1561 59.4506 11.9258V8.61841C59.4506 8.38811 59.2639 8.20142 59.0336 8.20142Z" fill="#706B69"/>
<path d="M33.3928 31.6009C32.7351 30.8547 31.6944 30.635 30.8124 30.9704C31.1533 31.1 31.4684 31.3101 31.7248 31.6009C32.5706 32.5641 32.4773 34.0417 31.5176 34.8875L24.6371 40.9499L17.1973 42.9972V55.7157H18.8652V42.9972L26.3051 40.9499L33.1856 34.8875C34.1454 34.0417 34.2385 32.564 33.3928 31.6009Z" fill="#42A5F5"/>
<path d="M5.13079 42.9973C4.66876 42.9973 4.2943 43.3718 4.2943 43.8338V53.5064H4.29931C4.29931 54.4267 3.7285 55.2194 2.92383 55.5503C3.18165 55.6564 3.46294 55.7158 3.75781 55.7158C4.97305 55.7158 5.96728 54.7216 5.96728 53.5064V43.8338C5.96728 43.3718 5.5927 42.9973 5.13079 42.9973Z" fill="#42A5F5"/>
</svg>
