<svg width="34" height="34" viewBox="0 0 34 34" fill="none" xmlns="http://www.w3.org/2000/svg">
<path d="M15.5834 12.75H17.7084C18.1 12.75 18.4168 12.4332 18.4168 12.0416V9.20827C18.4168 8.81674 18.1 8.49992 17.7084 8.49992H15.5834V6.37498C15.5834 5.98345 15.2666 5.66663 14.8751 5.66663H12.0417C11.6502 5.66663 11.3334 5.98345 11.3334 6.37498V8.49998H9.20836C8.81682 8.49998 8.5 8.81681 8.5 9.20834V12.0417C8.5 12.4332 8.81682 12.75 9.20836 12.75H11.3334V14.875C11.3334 15.2666 11.6502 15.5834 12.0417 15.5834H14.8751C15.2666 15.5834 15.5834 15.2666 15.5834 14.875V12.75ZM14.8751 11.3333C14.4835 11.3333 14.1667 11.6502 14.1667 12.0417V14.1667H12.7501V12.0417C12.7501 11.6502 12.4332 11.3333 12.0417 11.3333H9.91671V9.91669H12.0417C12.4332 9.91669 12.7501 9.59987 12.7501 9.20834V7.08334H14.1667V9.20834C14.1667 9.59987 14.4835 9.91669 14.8751 9.91669H17.0001V11.3333H14.8751Z" fill="#DBDBDB"/>
<path d="M29.5425 7.29087L22.4591 0.20752C22.3263 0.074707 22.1465 0 21.9583 0H7.08329C5.52141 0 4.25 1.27068 4.25 2.83336V31.1667C4.25 32.7293 5.52141 34 7.08336 34H26.9167C28.4786 34 29.75 32.7293 29.75 31.1666V7.79164C29.75 7.60352 29.6753 7.42369 29.5425 7.29087ZM22.6666 2.41832L27.3317 7.08336H24.0833C23.3016 7.08336 22.6666 6.44765 22.6666 5.66671V2.41832ZM28.3334 31.1666C28.3334 31.9476 27.6983 32.5833 26.9167 32.5833H7.08336C6.30169 32.5833 5.66671 31.9476 5.66671 31.1666V2.83336C5.66671 2.05242 6.30175 1.41671 7.08336 1.41671H21.25V5.66671C21.25 7.22932 22.5214 8.5 24.0834 8.5H28.3334V31.1666Z" fill="#DBDBDB"/>
<path d="M10.625 18.4166C9.4532 18.4166 8.5 19.3698 8.5 20.5416C8.5 21.7134 9.4532 22.6666 10.625 22.6666C11.7968 22.6666 12.75 21.7134 12.75 20.5416C12.75 19.3699 11.7968 18.4166 10.625 18.4166ZM10.625 21.25C10.2349 21.25 9.91664 20.9325 9.91664 20.5416C9.91664 20.1508 10.2349 19.8333 10.625 19.8333C11.0151 19.8333 11.3334 20.1508 11.3334 20.5416C11.3334 20.9325 11.0151 21.25 10.625 21.25Z" fill="#DBDBDB"/>
<path d="M10.625 25.5C9.4532 25.5 8.5 26.4532 8.5 27.625C8.5 28.7968 9.4532 29.75 10.625 29.75C11.7968 29.75 12.75 28.7968 12.75 27.625C12.75 26.4532 11.7968 25.5 10.625 25.5ZM10.625 28.3334C10.2349 28.3334 9.91664 28.0159 9.91664 27.625C9.91664 27.2342 10.2349 26.9166 10.625 26.9166C11.0151 26.9166 11.3334 27.2341 11.3334 27.625C11.3334 28.0158 11.0151 28.3334 10.625 28.3334Z" fill="#DBDBDB"/>
<path d="M15.584 20.5417C15.584 20.9332 15.9008 21.25 16.2923 21.25H24.7923C25.1839 21.25 25.5007 20.9332 25.5007 20.5417C25.5007 20.1501 25.1839 19.8333 24.7923 19.8333H16.2923C15.9008 19.8334 15.584 20.1502 15.584 20.5417Z" fill="#DBDBDB"/>
<path d="M24.7923 26.9166H16.2923C15.9008 26.9166 15.584 27.2334 15.584 27.625C15.584 28.0165 15.9008 28.3333 16.2923 28.3333H24.7923C25.1839 28.3333 25.5007 28.0165 25.5007 27.625C25.5007 27.2334 25.1839 26.9166 24.7923 26.9166Z" fill="#DBDBDB"/>
</svg>
