<svg width="23" height="22" viewBox="0 0 23 22" fill="none" xmlns="http://www.w3.org/2000/svg">
<g clip-path="url(#clip0_1773_5250)">
<path d="M22.1336 12.5069C22.1379 15.0964 21.2247 17.6036 19.5559 19.5836C19.4898 19.6598 19.4087 19.7216 19.3177 19.7651C19.2266 19.8086 19.1276 19.8328 19.0267 19.8362C18.9259 19.8397 18.8254 19.8223 18.7316 19.7851C18.6378 19.7479 18.5527 19.6918 18.4816 19.6202L16.3952 17.5339C16.2666 17.4027 16.1913 17.2284 16.1839 17.0448C16.1764 16.8613 16.2374 16.6815 16.3549 16.5402C17.2499 15.3864 17.735 13.9672 17.7336 12.5069C17.7343 11.2274 17.3399 9.9788 16.6042 8.93191L15.8379 8.16558L16.6336 5.86658L19.0206 4.98291C20.0094 5.97019 20.7935 7.14312 21.3277 8.43432C21.862 9.72552 22.1358 11.1096 22.1336 12.5069Z" fill="#F14336"/>
<path d="M19.0211 4.9831L15.8385 8.16576L15.0721 7.39943C13.8736 6.55734 12.416 6.1658 10.9568 6.29394C9.4976 6.42208 8.1306 7.06166 7.09714 8.09976L4.9008 7.33343L3.98047 4.9831C5.97563 2.98979 8.68053 1.87012 11.5008 1.87012C14.3211 1.87012 17.026 2.98979 19.0211 4.9831Z" fill="#48505B"/>
<path d="M6.64587 16.5402C6.7634 16.6815 6.82434 16.8613 6.81689 17.0448C6.80944 17.2284 6.73412 17.4027 6.60554 17.5339L4.5192 19.6202C4.44808 19.6918 4.36295 19.7479 4.26915 19.7851C4.17534 19.8223 4.07488 19.8397 3.97404 19.8362C3.8732 19.8328 3.77416 19.8086 3.6831 19.7651C3.59205 19.7216 3.51095 19.6598 3.44487 19.5836C1.77607 17.6036 0.862816 15.0964 0.867203 12.5069C0.864944 11.1096 1.13879 9.72552 1.67302 8.43432C2.20725 7.14312 2.99132 5.97019 3.9802 4.98291L7.09687 8.09958C6.51661 8.67747 6.05625 9.36432 5.74226 10.1207C5.42827 10.877 5.26682 11.688 5.2672 12.5069C5.2658 13.9672 5.75089 15.3864 6.64587 16.5402Z" fill="#48505B"/>
<path d="M12.4392 11.5671L18.7217 12.6588C18.8476 12.6795 18.9629 12.7423 19.0485 12.837C19.1341 12.9317 19.1851 13.0526 19.1931 13.18C19.2011 13.3074 19.1656 13.4337 19.0925 13.5383C19.0194 13.643 18.9129 13.7197 18.7905 13.756L12.6327 15.6439L12.4392 11.5671Z" fill="white"/>
<path d="M11.4997 16.1587C13.1198 16.1587 14.4331 14.8454 14.4331 13.2253C14.4331 11.6053 13.1198 10.292 11.4997 10.292C9.8797 10.292 8.56641 11.6053 8.56641 13.2253C8.56641 14.8454 9.8797 16.1587 11.4997 16.1587Z" fill="white"/>
</g>
<defs>
<clipPath id="clip0_1773_5250">
<rect width="22" height="22" fill="white" transform="translate(0.5)"/>
</clipPath>
</defs>
</svg>
