<svg width="22" height="22" viewBox="0 0 22 22" fill="none" xmlns="http://www.w3.org/2000/svg">
<path d="M21.6336 12.5069C21.6379 15.0964 20.7247 17.6036 19.0559 19.5836C18.9898 19.6598 18.9087 19.7216 18.8177 19.7651C18.7266 19.8086 18.6276 19.8328 18.5267 19.8362C18.4259 19.8397 18.3254 19.8223 18.2316 19.7851C18.1378 19.7479 18.0527 19.6918 17.9816 19.6202L15.8952 17.5339C15.7666 17.4027 15.6913 17.2284 15.6839 17.0448C15.6764 16.8613 15.7374 16.6815 15.8549 16.5402C16.7499 15.3864 17.235 13.9672 17.2336 12.5069C17.2343 11.2274 16.8399 9.9788 16.1042 8.93191L15.3379 8.16558L16.1336 5.86658L18.5206 4.98291C19.5094 5.97019 20.2935 7.14312 20.8277 8.43432C21.362 9.72552 21.6358 11.1096 21.6336 12.5069Z" fill="#48505B"/>
<path d="M18.5211 4.9831L15.3385 8.16576L14.5721 7.39943C13.3736 6.55734 11.916 6.1658 10.4568 6.29394C8.9976 6.42208 7.6306 7.06166 6.59714 8.09976L4.4008 7.33343L3.48047 4.9831C5.47563 2.98979 8.18053 1.87012 11.0008 1.87012C13.8211 1.87012 16.526 2.98979 18.5211 4.9831Z" fill="#48505B"/>
<path d="M6.14587 16.5402C6.2634 16.6815 6.32434 16.8613 6.31689 17.0448C6.30944 17.2284 6.23412 17.4027 6.10554 17.5339L4.0192 19.6202C3.94808 19.6918 3.86295 19.7479 3.76915 19.7851C3.67534 19.8223 3.57488 19.8397 3.47404 19.8362C3.3732 19.8328 3.27416 19.8086 3.1831 19.7651C3.09205 19.7216 3.01095 19.6598 2.94487 19.5836C1.27607 17.6036 0.362816 15.0964 0.367203 12.5069C0.364944 11.1096 0.638793 9.72552 1.17302 8.43432C1.70725 7.14312 2.49132 5.97019 3.4802 4.98291L6.59687 8.09958C6.01661 8.67747 5.55625 9.36432 5.24226 10.1207C4.92827 10.877 4.76682 11.688 4.7672 12.5069C4.7658 13.9672 5.25089 15.3864 6.14587 16.5402Z" fill="#67CF65"/>
<path d="M10.768 15.318L4.53781 13.9591C4.41285 13.933 4.30042 13.8653 4.21891 13.7671C4.1374 13.6689 4.09163 13.5459 4.08908 13.4183C4.08653 13.2906 4.12736 13.1659 4.20488 13.0645C4.28241 12.9631 4.39205 12.891 4.51587 12.86L10.7487 11.2367L10.768 15.318Z" fill="white"/>
<path d="M10.9997 16.1587C12.6198 16.1587 13.9331 14.8454 13.9331 13.2253C13.9331 11.6053 12.6198 10.292 10.9997 10.292C9.3797 10.292 8.06641 11.6053 8.06641 13.2253C8.06641 14.8454 9.3797 16.1587 10.9997 16.1587Z" fill="white"/>
</svg>
