<svg width="79" height="79" viewBox="0 0 79 79" fill="none" xmlns="http://www.w3.org/2000/svg">
<g clip-path="url(#clip0_65_1545)">
<path d="M69.7864 50.8032C75.674 48.6737 78.7205 42.1746 76.5909 36.287C74.4614 30.3994 67.9622 27.353 62.0747 29.4825C56.1871 31.612 53.1406 38.1112 55.2702 43.9988C57.3997 49.8863 63.8989 52.9328 69.7864 50.8032Z" fill="#F9AC00"/>
<path fill-rule="evenodd" clip-rule="evenodd" d="M65.6118 51.4606C59.5124 51.2735 54.6252 46.2707 54.6252 40.1258C54.6252 33.981 59.5124 28.9784 65.6118 28.7912C71.7112 28.9785 76.5984 33.9811 76.5984 40.1258C76.5984 46.2706 71.7112 51.2735 65.6118 51.4606Z" fill="#FDC72E"/>
<path d="M74.7752 42.2334C75.9246 37.3711 72.9147 32.4977 68.0524 31.3483C63.1901 30.199 58.3166 33.2089 57.1673 38.0712C56.0179 42.9335 59.0279 47.8069 63.8902 48.9563C68.7525 50.1056 73.6259 47.0957 74.7752 42.2334Z" fill="#F19A00"/>
<path fill-rule="evenodd" clip-rule="evenodd" d="M66.5466 31.0969C71.2726 31.397 75.0129 35.3243 75.0129 40.126C75.0129 44.9277 71.2726 48.855 66.5466 49.1552C61.8206 48.855 58.0803 44.9277 58.0803 40.126C58.0803 35.3243 61.8206 31.397 66.5466 31.0969Z" fill="#F9AC00"/>
<path d="M53.0808 70.8039H33.4876C32.6347 70.8039 31.9434 71.4953 31.9434 72.3481V75.6298C31.9434 76.4827 32.6347 77.174 33.4876 77.174H53.0808C53.9336 77.174 54.625 76.4827 54.625 75.6298V72.3481C54.625 71.4953 53.9336 70.8039 53.0808 70.8039Z" fill="#F19A00"/>
<path d="M53.0808 64.4336H33.4876C32.6347 64.4336 31.9434 65.125 31.9434 65.9778V69.2595C31.9434 70.1124 32.6347 70.8037 33.4876 70.8037H53.0808C53.9336 70.8037 54.625 70.1124 54.625 69.2595V65.9778C54.625 65.125 53.9336 64.4336 53.0808 64.4336Z" fill="#FDC72E"/>
<path fill-rule="evenodd" clip-rule="evenodd" d="M33.4876 70.8037H50.8639C51.1024 70.8037 51.297 70.9983 51.297 71.237V74.4933C51.297 75.3425 50.602 76.0375 49.7528 76.0375H32.3766C32.1381 76.0375 31.9434 75.8429 31.9434 75.6042V72.3478C31.9434 71.4984 32.6382 70.8037 33.4876 70.8037Z" fill="#F9AC00"/>
<path fill-rule="evenodd" clip-rule="evenodd" d="M33.4876 64.4336H50.8639C51.1024 64.4336 51.297 64.6282 51.297 64.8669V68.1231C51.297 68.9724 50.602 69.6673 49.7528 69.6673H32.3766C32.1381 69.6673 31.9434 69.4728 31.9434 69.2341V65.9778C31.9434 65.1284 32.6382 64.4336 33.4876 64.4336Z" fill="#FCDB35"/>
<path d="M75.7546 64.4375H56.1614C55.3086 64.4375 54.6172 65.1289 54.6172 65.9817V69.2634C54.6172 70.1163 55.3086 70.8076 56.1614 70.8076H75.7546C76.6075 70.8076 77.2988 70.1163 77.2988 69.2634V65.9817C77.2988 65.1289 76.6075 64.4375 75.7546 64.4375Z" fill="#F19A00"/>
<path d="M75.7546 70.8076H56.1614C55.3086 70.8076 54.6172 71.499 54.6172 72.3518V75.6336C54.6172 76.4864 55.3086 77.1778 56.1614 77.1778H75.7546C76.6075 77.1778 77.2988 76.4864 77.2988 75.6336V72.3518C77.2988 71.499 76.6075 70.8076 75.7546 70.8076Z" fill="#FDC72E"/>
<path d="M56.1618 58.0673H75.7549C76.6072 58.0673 77.2991 58.7593 77.2991 59.6115V62.8931C77.2991 63.7454 76.607 64.4375 75.7547 64.4375H56.1616C55.3093 64.4375 54.6174 63.7454 54.6174 62.8933V59.6115C54.6174 58.7592 55.3096 58.0673 56.1618 58.0673Z" fill="#FDC72E"/>
<path d="M75.7546 51.6973H56.1614C55.3086 51.6973 54.6172 52.3886 54.6172 53.2415V56.5232C54.6172 57.376 55.3086 58.0674 56.1614 58.0674H75.7546C76.6075 58.0674 77.2988 57.376 77.2988 56.5232V53.2415C77.2988 52.3886 76.6075 51.6973 75.7546 51.6973Z" fill="#F19A00"/>
<path fill-rule="evenodd" clip-rule="evenodd" d="M56.1615 51.697H73.5378C73.7763 51.697 73.9709 51.8916 73.9709 52.1303V55.3865C73.9709 56.2358 73.2759 56.9307 72.4267 56.9307H55.0505C54.812 56.9307 54.6174 56.7362 54.6174 56.4975V53.241C54.6174 52.3916 55.3122 51.6968 56.1616 51.6968L56.1615 51.697Z" fill="#F9AC00"/>
<path fill-rule="evenodd" clip-rule="evenodd" d="M56.1615 58.0673H73.5378C73.7763 58.0673 73.9709 58.2619 73.9709 58.5006V61.7569C73.9709 62.6061 73.2759 63.3011 72.4267 63.3011H55.0505C54.812 63.3011 54.6174 63.1065 54.6174 62.868V59.6117C54.6174 58.7623 55.3122 58.0675 56.1616 58.0675L56.1615 58.0673Z" fill="#FCDB35"/>
<path fill-rule="evenodd" clip-rule="evenodd" d="M56.1615 64.4373H73.5378C73.7763 64.4373 73.9709 64.6319 73.9709 64.8706V68.1268C73.9709 68.9761 73.2759 69.671 72.4267 69.671H55.0505C54.812 69.671 54.6174 69.4765 54.6174 69.2378V65.9813C54.6174 65.1319 55.3122 64.4371 56.1616 64.4371L56.1615 64.4373Z" fill="#F9AC00"/>
<path fill-rule="evenodd" clip-rule="evenodd" d="M56.1615 70.8076H73.5378C73.7763 70.8076 73.9709 71.0022 73.9709 71.2409V74.4972C73.9709 75.3464 73.2759 76.0414 72.4267 76.0414H55.0505C54.812 76.0414 54.6174 75.8468 54.6174 75.6083V72.3518C54.6174 71.5024 55.3122 70.8076 56.1616 70.8076H56.1615Z" fill="#FCDB35"/>
<path fill-rule="evenodd" clip-rule="evenodd" d="M70.0264 36.6811C70.1029 37.0988 69.8263 37.4995 69.4086 37.5762C68.9909 37.6527 68.5902 37.3761 68.5135 36.9584C68.4259 36.4845 68.1722 36.1122 67.8265 35.8422C67.5216 35.604 67.142 35.4392 66.7339 35.348V39.6195C66.843 39.6536 66.9496 39.6884 67.0531 39.7246C68.0517 40.0735 68.9511 40.6026 69.5024 41.3864C70 42.0939 70.2063 42.9673 69.951 44.0415C69.7208 45.0096 69.0349 45.7046 68.1446 46.1117C67.7127 46.3092 67.2313 46.4372 66.7339 46.493V47.88C66.7339 48.306 66.3884 48.6515 65.9624 48.6515C65.5364 48.6515 65.1909 48.306 65.1909 47.88V46.4365C64.7073 46.3466 64.237 46.1877 63.81 45.9579C62.8564 45.4447 62.1121 44.5896 61.8805 43.3682C61.8022 42.9505 62.0775 42.5484 62.4952 42.4702C62.9129 42.392 63.315 42.6672 63.3932 43.0849C63.5276 43.7934 63.9701 44.2955 64.5392 44.6018C64.7433 44.7117 64.9629 44.7976 65.1909 44.8604V40.7647C64.4279 40.5277 63.6685 40.2298 63.0804 39.6692C62.4247 39.0439 62.0824 38.264 62.0209 37.4757C61.9564 36.6489 62.2063 35.8138 62.732 35.1409C63.292 34.4239 64.1465 33.98 65.0744 33.8083C65.1131 33.801 65.1519 33.7944 65.1909 33.7882V32.3721C65.1909 31.9461 65.5364 31.6006 65.9624 31.6006C66.3884 31.6006 66.7339 31.9461 66.7339 32.3721V33.7833C66.8238 33.7968 66.9132 33.813 67.0017 33.8316C67.6472 33.9664 68.2628 34.2327 68.7726 34.631C69.4015 35.1223 69.8643 35.8055 70.0263 36.6814L70.0264 36.6811ZM65.1909 35.3548C64.6793 35.477 64.2287 35.7215 63.9434 36.0868C63.6581 36.4521 63.5225 36.9078 63.5578 37.3608C63.591 37.785 63.7792 38.2087 64.1412 38.5538C64.404 38.8044 64.7779 38.9886 65.1909 39.1417V35.3548ZM66.7339 44.9416C67.009 44.8971 67.2705 44.8207 67.5058 44.7132C67.9801 44.4964 68.3401 44.1491 68.4503 43.6857C68.5919 43.0901 68.4933 42.6282 68.2429 42.2722C67.9291 41.8261 67.3768 41.4922 66.734 41.2455V44.9416H66.7339Z" fill="#FCDB35"/>
<path fill-rule="evenodd" clip-rule="evenodd" d="M15.0476 22.5695L7.90024 27.5472L5.97091 35.6051C5.33228 38.2723 1.22181 37.3236 1.73809 34.6699L3.52284 25.4963C3.70614 24.5539 4.21208 23.8105 5.02137 23.294L12.1388 18.7526L15.0474 22.5693L15.0476 22.5695Z" fill="#F2C496"/>
<path fill-rule="evenodd" clip-rule="evenodd" d="M1.69722 35.2485C1.68626 35.0663 1.6983 34.8732 1.7378 34.6702L3.52255 25.4966C3.70585 24.5542 4.21179 23.8108 5.02108 23.2943L12.1385 18.7529L13.8794 21.0373L6.85829 25.9273L4.92896 33.9851C4.53643 35.6245 2.83222 35.8975 1.69706 35.2483L1.69722 35.2485Z" fill="#FDD7AD"/>
<path fill-rule="evenodd" clip-rule="evenodd" d="M38.8496 24.6963L43.7309 32.0848L49.4206 33.5534C52.0861 34.2414 51.1198 38.2988 48.4855 37.7862L41.6123 36.4491C40.7148 36.2744 40.0067 35.7927 39.5149 35.0218L34.9365 27.8463L34.6035 27.3471L38.8496 24.6963Z" fill="#F2C496"/>
<path fill-rule="evenodd" clip-rule="evenodd" d="M38.8502 24.6963L43.7315 32.0848L49.4212 33.5534C51.0176 33.9655 51.3109 35.5858 50.7238 36.7094C50.488 36.7459 50.2325 36.7427 49.9585 36.6895L43.0853 35.3523C42.1878 35.1777 41.4797 34.6958 40.988 33.9251L36.4095 26.7495L36.1602 26.3757L38.8502 24.6963Z" fill="#FDD7AD"/>
<path fill-rule="evenodd" clip-rule="evenodd" d="M16.5764 37.0166L29.9438 38.4764L37.5074 49.3005L39.3957 62.1033H33.2204L31.0978 51.2966L25.35 45.6481L22.7034 52.6475L19.6907 67.5066L13.6699 67.4583L16.1905 51.9721L15.7563 45.2179L16.5764 37.0166Z" fill="#96602A"/>
<path fill-rule="evenodd" clip-rule="evenodd" d="M18.9812 37.2793L29.9446 38.4765L37.5082 49.3006L39.3965 62.1033H35.6514L35.5337 61.5036L33.5287 51.2967L26.0092 43.907L25.3508 45.6482L22.7042 52.6476L19.6915 67.5067L16.0977 67.4778L16.1009 67.4584L18.6215 51.9722L18.1873 45.218L18.9812 37.2793Z" fill="#AB733A"/>
<path fill-rule="evenodd" clip-rule="evenodd" d="M32.7553 59.7874H38.8414C40.1739 59.7874 41.3148 60.5069 41.8891 61.7092L42.5307 63.0525C42.6777 63.3604 42.6581 63.6946 42.476 63.9833C42.2941 64.272 42.0008 64.4337 41.6595 64.4337H32.7552C32.3756 64.4337 32.0647 64.1231 32.0647 63.7433V60.4776C32.0647 60.0978 32.3753 59.7872 32.7552 59.7872L32.7553 59.7874Z" fill="#6A75AD"/>
<path fill-rule="evenodd" clip-rule="evenodd" d="M33.3947 59.7873H38.8404C40.1729 59.7873 41.3138 60.5067 41.8881 61.709L42.5297 63.0523C42.5871 63.1727 42.6192 63.2971 42.626 63.4211H34.085C33.7053 63.4211 33.3945 63.1105 33.3945 62.7306V59.7871L33.3947 59.7873Z" fill="#7986BF"/>
<path fill-rule="evenodd" clip-rule="evenodd" d="M31.6369 39.8152L33.2204 26.2098L34.7642 27.9465L39.6559 25.1062L35.7784 19.4059C35.1647 18.5037 34.334 17.9338 33.2717 17.6856L21.0787 14.8389C20.0754 14.6046 19.1388 14.7194 18.2219 15.189L10.2344 19.2795L12.5499 24.7376L17.3967 22.9293L15.7338 37.8996C15.7047 38.1622 15.8934 38.4006 16.1558 38.4322L31.0993 40.2389C31.3667 40.2713 31.6059 40.0828 31.6369 39.8154V39.8152Z" fill="#6A75AD"/>
<path fill-rule="evenodd" clip-rule="evenodd" d="M31.6364 39.8152L33.22 26.2098L34.7637 27.9466L39.6554 25.1063L35.7779 19.4059C35.1643 18.5038 34.3336 17.9338 33.2712 17.6857L21.846 15.0182C21.37 15.0759 20.9048 15.2222 20.4445 15.4578L12.457 19.5483L14.3703 24.0583L17.3962 22.9293L19.7465 22.0524L17.9036 38.6437L31.0989 40.2389C31.3663 40.2713 31.6054 40.0828 31.6364 39.8154V39.8152Z" fill="#7986BF"/>
<path d="M27.9181 14.3657C31.1154 14.3657 33.7073 11.5577 33.7073 8.09397C33.7073 4.6302 31.1154 1.82227 27.9181 1.82227C24.7208 1.82227 22.1289 4.6302 22.1289 8.09397C22.1289 11.5577 24.7208 14.3657 27.9181 14.3657Z" fill="#F2C496"/>
<path fill-rule="evenodd" clip-rule="evenodd" d="M29.133 1.96112C31.7468 2.56596 33.7071 5.08177 33.7071 8.09396C33.7071 11.1061 31.7469 13.622 29.133 14.2268C26.5192 13.622 24.5588 11.1061 24.5588 8.09396C24.5588 5.08177 26.5192 2.56596 29.133 1.96112Z" fill="#FDD7AD"/>
<path fill-rule="evenodd" clip-rule="evenodd" d="M46.019 37.4639C48.5226 37.4639 50.5711 39.5123 50.5711 42.0159V64.4337H47.6765V42.0159C47.6765 41.1099 46.9249 40.3583 46.0189 40.3583C45.1128 40.3583 44.3614 41.1099 44.3614 42.0159V43.0201C44.3614 43.8161 43.7101 44.4674 42.9141 44.4674C42.1181 44.4674 41.4668 43.8163 41.4668 43.0201V42.0159C41.4668 39.5122 43.5152 37.4639 46.0189 37.4639H46.019Z" fill="#6A75AD"/>
<path fill-rule="evenodd" clip-rule="evenodd" d="M49.5297 64.4339H47.6766V42.0161C47.6766 41.1101 46.925 40.3585 46.019 40.3585C45.8377 40.3585 45.6626 40.3887 45.4983 40.4441C45.3341 40.3887 45.1588 40.3585 44.9775 40.3585C44.0716 40.3585 43.3199 41.1101 43.3199 42.0161V43.0203C43.3199 43.633 42.934 44.1598 42.3934 44.3701C41.8527 44.1599 41.4668 43.633 41.4668 43.0203V42.0161C41.4668 39.6884 43.2374 37.7547 45.4981 37.4941C47.7589 37.7546 49.5294 39.6884 49.5294 42.0161V64.4339H49.5297Z" fill="#7986BF"/>
<path d="M30.4128 70.8018H10.8196C9.96675 70.8018 9.27539 71.4931 9.27539 72.346V75.6277C9.27539 76.4805 9.96675 77.1719 10.8196 77.1719H30.4128C31.2657 77.1719 31.957 76.4805 31.957 75.6277V72.346C31.957 71.4931 31.2657 70.8018 30.4128 70.8018Z" fill="#FDC72E"/>
<path fill-rule="evenodd" clip-rule="evenodd" d="M10.8196 70.8018H28.1959C28.4344 70.8018 28.629 70.9963 28.629 71.235V74.4913C28.629 75.3406 27.934 76.0355 27.0848 76.0355H9.7085C9.46996 76.0355 9.27539 75.8409 9.27539 75.6024V72.3461C9.27539 71.4967 9.97019 70.8019 10.8196 70.8019V70.8018Z" fill="#FCDB35"/>
<path fill-rule="evenodd" clip-rule="evenodd" d="M13.9112 66.1556H19.9973C21.3298 66.1556 22.4706 66.8751 23.0449 68.0773L23.6865 69.4207C23.8336 69.7286 23.814 70.0628 23.632 70.3515C23.45 70.6402 23.1568 70.8019 22.8155 70.8019H13.9112C13.5315 70.8019 13.2207 70.4913 13.2207 70.1114V66.8458C13.2207 66.466 13.5313 66.1553 13.9112 66.1553V66.1556Z" fill="#6A75AD"/>
<path fill-rule="evenodd" clip-rule="evenodd" d="M14.6681 66.1553H19.998C21.3305 66.1553 22.4714 66.8748 23.0457 68.077L23.6872 69.4203C23.7314 69.5126 23.7604 69.6072 23.7747 69.7023H15.3584C14.9787 69.7023 14.668 69.3917 14.668 69.0119L14.6681 66.1553Z" fill="#7986BF"/>
</g>
<defs>
<clipPath id="clip0_65_1545">
<rect width="79" height="79" fill="white"/>
</clipPath>
</defs>
</svg>
