<svg width="13" height="20" viewBox="0 0 13 20" fill="none" xmlns="http://www.w3.org/2000/svg">
<g clip-path="url(#clip0_68_7363)">
<path d="M12.8678 10.3204L8.32247 14.8658C8.15919 15.0564 7.87224 15.0787 7.68158 14.9153C7.49092 14.7521 7.46869 14.4651 7.63201 14.2745C7.64724 14.2567 7.66381 14.2401 7.68158 14.2249L11.4497 10.4522H-6.54548C-6.79649 10.4522 -7 10.2487 -7 9.99765C-7 9.7466 -6.79649 9.54313 -6.54548 9.54313H11.4497L7.68158 5.77503C7.49092 5.61175 7.46869 5.3248 7.63201 5.13414C7.79533 4.94348 8.08224 4.92126 8.2729 5.08457C8.29067 5.09981 8.30727 5.11637 8.32247 5.13414L12.8679 9.67953C13.0441 9.85675 13.0441 10.1431 12.8678 10.3204Z" fill="#5A2D7E"/>
</g>
<defs>
<clipPath id="clip0_68_7363">
<rect width="13" height="20" fill="white" transform="matrix(1 0 0 -1 0 20)"/>
</clipPath>
</defs>
</svg>
