<svg width="34" height="34" viewBox="0 0 34 34" fill="none" xmlns="http://www.w3.org/2000/svg">
<path d="M15.5331 27.625H4.95768C4.3941 27.625 3.8536 27.4011 3.45508 27.0026C3.05657 26.6041 2.83268 26.0636 2.83268 25.5V10.625H26.2077V15.1017C26.2077 15.2895 26.2823 15.4697 26.4151 15.6026C26.548 15.7354 26.7282 15.81 26.916 15.81C27.1039 15.81 27.284 15.7354 27.4169 15.6026C27.5497 15.4697 27.6243 15.2895 27.6243 15.1017V7.08335C27.6232 6.14439 27.2497 5.24421 26.5858 4.58026C25.9218 3.91631 25.0216 3.54281 24.0827 3.54169H22.666C22.666 2.9781 22.4421 2.4376 22.0436 2.03909C21.6451 1.64057 21.1046 1.41669 20.541 1.41669C19.9774 1.41669 19.4369 1.64057 19.0384 2.03909C18.6399 2.4376 18.416 2.9781 18.416 3.54169H10.6243C10.6243 2.9781 10.4005 2.4376 10.002 2.03909C9.60344 1.64057 9.06293 1.41669 8.49935 1.41669C7.93576 1.41669 7.39526 1.64057 6.99675 2.03909C6.59823 2.4376 6.37435 2.9781 6.37435 3.54169H4.95768C4.01872 3.54281 3.11854 3.91631 2.45459 4.58026C1.79064 5.24421 1.41714 6.14439 1.41602 7.08335V25.5C1.41714 26.439 1.79064 27.3392 2.45459 28.0031C3.11854 28.6671 4.01872 29.0406 4.95768 29.0417H15.5331C15.721 29.0417 15.9011 28.9671 16.034 28.8342C16.1668 28.7014 16.2414 28.5212 16.2414 28.3334C16.2414 28.1455 16.1668 27.9653 16.034 27.8325C15.9011 27.6996 15.721 27.625 15.5331 27.625ZM19.8327 3.54169C19.8327 3.35383 19.9073 3.17366 20.0401 3.04082C20.173 2.90798 20.3532 2.83335 20.541 2.83335C20.7289 2.83335 20.909 2.90798 21.0419 3.04082C21.1747 3.17366 21.2493 3.35383 21.2493 3.54169V4.95835C21.2493 5.14622 21.1747 5.32638 21.0419 5.45922C20.909 5.59206 20.7289 5.66669 20.541 5.66669C20.3532 5.66669 20.173 5.59206 20.0401 5.45922C19.9073 5.32638 19.8327 5.14622 19.8327 4.95835V3.54169ZM7.79102 3.54169C7.79102 3.35383 7.86564 3.17366 7.99848 3.04082C8.13132 2.90798 8.31149 2.83335 8.49935 2.83335C8.68721 2.83335 8.86738 2.90798 9.00022 3.04082C9.13305 3.17366 9.20768 3.35383 9.20768 3.54169V4.95835C9.20768 5.14622 9.13305 5.32638 9.00022 5.45922C8.86738 5.59206 8.68721 5.66669 8.49935 5.66669C8.31149 5.66669 8.13132 5.59206 7.99848 5.45922C7.86564 5.32638 7.79102 5.14622 7.79102 4.95835V3.54169ZM2.83268 7.08335C2.83268 6.51977 3.05657 5.97927 3.45508 5.58075C3.8536 5.18224 4.3941 4.95835 4.95768 4.95835H6.37435C6.37435 5.52194 6.59823 6.06244 6.99675 6.46096C7.39526 6.85947 7.93576 7.08335 8.49935 7.08335C9.06293 7.08335 9.60344 6.85947 10.002 6.46096C10.4005 6.06244 10.6243 5.52194 10.6243 4.95835H18.416C18.416 5.52194 18.6399 6.06244 19.0384 6.46096C19.4369 6.85947 19.9774 7.08335 20.541 7.08335C21.1046 7.08335 21.6451 6.85947 22.0436 6.46096C22.4421 6.06244 22.666 5.52194 22.666 4.95835H24.0827C24.6463 4.95835 25.1868 5.18224 25.5853 5.58075C25.9838 5.97927 26.2077 6.51977 26.2077 7.08335V9.20835H2.83268V7.08335Z" fill="#DBDBDB"/>
<path d="M9.91732 14.1667C9.91732 13.7909 9.76806 13.4306 9.50239 13.1649C9.23671 12.8993 8.87637 12.75 8.50065 12.75H6.37565C5.99993 12.75 5.63959 12.8993 5.37392 13.1649C5.10824 13.4306 4.95898 13.7909 4.95898 14.1667V16.2917C4.95898 16.6674 5.10824 17.0277 5.37392 17.2934C5.63959 17.5591 5.99993 17.7083 6.37565 17.7083H8.50065C8.87637 17.7083 9.23671 17.5591 9.50239 17.2934C9.76806 17.0277 9.91732 16.6674 9.91732 16.2917V14.1667ZM6.37565 16.2917V14.1667H8.50065V16.2917H6.37565Z" fill="#DBDBDB"/>
<path d="M16.9993 14.1667C16.9993 13.7909 16.8501 13.4306 16.5844 13.1649C16.3187 12.8993 15.9584 12.75 15.5827 12.75H13.4577C13.082 12.75 12.7216 12.8993 12.4559 13.1649C12.1903 13.4306 12.041 13.7909 12.041 14.1667V16.2917C12.041 16.6674 12.1903 17.0277 12.4559 17.2934C12.7216 17.5591 13.082 17.7083 13.4577 17.7083H15.5827C15.9584 17.7083 16.3187 17.5591 16.5844 17.2934C16.8501 17.0277 16.9993 16.6674 16.9993 16.2917V14.1667ZM13.4577 16.2917V14.1667H15.5827V16.2917H13.4577Z" fill="#DBDBDB"/>
<path d="M23.375 15.6825C23.5629 15.6825 23.743 15.6079 23.8759 15.475C24.0087 15.3422 24.0833 15.162 24.0833 14.9742V14.1667C24.0833 13.7909 23.9341 13.4306 23.6684 13.1649C23.4027 12.8993 23.0424 12.75 22.6667 12.75H20.5417C20.1659 12.75 19.8056 12.8993 19.5399 13.1649C19.2743 13.4306 19.125 13.7909 19.125 14.1667V16.2067C19.125 16.3945 19.1996 16.5747 19.3325 16.7075C19.4653 16.8404 19.6455 16.915 19.8333 16.915C20.0212 16.915 20.2014 16.8404 20.3342 16.7075C20.467 16.5747 20.5417 16.3945 20.5417 16.2067V14.1667H22.6667V14.9742C22.6667 15.162 22.7413 15.3422 22.8741 15.475C23.007 15.6079 23.1871 15.6825 23.375 15.6825Z" fill="#DBDBDB"/>
<path d="M8.50065 19.8333H6.37565C5.99993 19.8333 5.63959 19.9826 5.37392 20.2482C5.10824 20.5139 4.95898 20.8743 4.95898 21.25V23.375C4.95898 23.7507 5.10824 24.111 5.37392 24.3767C5.63959 24.6424 5.99993 24.7916 6.37565 24.7916H8.50065C8.87637 24.7916 9.23671 24.6424 9.50239 24.3767C9.76806 24.111 9.91732 23.7507 9.91732 23.375V21.25C9.91732 20.8743 9.76806 20.5139 9.50239 20.2482C9.23671 19.9826 8.87637 19.8333 8.50065 19.8333ZM6.37565 23.375V21.25H8.50065V23.375H6.37565Z" fill="#DBDBDB"/>
<path d="M16.0714 19.9261C15.9159 19.8644 15.75 19.8329 15.5827 19.8333H13.4577C13.082 19.8333 12.7216 19.9826 12.4559 20.2483C12.1903 20.5139 12.041 20.8743 12.041 21.25V23.375C12.041 23.7507 12.1903 24.111 12.4559 24.3767C12.7216 24.6424 13.082 24.7917 13.4577 24.7917H14.9027C15.0905 24.7917 15.2707 24.717 15.4035 24.5842C15.5364 24.4513 15.611 24.2712 15.611 24.0833C15.611 23.8955 15.5364 23.7153 15.4035 23.5825C15.2707 23.4496 15.0905 23.375 14.9027 23.375H13.4577V21.25L15.5473 21.2422C15.7214 21.31 15.9154 21.3062 16.0868 21.2317C16.2582 21.1572 16.3932 21.0179 16.4624 20.8442C16.5315 20.6706 16.5292 20.4766 16.456 20.3046C16.3828 20.1327 16.2445 19.9966 16.0714 19.9261Z" fill="#DBDBDB"/>
<path d="M24.7917 17C23.2506 17 21.7442 17.457 20.4629 18.3131C19.1815 19.1693 18.1828 20.3862 17.5931 21.8099C17.0034 23.2337 16.8491 24.8003 17.1497 26.3117C17.4504 27.8232 18.1924 29.2115 19.2821 30.3012C20.3718 31.3909 21.7602 32.133 23.2716 32.4336C24.783 32.7343 26.3497 32.58 27.7734 31.9902C29.1972 31.4005 30.414 30.4018 31.2702 29.1205C32.1264 27.8392 32.5833 26.3327 32.5833 24.7917C32.5809 22.7259 31.7592 20.7455 30.2985 19.2848C28.8378 17.8241 26.8574 17.0024 24.7917 17ZM24.7917 31.1667C23.5308 31.1667 22.2983 30.7928 21.2499 30.0923C20.2015 29.3918 19.3844 28.3962 18.9019 27.2313C18.4194 26.0664 18.2932 24.7846 18.5392 23.548C18.7851 22.3113 19.3923 21.1754 20.2839 20.2839C21.1754 19.3923 22.3113 18.7851 23.548 18.5392C24.7846 18.2932 26.0664 18.4194 27.2313 18.9019C28.3962 19.3844 29.3918 20.2015 30.0923 21.2499C30.7928 22.2983 31.1667 23.5308 31.1667 24.7917C31.1648 26.4818 30.4925 28.1023 29.2974 29.2974C28.1023 30.4925 26.4819 31.1648 24.7917 31.1667Z" fill="#DBDBDB"/>
<path d="M25.5007 24.4984V21.25C25.5007 21.0622 25.426 20.882 25.2932 20.7492C25.1603 20.6163 24.9802 20.5417 24.7923 20.5417C24.6045 20.5417 24.4243 20.6163 24.2914 20.7492C24.1586 20.882 24.084 21.0622 24.084 21.25V24.7917C24.084 24.9795 24.1587 25.1597 24.2915 25.2925L25.7082 26.7091C25.8418 26.8382 26.0207 26.9096 26.2064 26.908C26.3922 26.9063 26.5698 26.8318 26.7011 26.7005C26.8325 26.5692 26.907 26.3915 26.9086 26.2058C26.9102 26.0201 26.8388 25.8412 26.7098 25.7076L25.5007 24.4984Z" fill="#DBDBDB"/>
</svg>
