<svg width="24" height="24" viewBox="0 0 24 24" fill="none" xmlns="http://www.w3.org/2000/svg">
<g clip-path="url(#clip0_68_7268)">
<path d="M21.8906 0.726318H2.10938C0.946266 0.726318 0 1.67258 0 2.83569V16.9451C0 18.1082 0.946266 19.0544 2.10938 19.0544H4.96875V22.5701C4.96875 23.1737 5.67741 23.4914 6.12947 23.1039L10.8539 19.0544H21.8906C23.0537 19.0544 24 18.1082 24 16.9451V2.83569C24 1.67258 23.0537 0.726318 21.8906 0.726318ZM22.5938 16.9451C22.5938 17.3328 22.2783 17.6482 21.8906 17.6482H10.5938C10.4259 17.6482 10.2636 17.7082 10.1362 17.8175L6.375 21.0413V18.3513C6.375 17.963 6.06019 17.6482 5.67188 17.6482H2.10938C1.72167 17.6482 1.40625 17.3328 1.40625 16.9451V2.83569C1.40625 2.44799 1.72167 2.13257 2.10938 2.13257H21.8906C22.2783 2.13257 22.5938 2.44799 22.5938 2.83569V16.9451Z" fill="#5C5C5C"/>
</g>
<defs>
<clipPath id="clip0_68_7268">
<rect width="24" height="24" fill="white"/>
</clipPath>
</defs>
</svg>
