<svg width="97" height="97" viewBox="0 0 97 97" fill="none" xmlns="http://www.w3.org/2000/svg">
<g clip-path="url(#clip0_1061_3532)">
<path d="M21.8894 29.8152C20.2805 29.8152 18.9766 28.5112 18.9766 26.9024V23.0112C18.9766 21.403 20.2805 20.0983 21.8894 20.0983C23.4983 20.0983 24.8022 21.403 24.8022 23.0112V26.9024C24.8022 28.5112 23.4983 29.8152 21.8894 29.8152Z" fill="#FFE733"/>
<path d="M21.8894 45.7633C20.2805 45.7633 18.9766 44.4593 18.9766 42.8504V38.9593C18.9766 37.3511 20.2805 36.0464 21.8894 36.0464C23.4983 36.0464 24.8022 37.3511 24.8022 38.9593V42.8504C24.8022 44.4593 23.4983 45.7633 21.8894 45.7633Z" fill="#FFE733"/>
<path d="M15.0794 35.8436H11.1882C9.5801 35.8436 8.27539 34.5397 8.27539 32.9308C8.27539 31.3227 9.5801 30.0187 11.1882 30.0187H15.0794C16.6883 30.0187 17.9923 31.3227 17.9923 32.9308C17.9923 34.5397 16.6883 35.8436 15.0794 35.8436Z" fill="#FFE733"/>
<path d="M32.5892 35.8436H28.698C27.0899 35.8436 25.7852 34.5397 25.7852 32.9308C25.7852 31.3227 27.0899 30.0187 28.698 30.0187H32.5892C34.1981 30.0187 35.502 31.3227 35.502 32.9308C35.502 34.5397 34.1981 35.8436 32.5892 35.8436Z" fill="#FFE733"/>
<path d="M54.532 14.2638C52.9231 14.2638 51.6191 12.9591 51.6191 11.3509V7.45974C51.6191 5.85087 52.9231 4.54691 54.532 4.54691C56.1401 4.54691 57.4448 5.85087 57.4448 7.45974V11.3509C57.4448 12.9598 56.1401 14.2638 54.532 14.2638Z" fill="#FFBC36"/>
<path d="M54.532 30.2119C52.9231 30.2119 51.6191 28.9072 51.6191 27.299V23.4078C51.6191 21.799 52.9231 20.495 54.532 20.495C56.1401 20.495 57.4448 21.799 57.4448 23.4078V27.299C57.4448 28.9079 56.1401 30.2119 54.532 30.2119Z" fill="#FFBC36"/>
<path d="M47.722 20.2922H43.8308C42.2219 20.2922 40.918 18.9882 40.918 17.3794C40.918 15.7705 42.2219 14.4665 43.8308 14.4665H47.722C49.3309 14.4665 50.6348 15.7705 50.6348 17.3794C50.6348 18.9882 49.3309 20.2922 47.722 20.2922Z" fill="#FFBC36"/>
<path d="M65.2318 20.2922H61.3406C59.7324 20.2922 58.4277 18.9882 58.4277 17.3794C58.4277 15.7705 59.7324 14.4665 61.3406 14.4665H65.2318C66.8406 14.4665 68.1446 15.7705 68.1446 17.3794C68.1446 18.9882 66.8406 20.2922 65.2318 20.2922Z" fill="#FFBC36"/>
<path d="M78.7351 73.0364C77.127 73.0364 75.8223 71.7324 75.8223 70.1235V66.2324C75.8223 64.6242 77.127 63.3195 78.7351 63.3195C80.344 63.3195 81.6479 64.6242 81.6479 66.2324V70.1235C81.6479 71.7324 80.344 73.0364 78.7351 73.0364Z" fill="#FFBC36"/>
<path d="M78.7351 88.9845C77.127 88.9845 75.8223 87.6805 75.8223 86.0716V82.1804C75.8223 80.5723 77.127 79.2676 78.7351 79.2676C80.344 79.2676 81.6479 80.5723 81.6479 82.1804V86.0716C81.6479 87.6805 80.344 88.9845 78.7351 88.9845Z" fill="#FFBC36"/>
<path d="M71.9244 79.0648H68.0332C66.4251 79.0648 65.1211 77.7608 65.1211 76.152C65.1211 74.5431 66.4251 73.2391 68.0332 73.2391H71.9244C73.5332 73.2391 74.8372 74.5431 74.8372 76.152C74.8372 77.7608 73.5332 79.0648 71.9244 79.0648Z" fill="#FFBC36"/>
<path d="M89.4341 79.0648H85.5437C83.9348 79.0648 82.6309 77.7608 82.6309 76.152C82.6309 74.5431 83.9348 73.2391 85.5437 73.2391H89.4341C91.043 73.2391 92.347 74.5431 92.347 76.152C92.347 77.7608 91.043 79.0648 89.4341 79.0648Z" fill="#FFBC36"/>
<path d="M29.896 92.3214C26.6361 92.3214 23.3769 91.0803 20.8948 88.5989L3.31413 71.0175C-1.10471 66.5994 -1.10471 59.4098 3.31413 54.991C5.45436 52.8508 8.30059 51.6719 11.3274 51.6719C14.3542 51.6719 17.2004 52.85 19.3407 54.991L29.896 65.5456L77.6596 17.782C82.0777 13.3639 89.2673 13.3631 93.6862 17.782C98.105 22.2008 98.105 29.3904 93.6862 33.8093L38.8965 88.5989C36.4151 91.0803 33.1552 92.3214 29.896 92.3214Z" fill="#BDF052"/>
<path d="M77.6595 17.782L48.5 46.9415V78.9953L93.686 33.8085C98.1049 29.3904 98.1049 22.2008 93.686 17.782C89.2672 13.3631 82.0776 13.3639 77.6595 17.782Z" fill="#93D632"/>
</g>
<defs>
<clipPath id="clip0_1061_3532">
<rect width="97" height="97" fill="white"/>
</clipPath>
</defs>
</svg>
