<svg width="32" height="32" viewBox="0 0 32 32" fill="none" xmlns="http://www.w3.org/2000/svg">
<path d="M20.3461 0H18.4146V8.69215H22.2777V1.93159C22.2777 0.864773 21.413 0 20.3461 0Z" fill="#AAFAF5"/>
<path d="M18.4146 0H11.654C10.5872 0 9.72241 0.864773 9.72241 1.93159V8.69215H16.0001L20.3462 1.93159C20.3462 0.864773 19.4814 0 18.4146 0Z" fill="#DEFFFD"/>
<path d="M18.4145 1.93164L16 8.6922H20.3461V1.93164H18.4145Z" fill="#64BBF5"/>
<path d="M11.6539 1.93164H18.4145V8.6922H11.6539V1.93164Z" fill="#7AD2F5"/>
<path d="M22.0292 13.2726L18.4146 9.65796H15.0343V26.2052L19.8633 32H21.7949C22.8617 32 23.7265 31.1352 23.7265 30.0684V26.2052L21.7949 22.825L23.7265 19.4447V17.3701C23.7265 15.8333 23.1159 14.3593 22.0292 13.2726Z" fill="#FF6363"/>
<path d="M19.5461 13.5211L18.9802 12.9553C18.6181 12.5931 18.4145 12.1018 18.4145 11.5895V9.65796H13.5856L9.9709 13.2726C8.88419 14.3593 8.27368 15.8333 8.27368 17.3702V19.4447L10.2053 22.825L8.27368 26.2052V30.0684C8.27368 31.1352 9.13845 32 10.2053 32H19.8632C20.93 32 21.7948 31.1352 21.7948 30.0684L19.5461 13.5211Z" fill="#FF8178"/>
<path d="M20.3461 11.5895H18.4145L16 8.69214H20.3461V11.5895Z" fill="#FF8178"/>
<path d="M11.6539 8.69214H18.4145V11.5895H11.6539V8.69214Z" fill="#FFA18C"/>
<path d="M20.6634 14.6384L19.5461 13.5211H12.4541L11.3368 14.6384C10.6072 15.3681 10.2053 16.3382 10.2053 17.3701V30.0684C10.6984 30.0684 11.1627 29.9452 11.5691 29.728L13.2725 28.8176C14.0854 28.3832 15.0139 28.1368 16.0001 28.1368C16.9862 28.1368 17.9148 28.3832 18.7277 28.8176L20.4311 29.728C20.8376 29.9452 21.3019 30.0684 21.7949 30.0684V17.3701C21.7949 16.3382 21.393 15.3681 20.6634 14.6384Z" fill="#FC424B"/>
<path d="M21.7947 19.4447L19.8632 22.825L21.7947 26.2053H23.7263V19.4447H21.7947Z" fill="#FFE4D9"/>
<path d="M8.27368 19.4447H21.7948V26.2053H8.27368V19.4447Z" fill="#FFFFDB"/>
<path d="M22.2777 7.72632H20.3461V9.65791H22.2777C22.811 9.65791 23.2435 9.22549 23.2435 8.69211C23.2435 8.15874 22.811 7.72632 22.2777 7.72632Z" fill="#83EBE4"/>
<path d="M21.3119 8.69211C21.3119 8.15874 20.8795 7.72632 20.3461 7.72632H9.72239C9.18901 7.72632 8.75659 8.15874 8.75659 8.69211C8.75659 9.22549 9.18901 9.65791 9.72239 9.65791H20.3461C20.8795 9.65791 21.3119 9.22549 21.3119 8.69211Z" fill="#AAFAF5"/>
</svg>
