<svg width="20" height="20" viewBox="0 0 20 20" fill="none" xmlns="http://www.w3.org/2000/svg">
<g clip-path="url(#clip0_306_450)">
<path d="M17.0664 2.93151C15.1779 1.04301 12.6682 0.0020752 9.99794 0.0020752C7.32771 0.0020752 4.81794 1.04301 2.92944 2.93151C1.04094 4.82001 0 7.32979 0 10C0 12.6703 1.04094 15.18 2.92944 17.0685C4.81794 18.957 7.32771 19.998 9.99794 19.998C11.5491 19.998 12.9644 19.71 14.0876 19.171C15.1533 18.6567 15.9268 17.9202 16.2683 17.1014C16.6756 16.1181 16.4452 15.0936 15.6388 14.2872L15.61 14.2584C15.6223 14.2419 15.6388 14.2296 15.6511 14.2173C16.2271 13.6124 16.2271 12.8184 15.6429 12.2341L14.2193 10.8106C13.9395 10.5225 13.6021 10.3662 13.2442 10.3662C12.8862 10.3662 12.5447 10.5184 12.2567 10.8064L11.5161 11.547C11.4791 11.5265 11.4462 11.51 11.4092 11.4935C11.3187 11.4483 11.2364 11.4071 11.1664 11.3619C10.4135 10.8846 9.73051 10.2592 9.07632 9.45692C8.78832 9.09485 8.59083 8.78628 8.44271 8.48181C8.62785 8.30901 8.80066 8.13209 8.96935 7.95929C9.03929 7.88523 9.11335 7.81528 9.18741 7.74122C9.79222 7.13641 9.79222 6.35468 9.18741 5.74986L8.48385 5.0463C8.40156 4.96402 8.32339 4.88584 8.24522 4.80356C8.08887 4.6431 7.92841 4.47852 7.75561 4.31806C7.47583 4.0424 7.14256 3.89839 6.78873 3.89839C6.43489 3.89839 6.09751 4.0424 5.8095 4.31806C5.80539 4.32217 5.80539 4.32217 5.80128 4.32629L4.91668 5.21088C4.56285 5.56472 4.35713 6.00084 4.31598 6.5028C4.25427 7.28453 4.48056 8.00866 4.65748 8.48181C5.08126 9.62561 5.71487 10.6871 6.65707 11.8227C7.80086 13.1887 9.17918 14.2707 10.755 15.0319C11.3598 15.3199 12.1703 15.6573 13.0837 15.719C13.1413 15.7231 13.1989 15.7231 13.2565 15.7231C13.8943 15.7231 14.4332 15.4927 14.8529 15.036C14.857 15.0319 14.8653 15.0237 14.8694 15.0196C14.8817 15.0031 14.8982 14.9866 14.9146 14.9702L14.9393 14.9949C15.466 15.5215 15.61 16.1222 15.3549 16.7353C14.8817 17.8585 13.0426 19.0105 9.99794 19.0105C5.02777 19.0105 0.987451 14.9702 0.987451 10C0.987451 5.02985 5.02777 0.989526 9.99794 0.989526C14.9681 0.989526 19.0084 5.02985 19.0084 10C19.0084 10.8188 18.8973 11.6252 18.6834 12.4028C18.6093 12.6661 18.7657 12.9377 19.029 13.0117C19.2923 13.0858 19.5639 12.9295 19.6379 12.6661C19.8766 11.8021 20 10.9052 20 10C19.9959 7.32979 18.9549 4.82001 17.0664 2.93151ZM14.1206 14.3654C13.886 14.6164 13.6227 14.7274 13.2565 14.7274C13.2195 14.7274 13.1825 14.7274 13.1454 14.7233C12.4049 14.674 11.7054 14.3818 11.1829 14.1309C9.73874 13.4314 8.47151 12.4398 7.41823 11.1808C6.55009 10.1358 5.96996 9.16891 5.58321 8.13209C5.35281 7.5067 5.26641 7.02944 5.29932 6.57685C5.32401 6.30942 5.42275 6.09136 5.61613 5.9021L6.50072 5.02162C6.57066 4.95579 6.67764 4.87761 6.79284 4.87761C6.90804 4.87761 7.00679 4.95167 7.0685 5.0175C7.07262 5.02162 7.07673 5.02573 7.08085 5.02985C7.23719 5.17385 7.38531 5.32608 7.54166 5.48654C7.62395 5.56883 7.70623 5.65523 7.78852 5.73752L8.49208 6.44108C8.71014 6.65914 8.71014 6.8196 8.49208 7.03766C8.41802 7.11172 8.34396 7.18578 8.2699 7.25984C8.05184 7.4779 7.85024 7.68774 7.62806 7.88523C7.61983 7.88934 7.61572 7.89757 7.60749 7.9058C7.29891 8.21438 7.40588 8.5353 7.4388 8.64227C7.44291 8.65462 7.44703 8.66284 7.45114 8.67519C7.6404 9.13188 7.90372 9.55978 8.30693 10.07L8.31105 10.0741C9.03518 10.9669 9.79634 11.6581 10.6398 12.193C10.7509 12.2629 10.862 12.3205 10.9689 12.374C11.0595 12.4193 11.1417 12.4604 11.2117 12.5057C11.224 12.5139 11.2405 12.5221 11.2569 12.5304C11.3639 12.5838 11.4709 12.6085 11.5779 12.6085C11.7589 12.6085 11.9276 12.5345 12.0716 12.3864L12.9562 11.5018C13.0261 11.4318 13.129 11.3495 13.2442 11.3495C13.3512 11.3495 13.4499 11.4277 13.5116 11.4935C13.5157 11.4977 13.5157 11.4977 13.5199 11.5018L14.9434 12.9253C15.145 13.1269 15.145 13.3121 14.9352 13.5302L14.9311 13.5343C14.8365 13.6371 14.7336 13.7359 14.6225 13.8428C14.4579 14.0033 14.2851 14.172 14.1206 14.3654Z" fill="#66747F"/>
</g>
<defs>
<clipPath id="clip0_306_450">
<rect width="20" height="20" fill="white"/>
</clipPath>
</defs>
</svg>
