<svg width="50" height="50" viewBox="0 0 50 50" fill="none" xmlns="http://www.w3.org/2000/svg">
<g clip-path="url(#clip0_115_3843)">
<path d="M45.3976 3.125H23.4307C20.8886 3.125 18.8282 5.1857 18.8282 7.72743V18.5478C19.9894 19.125 21.2441 19.7491 22.4152 20.3312L24.207 16.7461C25.2919 14.5782 27.9366 13.6974 30.1037 14.7804C32.2754 15.8672 33.1555 18.5047 32.0683 20.6768L28.8743 27.0664C28.9589 27.9121 28.8838 28.7647 28.6454 29.5898H30.7541L25.1923 44.8837C24.8623 45.7909 25.5002 46.8494 26.5694 46.8494C27.1672 46.8494 27.7295 46.4806 27.9454 45.8847L33.8711 29.5898H34.8977L40.8837 45.8897C41.1015 46.4825 41.6623 46.8494 42.2596 46.8494C43.2587 46.8494 43.9911 45.8515 43.6337 44.8799L38.0185 29.5898H45.3976C47.9393 29.5898 50 27.5291 50 24.9874V7.72743C50 5.1857 47.9393 3.125 45.3976 3.125ZM42.2589 23.3143H35.6865C34.8778 23.3143 34.2217 22.6582 34.2217 21.8494C34.2217 21.04 34.8778 20.3846 35.6865 20.3846H42.2589C43.0684 20.3846 43.7237 21.04 43.7237 21.8494C43.7237 22.6582 43.0684 23.3143 42.2589 23.3143ZM42.2589 17.8223H35.6865C34.8778 17.8223 34.2217 17.1669 34.2217 16.3574C34.2217 15.5487 34.8778 14.8926 35.6865 14.8926H42.2589C43.0684 14.8926 43.7237 15.5487 43.7237 16.3574C43.7237 17.1669 43.0684 17.8223 42.2589 17.8223ZM42.2589 12.331H26.5694C25.7599 12.331 25.1046 11.6749 25.1046 10.8662C25.1046 10.0574 25.7599 9.40132 26.5694 9.40132H42.2589C43.0684 9.40132 43.7237 10.0574 43.7237 10.8662C43.7237 11.6749 43.0684 12.331 42.2589 12.331Z" fill="white"/>
<path d="M25.7736 28.9616C26.0384 28.186 26.0365 27.3758 25.8129 26.6365L29.4483 19.3665C29.81 18.6428 29.517 17.7628 28.7933 17.4011C28.0701 17.0391 27.19 17.3325 26.828 18.0561L23.7274 24.2565C21.8742 23.3337 19.0586 21.9337 16.7904 20.8057C14.6801 19.7563 13.1741 18.8152 10.6045 18.8152H9.31015C11.311 18.8152 13.0966 17.8944 14.2654 16.4532C15.1573 15.3564 15.6906 13.9587 15.6906 12.4355C15.6906 8.91113 12.8342 6.05469 9.30939 6.05469C5.78613 6.05469 2.92969 8.91113 2.92969 12.4355C2.92969 14.1281 3.58887 15.6662 4.66423 16.8076C5.82695 18.0439 7.47833 18.8152 9.30901 18.8156C6.85463 18.8156 4.45518 19.8101 2.72903 21.5408C0.969315 23.296 0 25.6344 0 28.1254V32.8323C0 34.8587 1.31569 36.5829 3.13797 37.1964V45.3842C3.13797 46.1933 3.79372 46.8491 4.60281 46.8491H14.0167C14.8258 46.8491 15.4816 46.1933 15.4816 45.3842V28.9257C16.8705 29.62 18.6951 30.5321 20.1714 31.2706C21.2063 31.7879 22.4155 31.8344 23.494 31.3957C24.5693 30.9532 25.3983 30.0724 25.7679 28.9787C25.7698 28.973 25.7717 28.9673 25.7736 28.9616Z" fill="white"/>
</g>
<defs>
<clipPath id="clip0_115_3843">
<rect width="50" height="50" fill="white"/>
</clipPath>
</defs>
</svg>
