<svg width="27" height="27" viewBox="0 0 27 27" fill="none" xmlns="http://www.w3.org/2000/svg">
<path d="M25.5904 12.6843C25.5904 10.7965 24.4424 9.17687 22.8065 8.48542C23.0954 7.92696 23.2596 7.29352 23.2596 6.62137C23.2596 4.37694 21.4401 2.55751 19.1957 2.55751C18.5563 2.55751 17.9515 2.70564 17.4133 2.96873C16.9352 1.2565 15.3648 0 13.5 0C11.6352 0 10.0649 1.2565 9.58663 2.96873C9.04842 2.70558 8.44372 2.55751 7.80426 2.55751C5.55984 2.55751 3.7404 4.37694 3.7404 6.62137C3.7404 7.29352 3.90456 7.92696 4.19349 8.48542C2.55757 9.17692 1.40955 10.7965 1.40955 12.6843C1.40955 15.1308 3.33835 17.1243 5.75796 17.2334C6.0953 18.4553 7.398 19.3661 8.95482 19.3661C9.83717 19.3661 10.6376 19.0731 11.2274 18.5972C11.8173 19.0731 12.6177 19.3661 13.5 19.3661C14.3823 19.3661 15.1827 19.0731 15.7726 18.5972C16.3625 19.0731 17.1629 19.3661 18.0452 19.3661C19.602 19.3661 20.9047 18.4553 21.242 17.2333C23.6616 17.1242 25.5904 15.1308 25.5904 12.6843Z" fill="#129B12"/>
<path d="M13.2562 0.00806834C13.2062 0.0110742 13.1563 0.0146601 13.1068 0.0195117C13.0916 0.0209882 13.0765 0.0226757 13.0615 0.0243105C13.0083 0.0300585 12.9553 0.0367031 12.9027 0.0445077C12.8929 0.0459316 12.883 0.0473554 12.8732 0.0488847C12.8107 0.0586405 12.7484 0.0695038 12.6868 0.0820545C12.6867 0.0820545 12.6866 0.0821073 12.6865 0.0821073C13.7533 0.299056 14.7522 1.04208 15.385 1.97864C15.8331 2.64188 16.5988 3.02421 17.3974 2.96989C17.4027 2.96952 17.408 2.96915 17.4133 2.96878C16.9352 1.2565 15.3648 0 13.5 0C13.4346 0 13.3697 0.00189843 13.3051 0.00495702C13.2887 0.00574804 13.2726 0.00711913 13.2562 0.00806834Z" fill="#097C09"/>
<path d="M22.8065 8.48541C23.0954 7.92695 23.2596 7.29351 23.2596 6.62136C23.2596 4.37693 21.4401 2.5575 19.1957 2.5575C18.9172 2.5575 18.6453 2.58566 18.3826 2.63913C20.237 3.01602 21.6327 4.65563 21.6327 6.62136C21.6327 7.29351 21.4686 7.92695 21.1796 8.48541C22.8156 9.17691 23.9636 10.7965 23.9636 12.6843C23.9636 15.1308 22.0348 17.1242 19.6152 17.2333C19.3387 18.2348 18.4136 19.0269 17.2317 19.2803C17.4918 19.3361 17.7643 19.3661 18.0452 19.3661C19.602 19.3661 20.9047 18.4552 21.2421 17.2333C23.6617 17.1242 25.5904 15.1307 25.5904 12.6842C25.5904 10.7965 24.4425 9.17686 22.8065 8.48541Z" fill="#097C09"/>
<path d="M10.5901 17.9241C10.2236 18.5458 8.70473 19.2408 8.14148 19.2803C8.20344 19.2936 8.26625 19.3052 8.32958 19.3156C8.33465 19.3164 8.33971 19.3173 8.34482 19.3181C8.409 19.3283 8.47381 19.337 8.53931 19.344C8.54099 19.3442 8.54268 19.3443 8.54437 19.3445C8.60327 19.3507 8.66281 19.3552 8.72266 19.3588C8.73722 19.3596 8.75183 19.3604 8.76649 19.3612C8.82887 19.3642 8.89157 19.3662 8.95485 19.3662C9.75958 19.3662 10.4955 19.1219 11.0664 18.718L11.1665 18.6452L10.6568 17.8089L10.5901 17.9241Z" fill="#009000"/>
<path d="M15.532 18.9618L17.2731 16.2144C17.4108 15.9971 17.3691 15.7117 17.175 15.5429C16.9677 15.3626 16.656 15.3744 16.4629 15.5698L15.1806 16.868C15.0106 17.0402 14.7192 16.897 14.7516 16.6572L15.1286 13.8636C15.1689 13.5651 14.9483 13.2948 14.6477 13.2745L14.2945 13.2506C14.029 13.2327 13.7928 13.4178 13.7466 13.6798L13.0736 17.5037C13.0361 17.7164 12.7661 17.7865 12.6299 17.619L10.522 15.0267C10.3761 14.8473 10.1294 14.7856 9.91632 14.8752L9.54724 15.0303C9.25504 15.1531 9.13944 15.5063 9.3025 15.7781L11.4686 19.3886C11.7823 19.9115 11.9116 20.5249 11.8332 21.1296C11.5525 23.2947 11.2038 25.3366 9.77673 27H17.223C15.6954 25.2194 15.3186 23.005 15.1164 20.67C15.0647 20.0704 15.2098 19.4701 15.532 18.9618Z" fill="#BF6101"/>
<path d="M17.273 16.2144C17.4108 15.9971 17.3691 15.7118 17.1749 15.5429C16.9676 15.3626 16.6559 15.3744 16.4628 15.5699L15.8902 16.1496L15.1806 16.868C15.0105 17.0401 14.7192 16.897 14.7515 16.6572L15.1286 13.8635C15.1679 13.5726 14.959 13.3091 14.6701 13.2771L13.6099 19.8671C13.5921 19.9522 13.5781 20.0381 13.5684 20.1246C13.5482 20.3047 13.5456 20.4873 13.5613 20.6699C13.7636 23.005 14.1405 25.2193 15.6681 27H17.2231C15.6955 25.2193 15.3186 23.005 15.1165 20.67C15.0646 20.0704 15.2098 19.4702 15.5319 18.9618L17.273 16.2144Z" fill="#9A4D01"/>
<path d="M12.7265 3.19043C11.5864 3.19043 10.6049 3.86712 10.16 4.84049C9.70037 4.51569 9.13981 4.32422 8.53415 4.32422C6.97601 4.32422 5.71287 5.58736 5.71287 7.1455C5.71287 7.65961 5.85109 8.14118 6.09134 8.55625C4.73839 8.76428 3.70227 9.9334 3.70227 11.3446C3.70227 12.9027 4.96541 14.1659 6.52355 14.1659C8.08169 14.1659 15.5478 7.56985 15.5478 6.01171C15.5478 4.45357 14.2848 3.19043 12.7265 3.19043Z" fill="#28A528"/>
</svg>
