<svg width="20" height="20" viewBox="0 0 20 20" fill="none" xmlns="http://www.w3.org/2000/svg">
<path d="M18.3313 5.06475C18.0479 4.91183 17.7279 4.83982 17.4063 4.8566C17.0848 4.87338 16.774 4.9783 16.5081 5.15988L13.125 7.43025V5.625C13.1244 5.12789 12.9267 4.6513 12.5752 4.2998C12.2237 3.94829 11.7471 3.75056 11.25 3.75H2.5C2.00289 3.75056 1.5263 3.94829 1.1748 4.2998C0.823287 4.6513 0.625562 5.12789 0.625 5.625V14.375C0.625562 14.8721 0.823287 15.3487 1.1748 15.7002C1.5263 16.0517 2.00289 16.2494 2.5 16.25H11.25C11.7471 16.2494 12.2237 16.0517 12.5752 15.7002C12.9267 15.3487 13.1244 14.8721 13.125 14.375V12.5696L16.5088 14.8401C16.774 15.0229 17.0848 15.1286 17.4066 15.1454C17.7283 15.1622 18.0484 15.0894 18.3313 14.9353C18.6534 14.7564 18.9207 14.4931 19.1046 14.1738C19.2885 13.8545 19.382 13.4912 19.375 13.1228V6.8775C19.382 6.50905 19.2886 6.14565 19.1047 5.82629C18.9208 5.50693 18.6534 5.24366 18.3313 5.06475ZM11.875 14.375C11.8748 14.5407 11.8089 14.6996 11.6917 14.8167C11.5746 14.9339 11.4157 14.9998 11.25 15H2.5C2.3343 14.9998 2.17544 14.9339 2.05828 14.8167C1.94111 14.6996 1.8752 14.5407 1.875 14.375V5.625C1.8752 5.4593 1.94111 5.30044 2.05828 5.18328C2.17544 5.06611 2.3343 5.0002 2.5 5H11.25C11.4157 5.0002 11.5746 5.06611 11.6917 5.18328C11.8089 5.30044 11.8748 5.4593 11.875 5.625V14.375ZM18.125 13.1225C18.1318 13.2645 18.0998 13.4056 18.0324 13.5307C17.9651 13.6559 17.865 13.7604 17.7429 13.833C17.6598 13.88 17.5649 13.9021 17.4696 13.8967C17.3744 13.8913 17.2826 13.8586 17.2054 13.8025L13.125 11.0645V8.9355L17.2046 6.198C17.2824 6.14274 17.3741 6.11056 17.4694 6.10517C17.5646 6.09977 17.6594 6.12138 17.7429 6.1675C17.865 6.24008 17.965 6.34449 18.0323 6.46955C18.0996 6.59462 18.1317 6.73563 18.125 6.8775V13.1225Z" fill="#66747F"/>
</svg>
