<svg width="23" height="17" viewBox="0 0 23 17" fill="none" xmlns="http://www.w3.org/2000/svg">
<path d="M22.2351 8.04939C20.874 6.7515 19.4388 5.673 17.9608 4.83995C17.4521 4.56313 16.9518 4.3322 16.4578 4.12356L19.3815 1.03641C19.6061 0.799246 19.6061 0.415034 19.3815 0.177872C19.1569 -0.0592905 18.793 -0.0592905 18.5684 0.177872L13.13 5.92023C13.1296 5.92075 13.1288 5.9209 13.1284 5.92142C13.1279 5.92194 13.1277 5.92268 13.1272 5.92319L6.93757 12.4589C6.93701 12.4595 6.93631 12.4602 6.93567 12.4609L3.61841 15.9636C3.3938 16.2007 3.3938 16.5849 3.61841 16.8221C3.7307 16.9407 3.87782 17 4.02494 17C4.17206 17 4.31918 16.9407 4.43149 16.8221L7.52465 13.5561C8.33822 13.8372 9.14303 14.0419 9.91253 14.1297C10.4213 14.1955 10.9193 14.2264 11.4062 14.2264C17.6879 14.2264 22.0813 9.13798 22.2778 8.90497C22.489 8.65594 22.4699 8.27351 22.2351 8.04939ZM13.4772 7.27075C13.6826 7.63984 13.7999 8.0585 13.7999 8.5C13.7999 8.62688 13.7898 8.7431 13.7831 8.83144C13.6438 9.90936 12.8352 10.7643 11.8374 10.9066C11.3448 10.9582 10.7994 10.8548 10.3389 10.5845L13.4772 7.27075ZM10.0439 12.9237C9.52619 12.8647 8.98979 12.7383 8.44744 12.5817L9.50423 11.4658C10.0832 11.9009 10.7714 12.1429 11.4999 12.1429C11.6572 12.1429 11.8004 12.1298 11.9677 12.1132C13.5001 11.8944 14.7152 10.612 14.9252 8.96663C14.9376 8.81544 14.9499 8.66483 14.9499 8.5C14.9499 7.73129 14.7205 7.00467 14.3083 6.39316L15.5661 5.0651C16.1722 5.29412 16.7948 5.57138 17.4274 5.9149C18.6538 6.60682 19.8565 7.48493 21.0122 8.53024C19.7094 9.84177 15.443 13.6251 10.0439 12.9237Z" fill="#999999"/>
<path d="M5.14019 12.3978C5.33953 12.3978 5.53269 12.2887 5.63938 12.0931C5.79773 11.8025 5.70284 11.4314 5.42712 11.2642C4.25017 10.5497 3.08725 9.61825 1.96534 8.49172C3.19451 7.25076 7.25376 3.68083 12.7118 4.33066C13.006 4.3692 13.3126 4.13085 13.3485 3.79704C13.3845 3.46383 13.1576 3.16262 12.842 3.12468C5.71519 2.25962 0.920906 7.8585 0.719875 8.09685C0.517728 8.33757 0.5284 8.70222 0.743461 8.9293C2.06248 10.3221 3.44551 11.4616 4.85438 12.3172C4.94422 12.3718 5.04304 12.3978 5.14019 12.3978Z" fill="#999999"/>
<path d="M8.07803 8.00616C8.03592 8.3382 8.25659 8.64414 8.57104 8.6892C8.59687 8.69276 8.62327 8.69453 8.64853 8.69453C8.9321 8.69453 9.17861 8.47337 9.21792 8.16861C9.35549 7.09069 10.1652 6.23571 11.1861 6.09044C11.5005 6.04538 11.7212 5.73944 11.6791 5.40741C11.6358 5.07478 11.3444 4.83821 11.0322 4.88683C9.49981 5.10563 8.28524 6.3881 8.07803 8.00616Z" fill="#999999"/>
</svg>
