<svg width="164" height="55" viewBox="0 0 164 55" fill="none" xmlns="http://www.w3.org/2000/svg">
<path d="M1.23964 37.31C3.70484 32.8238 9.13317 26.6217 11.1249 37.7036L13.9468 45.7572C14.3371 46.9892 16.049 49.4836 19.7747 49.6049C21.7378 49.5254 26.0303 50.0095 27.4958 52.5819C28.1065 53.6538 29.905 54.3676 32.2144 48.6472C35.5623 39.8145 43.652 22.9547 49.2277 26.1774C51.6111 27.1394 56.9431 28.4506 59.2034 25.9994C61.1062 26.3005 65.3022 28.1346 66.8632 33.0628C68.8552 36.4987 74.3849 39.5191 80.5672 24.113C82.8421 19.5966 88.2447 12.5714 91.6555 20.6009C92.4263 21.8933 94.671 24.4723 97.4834 24.4491C100.057 25.4415 105.228 28.0153 105.324 30.3707C107.837 31.7436 113.442 33.0593 115.751 27.3391C116.412 26.8586 126.333 8.53347 129.874 23.1369C130.704 27.7539 133.579 34.4888 138.437 24.4916C139.84 21.7881 143.619 16.8864 147.513 18.9067C148.945 19.7179 152.35 20.1387 154.515 15.3319L162.572 1.39261" stroke="#69C7F5" stroke-width="2"/>
</svg>
