<svg width="26" height="26" viewBox="0 0 26 26" fill="none" xmlns="http://www.w3.org/2000/svg">
<g clip-path="url(#clip0_1067_3488)">
<path fill-rule="evenodd" clip-rule="evenodd" d="M20.2923 1.44484C20.2082 1.07497 19.8793 0.8125 19.5 0.8125C19.1207 0.8125 18.7918 1.07497 18.7077 1.44484L18.2582 3.42182C18.0503 4.33623 17.3362 5.05026 16.4218 5.25817L14.4448 5.70773C14.075 5.79182 13.8125 6.12068 13.8125 6.5C13.8125 6.87932 14.075 7.20817 14.4448 7.29227L16.4218 7.74183C17.3362 7.94974 18.0503 8.66377 18.2582 9.5782L18.7077 11.5552C18.7918 11.925 19.1207 12.1875 19.5 12.1875C19.8793 12.1875 20.2082 11.925 20.2923 11.5552L20.7418 9.5782C20.9497 8.66377 21.6638 7.94974 22.5782 7.74183L24.5552 7.29227C24.925 7.20817 25.1875 6.87932 25.1875 6.5C25.1875 6.12068 24.925 5.79182 24.5552 5.70773L22.5782 5.25817C21.6638 5.05026 20.9497 4.33623 20.7418 3.42182L20.2923 1.44484ZM17.7281 6.5C18.4901 6.1111 19.1111 5.49014 19.5 4.7281C19.8889 5.49014 20.5099 6.1111 21.2719 6.5C20.5099 6.8889 19.8889 7.50986 19.5 8.2719C19.1111 7.50986 18.4901 6.8889 17.7281 6.5Z" fill="#BD96E4"/>
<path d="M8.9375 6.5C9.38624 6.5 9.75 6.86376 9.75 7.3125V24.375C9.75 24.8237 9.38624 25.1875 8.9375 25.1875C8.48876 25.1875 8.125 24.8237 8.125 24.375V7.3125C8.125 6.86376 8.48876 6.5 8.9375 6.5Z" fill="url(#paint0_linear_1067_3488)"/>
<path d="M2.4375 9.34375C2.4375 8.89501 2.07373 8.53125 1.625 8.53125C1.17627 8.53125 0.8125 8.89501 0.8125 9.34375V22.3438C0.8125 22.7925 1.17627 23.1562 1.625 23.1562C2.07373 23.1562 2.4375 22.7925 2.4375 22.3438V9.34375Z" fill="url(#paint1_linear_1067_3488)"/>
<path d="M6.09375 10.9688C6.09375 10.52 5.72999 10.1562 5.28125 10.1562C4.83251 10.1562 4.46875 10.52 4.46875 10.9688V20.7188C4.46875 21.1675 4.83251 21.5312 5.28125 21.5312C5.72999 21.5312 6.09375 21.1675 6.09375 20.7188V10.9688Z" fill="url(#paint2_linear_1067_3488)"/>
<path d="M13.4062 9.75C13.4062 9.30126 13.0425 8.9375 12.5938 8.9375C12.145 8.9375 11.7812 9.30126 11.7812 9.75V21.9375C11.7812 22.3862 12.145 22.75 12.5938 22.75C13.0425 22.75 13.4062 22.3862 13.4062 21.9375V9.75Z" fill="url(#paint3_linear_1067_3488)"/>
<path d="M16.25 11.7812C16.6987 11.7812 17.0625 12.145 17.0625 12.5938V19.0938C17.0625 19.5425 16.6987 19.9062 16.25 19.9062C15.8013 19.9062 15.4375 19.5425 15.4375 19.0938V12.5938C15.4375 12.145 15.8013 11.7812 16.25 11.7812Z" fill="url(#paint4_linear_1067_3488)"/>
</g>
<defs>
<linearGradient id="paint0_linear_1067_3488" x1="0.203124" y1="-4.49265" x2="22.0726" y2="16.5" gradientUnits="userSpaceOnUse">
<stop stop-color="#DA8BC1"/>
<stop offset="0.901177" stop-color="#BD96E4"/>
</linearGradient>
<linearGradient id="paint1_linear_1067_3488" x1="-7.10938" y1="-0.0716912" x2="9.66911" y2="20.508" gradientUnits="userSpaceOnUse">
<stop stop-color="#DA8BC1"/>
<stop offset="0.901177" stop-color="#BD96E4"/>
</linearGradient>
<linearGradient id="paint2_linear_1067_3488" x1="-3.45313" y1="3.46507" x2="8.5978" y2="22.4693" gradientUnits="userSpaceOnUse">
<stop stop-color="#DA8BC1"/>
<stop offset="0.901177" stop-color="#BD96E4"/>
</linearGradient>
<linearGradient id="paint3_linear_1067_3488" x1="3.85937" y1="0.8125" x2="19.5" y2="21.125" gradientUnits="userSpaceOnUse">
<stop stop-color="#DA8BC1"/>
<stop offset="0.901177" stop-color="#BD96E4"/>
</linearGradient>
<linearGradient id="paint4_linear_1067_3488" x1="7.51562" y1="7.00184" x2="14.6688" y2="22.7947" gradientUnits="userSpaceOnUse">
<stop stop-color="#DA8BC1"/>
<stop offset="0.901177" stop-color="#BD96E4"/>
</linearGradient>
<clipPath id="clip0_1067_3488">
<rect width="26" height="26" fill="white"/>
</clipPath>
</defs>
</svg>
