<svg width="22" height="22" viewBox="0 0 22 22" fill="none" xmlns="http://www.w3.org/2000/svg">
<path d="M11.0007 18.3333C10.4965 18.3333 10.084 17.9208 10.084 17.4167V4.58333C10.084 4.07916 10.4965 3.66666 11.0007 3.66666C11.5048 3.66666 11.9173 4.07916 11.9173 4.58333V17.4167C11.9173 17.9208 11.5048 18.3333 11.0007 18.3333Z" fill="#DBDBDB"/>
<path d="M6.41667 16.9033C5.9125 16.9033 5.5 16.4908 5.5 15.9867V6.01333C5.5 5.50916 5.9125 5.09666 6.41667 5.09666C6.92083 5.09666 7.33333 5.50916 7.33333 6.01333V15.9958C7.33333 16.5 6.92083 16.9125 6.41667 16.9125V16.9033Z" fill="#DBDBDB"/>
<path d="M19.2507 14.7675C18.7465 14.7675 18.334 14.355 18.334 13.8508V8.14917C18.334 7.645 18.7465 7.2325 19.2507 7.2325C19.7548 7.2325 20.1673 7.645 20.1673 8.14917V13.8508C20.1673 14.355 19.7548 14.7675 19.2507 14.7675Z" fill="#DBDBDB"/>
<path d="M2.75065 14.7675C2.24648 14.7675 1.83398 14.355 1.83398 13.8508V8.14917C1.83398 7.645 2.24648 7.2325 2.75065 7.2325C3.25482 7.2325 3.66732 7.645 3.66732 8.14917V13.8508C3.66732 14.355 3.25482 14.7675 2.75065 14.7675Z" fill="#DBDBDB"/>
<path d="M15.5827 16.9033C15.0785 16.9033 14.666 16.4908 14.666 15.9867V6.01333C14.666 5.50916 15.0785 5.09666 15.5827 5.09666C16.0868 5.09666 16.4993 5.50916 16.4993 6.01333V15.9958C16.4993 16.5 16.0868 16.9125 15.5827 16.9125V16.9033Z" fill="#DBDBDB"/>
</svg>
