<svg width="29" height="29" viewBox="0 0 29 29" fill="none" xmlns="http://www.w3.org/2000/svg">
<path fill-rule="evenodd" clip-rule="evenodd" d="M21.9852 1.56541C21.8941 1.16467 21.5378 0.88031 21.1268 0.88031C20.7159 0.88031 20.3596 1.16467 20.2685 1.56541L19.7814 3.70731C19.5561 4.698 18.7825 5.4716 17.7918 5.69686L15.6499 6.18392C15.2492 6.27503 14.9648 6.63132 14.9648 7.04228C14.9648 7.45324 15.2492 7.80954 15.6499 7.90064L17.7918 8.38771C18.7825 8.61297 19.5561 9.38656 19.7814 10.3773L20.2685 12.5192C20.3596 12.9199 20.7159 13.2043 21.1268 13.2043C21.5378 13.2043 21.8941 12.9199 21.9852 12.5192L22.4722 10.3773C22.6975 9.38656 23.4711 8.61297 24.4618 8.38771L26.6037 7.90064C27.0044 7.80954 27.2888 7.45324 27.2888 7.04228C27.2888 6.63132 27.0044 6.27503 26.6037 6.18392L24.4618 5.69686C23.4711 5.4716 22.6975 4.698 22.4722 3.70731L21.9852 1.56541ZM19.2071 7.04228C20.0327 6.62094 20.7055 5.94818 21.1268 5.12256C21.5482 5.94818 22.2209 6.62094 23.0465 7.04228C22.2209 7.46363 21.5482 8.13638 21.1268 8.962C20.7055 8.13638 20.0327 7.46363 19.2071 7.04228Z" fill="white"/>
<path d="M9.68302 7.0423C10.1692 7.0423 10.5633 7.4364 10.5633 7.92258V26.4085C10.5633 26.8947 10.1692 27.2888 9.68302 27.2888C9.19684 27.2888 8.80273 26.8947 8.80273 26.4085V7.92258C8.80273 7.4364 9.19684 7.0423 9.68302 7.0423Z" fill="white"/>
<path d="M2.64142 10.1233C2.64142 9.63708 2.24731 9.24298 1.76114 9.24298C1.27497 9.24298 0.880859 9.63708 0.880859 10.1233V24.2078C0.880859 24.6939 1.27497 25.0881 1.76114 25.0881C2.24731 25.0881 2.64142 24.6939 2.64142 24.2078V10.1233Z" fill="white"/>
<path d="M6.60236 11.8838C6.60236 11.3976 6.20826 11.0035 5.72208 11.0035C5.2359 11.0035 4.8418 11.3976 4.8418 11.8838V22.4472C4.8418 22.9334 5.2359 23.3275 5.72208 23.3275C6.20826 23.3275 6.60236 22.9334 6.60236 22.4472V11.8838Z" fill="white"/>
<path d="M14.5262 10.5634C14.5262 10.0772 14.1321 9.68311 13.6459 9.68311C13.1597 9.68311 12.7656 10.0772 12.7656 10.5634V23.7676C12.7656 24.2538 13.1597 24.6479 13.6459 24.6479C14.1321 24.6479 14.5262 24.2538 14.5262 23.7676V10.5634Z" fill="white"/>
<path d="M17.6068 12.7641C18.093 12.7641 18.4871 13.1582 18.4871 13.6444V20.6866C18.4871 21.1728 18.093 21.5669 17.6068 21.5669C17.1207 21.5669 16.7266 21.1728 16.7266 20.6866V13.6444C16.7266 13.1582 17.1207 12.7641 17.6068 12.7641Z" fill="white"/>
</svg>
