<svg width="34" height="34" viewBox="0 0 34 34" fill="none" xmlns="http://www.w3.org/2000/svg">
<path d="M10.7908 12.342L15.3312 9.044C15.8409 8.67099 16.4609 8.47947 17.0921 8.5C17.8621 8.5192 18.607 8.77782 19.2232 9.2399C19.8393 9.70199 20.2963 10.3446 20.5304 11.0783C20.7939 11.9043 21.0347 12.4624 21.2529 12.7528C21.9121 13.6323 22.7672 14.346 23.7503 14.8373C24.7335 15.3288 25.8177 15.584 26.9167 15.5833V18.4167C25.4537 18.4182 24.0086 18.0955 22.6853 17.4716C21.362 16.8477 20.1935 15.9381 19.2639 14.8084L18.2765 20.4113L21.1962 22.8622L24.3455 31.5152L21.6821 32.4842L18.7921 24.5452L13.9897 20.5148C13.5955 20.1966 13.294 19.7784 13.1163 19.3041C12.9387 18.8296 12.8914 18.3162 12.9796 17.8174L13.7007 13.7303L12.7416 14.4273L9.72832 18.5753L7.43616 16.9093L10.7667 12.325L10.7908 12.342ZM19.125 7.79167C18.3736 7.79167 17.653 7.49316 17.1216 6.9618C16.5902 6.43045 16.2917 5.70978 16.2917 4.95833C16.2917 4.20689 16.5902 3.48622 17.1216 2.95487C17.653 2.42351 18.3736 2.125 19.125 2.125C19.8766 2.125 20.5972 2.42351 21.1285 2.95487C21.6599 3.48622 21.9584 4.20689 21.9584 4.95833C21.9584 5.70978 21.6599 6.43045 21.1285 6.9618C20.5972 7.49316 19.8766 7.79167 19.125 7.79167ZM14.9147 26.4648L10.3616 31.8906L8.19124 30.0702L12.4072 25.0467L13.4641 21.9583L16.0013 24.0833L14.9147 26.4648Z" fill="#191F28"/>
</svg>
