<svg width="48" height="42" viewBox="0 0 48 42" fill="none" xmlns="http://www.w3.org/2000/svg">
<path d="M22.4592 25.428L22.0103 18.7185C21.9226 17.3685 21.4619 15.1865 22.4929 14.0896C23.2776 13.2459 25.1356 13.1008 25.6992 14.2702C26.1785 15.6444 26.2844 17.1212 26.0063 18.5497L25.4056 25.4567C25.3797 26.1067 25.2374 26.7469 24.9854 27.3467C24.8862 27.5407 24.7358 27.704 24.5504 27.8187C24.3651 27.9334 24.1519 27.9953 23.9339 27.9975C23.716 27.9998 23.5016 27.9424 23.3139 27.8315C23.1262 27.7207 22.9725 27.5606 22.8693 27.3686C22.6318 26.7472 22.4934 26.0923 22.4592 25.428ZM24.0134 34.6468C23.4812 34.6438 22.9702 34.4382 22.5843 34.0717C22.1984 33.7053 21.9666 33.2056 21.9361 32.6744C21.9055 32.1431 22.0786 31.6201 22.42 31.2119C22.7614 30.8037 23.2455 30.5409 23.7738 30.477C24.0576 30.4426 24.3454 30.4668 24.6195 30.548C24.8936 30.6292 25.1482 30.7657 25.3675 30.9491C25.5868 31.1326 25.7662 31.359 25.8946 31.6144C26.0231 31.8698 26.0978 32.1488 26.1142 32.4343C26.1306 32.7197 26.0883 33.0054 25.99 33.2739C25.8917 33.5423 25.7394 33.7878 25.5426 33.9951C25.3457 34.2025 25.1085 34.3672 24.8455 34.4793C24.5824 34.5914 24.2993 34.6484 24.0134 34.6468Z" fill="#FEB63D"/>
<path d="M42.8879 41.25H5.1115C4.22395 41.2363 3.35527 40.9916 2.5911 40.54C1.82693 40.0883 1.19365 39.4454 0.753667 38.6744C0.313687 37.9035 0.0822027 37.0312 0.0820313 36.1435C0.08186 35.2559 0.313007 34.3835 0.752689 33.6124L19.6628 3.2998C20.1222 2.56137 20.7625 1.95246 21.5231 1.53075C22.2837 1.10904 23.1393 0.888501 24.009 0.890022C24.8786 0.891543 25.7335 1.11508 26.4926 1.53944C27.2517 1.96381 27.8899 2.57495 28.3467 3.31498L47.2264 33.5769C47.6735 34.3476 47.9113 35.2217 47.9162 36.1127C47.9211 37.0036 47.693 37.8803 47.2545 38.6559C46.816 39.4314 46.1823 40.0788 45.4163 40.5339C44.6503 40.9889 43.7787 41.2358 42.8879 41.25ZM22.5468 5.05142L3.63831 35.364C3.49888 35.6214 3.42824 35.9105 3.43324 36.2032C3.43824 36.4959 3.51871 36.7824 3.66686 37.0349C3.815 37.2874 4.02582 37.4974 4.2789 37.6446C4.53198 37.7918 4.81876 37.8711 5.1115 37.875H42.8879C43.1838 37.8705 43.4735 37.7889 43.7283 37.6383C43.9831 37.4878 44.1942 37.2734 44.3409 37.0163C44.4876 36.7592 44.5647 36.4684 44.5647 36.1724C44.5647 35.8765 44.4875 35.5856 44.3408 35.3285C44.3408 35.3285 25.4611 5.06154 25.4526 5.05142C25.2972 4.80678 25.0826 4.60534 24.8286 4.46578C24.5746 4.32621 24.2895 4.25303 23.9997 4.25303C23.7099 4.25303 23.4248 4.32621 23.1708 4.46578C22.9168 4.60534 22.7021 4.80678 22.5468 5.05142Z" fill="#FEB63D"/>
</svg>
