<svg width="32" height="32" viewBox="0 0 32 32" fill="none" xmlns="http://www.w3.org/2000/svg">
<path d="M4.25738 0.33C4.44738 0.12 4.71538 0 4.99938 0H26.9994C27.2814 0 27.5514 0.12 27.7414 0.33C27.9294 0.538 28.0234 0.818 27.9954 1.1L24.9954 31.1C24.9434 31.612 24.5134 32 23.9994 32H7.99938C7.48538 32 7.05538 31.612 7.00538 31.1L4.00538 1.1C3.97538 0.818 4.06738 0.538 4.25738 0.33ZM6.91938 10.156C9.46138 10.978 12.7694 11.358 15.3654 9.228C18.6194 6.558 22.6074 7.018 25.3114 7.822L25.8934 2H6.10538L6.91938 10.156Z" fill="#191F28"/>
</svg>
