<svg width="41" height="26" viewBox="0 0 41 26" fill="none" xmlns="http://www.w3.org/2000/svg">
<path d="M36.0208 12.6012L35.6522 14.0719C35.0695 16.3845 33.445 18.6398 31.5538 20.0974L27.6555 22.8657V24.4981C27.6555 24.8886 27.3364 25.2053 26.9429 25.2053H20.4054V21.1018C20.4054 21.1018 19.9794 16.4285 24.4532 13.7296L29.8016 10.3224C30.0725 10.1493 30.3795 10.0647 30.6841 10.0647C31.1069 10.0647 31.5256 10.2275 31.8416 10.5409C32.4677 11.1632 32.4806 12.1683 31.8697 12.8058L28.2679 15.625" stroke="#5C5C5C" stroke-width="1.3" stroke-miterlimit="10" stroke-linecap="round" stroke-linejoin="round"/>
<path d="M32.1602 10.9263L34.6197 4.37985C35.2458 2.93349 36.5118 3.20237 36.5118 3.20237C37.4916 3.38024 38.0188 4.17726 37.9071 5.06997L37.7609 5.65342" stroke="#5C5C5C" stroke-width="1.3" stroke-miterlimit="10" stroke-linecap="round" stroke-linejoin="round"/>
<path d="M12.5205 15.6252L8.9187 12.8059C8.30786 12.1685 8.32068 11.1633 8.94681 10.5411C9.26272 10.2275 9.68144 10.0648 10.1043 10.0648C10.4089 10.0648 10.7159 10.1494 10.9868 10.3225L16.3351 13.7298C20.8089 16.4286 20.3829 21.1019 20.3829 21.1019V25.2053H13.8454C13.4519 25.2053 13.1329 24.8886 13.1329 24.4981V22.8656L9.23461 20.0974C7.34332 18.6399 5.71886 16.3846 5.13613 14.0718L2.88001 5.06997C2.7683 4.17726 3.29553 3.38032 4.27537 3.20237C4.27537 3.20237 5.54133 2.93349 6.16746 4.37985L8.62698 10.9263" stroke="#5C5C5C" stroke-width="1.3" stroke-miterlimit="10" stroke-linecap="round" stroke-linejoin="round"/>
<ellipse cx="36.8848" cy="9.13634" rx="0.800781" ry="0.79479" fill="#5C5C5C"/>
<path d="M23.119 9.9998H17.667C17.2684 9.9998 16.9453 9.6791 16.9453 9.28353V7.81373C16.9453 6.72415 17.8353 5.84082 18.9331 5.84082H21.8529C22.9507 5.84082 23.8407 6.72415 23.8407 7.81373V9.28353C23.8407 9.6791 23.5176 9.9998 23.119 9.9998Z" stroke="#5C5C5C" stroke-width="1.3" stroke-miterlimit="10" stroke-linecap="round" stroke-linejoin="round"/>
<path d="M20.3931 5.84091C21.6889 5.84091 22.7393 4.79833 22.7393 3.51225C22.7393 2.22617 21.6889 1.18359 20.3931 1.18359C19.0973 1.18359 18.0469 2.22617 18.0469 3.51225C18.0469 4.79833 19.0973 5.84091 20.3931 5.84091Z" stroke="#5C5C5C" stroke-width="1.3" stroke-miterlimit="10" stroke-linecap="round" stroke-linejoin="round"/>
</svg>
